<svg id="svg" version="1.1" xmlns="http://www.w3.org/2000/svg" xmlns:xlink="http://www.w3.org/1999/xlink" width="400" height="77.36" viewBox="0, 0, 400,77.36"><g id="svgg"><path id="path0" d="M0.000 38.681 C 0.000 62.484,0.060 77.340,0.155 77.306 C 0.240 77.275,5.867 71.719,12.659 64.958 L 25.007 52.666 30.101 57.750 C 32.902 60.546,35.275 62.833,35.373 62.833 C 35.558 62.833,63.000 35.511,63.000 35.327 C 63.000 35.186,52.718 24.934,52.507 24.863 C 52.415 24.833,48.522 28.631,43.855 33.303 L 35.371 41.799 30.310 36.735 C 27.527 33.950,25.182 31.671,25.098 31.669 C 25.014 31.668,22.671 33.965,19.890 36.773 L 14.833 41.880 14.833 28.356 L 14.833 14.833 44.083 14.833 L 73.333 14.833 73.333 7.417 L 73.333 0.000 36.667 0.000 L 0.000 0.000 0.000 38.681 " stroke="none" fill="#1d93d3" fill-rule="evenodd"></path><path id="path1" d="M260.625 20.792 C 260.648 28.194,260.685 41.150,260.708 49.583 C 260.731 58.017,260.815 65.049,260.894 65.210 C 261.097 65.627,272.472 65.584,272.333 65.167 C 272.287 65.029,272.210 51.979,272.161 36.167 C 272.112 20.354,272.056 7.398,272.036 7.375 C 272.016 7.352,269.431 7.333,266.292 7.333 L 260.583 7.333 260.625 20.792 M92.375 36.542 L 92.417 65.417 98.542 65.460 L 104.667 65.504 104.667 53.753 L 104.667 42.002 116.708 41.959 L 128.750 41.917 128.794 36.458 L 128.838 31.000 116.752 31.000 L 104.667 31.000 104.667 24.750 L 104.667 18.500 117.500 18.500 L 130.333 18.500 130.333 13.083 L 130.333 7.667 111.333 7.667 L 92.332 7.667 92.375 36.542 M278.833 16.667 L 278.833 21.833 284.750 21.833 L 290.667 21.833 290.667 16.667 L 290.667 11.500 284.750 11.500 L 278.833 11.500 278.833 16.667 M339.775 17.958 C 339.717 18.577,339.669 19.766,339.668 20.599 C 339.667 21.433,339.618 22.802,339.558 23.641 L 339.450 25.167 336.808 25.167 L 334.167 25.167 334.167 30.000 L 334.167 34.833 336.824 34.833 L 339.481 34.833 339.548 46.125 C 339.612 56.947,339.629 57.471,339.963 58.718 C 340.842 61.991,343.129 64.274,346.556 65.298 C 348.802 65.970,358.675 65.799,359.857 65.068 C 359.936 65.020,360.000 62.952,360.000 60.473 L 360.000 55.965 359.292 56.061 C 355.660 56.556,352.848 56.319,352.032 55.451 C 351.076 54.433,351.088 54.564,351.034 44.292 L 350.985 34.833 355.659 34.833 L 360.333 34.833 360.333 30.000 L 360.333 25.167 355.583 25.167 L 350.833 25.167 350.833 21.000 L 350.833 16.833 345.357 16.833 L 339.882 16.833 339.775 17.958 M147.907 24.339 C 138.455 25.067,132.611 30.168,132.447 37.833 L 132.417 39.250 137.738 39.250 L 143.059 39.250 143.354 38.050 C 144.258 34.373,145.771 33.406,150.583 33.428 C 155.463 33.451,157.085 34.676,157.286 38.489 L 157.382 40.307 153.233 40.214 C 136.775 39.846,129.124 45.400,130.639 56.615 C 131.491 62.920,135.642 65.573,144.667 65.580 C 150.829 65.584,153.303 65.015,156.219 62.923 C 157.580 61.946,157.666 61.959,157.668 63.139 C 157.669 63.943,157.949 64.925,158.268 65.244 C 158.543 65.520,168.837 65.647,168.830 65.375 C 168.828 65.306,168.708 64.650,168.563 63.917 C 168.342 62.801,168.278 60.302,168.170 48.583 C 168.023 32.737,168.064 33.211,166.644 30.729 C 163.948 26.018,156.977 23.640,147.907 24.339 M233.655 24.334 C 225.382 24.967,220.392 28.411,218.684 34.667 C 218.279 36.150,217.931 38.998,218.131 39.198 C 218.208 39.275,220.623 39.318,223.496 39.294 L 228.721 39.250 228.933 38.209 C 229.618 34.853,231.378 33.560,235.500 33.387 C 240.719 33.168,243.000 34.746,243.000 38.573 L 243.000 40.254 237.708 40.252 C 231.118 40.250,227.381 40.812,224.167 42.290 C 223.662 42.522,222.762 42.937,222.167 43.212 C 217.587 45.327,215.082 51.667,216.435 57.717 C 217.606 62.954,221.862 65.497,229.675 65.627 C 236.101 65.735,239.636 64.871,242.519 62.488 L 243.287 61.852 243.398 63.048 C 243.460 63.706,243.639 64.508,243.796 64.830 L 244.083 65.417 249.375 65.461 C 252.633 65.488,254.667 65.444,254.667 65.347 C 254.667 65.260,254.599 65.010,254.516 64.792 C 254.048 63.562,253.948 60.936,253.918 49.083 C 253.881 34.613,253.810 33.782,252.371 30.857 C 250.064 26.169,242.790 23.634,233.655 24.334 M310.333 24.278 C 300.034 25.301,294.974 30.619,296.419 38.904 C 297.563 45.461,301.524 47.785,315.750 50.244 C 320.437 51.055,322.423 52.853,321.191 55.169 C 320.372 56.710,318.635 57.239,314.417 57.235 C 308.762 57.230,307.200 56.534,306.801 53.843 L 306.626 52.667 301.124 52.667 L 295.621 52.667 295.739 54.292 C 296.370 62.966,301.245 66.001,314.544 66.000 C 327.255 65.998,332.834 61.999,332.444 53.167 C 332.151 46.544,329.125 43.428,321.254 41.643 C 320.427 41.455,317.800 40.867,315.417 40.336 C 309.516 39.020,308.732 38.772,307.966 37.976 C 305.293 35.202,309.128 32.831,315.246 33.476 C 318.689 33.840,320.076 34.667,320.249 36.462 C 320.308 37.079,320.387 37.677,320.423 37.792 C 320.475 37.953,321.725 38.000,325.933 38.000 L 331.376 38.000 331.258 36.458 C 330.823 30.783,328.711 27.812,323.648 25.755 C 320.631 24.529,314.574 23.857,310.333 24.278 M377.833 24.268 C 369.416 25.283,364.718 28.715,364.013 34.366 C 363.137 41.391,366.264 46.068,373.167 48.056 C 374.684 48.493,383.408 50.333,383.961 50.333 C 386.030 50.333,388.875 52.116,389.088 53.547 C 389.435 55.883,387.497 57.073,383.000 57.287 C 377.039 57.571,374.333 56.314,374.333 53.260 L 374.333 52.667 368.833 52.667 L 363.333 52.667 363.335 53.875 C 363.344 62.531,368.803 66.016,382.333 66.002 C 394.817 65.990,400.000 62.371,400.000 53.667 C 400.000 49.345,399.484 47.930,397.022 45.494 C 394.551 43.051,393.245 42.570,383.000 40.333 C 375.728 38.745,374.662 38.173,374.874 35.967 C 375.062 34.016,378.347 32.995,382.891 33.474 C 386.535 33.859,387.799 34.727,388.086 37.042 L 388.205 38.000 393.519 38.000 L 398.833 38.000 398.830 36.875 C 398.810 30.002,394.825 25.941,386.755 24.567 C 385.308 24.320,379.117 24.113,377.833 24.268 M194.804 24.583 C 191.294 25.174,188.014 26.936,186.477 29.058 L 186.000 29.717 186.000 27.442 L 186.000 25.167 180.500 25.167 L 175.000 25.167 175.000 45.333 L 175.000 65.500 180.667 65.500 L 186.333 65.500 186.333 52.870 C 186.333 38.767,186.296 39.265,187.498 37.419 C 189.798 33.889,196.461 33.401,198.708 36.598 C 199.954 38.371,199.904 37.766,199.999 52.167 C 200.045 59.271,200.144 65.177,200.218 65.292 C 200.322 65.451,201.642 65.500,205.885 65.500 L 211.417 65.500 211.375 51.125 C 211.324 33.713,211.295 33.339,209.725 30.196 C 207.429 25.599,201.660 23.429,194.804 24.583 M279.000 44.906 C 279.000 57.328,279.060 64.803,279.163 65.072 L 279.325 65.500 285.015 65.500 L 290.706 65.500 290.605 65.125 C 290.550 64.919,290.504 55.844,290.502 44.958 L 290.500 25.167 284.750 25.167 L 279.000 25.167 279.000 44.906 M156.648 47.773 L 157.545 47.885 157.445 49.151 C 156.997 54.824,152.579 58.114,146.438 57.349 C 139.803 56.522,139.969 49.788,146.667 48.069 C 148.679 47.553,153.691 47.404,156.648 47.773 M242.395 47.772 L 243.374 47.884 243.263 48.984 C 242.744 54.108,239.732 56.968,234.379 57.419 C 229.224 57.853,226.413 55.249,227.762 51.290 C 228.775 48.317,234.704 46.892,242.395 47.772 M17.824 59.792 L 17.250 60.417 17.875 59.842 C 18.219 59.526,18.500 59.245,18.500 59.217 C 18.500 59.090,18.359 59.210,17.824 59.792 " stroke="none" fill="#121528" fill-rule="evenodd"></path></g></svg>