<svg width="132" height="22" viewBox="0 0 132 22" fill="none" xmlns="http://www.w3.org/2000/svg">
  <path d="M129.81 10.7939C128.664 10.7939 127.742 9.86591 127.742 8.71091C127.742 7.55691 128.664 6.62891 129.81 6.62891C130.954 6.62891 131.876 7.55691 131.876 8.71091C131.854 9.86591 130.932 10.7939 129.81 10.7939ZM129.81 6.85391C128.797 6.85391 127.989 7.71491 127.989 8.70991C127.989 9.72891 128.82 10.5669 129.81 10.5669C130.797 10.5669 131.629 9.70791 131.629 8.70991C131.629 7.71491 130.797 6.85391 129.81 6.85391ZM130.348 9.79791L129.788 8.86891H129.404V9.79791H129.156V7.55691H129.876C130.26 7.55691 130.574 7.82791 130.574 8.21391C130.574 8.55391 130.348 8.75791 130.057 8.84791L130.641 9.79891L130.348 9.79791ZM129.854 7.80691H129.404V8.62091H129.854C130.123 8.62091 130.328 8.46191 130.328 8.21291C130.327 7.98791 130.122 7.80691 129.854 7.80691Z" fill="white"/>
  <path d="M100.24 6.69678C100.171 6.69678 100.147 6.71978 99.52 6.74178C98.8679 6.76378 97.676 6.78678 95.2027 6.78678H94.0584H93.3606H92.2153C89.7649 6.78678 88.5541 6.76378 87.9 6.74178C87.2708 6.71978 87.2499 6.69678 87.1815 6.69678C86.8887 6.69678 86.8887 6.87878 86.8887 7.44478V9.63978C86.8887 9.75278 86.8887 10.0478 87.1358 10.0478C87.4058 10.0478 87.4504 9.95678 87.8782 9.07378C88.1471 8.46278 88.7089 7.57878 91.9473 7.53478C92.2818 7.55678 92.4178 7.62478 92.4178 8.14578V19.2858C92.4178 20.2138 92.4178 20.8698 91.2278 20.9378C90.7326 20.9828 90.3951 21.0038 90.3951 21.3438C90.3951 21.7068 90.7097 21.7068 90.8884 21.7068C91.34 21.7068 93.2703 21.6168 93.6763 21.6168C94.4633 21.6168 95.6979 21.7068 96.486 21.7068C96.6626 21.7068 96.9802 21.7068 96.9802 21.3438C96.9802 20.9828 96.6428 20.9588 96.1475 20.9378C94.9556 20.8698 94.9556 20.2128 94.9556 19.2388V8.32678C94.9556 7.69178 95.025 7.57878 95.7198 7.53478C98.6863 7.62478 99.2242 8.46278 99.4952 9.05178C99.9219 9.93478 99.9676 10.0248 100.238 10.0248C100.486 10.0248 100.486 9.73078 100.486 9.61878V7.42078C100.53 6.87878 100.53 6.69678 100.24 6.69678Z" fill="white"/>
  <path d="M74.5564 17.9043C74.3321 17.9043 74.2875 17.9943 73.8597 18.8323C72.8047 20.8693 71.3438 20.8693 70.2878 20.8693C68.2859 20.8693 67.7917 20.5983 67.7917 18.8983V14.7773C67.7917 14.0543 67.9713 14.0543 69.1176 14.0543C71.0718 14.0543 71.7239 14.0753 72.24 15.9333C72.3521 16.3863 72.5089 16.4993 72.6886 16.4993C72.9834 16.4993 72.9834 16.1593 72.9834 16.0243C72.9834 15.8403 72.9129 15.0043 72.9129 14.8213C72.9129 14.3033 73.0727 11.8353 73.0727 11.4953C73.0727 11.2243 72.9615 11.1553 72.8037 11.1553C72.6906 11.1553 72.5546 11.2003 72.4434 11.5183C72.0157 12.7863 71.7924 13.3073 69.1633 13.3073C67.7927 13.3073 67.7927 13.1253 67.7927 12.3543V8.89229C67.7927 7.69229 67.881 7.53329 69.072 7.53329C72.4425 7.53329 73.027 8.44029 73.298 9.07329C73.7247 9.95629 73.7694 10.0463 74.0384 10.0463C74.2855 10.0463 74.2855 9.75229 74.2855 9.63829V7.44429C74.2855 6.90129 74.2855 6.69629 73.9927 6.69629C73.9252 6.69629 73.9034 6.71929 73.2742 6.74129C72.6231 6.76329 71.4093 6.78629 68.9598 6.78629H67.8135C65.7918 6.78629 64.7795 6.76329 64.2396 6.74129C63.7235 6.71929 63.7007 6.69629 63.655 6.69629C63.4982 6.69629 63.1836 6.69629 63.1836 7.03629C63.1836 7.39829 63.521 7.42129 64.0381 7.44429C65.2281 7.51229 65.2281 8.16829 65.2281 9.14329V19.2643C65.2281 20.2373 65.2281 20.8933 64.0381 20.9613C63.5419 21.0063 63.1836 21.0293 63.1836 21.3693C63.1836 21.7303 63.4982 21.7303 63.6778 21.7303C63.8357 21.7303 64.0381 21.7093 64.4202 21.6853C64.8023 21.6613 65.3859 21.6383 66.3754 21.6383H66.6672C66.8022 21.6383 67.9277 21.6613 69.2735 21.6853C70.6441 21.7063 72.3065 21.7303 73.5193 21.7303C74.218 21.7303 74.4413 21.4593 74.4631 21.0053C74.5316 20.1223 74.8016 18.5833 74.8016 18.2673C74.8274 18.1073 74.7589 17.9043 74.5564 17.9043Z" fill="white"/>
  <path d="M113.362 17.9043C113.136 17.9043 113.092 17.9943 112.664 18.8323C111.608 20.8693 110.147 20.8693 109.091 20.8693C107.09 20.8693 106.596 20.5983 106.596 18.8983V14.7773C106.596 14.0543 106.777 14.0543 107.921 14.0543C109.877 14.0543 110.53 14.0753 111.045 15.9333C111.156 16.3863 111.315 16.4993 111.493 16.4993C111.786 16.4993 111.786 16.1593 111.786 16.0243C111.786 15.8403 111.719 15.0043 111.719 14.8213C111.719 14.3033 111.875 11.8353 111.875 11.4953C111.875 11.2243 111.765 11.1553 111.607 11.1553C111.494 11.1553 111.361 11.2003 111.25 11.5183C110.821 12.7863 110.597 13.3073 107.967 13.3073C106.597 13.3073 106.597 13.1253 106.597 12.3543V8.89229C106.597 7.69229 106.687 7.53329 107.878 7.53329C111.249 7.53329 111.831 8.44029 112.102 9.07329C112.53 9.95629 112.573 10.0463 112.843 10.0463C113.09 10.0463 113.09 9.75229 113.09 9.63829V7.44429C113.09 6.90129 113.09 6.69629 112.798 6.69629C112.731 6.69629 112.708 6.71929 112.078 6.74129C111.428 6.76329 110.213 6.78629 107.765 6.78629H106.618C104.596 6.78629 103.585 6.76329 103.043 6.74129C102.527 6.71929 102.504 6.69629 102.462 6.69629C102.303 6.69629 101.986 6.69629 101.986 7.03629C101.986 7.39829 102.325 7.42129 102.841 7.44429C104.031 7.51229 104.031 8.16829 104.031 9.14329V19.2643C104.031 20.2373 104.031 20.8933 102.841 20.9613C102.347 21.0063 101.986 21.0293 101.986 21.3693C101.986 21.7303 102.302 21.7303 102.481 21.7303C102.639 21.7303 102.841 21.7093 103.224 21.6853C103.604 21.6623 104.189 21.6383 105.178 21.6383H105.473C105.607 21.6383 106.727 21.6613 108.078 21.6853C109.449 21.7063 111.113 21.7303 112.326 21.7303C113.022 21.7303 113.246 21.4593 113.269 21.0053C113.335 20.1223 113.606 18.5833 113.606 18.2673C113.63 18.1073 113.565 17.9043 113.362 17.9043Z" fill="white"/>
  <path d="M82.0383 12.4693C80.106 11.6563 78.6907 11.0433 78.6907 9.32234C78.6907 8.37234 79.4559 6.99134 81.3426 7.01334C83.3643 7.03534 83.7921 8.37234 84.0848 9.32234C84.331 10.0703 84.4223 10.2283 84.6694 10.2283C85.0059 10.2283 85.0059 10.0243 85.0059 9.50334C85.0059 7.35234 85.0059 7.12734 84.7121 6.96834C84.3766 6.78634 82.9395 6.40234 81.5461 6.40234C78.4674 6.40234 76.7593 8.34934 76.7593 10.6123C76.7593 13.1943 78.6679 14.1683 80.6459 15.0283C82.3976 15.8423 84.0402 16.7703 84.0402 18.6733C84.0402 20.6443 82.1287 21.3213 81.1193 21.3213C79.3894 21.3213 77.727 19.8503 77.2764 17.7213C77.2327 17.4943 77.1861 17.2463 76.9846 17.2463C76.6908 17.2463 76.671 17.5863 76.671 17.6743C76.6482 18.5593 76.7603 19.6003 76.807 19.9163C76.8725 20.5253 76.9628 21.0253 77.2337 21.2073C77.6585 21.5233 78.8733 21.9983 80.76 21.9983C83.9965 21.9983 85.9745 19.7363 85.9745 17.0193C85.9487 14.2583 83.409 13.0593 82.0383 12.4693Z" fill="white"/>
  <path d="M24.8734 6.40186C20.2226 6.40186 16.6934 9.77586 16.6934 14.1679C16.6934 18.8319 20.6027 21.9999 24.8059 21.9999C28.8949 21.9999 32.8728 18.6719 32.8728 13.9409C32.8946 9.72886 29.3673 6.40186 24.8734 6.40186ZM25.0074 21.3439C21.8165 21.3439 19.5249 17.6099 19.5249 13.6699C19.5249 10.2049 21.6597 7.08186 24.6034 7.08186C28.3778 7.08186 30.0631 11.1579 30.0631 14.0549C30.0631 17.5629 28.3104 21.3439 25.0074 21.3439Z" fill="white"/>
  <path d="M15.1889 0.85498C15.1443 0.85498 15.1214 0.89998 14.1994 0.92298C13.3012 0.94498 11.5038 0.98998 7.93092 0.98998H7.19053C3.79723 0.98998 2.53877 0.94398 1.66241 0.92298C0.80788 0.87798 0.763218 0.85498 0.696722 0.85498C0.449594 0.85498 0 0.854981 0 1.33098C0 1.80598 0.517083 1.85198 1.23663 1.91998C2.9437 2.03298 2.9437 2.96098 2.9437 4.38698V13.715V18.719C2.9437 19.873 2.9437 20.666 1.48277 20.756C0.876361 20.824 0.471429 20.846 0.471429 21.254C0.471429 21.684 0.853534 21.684 1.07783 21.684C1.64057 21.684 4.0662 21.573 4.56045 21.573C5.52713 21.573 7.10021 21.684 8.0659 21.684C8.29119 21.684 8.6723 21.684 8.6723 21.254C8.6723 20.801 8.26836 20.777 7.63913 20.756C6.1782 20.666 6.1782 19.873 6.1782 18.674V13.736V13.353C6.1782 12.378 6.1782 11.972 6.73994 11.835C7.09922 11.745 8.69513 11.745 9.70547 11.745C10.56 11.745 12.7623 11.745 13.2337 13.624C13.3012 13.806 13.5265 14.688 13.6149 14.938C13.6823 15.116 13.8173 15.502 14.1548 15.481C14.5587 15.458 14.5587 15.073 14.5587 14.823L14.4237 13.194C14.3562 12.401 14.3562 11.813 14.3562 11.497C14.3562 10.975 14.4694 8.61998 14.4694 8.14498C14.4694 7.80498 14.3562 7.57898 14.0654 7.55498C13.7498 7.53298 13.593 7.82598 13.5265 8.11998C13.0988 9.90898 12.6035 10.679 9.81862 10.679C9.30253 10.679 7.25702 10.679 6.73994 10.613C6.29134 10.545 6.20202 10.5 6.20202 8.64398V3.79798C6.20202 2.16798 6.78659 2.10098 7.95374 2.10098C13.3022 2.10098 13.7518 2.84798 14.7622 5.15698C14.8971 5.45098 15.0311 5.85898 15.4142 5.85898C15.7963 5.85898 15.7963 5.31598 15.7963 5.20198V1.48898C15.7735 1.03698 15.7298 0.85498 15.1889 0.85498Z" fill="white"/>
  <path d="M46.7596 20.9818C46.0857 20.8918 45.7701 20.2788 45.2759 19.4408L42.9614 15.3238C42.4225 14.3258 42.1317 14.1678 41.8161 13.9858C42.625 13.8278 45.0744 13.2398 45.0744 10.4308C45.0744 9.59383 44.7141 6.67383 40.513 6.67383C39.7934 6.67383 36.6482 6.76383 35.9962 6.76383C35.7044 6.76383 34.5362 6.67383 34.31 6.67383C33.5239 6.67383 33.4336 6.67383 33.4336 7.01283C33.4336 7.35283 33.771 7.37483 34.2881 7.39883C35.4553 7.46583 35.4553 8.12283 35.4553 9.09783V19.2638C35.4553 20.2578 35.4553 20.8928 34.2881 20.9848C33.7929 21.0058 33.4336 21.0298 33.4336 21.3698C33.4336 21.7308 33.7492 21.7098 33.9288 21.7098C34.3556 21.7098 36.288 21.6198 36.6919 21.6198C36.7822 21.6198 39.0967 21.7098 39.5453 21.7098C39.7249 21.7098 40.0405 21.7308 40.0405 21.3918C40.0405 21.0308 39.7031 21.0068 39.186 20.9858C37.996 20.9158 37.996 20.2588 37.996 19.2648V14.9618C37.996 14.5558 38.0407 14.4188 38.4456 14.4188C39.5244 14.4188 39.6376 14.5088 40.1537 15.5518L43.0289 21.0068C43.2979 21.5048 43.3882 21.7318 43.8149 21.7318C44.0402 21.7318 46.6465 21.7318 46.9383 21.7318C47.0951 21.7318 47.3422 21.6868 47.3422 21.4368C47.3889 21.1638 47.2529 21.0718 46.7596 20.9818ZM39.2088 13.7828C38.0189 13.7828 38.0189 13.7358 38.0189 12.8998V8.86983C38.0189 7.94083 38.0407 7.35283 39.1423 7.35283C42.0851 7.35283 42.4225 9.91083 42.4225 10.7718C42.4225 13.7828 40.0634 13.7828 39.2088 13.7828Z" fill="white"/>
  <path d="M61.6796 20.9821C61.0067 20.8921 60.691 20.2791 60.1958 19.4411L57.8813 15.3241C57.3424 14.3261 57.0516 14.1681 56.737 13.9861C57.5449 13.8281 59.9943 13.2401 59.9943 10.4311C59.9943 9.59407 59.635 6.67407 55.4339 6.67407C54.7133 6.67407 51.5692 6.76407 50.9161 6.76407C50.6243 6.76407 49.4562 6.67407 49.2309 6.67407C48.4438 6.67407 48.3535 6.67407 48.3535 7.01307C48.3535 7.35307 48.691 7.37507 49.208 7.39907C50.3762 7.46607 50.3762 8.12307 50.3762 9.09807V19.2641C50.3762 20.2581 50.3762 20.8931 49.208 20.9851C48.7128 21.0061 48.3535 21.0301 48.3535 21.3701C48.3535 21.7311 48.6691 21.7101 48.8498 21.7101C49.2765 21.7101 51.2079 21.6201 51.6118 21.6201C51.7021 21.6201 54.0176 21.7101 54.4662 21.7101C54.6478 21.7101 54.9605 21.7311 54.9605 21.3921C54.9605 21.0311 54.623 21.0071 54.1069 20.9861C52.9159 20.9161 52.916 20.2591 52.916 19.2651V14.9621C52.916 14.5561 52.9616 14.4191 53.3646 14.4191C54.4444 14.4191 54.5565 14.5091 55.0726 15.5521L57.9488 21.0071C58.2178 21.5051 58.3071 21.7321 58.7349 21.7321C58.9592 21.7321 61.5664 21.7321 61.8572 21.7321C62.015 21.7321 62.2621 21.6871 62.2621 21.4371C62.287 21.1641 62.1748 21.0721 61.6796 20.9821ZM54.1298 13.7831C52.9378 13.7831 52.9378 13.7361 52.9378 12.9001V8.87007C52.9378 7.94107 52.9606 7.35307 54.0613 7.35307C57.004 7.35307 57.3434 9.91107 57.3434 10.7721C57.3206 13.7831 54.9843 13.7831 54.1298 13.7831Z" fill="white"/>
  <path d="M128.281 20.9823C127.607 20.8923 127.292 20.2793 126.798 19.4413L124.505 15.3453C123.965 14.3493 123.674 14.1913 123.361 14.0093C124.168 13.8493 126.619 13.2613 126.619 10.4543C126.619 9.61729 126.259 6.69629 122.056 6.69629C121.336 6.69629 118.191 6.78729 117.54 6.78729C117.247 6.78729 116.078 6.69629 115.855 6.69629C115.068 6.69629 114.979 6.69629 114.979 7.03629C114.979 7.37529 115.315 7.39829 115.831 7.42129C116.999 7.48829 116.999 8.14629 116.999 9.11929V19.2853C116.999 20.2793 116.999 20.9143 115.831 21.0043C115.337 21.0293 114.979 21.0513 114.979 21.3913C114.979 21.7523 115.291 21.7313 115.473 21.7313C115.9 21.7313 117.832 21.6393 118.235 21.6393C118.326 21.6393 120.641 21.7313 121.089 21.7313C121.27 21.7313 121.583 21.7523 121.583 21.4153C121.583 21.0523 121.248 21.0303 120.73 21.0053C119.541 20.9393 119.541 20.2803 119.541 19.2863V14.9853C119.541 14.5753 119.584 14.4403 119.989 14.4403C121.068 14.4403 121.181 14.5323 121.698 15.5733L124.573 21.0303C124.842 21.5283 124.932 21.7533 125.359 21.7533C125.586 21.7533 128.191 21.7533 128.482 21.7533C128.639 21.7533 128.886 21.7083 128.886 21.4583C128.911 21.1643 128.797 21.0723 128.281 20.9823ZM120.731 13.7833C119.542 13.7833 119.542 13.7363 119.542 12.9003V8.87029C119.542 7.94129 119.564 7.35329 120.663 7.35329C123.609 7.35329 123.946 9.91129 123.946 10.7723C123.945 13.7833 121.584 13.7833 120.731 13.7833Z" fill="white"/>
</svg>
