<svg xmlns="http://www.w3.org/2000/svg" width="21" height="25" viewBox="0 0 21 25"><g><g><g><path fill="#fff" d="M.006 24.43v-.516l.157-.033c.145-.08.42-.127.947-.225.876-.162 1.189-.327 1.576-.833a2.23 2.23 0 0 0 .035-.047c.153-.224.277-.49.374-.8.045-.142.086-.284.123-.435.301-1.386.38-3.946.381-9.363.002-7.302-.14-8.838-.915-9.967-.344-.5-.924-.773-1.895-.889l-.748-.089L0 .068h.003L0 0h19.847l.001.024h.28l.046.285c.025.156.067 1.76.092 3.564l.047 3.28-.507.153c-.763.231-.759.234-1.102-.672-.843-2.225-1.81-3.507-3.132-4.154-.912-.447-1.334-.5-3.91-.5H9.42l-.039.372c-.072.7-.187 5.201-.186 7.32v2.115l.66-.004c.15 0 .362-.006.594-.014h.022c.84-.04 1.671-.105 1.847-.145.717-.166 1.28-.676 1.681-1.521.256-.54.526-1.395.526-1.665 0-.15.03-.161.462-.161h.463v.032l.3-.01v8.54l-1.163-.041-.165-.676c-.31-1.268-.908-2.176-1.645-2.502-.341-.15-1.184-.236-2.815-.285l-.766-.023v1.604c0 1.748.096 4.113.22 5.396.172 1.79.63 2.778 1.453 3.136.157.068.655.18 1.105.246.45.068.876.152.944.187.174.09.184 1.016.012 1.082-.134.052-12.707.048-12.835-.004-.042-.016-.069-.107-.081-.271H.007v-.152l-.001-.106z"/></g></g></g></svg>