<svg xmlns="http://www.w3.org/2000/svg" width="19" height="25" viewBox="0 0 19 25"><g><g><path fill="#fff" d="M17.751.424a.42.42 0 0 1 .424.354v15.735c0 4.456-2.121 8.487-9.37 8.487-3.324 0-5.622-.955-7.39-2.475-.142-.142-.177-.354.035-.708l1.697-2.864c.106-.176.389-.212.566-.07 1.379 1.237 2.935 1.874 4.88 1.874 3.854 0 5.056-1.98 5.056-4.456v-1.096c-1.131 1.627-3.076 2.652-5.551 2.652C3.5 17.857 0 14.71 0 8.982 0 3.218 3.678 0 7.956 0c2.652 0 4.668 1.273 5.622 2.829V.813c0-.212.177-.389.39-.389zm-4.076 8.598c0-2.867-1.908-4.637-4.486-4.637-2.579 0-4.521 1.84-4.521 4.637 0 2.796 1.942 4.637 4.52 4.637 2.58 0 4.487-1.805 4.487-4.637z"/></g></g></svg>