<svg width="731" height="345" viewBox="0 0 731 345" fill="none" xmlns="http://www.w3.org/2000/svg">
<path d="M156.778 99H8V247.778H156.778V99Z" fill="url(#paint0_linear_1080_68)"/>
<path d="M152.19 174.044C152.19 205.176 153.501 236.963 153.501 236.963C153.501 240.568 151.207 242.862 148.258 242.862H19.4698C16.5205 242.862 14.5543 240.24 14.2266 236.963C14.2266 236.963 10.6218 209.763 10.6218 168.473C10.6218 126.854 14.5543 107.52 14.5543 107.52C14.882 104.243 16.8482 101.621 19.7975 101.621H148.585C151.535 101.621 153.829 104.243 153.829 107.52C153.501 107.52 152.19 143.24 152.19 174.044Z" fill="url(#paint1_linear_1080_68)"/>
<path d="M123.352 138.98C114.176 144.223 111.227 144.879 101.396 150.777L101.723 149.794C106.967 144.223 109.261 141.602 112.538 136.686C103.362 137.341 89.926 138.325 80.4226 140.291L81.078 139.308C89.926 135.048 105.984 130.787 114.176 129.804C112.21 126.855 95.8247 118.007 91.8923 116.368L92.22 115.385C104.673 116.696 121.058 122.595 127.94 126.855C130.889 125.872 134.166 125.872 139.737 125.216C139.737 125.216 138.754 128.493 132.855 132.754C134.494 136.686 130.889 159.298 127.612 165.196C127.612 156.021 126.957 144.223 123.352 138.98Z" fill="url(#paint2_linear_1080_68)"/>
<path d="M56.1726 219.595L56.5003 218.612C51.5847 216.646 46.6692 215.335 42.7367 211.402C44.0475 207.798 45.3584 205.176 47.6523 201.899L47.98 200.916C43.7198 201.571 40.1151 203.21 36.5103 203.865C33.561 198.95 32.5779 192.068 30.9394 185.514V186.169C30.284 193.706 29.9563 198.95 30.9394 204.848C27.99 205.831 25.3684 205.831 22.7468 206.814L22.4191 207.798C26.3515 210.091 29.3009 212.058 33.8887 214.024C36.1826 218.94 38.8043 222.544 42.7367 226.477L43.0644 225.494C42.409 222.544 41.4259 220.25 41.7536 216.973C46.6692 218.612 50.6016 219.267 56.1726 219.595Z" fill="url(#paint3_linear_1080_68)"/>
<path d="M69.936 144.878C69.936 144.878 67.9697 148.483 66.3312 153.071H66.0035C77.4732 154.71 88.2874 159.297 90.909 160.936L90.5813 161.919C78.784 159.953 72.5576 159.953 67.9697 160.608C63.7096 160.936 62.7265 161.591 62.7265 161.591C60.1048 167.162 58.794 176.338 58.1386 179.615L57.8109 180.598C55.517 175.355 52.5677 164.868 52.5677 164.868C46.669 168.145 32.9054 180.926 32.9054 180.926C40.4426 165.851 48.3075 158.97 48.3075 158.97C45.6859 156.348 38.8041 155.037 33.5608 154.71L33.8885 153.726C37.1656 152.743 43.7196 152.416 47.9798 152.088C53.2231 152.088 56.1724 152.088 56.1724 152.088C60.4326 148.483 67.3143 145.206 69.936 144.878Z" fill="url(#paint4_linear_1080_68)"/>
<path d="M84.3552 210.092C82.0613 213.369 79.7674 215.99 77.1458 218.94C73.2133 219.923 68.6254 219.595 65.0207 219.595L64.693 220.578C67.3146 221.889 69.9363 222.872 72.8856 223.528C70.5917 225.494 67.6423 227.132 65.3484 228.771L65.0207 229.754C69.6086 228.771 75.8349 226.805 80.4228 223.855C82.7167 223.855 85.0107 223.855 86.6492 223.528L86.9769 222.544C86.6492 221.561 85.6661 220.906 85.3384 219.267C89.5985 215.99 92.5479 213.041 96.1526 209.436L96.808 208.453C93.2033 210.747 88.9431 214.352 85.0107 216.318C84.683 214.024 84.3552 212.386 84.3552 210.092Z" fill="url(#paint5_linear_1080_68)"/>
<path d="M124.007 137.997C114.832 143.24 111.882 143.896 102.051 149.794C107.95 143.568 109.916 140.946 113.521 135.375C104.345 135.703 90.9093 137.014 81.4059 138.98C89.5985 134.392 106.311 129.477 114.832 128.493C112.865 125.872 96.4803 117.351 92.2201 115.385C105.001 116.368 121.058 121.284 128.595 125.872C131.545 124.889 134.822 124.889 140.393 124.233C139.082 126.855 139.082 128.493 133.511 132.098C135.149 136.031 131.545 158.642 128.268 164.541C128.268 155.037 127.284 143.24 124.007 137.997Z" fill="white"/>
<path d="M56.8279 218.611C51.5846 216.645 47.6522 214.351 43.7197 210.419C45.0305 206.814 46.3413 204.192 48.6353 200.915C44.3751 201.571 41.0981 201.898 37.4933 202.882C34.2163 197.311 32.9055 192.067 31.5947 185.186C30.6115 192.723 30.6115 197.966 31.5947 203.865C28.3176 204.848 25.696 205.503 23.0743 206.814C27.0068 209.108 30.2838 211.074 34.544 213.04C36.8379 217.956 39.4596 221.561 43.392 225.493C42.4089 222.216 42.0812 219.594 42.7366 215.99C46.9967 217.628 51.2569 218.284 56.8279 218.611Z" fill="white"/>
<path d="M70.5913 143.896C68.9528 146.19 66.9866 150.122 66.6589 151.761C80.0947 153.727 91.2367 160.609 91.2367 160.609C79.4393 158.643 73.2129 158.643 68.6251 159.298C64.3649 159.626 63.3818 160.281 63.3818 160.281C60.1048 167.163 58.1386 179.288 58.1386 179.288C55.8446 174.045 52.8953 163.558 52.8953 163.558C46.9966 166.835 33.233 179.616 33.233 179.616C40.7702 164.541 48.6351 157.66 48.6351 157.66C46.0135 155.038 39.1317 153.727 33.8884 153.399C36.5101 152.416 43.3919 151.105 48.6351 150.778C53.8784 150.778 56.8277 150.778 56.8277 150.778C61.0879 147.501 67.9697 144.224 70.5913 143.896Z" fill="white"/>
<path d="M85.0106 209.109C82.7167 212.386 80.4227 215.007 77.8011 217.957C73.2132 219.267 69.6085 219.595 65.0206 219.595C67.6423 220.906 70.2639 221.889 73.2132 222.544C70.2639 225.166 67.97 226.805 65.0206 228.771C69.6085 227.788 75.8349 225.821 80.4227 222.872C82.7167 222.872 85.0106 222.872 86.6491 222.544C86.3214 221.234 85.9937 220.25 85.666 218.284C89.9262 215.007 93.2032 212.058 96.4802 208.453C92.5478 211.075 89.2707 213.041 85.0106 215.007C85.0106 213.041 85.0106 211.402 85.0106 209.109Z" fill="white"/>
<path d="M212.487 153.398C222.646 153.398 226.251 155.364 226.251 160.935C226.251 162.574 225.923 163.885 224.94 164.868C222.974 167.162 219.369 168.473 214.453 168.145H214.126L211.176 175.354H214.126C219.697 175.354 224.612 176.993 226.906 179.942C227.889 181.253 228.545 182.892 228.545 184.53C228.545 190.101 223.629 193.05 213.798 193.05C212.16 193.05 209.538 193.05 207.899 193.05C207.572 185.513 207.572 175.027 207.572 172.077C207.572 168.473 207.899 160.608 207.899 153.726C208.882 153.398 210.849 153.398 212.487 153.398ZM194.136 148.155C194.464 153.398 194.791 167.162 194.791 172.077C194.791 176.665 194.791 192.067 194.136 198.621V199.277H217.731C229.528 199.277 241.981 195.672 241.981 185.185C241.981 178.631 237.065 173.716 228.217 171.094C234.771 169.456 239.359 164.868 239.359 159.625C239.359 151.104 229.528 147.827 220.352 147.5H193.808L194.136 148.155Z" fill="black"/>
<path d="M297.363 147.5H285.565L285.893 160.608C286.221 167.162 286.221 173.716 286.876 179.942C286.221 177.976 285.565 176.993 281.961 171.75C281.961 171.422 269.836 152.743 265.576 147.5H252.14V148.155C252.467 153.398 252.795 167.162 252.795 172.077C252.795 176.665 252.795 192.067 252.14 198.621V199.277H264.265V198.621C263.609 186.169 263.609 173.388 263.609 160.935C263.937 162.574 264.592 163.557 266.559 166.506C266.559 166.834 287.532 196.983 288.515 198.949V199.277H298.346V198.621C297.691 192.067 297.691 176.665 297.691 172.077C297.691 167.162 298.018 153.398 298.346 148.155V147.827H297.363V147.5Z" fill="black"/>
<path d="M329.15 153.726C336.032 153.726 340.62 155.037 342.914 157.658C343.897 158.969 344.552 160.608 344.552 162.246C344.552 169.783 336.032 171.422 329.15 171.422H326.201C326.201 171.422 325.545 171.422 324.89 171.422C324.89 169.783 324.89 167.489 324.89 164.868C324.89 161.591 324.89 157.658 324.89 154.054C325.873 154.054 327.512 153.726 329.15 153.726ZM311.454 148.155C311.782 153.398 312.11 167.162 312.11 172.077C312.11 176.665 312.11 192.067 311.454 198.621V199.277H325.873V198.621C325.545 193.706 325.218 184.858 325.218 177.976C325.873 177.976 327.839 177.976 327.839 177.976H329.806C348.812 177.976 357.988 173.06 357.988 162.574C357.988 150.449 345.208 147.827 334.393 147.5H311.782V148.155" fill="black"/>
<path d="M402.884 153.726C409.765 153.726 414.353 155.037 416.647 157.658C417.63 158.969 418.286 160.608 418.286 162.246C418.286 169.783 409.765 171.422 402.884 171.422H399.934C399.934 171.422 399.279 171.422 398.623 171.422C398.623 169.783 398.623 167.489 398.623 164.868C398.623 161.591 398.623 157.658 398.623 154.054C399.606 154.054 401.245 153.726 402.884 153.726ZM385.188 148.155C385.515 153.398 385.843 167.162 385.843 172.077C385.843 176.665 385.843 192.067 385.188 198.621V199.277H399.606V198.621C399.279 193.706 398.951 184.858 398.951 177.976C399.607 177.976 401.573 177.976 401.573 177.976H403.539C422.546 177.976 431.722 173.06 431.722 162.574C431.722 150.449 418.613 147.827 407.799 147.5H385.188V148.155Z" fill="black"/>
<path d="M454.333 162.902C455.316 165.523 458.593 172.077 461.87 180.27C461.215 180.27 460.56 180.27 460.56 180.27H454.333C454.333 180.27 447.779 180.27 446.796 180.27C449.418 173.716 452.039 167.817 454.333 162.902ZM450.728 147.5C447.779 155.037 430.411 192.723 427.789 198.621L427.461 199.277H439.586V198.949C440.57 195.344 442.208 191.412 443.847 187.152C444.502 187.152 454.005 187.152 454.005 187.152H462.526C462.526 187.152 463.837 187.152 464.164 187.152C466.458 192.723 468.097 196.983 468.752 198.949V199.277H482.843L459.904 147.5H460.232H450.728Z" fill="black"/>
<path d="M489.07 148.155C489.398 153.398 489.725 167.162 489.725 172.077C489.725 176.665 489.725 192.067 489.07 198.621V199.277H503.489V198.621C502.834 192.067 502.506 176.665 502.506 172.077C502.506 168.473 502.506 160.608 502.834 154.054C503.817 154.054 505.455 153.726 506.766 153.726C513.32 153.726 518.236 155.037 520.53 157.658C521.513 158.969 522.168 160.608 522.168 162.246C522.168 168.145 516.597 171.094 511.354 171.422C509.715 171.422 508.404 171.422 508.404 171.422L507.421 171.094L508.077 172.077C513.32 179.615 520.857 192.395 524.134 198.621V198.949H539.536L539.209 198.294C538.553 197.311 528.394 182.564 524.134 176.337L523.807 176.01C531.671 173.716 535.604 169.128 535.604 162.574C535.604 150.777 522.823 147.827 511.682 147.5H489.07V148.155Z" fill="black"/>
<path d="M559.854 147.5H546.09V147.827C546.418 153.07 546.746 166.834 546.746 171.75C546.746 176.337 546.746 191.74 546.09 198.294V198.949H560.509V198.294C559.854 191.74 559.854 176.337 559.854 171.75C559.854 166.834 560.182 153.07 560.509 147.827V147.5H559.854Z" fill="black"/>
<path d="M591.641 153.398C601.8 153.398 605.405 155.364 605.405 160.935C605.405 162.574 605.077 163.885 604.094 164.868C602.128 167.162 598.523 168.473 593.607 168.145H593.28L590.658 175.354H593.28C598.851 175.354 603.439 176.993 606.06 179.942C607.371 181.253 607.699 182.892 607.699 184.53C607.699 190.101 602.783 193.05 592.624 193.05C590.986 193.05 588.364 193.05 586.726 193.05C586.398 185.513 586.398 175.027 586.398 172.077C586.398 168.473 586.398 160.608 586.726 153.726C588.037 153.398 590.003 153.398 591.641 153.398ZM573.29 148.155C573.617 153.398 573.945 167.162 573.945 172.077C573.945 176.665 573.945 192.067 573.29 198.621V199.277H597.212C609.01 199.277 621.462 195.672 621.462 185.185C621.462 178.631 616.547 173.716 607.699 171.094C614.253 169.456 618.841 164.868 618.841 159.625C618.841 151.104 609.01 147.827 599.834 147.5H573.29V148.155Z" fill="black"/>
<path d="M650.628 162.574C651.939 164.868 654.888 171.75 658.165 179.942C657.51 179.942 657.182 179.942 657.182 179.942H650.956C650.956 179.942 644.402 179.942 643.419 179.942C645.712 173.716 648.334 167.817 650.628 162.574ZM656.527 147.5H647.023V147.827C644.074 155.692 626.05 195.344 624.412 198.621L624.084 199.277H636.537V198.949C637.52 195.344 638.831 191.412 640.469 187.152C640.797 187.152 650.628 187.152 650.628 187.152H659.148H660.787C663.081 192.723 664.719 196.983 665.375 198.949V199.277H679.466L656.527 147.5Z" fill="black"/>
<path d="M684.054 160.936C684.054 170.112 693.23 173.716 701.095 176.993C707.321 179.615 713.875 182.237 713.875 186.497C713.875 187.808 713.547 188.791 712.892 189.774C711.253 191.412 708.304 192.396 703.389 192.068C698.473 191.74 693.23 190.429 687.003 187.48L684.709 186.169V188.135V197.311L686.348 197.639H687.331C690.28 198.294 696.179 199.605 701.75 199.605C716.824 199.605 726 193.706 726 183.548C726 174.044 716.824 170.439 708.304 167.162C702.078 164.541 695.851 162.247 695.851 158.314C695.851 157.003 695.851 153.726 703.716 153.726C709.615 153.726 715.186 156.02 718.463 157.331L721.412 158.642V156.676V147.172L718.463 146.517C715.514 145.862 710.598 144.878 705.682 144.878C692.574 145.534 684.054 151.76 684.054 160.936Z" fill="black"/>
<defs>
<linearGradient id="paint0_linear_1080_68" x1="82.3141" y1="95.3438" x2="82.3141" y2="252.239" gradientUnits="userSpaceOnUse">
<stop stop-color="#008053"/>
<stop offset="0.6" stop-color="#7FCBAE"/>
<stop offset="1" stop-color="#00A76D"/>
</linearGradient>
<linearGradient id="paint1_linear_1080_68" x1="82.08" y1="62.0783" x2="82.08" y2="238.386" gradientUnits="userSpaceOnUse">
<stop stop-color="#00A76D"/>
<stop offset="0.3" stop-color="#7FCBAE"/>
<stop offset="0.55" stop-color="#00A76D"/>
<stop offset="0.8352" stop-color="#008053"/>
<stop offset="0.8691" stop-color="#008558"/>
<stop offset="0.9244" stop-color="#009264"/>
<stop offset="0.9939" stop-color="#00A97A"/>
<stop offset="1" stop-color="#00AD7D"/>
</linearGradient>
<linearGradient id="paint2_linear_1080_68" x1="110.321" y1="228.65" x2="110.321" y2="114.558" gradientUnits="userSpaceOnUse">
<stop stop-color="#00B387"/>
<stop offset="1" stop-color="#00A76D"/>
</linearGradient>
<linearGradient id="paint3_linear_1080_68" x1="39.5337" y1="228.656" x2="39.5337" y2="114.529" gradientUnits="userSpaceOnUse">
<stop stop-color="#00B387"/>
<stop offset="1" stop-color="#00A76D"/>
</linearGradient>
<linearGradient id="paint4_linear_1080_68" x1="61.5848" y1="228.63" x2="61.5848" y2="114.579" gradientUnits="userSpaceOnUse">
<stop stop-color="#00B387"/>
<stop offset="1" stop-color="#00A76D"/>
</linearGradient>
<linearGradient id="paint5_linear_1080_68" x1="80.6502" y1="228.646" x2="80.6502" y2="114.556" gradientUnits="userSpaceOnUse">
<stop stop-color="#00B387"/>
<stop offset="1" stop-color="#00A76D"/>
</linearGradient>
</defs>
</svg>
