<svg width="731" height="345" viewBox="0 0 731 345" fill="none" xmlns="http://www.w3.org/2000/svg">
<path d="M365.487 331C455.253 331 528 258.253 528 168.513C528 78.7735 455.253 6 365.487 6C275.747 6 203 78.7735 203 168.513C203 258.253 275.747 331 365.487 331Z" fill="white"/>
<path d="M401.953 126.19C401.953 107.712 414.462 89.7903 421.287 93.1663C429.067 97.0663 415.457 114.47 401.953 126.19ZM316.889 132.922C316.889 118.065 331.547 89.8367 340.502 92.8214C351.087 96.35 331.733 124.824 316.889 132.922ZM302.026 239.178C295.287 239.483 290.777 235.171 290.777 227.975C290.777 208.641 317.606 190.169 337.868 180.253C334.273 207.248 325.154 238.136 302.026 239.178ZM425.804 176.174C410.503 176.174 398.809 187.43 398.809 200.927C398.809 212.183 405.574 221.183 414.548 221.183C417.726 221.183 420.869 219.372 420.869 215.353C420.869 209.47 413.109 208.057 413.693 199.309C414.084 193.538 419.523 189.678 424.922 189.678C435.713 189.678 440.761 200.138 440.761 210.929C440.323 227.597 428.053 239.171 413.673 239.171C394.757 239.171 382.606 221.183 382.606 201.822C382.606 172.997 401.522 161.748 411.431 159.062C411.524 159.062 437.312 163.645 436.509 152.277C436.138 147.275 428.703 145.352 423.33 145.146C417.354 144.914 411.318 147.063 411.318 147.063C408.188 145.471 406.012 142.361 404.666 138.779C423.124 124.811 436.178 111.32 436.178 96.0117C436.178 87.9133 430.765 80.7102 420.412 80.7102C401.953 80.7102 387.998 104.117 387.998 125.275C387.998 128.863 387.998 132.478 388.927 135.622C377.213 144.165 368.505 149.491 352.765 158.942C352.765 156.972 353.177 151.885 354.503 145.306C359.895 139.449 367.304 130.674 367.304 123.915C367.304 120.771 365.52 118.059 361.885 118.059C352.898 118.059 346.159 131.576 344.355 141.028C340.303 146.002 332.197 152.303 325.432 152.303C320.04 152.303 318.229 147.348 317.771 145.538C334.884 139.681 356.042 116.274 356.042 95.1163C356.042 90.626 354.238 80.7102 340.74 80.7102C320.484 80.7102 303.398 110.882 303.398 134.262C296.176 134.262 293.489 126.621 293.489 120.765C293.489 114.902 295.738 109.071 295.738 107.261C295.738 105.457 294.836 103.215 292.123 103.215C285.384 103.215 281.332 112.215 281.332 122.569C281.796 136.975 291.241 146.002 303.836 146.884C305.64 155.447 313.281 163.552 322.726 163.552C328.589 163.552 335.786 161.748 340.74 157.258C340.303 160.402 339.865 163.114 339.401 165.801C319.582 176.174 305.176 183.37 292.123 195.07C281.796 204.535 275.939 217.131 275.939 227.02C275.939 240.544 284.482 253.139 302.032 253.139C322.726 253.139 338.498 236.491 346.159 213.522C349.747 202.731 351.187 187.012 352.109 172.586C372.789 160.866 382.606 154.114 393.417 146.446C394.763 148.695 396.123 150.492 397.907 151.839C388.462 156.793 365.958 170.755 365.958 203.607C365.958 227.013 381.697 253.133 412.778 253.133C438.433 253.133 455.983 231.968 455.983 211.705C455.976 193.266 445.622 176.174 425.804 176.174ZM503.201 214.842C503.134 214.982 502.882 215.167 502.371 215.002C501.973 214.862 501.887 214.677 501.887 214.418C501.907 214.166 507.326 198.141 507.28 179.782C507.233 159.937 499.181 147.78 488.854 147.78C482.533 147.78 478.036 152.296 478.036 159.062C478.036 171.213 492.88 172.121 492.88 198.672C492.88 209.463 490.632 219.817 487.05 231.066C470.376 287.324 417.261 313.443 365.52 313.443C341.649 313.443 324.696 308.535 319.655 306.273C319.449 306.154 319.257 305.763 319.423 305.365C319.536 305.066 319.887 304.834 320.093 304.927C322.136 305.716 336.694 310.299 354.709 310.299C374.507 310.299 386.22 302.201 386.22 292.285C386.22 285.991 381.266 281.036 374.971 281.036C362.814 281.036 361.892 296.338 335.792 296.338C324.543 296.338 314.634 294.089 302.941 290.474C247.107 273.376 220.53 220.726 220.55 168.513C220.57 143.07 227.707 122.808 227.819 122.622C227.912 122.489 228.231 122.343 228.622 122.489C229.02 122.622 229.106 122.947 229.086 123.066C228.443 125.176 223.714 139.694 223.714 157.709C223.714 177.527 231.812 189.22 242.166 189.22C248.003 189.22 252.957 184.73 252.957 178.429C252.957 166.258 238.093 164.912 238.093 138.799C238.093 127.543 240.362 117.634 243.95 105.941C261.062 50.1204 313.739 23.9612 365.507 23.5566C389.563 23.3709 410.609 30.574 411.418 31.2173C411.557 31.3367 411.696 31.6418 411.557 32.0066C411.365 32.4444 411.086 32.4908 410.954 32.4643C410.702 32.4444 397.012 26.7204 376.291 26.7204C356.937 26.7005 344.78 34.8056 344.78 45.1724C344.78 51.0092 349.296 55.9638 356.029 55.9638C368.186 55.9638 369.088 41.1199 395.208 41.1199C406.43 41.1199 416.346 43.3418 428.039 46.9566C484.324 64.0622 509.933 117.177 510.417 168.507C510.682 194.792 503.273 214.677 503.201 214.842ZM365.513 13.6607C279.985 13.6607 210.667 82.9587 210.667 168.507C210.667 254.035 279.985 323.333 365.513 323.333C451.021 323.333 520.339 254.035 520.339 168.507C520.339 83.423 451.021 13.6607 365.513 13.6607ZM365.513 331C275.933 331 203 258.532 203 168.513C203 78.9061 275.933 6 365.513 6C455.067 6 528 78.9061 528 168.513C528 258.532 455.067 331 365.513 331Z" fill="#3B73B9"/>
</svg>
