<svg width="731" height="345" viewBox="0 0 731 345" fill="none" xmlns="http://www.w3.org/2000/svg">
<path d="M72.0027 103.016C91.4931 103.016 110.984 103.016 130.471 103.016C130.474 104.317 130.469 105.621 130.477 106.923C127.118 107.12 123.744 107.458 120.476 108.288C118.653 108.78 116.83 109.432 115.308 110.577C114.052 111.529 113.243 112.942 112.665 114.382C111.447 117.698 111.3 121.28 111.279 124.777C111.282 157.602 111.279 190.425 111.282 223.251C111.29 225.231 111.444 227.333 112.522 229.055C113.384 230.391 114.989 230.942 116.471 231.25C118.927 231.719 121.434 231.801 123.925 231.897C129.952 231.971 135.988 232.009 142.013 231.777C148.528 231.538 155.055 231.088 161.461 229.837C164.287 229.249 167.111 228.515 169.724 227.264C173.34 225.505 176.233 222.615 178.804 219.584C182.633 214.86 185.643 209.53 188.301 204.077C190.061 204.074 191.82 204.069 193.579 204.08C190.252 215.906 186.907 227.727 183.589 239.556C183.549 239.902 183.357 240.059 183.016 240.03C146.015 240.038 109.012 240.035 72.0106 240.032C72.0186 238.728 71.984 237.427 72.0373 236.126C75.7017 235.724 79.3821 235.223 82.8949 234.069C84.598 233.47 86.3996 232.754 87.5519 231.293C88.7122 229.715 89.2311 227.775 89.593 225.877C90.1785 222.543 90.2211 219.147 90.2051 215.773C90.2078 185.97 90.2051 156.17 90.2051 126.368C90.1865 122.48 90.1067 118.504 88.9118 114.768C88.2678 112.674 86.9824 110.68 84.944 109.722C80.9469 107.718 76.3909 107.309 72 106.928C72.016 105.624 72.0133 104.32 72.0027 103.016Z" fill="black"/>
<path d="M171.057 103.016C189.443 103.016 207.829 103.016 226.212 103.016C226.231 104.222 226.231 105.427 226.215 106.633C223.019 106.723 219.791 106.75 216.648 107.394C214.317 107.892 211.97 109.31 211.155 111.66C210.184 114.361 211.054 117.246 211.901 119.856C213.593 124.556 215.669 129.104 217.667 133.678C228.93 158.747 240.144 183.834 251.43 208.891C259.996 186.157 268.552 163.422 277.115 140.688C279.25 134.897 281.592 129.176 283.441 123.284C284.239 120.495 285.078 117.602 284.695 114.672C284.468 112.652 283.489 110.707 281.903 109.419C280.756 108.506 279.388 107.884 277.964 107.554C275.21 106.894 272.371 106.718 269.55 106.63C269.552 105.425 269.55 104.222 269.552 103.016C283.654 103.014 297.756 103.022 311.854 103.014C311.87 104.217 311.862 105.419 311.865 106.625C307.881 107.224 303.592 108.299 300.835 111.463C297.322 115.367 295.164 120.253 293.189 125.062C284.875 146.138 276.628 167.241 268.342 188.328C261.271 206.382 254.147 224.417 247.111 242.483C246.052 242.502 244.995 242.497 243.939 242.491C235.332 223.312 226.726 204.133 218.122 184.951C209.255 165.24 200.463 145.494 191.553 125.804C189.31 121.115 187.051 116.367 183.886 112.219C180.879 108.312 175.757 106.958 171.054 106.628C171.054 105.422 171.054 104.219 171.057 103.016Z" fill="black"/>
<path d="M320.16 103.013C333.777 103.019 347.397 103.021 361.015 103.011C376.888 137.377 392.728 171.76 408.578 206.137C424.058 171.768 439.509 137.383 454.994 103.013C468.718 103.024 482.439 103.005 496.162 103.021C496.17 104.323 496.168 105.621 496.165 106.92C492.636 107.207 489.073 107.588 485.693 108.69C483.865 109.31 481.992 110.151 480.797 111.731C479.448 113.549 478.881 115.8 478.5 117.996C477.904 121.729 477.96 125.522 477.973 129.29C477.973 157.144 477.973 185.002 477.971 212.859C477.981 217.016 477.854 221.204 478.535 225.321C478.891 227.344 479.402 229.406 480.6 231.109C481.712 232.693 483.562 233.504 485.323 234.148C488.815 235.34 492.506 235.788 496.162 236.144C496.17 237.44 496.165 238.734 496.168 240.029C476.818 240.037 457.472 240.032 438.122 240.032C438.117 238.736 438.12 237.438 438.12 236.142C441.563 235.846 445.023 235.444 448.36 234.505C450.305 233.887 452.365 233.182 453.778 231.631C455.42 229.651 455.891 227.027 456.314 224.563C457.043 219.544 456.875 214.456 456.899 209.399C456.889 180.347 456.921 151.295 456.883 122.243C439.184 161.49 421.527 200.758 403.875 240.029C402.899 240.035 401.919 240.069 400.948 239.968C391.365 218.998 381.647 198.089 372.019 177.138C364.293 160.444 356.648 143.716 348.888 127.039C348.93 150.233 348.893 173.428 348.906 196.623C348.967 203.366 348.717 210.123 349.186 216.856C349.465 220.081 349.928 223.315 350.945 226.399C351.676 228.488 352.658 230.593 354.362 232.07C355.692 233.158 357.315 233.816 358.936 234.348C361.965 235.319 365.126 235.742 368.266 236.173C368.234 237.459 368.253 238.744 368.248 240.032C352.076 240.035 335.904 240.035 319.734 240.032C319.729 238.734 319.732 237.438 319.729 236.142C323.287 235.721 326.864 235.205 330.257 234.01C332.447 233.214 334.666 232.147 336.164 230.298C337.769 228.193 338.357 225.537 338.86 222.993C339.981 216.393 339.76 209.673 339.792 203.007C339.792 179.15 339.792 155.29 339.792 131.432C339.736 127.432 339.951 123.411 339.454 119.433C339.113 116.836 338.594 114.15 337.106 111.942C335.946 110.223 333.966 109.328 332.064 108.695C328.216 107.482 324.155 107.178 320.152 106.928C320.173 105.621 320.165 104.317 320.16 103.013Z" fill="black"/>
<path d="M518.697 103.029C537.844 102.987 556.992 103.045 576.136 103C576.197 104.307 576.163 105.616 576.165 106.923C572.876 107.194 569.568 107.548 566.394 108.482C564.64 109.052 562.836 109.711 561.47 110.994C560.001 112.407 559.28 114.385 558.823 116.325C558.131 119.443 557.976 122.653 557.974 125.841C557.974 139.168 557.974 152.495 557.976 165.822C578.909 165.817 599.842 165.822 620.775 165.817C620.767 151.958 620.804 138.096 620.756 124.236C620.655 120.628 620.447 116.915 619.042 113.541C618.358 111.848 617.07 110.411 615.405 109.648C611.423 107.697 606.921 107.3 602.57 106.928C602.588 105.621 602.58 104.317 602.578 103.013C621.733 103.021 640.891 103.011 660.048 103.019C660.046 104.317 660.038 105.619 660.054 106.917C655.58 107.335 650.923 107.721 646.886 109.858C644.781 110.954 643.546 113.142 642.956 115.364C641.58 120.33 641.897 125.535 641.851 130.631C641.851 159.46 641.851 188.291 641.851 217.119C641.857 220.281 641.976 223.464 642.652 226.561C642.998 228.174 643.56 229.765 644.494 231.133C645.635 232.674 647.448 233.507 649.201 234.151C652.696 235.343 656.387 235.777 660.043 236.141C660.046 237.435 660.043 238.731 660.048 240.027C640.893 240.043 621.738 240.029 602.583 240.032C602.578 238.733 602.58 237.437 602.58 236.141C605.923 235.777 609.278 235.346 612.522 234.428C614.345 233.837 616.269 233.209 617.661 231.825C619.133 230.236 619.62 228.041 620.019 225.978C620.913 220.949 620.748 215.818 620.777 210.735C620.775 198.802 620.785 186.87 620.772 174.937C599.839 174.929 578.906 174.942 557.974 174.929C557.974 188.903 557.974 202.874 557.974 216.848C557.974 220.337 558.099 223.863 558.934 227.264C559.448 229.169 560.214 231.146 561.819 232.402C563.2 233.456 564.853 234.092 566.508 234.585C569.656 235.476 572.921 235.83 576.168 236.152C576.168 237.443 576.171 238.736 576.168 240.032C557.016 240.035 537.86 240.035 518.708 240.032C518.7 238.736 518.703 237.44 518.705 236.147C522.242 235.729 525.8 235.242 529.209 234.169C531.053 233.544 533.02 232.788 534.244 231.194C535.713 229.049 536.093 226.404 536.447 223.887C537.121 218.2 536.836 212.46 536.9 206.746C536.9 179.871 536.9 152.993 536.902 126.115C536.9 122.842 536.769 119.542 536.053 116.335C535.588 114.4 534.888 112.413 533.424 110.997C532.001 109.664 530.116 108.985 528.285 108.418C525.167 107.524 521.923 107.186 518.7 106.923C518.705 105.624 518.708 104.328 518.697 103.029Z" fill="black"/>
</svg>
