<svg width="731" height="345" viewBox="0 0 731 345" fill="none" xmlns="http://www.w3.org/2000/svg">
<path d="M14.9375 250.044H51.7604Z" fill="black"/>
<path d="M14.9375 250.044H51.7604" stroke="#A6DFF9" stroke-width="2.8023" stroke-linecap="round"/>
<path d="M73.0791 250.044H109.902Z" fill="black"/>
<path d="M73.0791 250.044H109.902" stroke="#93DAF8" stroke-width="2.8023" stroke-linecap="round"/>
<path d="M131.221 250.044H168.044Z" fill="black"/>
<path d="M131.221 250.044H168.044" stroke="#7ED4F7" stroke-width="2.8023" stroke-linecap="round"/>
<path d="M189.362 250.044H226.185Z" fill="black"/>
<path d="M189.362 250.044H226.185" stroke="#6BCFF6" stroke-width="2.8023" stroke-linecap="round"/>
<path d="M247.503 250.044H284.326Z" fill="black"/>
<path d="M247.503 250.044H284.326" stroke="#52CBF5" stroke-width="2.8023" stroke-linecap="round"/>
<path d="M305.645 250.044H342.468Z" fill="black"/>
<path d="M305.645 250.044H342.468" stroke="#39C6F4" stroke-width="2.8023" stroke-linecap="round"/>
<path d="M363.786 250.044H400.609Z" fill="black"/>
<path d="M363.786 250.044H400.609" stroke="#20C2F3" stroke-width="2.8023" stroke-linecap="round"/>
<path d="M421.928 250.044H458.751Z" fill="black"/>
<path d="M421.928 250.044H458.751" stroke="#04BEF2" stroke-width="2.8023" stroke-linecap="round"/>
<path d="M480.069 250.044H516.892Z" fill="black"/>
<path d="M480.069 250.044H516.892" stroke="#00BAF2" stroke-width="2.8023" stroke-linecap="round"/>
<path d="M538.211 250.044H575.034Z" fill="black"/>
<path d="M538.211 250.044H575.034" stroke="#00B6F1" stroke-width="2.8023" stroke-linecap="round"/>
<path d="M596.353 250.044H633.175Z" fill="black"/>
<path d="M596.353 250.044H633.175" stroke="#00B3F0" stroke-width="2.8023" stroke-linecap="round"/>
<path d="M654.494 250.044H691.317Z" fill="black"/>
<path d="M654.494 250.044H691.317" stroke="#00AFEF" stroke-width="2.8023" stroke-linecap="round"/>
<path d="M333.166 95V142.482C329.583 137.04 324.685 132.589 318.927 129.54C313.168 126.491 306.734 124.944 300.219 125.04C288.203 125.04 278.125 129.303 269.598 137.831C265.573 141.876 262.402 146.688 260.272 151.981C258.141 157.274 257.094 162.941 257.194 168.646C257.194 181.049 261.458 191.321 269.791 199.848C277.931 208.57 288.203 212.833 299.831 212.833C306.614 212.833 312.816 211.283 318.436 208.763C323.863 205.856 328.902 201.786 333.359 196.36V210.701H344.019V95H333.166ZM52.1486 124.071C46.3344 124.071 40.5203 125.621 35.0938 128.916C30.5174 132.037 26.6265 136.06 23.6593 140.738V126.203H13V210.701H23.6593V174.848C23.6593 164.188 24.8221 156.436 26.7601 151.203C28.6739 146.298 31.9735 142.056 36.2566 138.994C40.5203 136.087 45.1716 134.536 50.0167 134.536C54.2804 134.536 57.9627 135.699 61.2574 137.831C64.3128 139.976 66.6175 143.027 67.8468 146.552C69.0096 150.428 69.591 157.211 69.591 167.483V210.701H80.2503V177.755C80.2503 165.545 81.2193 156.824 83.1574 151.591C85.0954 146.552 88.3901 142.288 92.6538 139.188C96.9175 136.087 101.569 134.536 106.802 134.536C111.065 134.536 114.554 135.505 117.655 137.637C120.755 139.575 122.887 142.482 124.244 145.777C125.601 149.265 126.182 155.467 126.182 164.576V210.701H137.035V164.77C137.035 154.304 136.066 146.164 133.934 140.932C132.005 135.853 128.543 131.502 124.028 128.48C119.513 125.459 114.17 123.918 108.74 124.071C102.732 124.071 97.1113 126.009 91.6848 129.303C86.452 132.792 81.9945 137.831 78.3122 144.42C76.7618 139.575 74.6299 135.699 72.4981 132.986C70.079 130.173 67.0223 127.981 63.5831 126.59C59.9008 124.846 56.2185 124.071 51.9548 124.071H52.1486ZM198.084 124.071C185.486 124.071 175.021 128.722 167.075 138.218C159.499 146.531 155.345 157.4 155.447 168.646C155.447 180.274 159.323 190.74 167.462 199.655C175.215 208.376 185.486 212.833 197.89 212.833C203.636 213 209.347 211.887 214.61 209.574C219.872 207.261 224.554 203.807 228.317 199.461C236.056 191.08 240.287 180.052 240.139 168.646C240.139 157.018 236.457 146.746 228.899 138.025C225.103 133.514 220.352 129.904 214.988 127.457C209.625 125.01 203.784 123.787 197.89 123.877L198.084 124.071ZM406.424 124.071C392.857 124.071 382.004 129.303 373.671 139.963C367.275 148.296 364.174 157.793 364.174 168.646C364.174 180.08 368.05 190.158 375.609 199.267C379.456 203.779 384.287 207.348 389.73 209.7C395.173 212.052 401.083 213.124 407.005 212.833C417.785 212.988 428.205 208.959 436.076 201.593C439.952 198.104 443.441 193.259 446.154 187.445L437.433 182.6C434.138 188.22 431.231 192.29 428.324 194.616C422.108 199.909 414.2 202.797 406.036 202.755C397.509 202.755 390.144 199.655 384.33 193.453C378.322 187.057 375.221 179.111 375.027 169.227H449.061C449.061 157.599 445.96 147.909 439.952 140.157C436.065 134.98 430.99 130.816 425.154 128.016C419.318 125.217 412.893 123.863 406.424 124.071ZM497.124 124.071C493.055 124.071 489.178 125.234 485.496 127.559C481.172 130.474 477.481 134.231 474.643 138.606V126.009H463.402V210.508H474.643V182.212C474.643 167.483 475.418 157.599 476.775 152.948C478.713 146.552 481.232 141.901 484.527 138.994C487.444 136.178 491.326 134.583 495.38 134.536C496.737 134.536 498.675 134.924 501.194 136.087L507.009 126.784C503.326 124.846 500.225 123.877 497.124 123.877V124.071ZM561.08 124.071C554.878 124.071 549.258 125.427 544.025 128.334C538.422 131.583 533.594 136.015 529.878 141.319V126.009H519.218V210.508H529.878V179.499C529.878 168.452 530.459 160.7 531.428 156.436C532.978 150.041 536.467 144.808 541.506 140.35C546.739 135.893 552.553 133.761 558.948 133.761C564.762 133.761 569.22 135.311 572.515 138.025C576.303 141.257 578.84 145.714 579.685 150.622C580.654 153.917 581.042 160.312 581.042 170.196V210.508H591.701V167.289C591.701 155.661 590.538 147.134 588.213 141.707C585.887 136.28 582.399 132.017 577.553 128.722C572.675 125.485 566.934 123.796 561.08 123.877V124.071ZM652.168 124.071C640.734 124.071 630.85 128.334 622.71 136.862C618.692 140.991 615.528 145.873 613.399 151.227C611.271 156.582 610.22 162.303 610.307 168.064C610.062 179.791 614.449 191.141 622.516 199.655C626.527 204.06 631.472 207.512 636.99 209.757C642.508 212.003 648.458 212.985 654.405 212.632C660.352 212.279 666.144 210.599 671.357 207.717C676.571 204.834 681.073 200.821 684.534 195.972V210.701H694.999V126.009H684.728V141.513C681.108 135.953 676.185 131.363 670.386 128.141C664.88 125.306 658.747 123.906 652.556 124.071H652.168ZM406.424 134.342C411.463 134.342 416.114 135.505 420.378 137.637C425.029 139.575 428.518 142.482 431.231 145.971C433.75 149.459 435.882 153.917 437.433 159.731H375.996C378.322 151.979 381.423 146.164 385.687 142.288C391.501 137.056 398.478 134.536 406.424 134.536V134.342ZM653.137 134.342C662.246 134.342 669.805 137.637 676.2 144.226C682.208 150.816 685.309 158.956 685.309 168.84C685.309 175.235 683.952 181.049 681.433 186.088C678.648 191.109 674.578 195.299 669.64 198.228C664.701 201.157 659.073 202.72 653.331 202.755C647.517 202.755 642.09 201.205 637.052 198.298C629.632 193.372 624.311 185.86 622.126 177.226C619.941 168.592 621.047 159.454 625.229 151.591C627.865 146.458 631.864 142.151 636.787 139.143C641.71 136.134 647.368 134.54 653.137 134.536V134.342ZM197.696 134.73C206.417 134.73 213.976 138.025 220.177 144.614C225.209 150.11 228.414 157.031 229.351 164.423C230.288 171.815 228.912 179.317 225.41 185.894C222.821 190.952 218.876 195.19 214.015 198.134C209.155 201.077 203.572 202.61 197.89 202.562C192.208 202.61 186.625 201.077 181.764 198.134C176.904 195.19 172.959 190.952 170.37 185.894C167.563 180.649 166.098 174.789 166.106 168.84C166.106 159.343 169.207 151.397 175.408 144.614C181.61 138.025 188.975 134.73 197.89 134.73H197.696ZM300.8 135.311C305.21 135.309 309.574 136.193 313.636 137.909C317.698 139.625 321.374 142.139 324.447 145.301C327.519 148.464 329.925 152.211 331.523 156.321C333.12 160.431 333.877 164.82 333.747 169.227C333.838 175.248 332.369 181.191 329.483 186.476C326.461 191.444 322.225 195.563 317.174 198.445C312.122 201.326 306.421 202.876 300.606 202.949C294.773 202.883 289.062 201.27 284.056 198.273C279.051 195.277 274.931 191.005 272.117 185.894C269.231 180.743 267.716 174.938 267.716 169.033C267.716 163.129 269.231 157.324 272.117 152.172C274.924 147.029 279.075 142.743 284.126 139.774C289.178 136.804 294.941 135.262 300.8 135.311ZM710.697 132.792H712.248C713.023 132.792 713.604 132.792 713.798 132.404C714.186 132.404 714.38 132.017 714.38 131.629L713.992 131.048C713.992 130.66 713.992 130.66 713.604 130.466H710.697V132.792ZM709.535 137.249V129.497H714.186C714.767 129.691 715.155 130.079 715.349 130.466L715.736 131.435C715.736 132.211 715.349 132.598 715.155 132.986C714.592 133.417 713.922 133.685 713.217 133.761L713.992 134.149L715.155 135.699L716.124 137.249H714.574L713.992 135.893L712.635 133.955H710.891V137.249H709.535ZM712.635 126.978C711.666 126.978 710.697 127.172 709.728 127.947C708.759 128.334 707.984 129.11 707.597 130.079C707.011 131.007 706.701 132.082 706.701 133.18C706.701 134.277 707.011 135.352 707.597 136.28C707.984 137.249 708.759 138.025 709.728 138.412C710.697 139.188 711.666 139.381 712.635 139.381C713.798 139.381 714.767 139.188 715.736 138.412C716.705 138.025 717.674 137.249 718.062 136.28C718.45 135.311 718.837 134.342 718.837 133.18C718.837 132.211 718.45 131.242 718.062 130.079C717.498 129.167 716.693 128.43 715.736 127.947C714.767 127.172 713.798 126.978 712.635 126.978ZM712.635 126.009C713.992 126.009 715.155 126.203 716.318 126.784C717.481 127.365 718.256 128.334 719.031 129.497C719.806 130.66 720 131.823 720 133.373C720 134.536 719.806 135.699 719.031 136.862C718.45 138.025 717.481 138.8 716.318 139.575C715.19 140.199 713.924 140.532 712.635 140.544C711.473 140.544 710.31 140.157 709.147 139.575C707.984 138.994 707.209 138.025 706.434 136.862C705.852 135.699 705.465 134.536 705.465 133.18C705.465 131.823 705.852 130.66 706.434 129.497C707.209 128.334 707.984 127.559 709.147 126.784C710.31 126.203 711.666 126.009 712.635 126.009Z" fill="#E51937"/>
</svg>
