<svg width="731" height="345" viewBox="0 0 731 345" fill="none" xmlns="http://www.w3.org/2000/svg">
<path d="M589.203 82H142V263H589.203V82Z" fill="#005EB8"/>
<path d="M185.711 99.4668H234.355L264.175 200.51H264.627L285.08 99.4668H321.823L290.917 245.172H242.5L212.002 144.355H211.594L191.368 245.172H154.625L185.711 99.4668Z" fill="white"/>
<path d="M336.167 99.4668H375.218L363.725 155.215H409.88L421.373 99.4668H460.424L430.152 245.172H390.875L403.816 182.772H357.887L344.946 245.172H305.94L336.167 99.4668Z" fill="white"/>
<path d="M563.096 132.454C553.087 127.846 542.167 125.557 531.15 125.757C515.72 125.757 503.185 128.065 503.185 139.739C503.185 160.418 559.748 152.681 559.748 196.935C559.748 237.208 522.371 247.66 488.57 247.66C473.207 247.303 457.973 244.774 443.32 240.149L452.37 210.51C460.107 215.533 475.538 218.881 488.253 218.881C500.968 218.881 519.34 216.574 519.34 201.551C519.34 178.156 462.777 186.935 462.777 145.803C462.777 108.245 495.764 96.9326 527.711 96.9326C545.811 96.9326 562.553 98.8331 572.373 103.403L563.096 132.454Z" fill="white"/>
</svg>
