<svg width="731" height="345" viewBox="0 0 731 345" fill="none" xmlns="http://www.w3.org/2000/svg">
<path d="M31.3291 133.884H68.0719C81.8897 133.57 90.9969 139.223 90.9969 153.983C90.9969 164.347 83.774 173.14 73.4107 174.71V175.024C79.6914 176.909 81.2616 182.561 81.2616 188.528C81.2616 191.983 80.6337 197.007 80.6337 202.032C80.6337 205.486 80.9482 208.627 81.576 210.825H64.932C64.6174 208.941 64.3041 207.371 64.3041 205.801C64.3041 200.776 65.2466 195.437 65.2466 190.099C65.2466 182.562 60.85 180.677 54.2552 180.677H38.239L31.9583 210.825H15L31.3291 133.884ZM41.0645 168.743H56.7664C65.5597 168.743 74.3526 165.289 74.3526 156.495C74.3526 148.33 68.386 147.074 61.7912 147.074H45.775L41.0645 168.743Z" fill="#005C9E"/>
<path d="M155.376 196.692L152.235 210.824H92.8816L109.212 133.884H167.937L164.797 148.016H123.029L119.575 164.66H158.202L155.376 177.85H116.749L112.98 196.692H155.376Z" fill="#005C9E"/>
<path d="M222.894 202.974C217.555 209.883 210.332 212.709 203.423 212.709C181.754 212.709 169.193 200.462 169.193 178.793C169.193 153.984 185.209 132.314 211.274 132.314C229.175 132.314 243.934 140.794 243.934 159.636H226.976C226.662 150.215 220.695 146.447 211.274 146.447C194.002 146.447 186.151 164.033 186.151 178.793C186.151 189.47 191.176 198.577 203.737 198.577C216.613 198.577 222.266 191.668 225.092 181.933H207.192L210.018 169.371H242.678L233.885 210.825H222.894V202.974Z" fill="#005C9E"/>
<path d="M308.942 196.692L306.115 210.824H246.762L262.778 133.884H321.503L318.677 148.016H276.91L273.455 164.66H312.082L309.256 177.85H270.629L266.546 196.692H308.942Z" fill="#005C9E"/>
<path d="M345.37 156.809L334.378 210.824H318.362L334.692 133.884H352.278L373.005 188.527H373.319L384.311 133.884H400.013L383.683 210.824H366.724L345.684 156.809H345.37Z" fill="#005C9E"/>
<path d="M460.937 196.692L457.796 210.824H398.443L414.459 133.884H473.184L470.358 148.016H428.591L425.136 164.66H463.763L460.937 177.85H422.31L418.227 196.692H460.937Z" fill="#005C9E"/>
<path d="M486.375 133.884H523.117C536.935 133.57 546.042 139.223 546.042 153.983C546.042 164.347 538.82 173.14 528.456 174.71V175.024C534.737 176.909 536.307 182.561 536.307 188.528C536.307 191.983 535.679 197.007 535.679 202.032C535.679 205.486 535.994 208.627 536.622 210.825H519.978C519.663 208.941 519.35 207.371 519.35 205.801C519.35 200.776 520.292 195.437 520.292 190.099C520.292 182.562 515.896 180.677 509.301 180.677H493.285L487.004 210.825H470.046L486.375 133.884ZM496.11 168.743H511.812C520.919 168.743 529.398 165.289 529.398 156.495C529.398 148.33 523.432 147.074 516.837 147.074H500.821L496.11 168.743Z" fill="#005C9E"/>
<path d="M594.718 132C615.445 132 628.949 143.306 628.949 164.974C628.949 190.412 613.875 212.709 586.867 212.709C565.198 212.709 552.637 200.461 552.637 178.792C552.637 153.669 568.653 132 594.718 132ZM586.867 198.577C603.511 198.577 611.676 180.99 611.676 166.231C611.676 155.553 606.966 146.132 594.404 146.132C577.132 146.132 569.281 163.718 569.281 178.478C569.595 189.156 574.62 198.577 586.867 198.577Z" fill="#005C9E"/>
<path d="M647.791 210.824H632.089L648.105 133.884H665.692L686.732 188.527L697.724 133.884H713.426L697.096 210.824H680.138L659.097 156.809H658.783L647.791 210.824Z" fill="#005C9E"/>
</svg>
