<svg width="731" height="345" viewBox="0 0 731 345" fill="none" xmlns="http://www.w3.org/2000/svg">
<path d="M361.222 161.789H315.754V126.829H301.998V215.606H315.754V173.539H361.222V215.606H374.833V126.829H361.222M227.064 126.539C222.069 126.394 211.933 126.394 202.955 126.394V215.534H216.856V181.735C220.331 181.735 227.499 181.444 233.291 181.299C241.4 181.154 262.54 177.093 262.396 152.65C262.613 125.088 232.132 126.539 227.064 126.539ZM226.34 169.912H217.146V137.781H224.965C228.585 137.781 249.943 136.185 250.594 152.795C251.463 169.114 234.594 169.912 226.34 169.912ZM98.7716 126.394L98.9164 215.534H154.737V203.929H112.817V173.684H142.501C142.501 171.145 142.356 167.446 142.501 162.586H112.817V138.289H154.737C154.592 131.253 154.737 126.394 154.737 126.394H98.7716ZM17.6112 148.153C17.6112 133.574 36.8696 132.994 48.2364 142.35C52.146 131.108 52.4356 130.31 52.4356 130.31C19.2764 114.353 4.1448 135.46 4.1448 148.951C4.1448 181.227 49.8292 174.336 43.2408 197.039C40.924 205.307 26.2268 210.022 9.2852 199.722C8.0544 203.204 6.0272 207.411 4 211.617C26.3716 223.367 55.404 217.71 56.3452 193.485C57.6484 163.022 17.6112 165.198 17.6112 148.153ZM604.341 151.417C602.314 124.943 576.684 126.974 571.037 126.684C566.331 126.539 556.34 126.394 547.724 126.394V215.389H561.625V177.963C566.331 177.963 567.851 177.963 574.946 177.673L600.286 215.389H617.156L589.137 175.352C596.666 172.596 605.427 166.14 604.341 151.417ZM570.24 167.519C567.127 167.519 564.738 167.519 561.625 167.373V137.273H568.937C572.412 137.273 590.657 136.185 592.25 150.764C594.205 168.026 574.005 167.519 570.24 167.519ZM696.072 126.539H679.999L650.894 215.679H664.65C668.994 199.577 670.442 195.008 670.442 195.008L706.425 194.863C710.624 206.758 713.737 215.824 713.737 215.824H728L696.072 126.539ZM673.628 184.781L687.673 140.755H687.818L702.515 184.636L673.628 184.781ZM461.134 124C432.825 124 414.363 144.961 414.363 171C414.363 197.039 432.825 218 461.134 218C489.442 218 507.904 197.039 507.904 171C507.904 144.961 489.442 124 461.134 124ZM461.134 205.162C440.355 205.162 428.626 190.003 428.626 171C428.626 152.215 440.355 136.838 461.134 136.838C481.768 136.838 493.641 151.997 493.641 171C493.641 189.785 481.912 205.162 461.134 205.162Z" fill="black"/>
</svg>
