<svg width="731" height="345" viewBox="0 0 731 345" fill="none" xmlns="http://www.w3.org/2000/svg">
<path d="M169.764 294.286L65.3672 226.325C65.3672 226.325 52.2756 218.797 49.2786 204.775C45.0687 185.086 58.9454 168.206 58.9454 168.206L194.434 256.443C204.885 263.254 207.737 277.19 201.019 287.701C194.117 298.498 179.936 300.881 169.759 294.286H169.764Z" fill="#38D200"/>
<path d="M70.8811 153.642C70.8811 153.642 54.8903 143.986 54.8903 121.653C54.8903 99.3978 70.8742 89.8607 70.8742 89.8607L127.947 52.5087C132.969 49.326 139.044 48.2519 144.853 49.5191C150.663 50.7864 155.738 54.293 158.979 59.2782C162.219 64.2635 163.364 70.3253 162.164 76.1489C160.964 81.9725 157.516 87.0882 152.569 90.3864L104.467 121.708L186.423 175.085C186.423 175.085 201.176 183.537 204.082 197.805C208.14 217.71 194.438 234.11 194.438 234.11L70.8811 153.642ZM70.5784 297.889C75.9352 297.889 79.7491 296.189 83.4698 293.777L111.33 275.629L83.4698 257.485C79.715 255.066 75.7736 253.373 70.5784 253.373C67.6287 253.331 64.7 253.875 61.9626 254.975C59.2252 256.075 56.7336 257.707 54.6328 259.778C52.5319 261.85 50.8637 264.317 49.725 267.039C48.5864 269.76 48 272.681 48 275.631C48 278.581 48.5864 281.502 49.725 284.223C50.8637 286.944 52.5319 289.412 54.6328 291.483C56.7336 293.554 59.2252 295.187 61.9626 296.287C64.7 297.386 67.6287 297.931 70.5784 297.889Z" fill="#0473EA"/>
<path d="M178.304 99.4526C172.945 99.4526 169.131 101.153 165.411 103.562L137.548 121.708L165.411 139.854C169.165 142.275 173.109 143.968 178.304 143.968C181.227 143.968 184.121 143.393 186.822 142.274C189.522 141.155 191.976 139.516 194.043 137.449C196.11 135.382 197.749 132.929 198.868 130.228C199.986 127.528 200.562 124.633 200.562 121.71C200.562 118.788 199.986 115.893 198.868 113.193C197.749 110.492 196.11 108.039 194.043 105.972C191.976 103.905 189.522 102.265 186.822 101.147C184.121 100.028 181.227 99.4526 178.304 99.4526Z" fill="#38D200"/>
<path d="M294.213 227.237C300.105 227.237 305.598 225.64 309.89 221.944V230.232C305.095 233.527 299.404 234.924 293.412 234.924C278.325 234.924 267.848 224.438 267.848 209.36C267.848 194.38 278.632 183.896 293.612 183.896C299.504 183.896 304.995 185.596 309.389 188.888V197.975C305.496 193.783 300.105 191.585 294.111 191.585C283.625 191.585 276.236 198.876 276.236 209.358C276.236 219.844 283.727 227.237 294.213 227.237ZM326.966 234.028H318.876V169.191L326.966 174.19V193.185C330.662 187.493 336.553 183.9 344.042 183.9C356.426 183.9 363.016 192.985 363.016 205.068V234.028H354.829V206.465C354.829 196.878 350.635 191.788 342.044 191.788C332.958 191.788 326.959 199.575 326.959 209.362L326.966 234.028ZM413.246 225.633C409.155 231.424 402.862 234.92 395.173 234.92C380.793 234.92 370.508 224.236 370.508 209.656C370.508 194.782 380.793 183.891 395.173 183.891C402.862 183.891 409.155 187.487 413.246 193.381V184.79H421.436V234.021H413.246V225.633ZM378.896 209.556C378.896 219.741 385.986 227.23 395.972 227.23C406.057 227.23 413.246 219.741 413.246 209.556C413.246 199.17 406.057 191.58 395.972 191.58C385.986 191.587 378.896 199.174 378.896 209.562V209.556ZM442.108 234.028H434.018V184.797H442.108V195.281C446.001 187.99 452.293 183.898 460.083 183.898V193.185C450.295 191.788 442.108 198.378 442.108 210.559V234.028ZM542.968 212.557H504.121C505.32 221.446 512.311 227.337 522.096 227.337C528.388 227.337 534.48 225.54 539.673 221.844V229.633C534.38 233.229 528.388 234.927 522.096 234.927C506.617 234.927 495.537 224.941 495.537 209.854C495.537 195.074 504.924 183.891 519.804 183.891C533.984 183.891 543.273 194.375 543.273 208.456C543.275 209.829 543.173 211.201 542.968 212.557ZM504.221 205.971H534.68C533.881 197.581 528.588 191.392 519.9 191.392C510.911 191.387 505.518 197.679 504.221 205.967V205.971ZM560.244 234.028H552.154V184.797H560.244V195.281C564.138 187.99 570.428 183.898 578.217 183.898V193.185C568.434 191.788 560.244 198.378 560.244 210.559V234.028ZM626.253 212.557H587.408C588.603 221.446 595.596 227.337 605.381 227.337C611.673 227.337 617.765 225.54 622.958 221.844V229.633C617.665 233.229 611.673 234.927 605.381 234.927C589.902 234.927 578.822 224.941 578.822 209.854C578.822 195.074 588.207 183.891 603.087 183.891C617.267 183.891 626.554 194.375 626.554 208.456C626.557 209.829 626.457 211.2 626.253 212.557ZM587.509 205.971H617.963C617.164 197.581 611.871 191.392 603.185 191.392C594.199 191.387 588.81 197.679 587.509 205.967V205.971ZM674.81 225.574C670.819 231.468 664.427 235.061 656.737 235.061C642.355 235.061 632.07 224.374 632.07 209.795C632.07 194.921 642.355 184.03 656.737 184.03C664.427 184.03 670.819 187.728 674.81 193.717V169.202L683 174.204V234.025H674.81V225.574ZM640.46 209.697C640.46 219.882 647.548 227.374 657.536 227.374C667.622 227.374 674.81 219.882 674.81 209.697C674.81 199.311 667.622 191.722 657.536 191.722C647.548 191.722 640.46 199.306 640.46 209.697ZM474.217 217.664C474.217 224.554 478.411 227.251 483.704 227.251C487.815 227.291 491.834 226.033 495.189 223.655V231.545C491.789 234.041 487.099 235.04 483.005 235.04C472.519 235.04 466.127 230.346 466.127 217.063V169.179L474.217 174.179V217.664ZM487.292 184.153C486.604 183.706 485.835 183.4 485.028 183.251C484.221 183.102 483.393 183.113 482.591 183.284C481.789 183.455 481.028 183.782 480.352 184.247C479.676 184.712 479.098 185.306 478.652 185.994C478.206 186.682 477.899 187.451 477.75 188.258C477.601 189.065 477.612 189.893 477.783 190.695C477.954 191.498 478.281 192.259 478.746 192.934C479.211 193.61 479.805 194.188 480.493 194.634L480.666 194.744C481.67 195.387 482.839 195.729 484.032 195.729C485.225 195.729 486.393 195.387 487.397 194.744L495.442 189.585L487.292 184.153ZM284.726 156.242C290.515 156.242 294.711 153.746 294.711 149.252C294.711 146.555 293.314 144.459 289.612 142.96L277.926 138.267C271.935 135.671 268.64 132.276 268.64 125.883C268.64 117.295 275.53 111.902 285.516 111.902C291.305 111.902 296.698 113.499 300.494 116.396V124.896C296.002 120.9 290.506 118.604 285.62 118.604C280.425 118.604 276.729 121 276.729 124.996C276.729 127.991 278.129 129.788 282.025 131.286L293.71 135.98C300 138.677 302.899 142.47 302.899 147.763C302.899 157.15 295.308 162.942 284.626 162.942C278.131 162.942 272.24 161.144 267.948 157.951V149.152C273.138 154.044 278.932 156.242 284.726 156.242ZM318.28 145.556C318.28 152.447 322.472 155.143 327.767 155.143C331.874 155.18 335.889 153.922 339.241 151.548V159.437C335.841 161.934 331.149 162.933 327.055 162.933C316.569 162.933 310.181 158.24 310.181 144.958V102.037L318.269 97.0308L318.28 145.556ZM384.487 153.644C380.393 159.437 374.101 162.933 366.412 162.933C352.032 162.933 341.746 152.249 341.746 137.666C341.746 122.793 352.032 111.902 366.412 111.902C374.101 111.902 380.393 115.497 384.487 121.391V112.808H392.677V162.034H384.487V153.644ZM350.134 137.569C350.134 147.754 357.225 155.243 367.21 155.243C377.298 155.243 384.487 147.754 384.487 137.569C384.487 127.183 377.298 119.591 367.21 119.591C357.225 119.591 350.134 127.183 350.134 137.569ZM413.346 162.034H405.256V112.808H413.346V121.196C417.042 115.504 422.933 111.909 430.422 111.909C442.806 111.909 449.397 120.998 449.397 133.081V162.041H441.209V134.481C441.209 124.893 437.015 119.801 428.427 119.801C419.338 119.801 413.339 127.59 413.339 137.377L413.346 162.034ZM499.629 153.446C495.635 159.34 489.243 162.935 481.553 162.935C467.174 162.935 456.888 152.249 456.888 137.666C456.888 122.793 467.174 111.902 481.553 111.902C489.243 111.902 495.635 115.598 499.629 121.589V102.03L507.819 97.0308V162.034H499.629V153.446ZM465.276 137.569C465.276 147.754 472.367 155.243 482.352 155.243C492.44 155.243 499.629 147.754 499.629 137.569C499.629 127.183 492.44 119.591 482.352 119.591C472.374 119.591 465.276 127.183 465.276 137.569ZM649.426 153.446C645.432 159.34 639.04 162.935 631.351 162.935C616.969 162.935 606.683 152.249 606.683 137.666C606.683 122.793 616.969 111.902 631.351 111.902C639.04 111.902 645.432 115.598 649.426 121.589V102.03L657.614 97.0308V162.034H649.426V153.446ZM615.073 137.569C615.073 147.754 622.162 155.243 632.149 155.243C642.235 155.243 649.426 147.754 649.426 137.569C649.426 127.183 642.235 119.591 632.149 119.591C622.168 119.591 615.073 127.183 615.073 137.569ZM559.348 153.644C555.254 159.437 548.962 162.933 541.272 162.933C526.893 162.933 516.607 152.249 516.607 137.666C516.607 122.793 526.893 111.902 541.272 111.902C548.962 111.902 555.254 115.497 559.348 121.391V112.808H567.538V162.034H559.348V153.644ZM524.995 137.569C524.995 147.754 532.086 155.243 542.071 155.243C552.157 155.243 559.348 147.754 559.348 137.569C559.348 127.183 552.157 119.591 542.071 119.591C532.079 119.591 524.995 127.183 524.995 137.569ZM588.207 162.034H580.117V112.808H588.207V123.294C592.101 116.003 598.393 111.909 606.182 111.909V121.196C596.395 119.798 588.207 126.389 588.207 138.572V162.034ZM329.681 123.294C330.544 123.857 331.533 124.197 332.56 124.286C333.587 124.374 334.62 124.207 335.567 123.799C336.513 123.392 337.345 122.757 337.986 121.95C338.628 121.144 339.061 120.191 339.245 119.177C339.393 118.367 339.378 117.535 339.203 116.731C339.027 115.926 338.693 115.164 338.221 114.489C337.751 113.814 337.151 113.239 336.458 112.796L336.285 112.689C335.278 112.049 334.109 111.712 332.916 111.716C331.723 111.72 330.556 112.065 329.553 112.712L321.514 117.889L329.681 123.294Z" fill="#525355"/>
</svg>
