<svg width="731" height="345" viewBox="0 0 731 345" fill="none" xmlns="http://www.w3.org/2000/svg">
<path fill-rule="evenodd" clip-rule="evenodd" d="M94.1677 225.042C84.7511 219.144 77.814 198.789 77.814 174.605C77.814 173.718 77.8197 172.843 77.8396 171.968L77.851 171.981C51.6601 167.865 32.7365 156.588 32.2519 143.253L32.1751 143.407C25.7666 151.371 22.1087 160.579 22.1087 170.391C22.1087 199.262 53.8007 222.918 93.9983 225.01L94.1677 225.042ZM10 172.497C10 140.192 50.2012 114 99.7955 114C149.388 114 189.591 140.192 189.591 172.497C189.591 204.802 149.388 230.995 99.7955 230.995C50.2012 230.995 10 204.801 10 172.497ZM99.7955 122.442C109.369 122.442 117.513 136.965 120.529 157.229L120.541 157.198C139.166 154.299 152.207 147.611 152.207 139.828C152.207 129.382 128.739 120.924 99.7955 120.924C70.8497 120.924 47.3838 129.383 47.3838 139.828C47.3838 147.611 60.4226 154.299 79.0501 157.198L79.0615 157.229C82.0782 136.966 90.2237 122.442 99.7955 122.442ZM105.591 225.009C145.789 222.918 177.485 199.261 177.485 170.39C177.485 160.579 173.823 151.371 167.415 143.406L167.337 143.252C166.852 156.587 147.934 167.864 121.74 171.98L121.751 171.968C121.769 172.842 121.778 173.717 121.778 174.604C121.778 198.788 114.836 219.143 105.425 225.041L105.591 225.009ZM99.7955 158.734C104.085 158.734 108.254 158.552 112.244 158.2L112.238 158.206C110.252 145.217 105.43 136.049 99.7955 136.049C94.1606 136.049 89.3392 145.217 87.3508 158.206L87.3458 158.2C91.3353 158.552 95.5063 158.734 99.7955 158.734ZM99.7955 206.838C107.003 206.838 112.883 191.838 113.197 173.025L113.235 173.039C108.89 173.441 104.396 173.651 99.7962 173.651C95.1918 173.651 90.702 173.441 86.3573 173.039L86.3979 173.025C86.7068 191.838 92.585 206.838 99.7955 206.838Z" fill="black"/>
<path fill-rule="evenodd" clip-rule="evenodd" d="M468.196 172.497C468.196 147.805 488.217 127.788 512.903 127.788C537.601 127.788 557.62 147.805 557.62 172.497C557.62 197.191 537.601 217.206 512.903 217.206C488.217 217.206 468.196 197.191 468.196 172.497ZM512.903 200.811C526.694 200.811 537.873 188.133 537.873 172.497C537.873 156.861 526.694 144.182 512.903 144.182C499.122 144.182 487.945 156.861 487.945 172.497C487.945 188.133 499.122 200.811 512.903 200.811Z" fill="black"/>
<path fill-rule="evenodd" clip-rule="evenodd" d="M608.348 146.416V215.176H589.511V146.416H589.573H563.229V130.871H634.625V146.416H608.41H608.348Z" fill="black"/>
<path fill-rule="evenodd" clip-rule="evenodd" d="M657.415 196.208L657.397 196.225L650.17 215.176H628.172L662.952 130.87H674.68H686.396L721.18 215.176H699.177L691.95 196.225L691.932 196.208H674.68H657.415ZM674.679 181.979H686.53L686.523 181.982L674.759 151.126H674.594L662.824 181.982L662.819 181.979H674.679Z" fill="black"/>
<path fill-rule="evenodd" clip-rule="evenodd" d="M261.102 146.416V215.176H242.264V146.416H242.328H215.982V130.871H287.381V146.416H261.168H261.102Z" fill="black"/>
<path fill-rule="evenodd" clip-rule="evenodd" d="M292.199 172.497C292.199 147.805 312.219 127.788 336.913 127.788C361.606 127.788 381.624 147.805 381.624 172.497C381.624 197.191 361.606 217.206 336.913 217.206C312.219 217.206 292.199 197.191 292.199 172.497ZM336.913 200.811C350.697 200.811 361.877 188.133 361.877 172.497C361.877 156.861 350.698 144.182 336.913 144.182C323.127 144.182 311.948 156.861 311.948 172.497C311.948 188.133 323.127 200.811 336.913 200.811Z" fill="black"/>
<path fill-rule="evenodd" clip-rule="evenodd" d="M424.91 215.176H434.461V183.558V183.164L467.325 130.871H445.33L424.91 166.306L404.492 130.871H382.49L415.357 183.164V183.558V215.176H424.91Z" fill="black"/>
</svg>
