<svg width="731" height="345" viewBox="0 0 731 345" fill="none" xmlns="http://www.w3.org/2000/svg">
<path d="M92.0761 91.0078C46.7553 91.0078 10.0095 127.744 10 173.074V173.116C10.0046 191.826 16.272 209.059 26.8112 222.857L95.0426 133.196L87.6981 133.21L80.4139 133.196C72.6283 133.196 65.3308 133.748 60.0515 134.774C56.8574 135.401 54.0116 136.548 51.6902 138.191C48.9696 140.099 45.562 144.148 43.3335 148.126C43.0782 148.591 42.6975 149.269 42.224 150.257L38.236 149.347L44.9305 123.6H130.395L62.4786 214.403C66.8936 214.013 68.6625 213.911 72.2466 213.911C74.9996 213.911 79.1825 214.092 84.7721 214.417L96.8377 215.165C101.178 215.411 104.855 215.541 107.65 215.541C113.871 215.541 117.915 215.053 121.939 213.823C125.05 212.867 128.003 211.432 130.723 209.594C135.491 206.288 140.129 201.009 142.9 195.707C143.17 195.173 143.611 194.352 144.112 193.265L147.747 194.189C146.563 198.692 145.941 200.415 144.14 204.435C140.491 212.587 136.368 218.047 130.709 222.23C124.887 226.543 118.448 228.656 110.829 228.781L109.668 228.791C104.027 228.791 99.668 228.322 86.1586 226.26C72.4208 224.143 65.4253 223.419 58.5213 223.419C53.902 223.419 49.603 223.772 45.1508 224.506C39.2548 225.434 36.9428 226.126 31.5948 228.568C46.5805 244.91 68.141 255.184 92.0737 255.184C137.399 255.184 174.153 218.429 174.153 173.095C174.153 127.756 137.398 91.0105 92.0737 91.0105" fill="#2B73C2"/>
<path d="M514.68 148.006C514.699 142.662 514.838 141.195 515.516 139.027C515.795 138.164 516.185 137.323 516.667 136.539C517.485 135.183 518.07 134.533 519.666 133.201H493.997C495.659 134.64 496.207 135.225 496.973 136.362C497.489 137.198 497.92 138.062 498.208 138.971C498.798 140.903 498.998 142.829 499.044 147.579C499.044 150.016 499.058 151.622 499.058 152.407V200.281C499.058 203.094 498.556 206.079 497.8 208.024C497.479 208.832 497.043 209.626 496.523 210.355C495.924 211.232 495.492 211.715 494.081 213.173H519.461C518.212 212.096 517.762 211.595 517.001 210.355C516.467 209.57 516.035 208.73 515.729 207.913C515.046 206.098 514.652 203.419 514.652 200.898V152.699L514.679 148.005" fill="#2B73C2"/>
<path d="M685.55 147.97C685.55 144.419 685.824 141.712 686.432 139.497C686.715 138.476 687.152 137.483 687.7 136.549C688.535 135.185 689.157 134.53 690.856 133.197H664.765C666.274 134.46 666.799 135.031 667.69 136.452C668.261 137.371 668.702 138.323 669.013 139.238C669.626 141.122 669.872 143.462 669.872 147.645V167.07H634.042V152.487C634.042 148.063 634.069 145.175 634.255 142.998C634.357 141.702 634.566 140.537 634.9 139.525C635.444 137.807 636.906 135.421 638.206 134.061C638.382 133.866 638.712 133.564 639.088 133.197H613.462C614.998 134.776 615.411 135.259 616.094 136.28C616.651 137.097 617.138 138.007 617.482 138.987C618.146 141.011 618.271 142.12 618.346 147.45L618.434 152.51V196.304C618.434 200.738 618.346 202.687 618.109 204.726C617.965 205.756 617.686 206.815 617.315 207.901C616.651 209.623 615.737 210.974 614.228 212.372C614.042 212.558 613.754 212.813 613.35 213.17H638.676C637.571 212.028 637.19 211.545 636.526 210.533C636.062 209.772 635.612 208.946 635.24 208.05C634.437 205.933 634.182 204.428 634.071 201.035C634.047 199.331 634.043 197.757 634.043 196.262V176.884H669.873V196.401C669.873 200.71 669.827 202.283 669.507 204.526C669.381 205.737 669.103 206.907 668.652 207.984C668.072 209.479 667.157 210.844 665.779 212.172C665.537 212.381 665.203 212.738 664.678 213.17H690.226C689.172 212.126 688.773 211.675 688.09 210.696C687.454 209.814 686.967 208.946 686.605 208.073C685.825 206.178 685.644 204.786 685.551 200.835C685.505 198.486 685.491 197.116 685.491 196.694L685.551 152.696L685.55 147.97Z" fill="#2B73C2"/>
<path d="M450.704 168.424C447.853 170.1 444.924 171.052 440.639 171.665C439.009 171.916 437.589 172.046 436.456 172.046C436.052 172.046 435.773 172.036 435.161 171.985V142.385C436.182 142.357 436.563 142.357 437.25 142.357C441.168 142.357 445.003 142.816 448.002 143.675C450.017 144.251 451.897 145.254 453.443 146.568C456.14 148.875 457.561 152.222 457.561 156.391C457.561 160.022 456.507 163.1 454.432 165.426C453.461 166.535 452.194 167.528 450.704 168.424ZM481.242 207.63C478.429 204.952 475.912 202.407 472.185 198.341C469.808 195.792 467.862 193.596 466.349 191.836L453.925 177.212C455.458 176.762 456.089 176.543 457.468 175.991C461.507 174.399 464.571 172.625 467.333 170.29C470.5 167.625 472.445 164.775 473.624 161.167C474.306 159.143 474.608 157.077 474.608 155.007C474.608 150.09 472.788 145.629 469.209 141.892C465.917 138.442 461.349 135.898 456.209 134.677C452.625 133.851 448.906 133.465 442.546 133.294C440.146 133.233 437.658 133.201 435.127 133.201H414.492C415.88 134.491 416.395 135.062 417.161 136.214C417.76 137.133 418.271 138.122 418.577 139.129C419.116 140.931 419.338 143.41 419.338 147.648V200.123C419.338 203.902 419.097 206.098 418.452 207.866C418.09 208.762 417.639 209.607 417.073 210.392C416.325 211.339 415.861 211.822 414.371 213.173H439.799C438.643 211.943 438.294 211.548 437.589 210.573C437.027 209.807 436.563 208.976 436.233 208.131C435.546 206.362 435.226 204.449 435.221 200.74C435.179 199.542 435.161 198.191 435.161 196.738V178.748L449.98 196.51C450.672 197.355 451.791 198.636 453.281 200.386C455.022 202.327 456.312 203.78 457.213 204.685C460.068 207.629 462.784 209.797 465.463 211.25C467.784 212.48 469.948 213 473.392 213.121C474.702 213.158 476.099 213.172 477.561 213.172H487.594C486.266 212.113 485.7 211.663 484.674 210.767C483.587 209.815 482.431 208.789 481.243 207.629" fill="#2B73C2"/>
<path d="M591.41 201.619C586.6 203.648 582.199 204.581 577.45 204.581C569.177 204.581 562.101 201.633 556.855 195.978C551.665 190.375 548.893 182.608 548.893 173.819C548.893 165.444 551.484 157.662 556.108 152.241C558.109 149.873 560.551 147.886 563.346 146.317C567.877 143.791 573.132 142.473 578.828 142.473C583.703 142.473 588.424 143.429 593.187 145.36C596.149 146.567 597.226 147.166 599.766 148.972V133.935C597.802 133.295 597.018 133.077 594.915 132.622C590.286 131.651 585.857 131.206 580.828 131.206C572.235 131.206 564.808 132.589 558.048 135.453C554.004 137.153 550.318 139.349 547.049 141.972C537.193 149.91 531.831 161.401 531.831 174.655C531.831 187.515 537.002 198.625 546.436 206.09C554.226 212.236 564.259 215.333 576.306 215.333C583.832 215.333 590.865 214.214 598.753 211.754C599.055 211.665 599.487 211.521 600.058 211.34V196.813C598.131 198.085 597.481 198.499 596.33 199.176C594.779 200.063 593.16 200.895 591.41 201.619Z" fill="#2B73C2"/>
<path d="M378.788 136.299C379.29 137.153 379.707 138.068 379.967 139.02C380.529 140.951 380.673 142.901 380.673 147.39V177.794C380.673 184.326 380.487 188.194 379.995 191.379C379.689 193.505 378.969 195.478 377.943 197.242C375.998 200.497 372.386 202.999 368.115 204.09C366.379 204.513 364.484 204.74 362.432 204.74C355.575 204.74 349.684 202.173 346.819 197.967C344.619 194.703 344.01 191.597 343.908 183.375L343.857 176.783V152.67C343.857 147.999 343.876 145.775 344.048 143.394C344.122 141.964 344.331 140.724 344.633 139.722C345.19 137.883 346.55 135.432 347.831 133.928C348.012 133.761 348.203 133.542 348.509 133.217H322.516C324.117 134.545 324.628 135.158 325.413 136.453C325.919 137.331 326.318 138.264 326.545 139.234C326.861 140.441 327.051 141.681 327.093 142.92C327.098 143.7 327.116 145.362 327.121 147.879L327.158 152.507V175.413C327.158 183.918 327.19 186.072 327.478 189.485C327.943 195.33 329.702 199.995 333.082 204.229C339.136 211.843 348.871 215.831 361.285 215.831C367.218 215.831 372.965 214.93 377.348 213.301C381.959 211.588 386.211 208.737 389.257 205.362C392.953 201.216 395.079 196.119 395.701 189.824C396.11 186.165 396.258 181.806 396.258 175.543V152.543L396.193 147.975V147.074C396.193 143.638 396.383 141.633 396.876 139.776C397.163 138.638 397.623 137.547 398.259 136.545C399.104 135.184 399.708 134.553 401.393 133.216H375.896C377.447 134.441 377.985 135.018 378.788 136.299Z" fill="#2B73C2"/>
<path d="M291.101 201.927C287.55 202.577 283.529 202.94 278.543 203.06C276.863 203.107 274.76 203.107 272.146 203.107H259.894L308.376 133.195H245.483L237.763 150.265C240.344 148.891 241.375 148.408 243.603 147.507C247.187 146.092 251.124 144.963 254.912 144.309C258.218 143.742 261.259 143.482 266.189 143.334C268.404 143.264 270.484 143.222 272.401 143.222H281.705L232.777 213.168H301.936L309.922 194.927C307.145 196.524 306.161 197.034 304.044 198C300.005 199.843 295.647 201.171 291.101 201.927Z" fill="#2B73C2"/>
<path d="M711.97 119.843C707.732 119.843 704.389 116.714 704.389 112.113C704.389 107.466 707.732 104.36 711.97 104.36C716.278 104.36 719.528 107.466 719.528 112.113C719.528 116.714 716.278 119.843 711.97 119.843ZM711.97 103.061C706.966 103.061 702.917 106.747 702.917 112.114C702.917 117.508 706.965 121.143 711.97 121.143C716.952 121.143 721 117.508 721 112.114C721 106.747 716.952 103.061 711.97 103.061Z" fill="#2B73C2"/>
<path d="M712.137 111.51H709.973V108.455H712.021C713.437 108.455 714.449 108.743 714.449 109.973C714.449 111.008 713.752 111.51 712.137 111.51ZM715.967 109.945C715.967 107.466 714.258 107.034 711.463 107.034H708.576V116.616H709.973V112.884H712.475C712.573 112.884 712.67 112.884 712.74 112.861L714.741 116.616H716.352L714.161 112.55C715.391 112.044 715.967 111.031 715.967 109.945Z" fill="#2B73C2"/>
</svg>
