<svg width="66" height="54" viewBox="0 0 66 54" fill="none" xmlns="http://www.w3.org/2000/svg">
<path d="M25.5 17.5L37 16.5L42.5 19.5L42 26.5L45 34.5L38 38.5L33 45L28.5 38.5L21.5 34.5L25 26L24 21L25.5 17.5Z" fill="#00B2A9"/>
<path d="M43.4899 20.7071V20.7071C41.6627 18.0726 38.6601 16.501 35.4539 16.501H30.2795C27.2084 16.501 24.3568 18.0929 22.7451 20.7071V20.7071" stroke="#221C35" stroke-width="2.5" stroke-linejoin="round"/>
<path d="M40.6533 8.64699C40.6533 12.6997 37.2655 16.044 33.0127 16.044C28.7599 16.044 25.3721 12.6997 25.3721 8.64699C25.3721 4.59426 28.7599 1.25 33.0127 1.25C33.8543 1.25 34.6615 1.3813 35.4151 1.62275C38.4781 2.60406 40.6533 5.39513 40.6533 8.64699Z" fill="#00B2A9" stroke="#221C35" stroke-width="2.5"/>
<path d="M2 49.8093C2 41.2165 8.96583 34.2507 17.5586 34.2507V34.2507C26.1514 34.2507 33.1172 41.2166 33.1172 49.8093V51.9998H2V49.8093Z" stroke="#221C35" stroke-width="2.5" stroke-linejoin="round"/>
<path d="M24.7549 26.2637C24.7549 30.4725 21.3362 33.8882 17.1143 33.8882C12.8923 33.8882 9.47363 30.4725 9.47363 26.2637C9.47363 22.0549 12.8923 18.6392 17.1143 18.6392C17.9523 18.6392 18.7564 18.7733 19.5076 19.0203C22.5578 20.0233 24.7549 22.89 24.7549 26.2637Z" stroke="#221C35" stroke-width="2.5"/>
<path d="M33.1172 49.8093C33.1172 41.2165 40.083 34.2507 48.6758 34.2507V34.2507C57.2686 34.2507 64.2344 41.2166 64.2344 49.8093V51.9998H33.1172V49.8093Z" stroke="#221C35" stroke-width="2.5" stroke-linejoin="round"/>
<path d="M56.7607 26.2637C56.7607 30.4725 53.3421 33.8882 49.1201 33.8882C44.8982 33.8882 41.4795 30.4725 41.4795 26.2637C41.4795 22.0549 44.8982 18.6392 49.1201 18.6392C49.9581 18.6392 50.7622 18.7733 51.5135 19.0203C54.5637 20.0233 56.7607 22.89 56.7607 26.2637Z" stroke="#221C35" stroke-width="2.5"/>
</svg>
