<svg width="28" height="23" viewBox="0 0 28 23" fill="none" xmlns="http://www.w3.org/2000/svg">
<path d="M18.553 8.76073V8.76073C17.7799 7.6461 16.5096 6.9812 15.1532 6.9812H12.964C11.6647 6.9812 10.4582 7.65472 9.77637 8.76073V8.76073" stroke="white" stroke-width="1.3" stroke-linejoin="round"/>
<path d="M17.2312 3.65834C17.2312 5.30289 15.8554 6.66668 14.1198 6.66668C12.3843 6.66668 11.0084 5.30289 11.0084 3.65834C11.0084 2.01379 12.3843 0.65 14.1198 0.65C14.4632 0.65 14.7923 0.703565 15.0993 0.801924C16.3482 1.20207 17.2312 2.33859 17.2312 3.65834Z" stroke="white" stroke-width="1.3"/>
<path d="M1 21.0732C1 17.4378 3.94708 14.4907 7.58248 14.4907V14.4907C11.2179 14.4907 14.165 17.4378 14.165 21.0732V21.9999H1V21.0732Z" stroke="white" stroke-width="1.3" stroke-linejoin="round"/>
<path d="M10.5057 11.1115C10.5057 12.8251 9.11373 14.2162 7.39423 14.2162C5.67473 14.2162 4.28281 12.8251 4.28281 11.1115C4.28281 9.39803 5.67473 8.00693 7.39423 8.00693C7.73576 8.00693 8.06319 8.0616 8.36896 8.16214C9.61132 8.57064 10.5057 9.7382 10.5057 11.1115Z" stroke="white" stroke-width="1.3"/>
<path d="M14.165 21.0732C14.165 17.4378 17.1121 14.4907 20.7475 14.4907V14.4907C24.3829 14.4907 27.33 17.4378 27.33 21.0732V21.9999H14.165V21.0732Z" stroke="white" stroke-width="1.3" stroke-linejoin="round"/>
<path d="M24.0467 11.1115C24.0467 12.8251 22.6547 14.2162 20.9352 14.2162C19.2157 14.2162 17.8238 12.8251 17.8238 11.1115C17.8238 9.39803 19.2157 8.00693 20.9352 8.00693C21.2768 8.00693 21.6042 8.0616 21.91 8.16214C23.1523 8.57064 24.0467 9.7382 24.0467 11.1115Z" stroke="white" stroke-width="1.3"/>
</svg>
