<svg width="42" height="62" viewBox="0 0 42 62" fill="none" xmlns="http://www.w3.org/2000/svg">
<path d="M33.8531 34.1212C31.7032 36.2626 30.6283 40.5455 30.6283 46.9697V49.1818C30.6283 49.7341 30.1806 50.1818 29.6283 50.1818H12.279C11.7267 50.1818 11.279 49.7341 11.279 49.1818V46.9697C11.279 40.5455 10.2041 36.2626 8.05413 34.1212C0.55294 26.6497 -0.284709 15.1713 7.27165 7.64485C14.828 0.118383 27.0793 0.118383 34.6356 7.64485C42.192 15.1713 41.6149 26.3901 33.8531 34.1212Z" stroke="#221C35" stroke-width="2.5" stroke-linecap="square"/>
<path d="M28.4853 29.2245C28.4853 33.9037 25.1342 37.697 21.0005 37.697C16.8667 37.697 13.5156 33.9037 13.5156 29.2245C13.5156 25.4986 18.2614 17.7459 20.1951 14.7416C20.5775 14.1475 21.4235 14.1475 21.8059 14.7416C23.7396 17.7459 28.4853 25.4986 28.4853 29.2245Z" fill="#00B2A9" stroke="#221C35" stroke-width="2.5"/>
<line x1="20.5225" y1="29.6365" x2="20.5225" y2="49.2122" stroke="#221C35" stroke-width="2.5"/>
<path d="M13.5156 49.2122V59.7273C13.5156 60.2796 13.9633 60.7273 14.5156 60.7273H27.4853C28.0376 60.7273 28.4853 60.2796 28.4853 59.7273V49.2122" stroke="#221C35" stroke-width="2.5"/>
</svg>
