<svg width="20" height="30" viewBox="0 0 20 30" fill="none" xmlns="http://www.w3.org/2000/svg">
<path d="M16.0883 16.2153C15.07 17.2297 14.5608 19.2584 14.5608 22.3014V22.823C14.5608 23.3753 14.113 23.823 13.5608 23.823H6.39532C5.84304 23.823 5.39532 23.3753 5.39532 22.823V22.3014C5.39532 19.2584 4.88613 17.2297 3.86775 16.2153C0.31455 12.6762 -0.0822309 7.23905 3.4971 3.67388C7.07642 0.108708 12.8797 0.108708 16.459 3.67388C20.0383 7.23905 19.765 12.5532 16.0883 16.2153Z" stroke="white" stroke-width="1.3" stroke-linecap="square"/>
<path d="M13.545 13.8959C13.545 16.1123 11.9577 17.9091 9.99956 17.9091C8.04146 17.9091 6.4541 16.1123 6.4541 13.8959C6.4541 12.3595 8.15748 9.37791 9.20288 7.69266C9.57534 7.09225 10.4238 7.09225 10.7962 7.69266C11.8416 9.37791 13.545 12.3595 13.545 13.8959Z" stroke="white" stroke-width="1.3"/>
<line x1="9.83164" y1="14.0912" x2="9.83164" y2="23.3639" stroke="white" stroke-width="1.3"/>
<path d="M6.4541 23.3635V27.8181C6.4541 28.3704 6.90182 28.8181 7.4541 28.8181H12.545C13.0973 28.8181 13.545 28.3704 13.545 27.8181V23.3635" stroke="white" stroke-width="1.3"/>
</svg>
