<svg width="38" height="25" viewBox="0 0 38 25" fill="none" xmlns="http://www.w3.org/2000/svg">
<path d="M3.38537 10.291L19.0731 16.1754C19.1453 16.1754 19.2899 16.1754 19.3622 16.1754L30.8569 11.8697M4.61436 10.7216L7.79527 11.9415V19.7548C7.79527 20.3289 8.22903 20.903 8.80738 21.3335C9.38573 21.8359 10.2533 22.2664 11.2654 22.697C13.2896 23.4864 16.109 24.0604 19.2176 24.0604C22.3263 24.0604 25.1457 23.4864 27.1699 22.697C28.182 22.2664 29.0496 21.8359 29.6279 21.3335C30.2063 20.8312 30.64 20.3289 30.64 19.7548V11.9415L37.0741 9.50164C37.3633 9.35812 37.3633 8.85579 37.0741 8.78403L19.3181 1.03189C19.1735 0.960133 19.0289 1.03189 19.0289 1.03189L1.21657 8.78403C0.927392 8.92755 0.927392 9.42988 1.21657 9.50164L3.74684 10.4345L4.61436 10.7216Z" stroke="white" stroke-width="1.3" stroke-miterlimit="10" stroke-linecap="round" stroke-linejoin="round"/>
<path d="M3.11133 10.5248V15.8351" stroke="white" stroke-width="1.3" stroke-miterlimit="10" stroke-linecap="round" stroke-linejoin="round"/>
</svg>
