<svg width="73" height="48" viewBox="0 0 73 48" fill="none" xmlns="http://www.w3.org/2000/svg">
<path d="M15.3398 24L36.8398 31L59.3398 23.5V37.5L51.3398 44L37.3398 46.5L22.8398 44L15.3398 38.5V24Z" fill="#00B2A9"/>
<path d="M6.55801 19.7519L36.5317 30.995C36.6698 30.995 36.9461 30.995 37.0842 30.995L59.0465 22.7684M8.90618 20.5747L14.9838 22.9055V37.834C14.9838 38.9309 15.8126 40.0278 16.9176 40.8504C18.0226 41.8102 19.6801 42.6329 21.6139 43.4555C25.4815 44.9637 30.8685 46.0606 36.8079 46.0606C42.7474 46.0606 48.1344 44.9637 52.002 43.4555C53.9358 42.6329 55.5933 41.8102 56.6983 40.8504C57.8033 39.8907 58.6321 38.9309 58.6321 37.834V22.9055L70.9255 18.2438C71.478 17.9696 71.478 17.0098 70.9255 16.8727L36.9998 2.06106C36.7236 1.92395 36.4473 2.06106 36.4473 2.06106L2.41418 16.8727C1.86167 17.1469 1.86167 18.1067 2.41418 18.2438L7.24865 20.0262L8.90618 20.5747Z" stroke="#221C35" stroke-width="2.5" stroke-miterlimit="10" stroke-linecap="round" stroke-linejoin="round"/>
<path d="M6.03418 20.1986V30.3447" stroke="#221C35" stroke-width="2.5" stroke-miterlimit="10" stroke-linecap="round" stroke-linejoin="round"/>
</svg>
