<svg width="59" height="63" viewBox="0 0 59 63" fill="none" xmlns="http://www.w3.org/2000/svg">
<rect x="5.02148" y="3.25562" width="21.3404" height="21.3404" rx="1" stroke="#221C35" stroke-width="2.5"/>
<circle cx="47.0745" cy="44.0533" r="10.6702" fill="#00B2A9" stroke="#221C35" stroke-width="2.5"/>
<path d="M14.1978 33.6274C14.5827 32.9608 15.545 32.9608 15.9299 33.6274L27.2435 53.2232C27.6284 53.8899 27.1472 54.7232 26.3774 54.7232H3.75022C2.98042 54.7232 2.4993 53.8899 2.8842 53.2232L14.1978 33.6274Z" stroke="#221C35" stroke-width="2.5"/>
<path d="M46.574 2.28868C46.8834 2.11004 47.2646 2.11004 47.574 2.28868L56.9018 7.67409C57.2112 7.85272 57.4018 8.18285 57.4018 8.54012V19.3109C57.4018 19.6682 57.2112 19.9983 56.9018 20.177L47.574 25.5624C47.2646 25.741 46.8834 25.741 46.574 25.5624L37.2462 20.177C36.9368 19.9983 36.7462 19.6682 36.7462 19.3109V8.54012C36.7462 8.18285 36.9368 7.85272 37.2462 7.67409L46.574 2.28868Z" stroke="#221C35" stroke-width="2.5"/>
</svg>
