<svg width="26" height="27" viewBox="0 0 26 27" fill="none" xmlns="http://www.w3.org/2000/svg">
<rect x="2.16699" y="1.5415" width="9.2084" height="9.2084" rx="1" stroke="white" stroke-width="1.3"/>
<circle cx="20.3132" cy="19.1457" r="4.6042" fill="#00B2A9" stroke="white" stroke-width="1.3"/>
<path d="M5.63402 15.5C6.01892 14.8333 6.98117 14.8333 7.36607 15.5L11.2632 22.2501C11.6481 22.9167 11.167 23.7501 10.3972 23.7501H2.60289C1.83309 23.7501 1.35197 22.9167 1.73687 22.2501L5.63402 15.5Z" stroke="white" stroke-width="1.3"/>
<path d="M19.8129 1.28867C20.1223 1.11004 20.5035 1.11004 20.8129 1.28868L24.2693 3.28426C24.5787 3.46289 24.7693 3.79302 24.7693 4.15029V8.14145C24.7693 8.49872 24.5787 8.82885 24.2693 9.00748L20.8129 11.0031C20.5035 11.1817 20.1223 11.1817 19.8129 11.0031L16.3564 9.00748C16.047 8.82885 15.8564 8.49872 15.8564 8.14145V4.15028C15.8564 3.79302 16.047 3.46289 16.3564 3.28426L19.8129 1.28867Z" stroke="white" stroke-width="1.3"/>
</svg>
