<svg width="140" height="48" viewBox="0 0 140 48" fill="none" xmlns="http://www.w3.org/2000/svg">
<path d="M138.8 46.8339C138.926 47.0796 139.227 47.1767 139.473 47.0506C139.718 46.9246 139.815 46.6233 139.689 46.3776L138.8 46.8339ZM1.37571 29.5205C1.56021 29.315 1.54321 28.9989 1.33774 28.8144C1.13227 28.6299 0.816146 28.6469 0.631653 28.8524L1.37571 29.5205ZM2.69924 26.6286C2.50771 26.8276 2.51373 27.1441 2.71266 27.3356C2.9116 27.5271 3.22812 27.5211 3.41964 27.3222L2.69924 26.6286ZM3.42655 27.315C3.61809 27.1161 3.61212 26.7996 3.41321 26.608C3.2143 26.4165 2.89777 26.4224 2.70623 26.6214L3.42655 27.315ZM4.84665 24.4748C4.64828 24.6669 4.6432 24.9834 4.83531 25.1818C5.02741 25.3802 5.34395 25.3853 5.54233 25.1931L4.84665 24.4748ZM5.54951 25.1862C5.7479 24.9941 5.75301 24.6776 5.56093 24.4792C5.36885 24.2808 5.05231 24.2757 4.85392 24.4677L5.54951 25.1862ZM7.06574 22.4001C6.86073 22.5851 6.84453 22.9013 7.02953 23.1063C7.21454 23.3113 7.5307 23.3275 7.73571 23.1425L7.06574 22.4001ZM7.74316 23.1358C7.94818 22.9508 7.96443 22.6346 7.77945 22.4296C7.59446 22.2246 7.27829 22.2083 7.07327 22.3933L7.74316 23.1358ZM9.36071 20.4015C9.14928 20.5791 9.12189 20.8945 9.29952 21.106C9.47716 21.3174 9.79256 21.3448 10.004 21.1672L9.36071 20.4015ZM10.0116 21.1607C10.2231 20.9831 10.2505 20.6677 10.0729 20.4563C9.89527 20.2448 9.57987 20.2174 9.36843 20.395L10.0116 21.1607ZM11.7248 18.4858C11.5072 18.6559 11.4686 18.9701 11.6386 19.1877C11.8086 19.4053 12.1229 19.4439 12.3405 19.2739L11.7248 18.4858ZM12.3483 19.2677C12.566 19.0977 12.6046 18.7835 12.4346 18.5659C12.2646 18.3483 11.9504 18.3096 11.7328 18.4796L12.3483 19.2677ZM14.1533 16.6571C13.9298 16.8193 13.88 17.1319 14.0422 17.3555C14.2043 17.579 14.517 17.6287 14.7405 17.4666L14.1533 16.6571ZM14.7486 17.4607C14.9721 17.2986 15.0219 16.9859 14.8598 16.7624C14.6977 16.5388 14.385 16.4891 14.1615 16.6512L14.7486 17.4607ZM16.6455 14.9161C16.4163 15.0701 16.3555 15.3808 16.5095 15.61C16.6636 15.8391 16.9743 15.9 17.2034 15.7459L16.6455 14.9161ZM17.2117 15.7404C17.4409 15.5863 17.5018 15.2756 17.3477 15.0465C17.1937 14.8173 16.883 14.7564 16.6538 14.9104L17.2117 15.7404ZM19.2013 13.2631C18.9668 13.4089 18.8949 13.7172 19.0407 13.9517C19.1865 14.1862 19.4948 14.2581 19.7293 14.1124L19.2013 13.2631ZM19.7378 14.1071C19.9723 13.9613 20.0443 13.653 19.8985 13.4185C19.7527 13.184 19.4444 13.112 19.2099 13.2578L19.7378 14.1071ZM21.8127 11.7037C21.5731 11.841 21.4902 12.1465 21.6275 12.3861C21.7648 12.6257 22.0704 12.7086 22.31 12.5713L21.8127 11.7037ZM22.3186 12.5663C22.5582 12.429 22.6412 12.1235 22.5039 11.8839C22.3666 11.6443 22.0611 11.5614 21.8215 11.6987L22.3186 12.5663ZM24.4768 10.2393C24.2325 10.368 24.1387 10.6704 24.2674 10.9147C24.3961 11.159 24.6984 11.2528 24.9428 11.1241L24.4768 10.2393ZM24.9516 11.1195C25.196 10.9908 25.2898 10.6885 25.1611 10.4441C25.0325 10.1998 24.7301 10.106 24.4858 10.2346L24.9516 11.1195ZM27.1934 8.87016C26.9447 8.99002 26.8402 9.28885 26.96 9.53763C27.0799 9.7864 27.3787 9.89091 27.6275 9.77106L27.1934 8.87016ZM27.6365 9.76673C27.8853 9.6469 27.9898 9.34808 27.87 9.09929C27.7501 8.8505 27.4513 8.74596 27.2025 8.86578L27.6365 9.76673ZM29.9576 7.5988C29.7047 7.70969 29.5895 8.0046 29.7004 8.2575C29.8113 8.5104 30.1062 8.62552 30.3591 8.51462L29.9576 7.5988ZM30.3683 8.51062C30.6212 8.39975 30.7363 8.10486 30.6255 7.85194C30.5146 7.59903 30.2197 7.48388 29.9668 7.59474L30.3683 8.51062ZM32.7641 6.4274C32.5074 6.5292 32.3819 6.81982 32.4837 7.07651C32.5855 7.33321 32.8761 7.45877 33.1328 7.35697L32.7641 6.4274ZM33.1421 7.35329C33.3988 7.25152 33.5244 6.96091 33.4226 6.70421C33.3208 6.44751 33.0302 6.32191 32.7735 6.42368L33.1421 7.35329ZM35.61 5.35706C35.3498 5.44966 35.214 5.73561 35.3066 5.99577C35.3992 6.25593 35.6851 6.39176 35.9453 6.29917L35.61 5.35706ZM35.9547 6.29582C36.2149 6.20326 36.3507 5.91732 36.2582 5.65715C36.1656 5.39698 35.8797 5.26111 35.6195 5.35367L35.9547 6.29582ZM38.494 4.38813C38.2307 4.47139 38.0848 4.75233 38.1681 5.01563C38.2513 5.27891 38.5323 5.42485 38.7956 5.34158L38.494 4.38813ZM38.8051 5.33857C39.0684 5.25533 39.2144 4.97441 39.1311 4.71111C39.0479 4.44781 38.767 4.30185 38.5037 4.38508L38.8051 5.33857ZM41.4102 3.52261C41.1441 3.59646 40.9882 3.87203 41.0621 4.13811C41.136 4.4042 41.4115 4.56003 41.6776 4.48618L41.4102 3.52261ZM41.6872 4.48351C41.9533 4.40969 42.1092 4.13413 42.0354 3.86804C41.9615 3.60195 41.686 3.44608 41.4199 3.5199L41.6872 4.48351ZM44.3546 2.76144C44.0861 2.82579 43.9205 3.09566 43.9849 3.3642C44.0492 3.63273 44.3191 3.79826 44.5876 3.7339L44.3546 2.76144ZM44.5974 3.73157C44.8659 3.66725 45.0315 3.39741 44.9671 3.12886C44.9028 2.86031 44.633 2.69476 44.3644 2.75908L44.5974 3.73157ZM47.3239 2.10534C47.0533 2.16013 46.8783 2.42395 46.9331 2.6946C46.9878 2.96525 47.2517 3.14025 47.5223 3.08547L47.3239 2.10534ZM47.5321 3.08349C47.8028 3.02873 47.9778 2.76493 47.923 2.49427C47.8683 2.22362 47.6045 2.04859 47.3338 2.10334L47.5321 3.08349ZM50.3158 1.5548C50.0434 1.59995 49.8592 1.8574 49.9043 2.12982C49.9495 2.40225 50.2069 2.5865 50.4793 2.54135L50.3158 1.5548ZM50.4892 2.53972C50.7616 2.4946 50.9459 2.23718 50.9008 1.96475C50.8557 1.69231 50.5982 1.50804 50.3258 1.55315L50.4892 2.53972ZM53.3248 1.11081C53.051 1.14627 52.8577 1.39702 52.8932 1.67088C52.9286 1.94473 53.1794 2.13799 53.4532 2.10253L53.3248 1.11081ZM53.4631 2.10125C53.737 2.06582 53.9303 1.8151 53.8949 1.54124C53.8594 1.26738 53.6087 1.07409 53.3349 1.10952L53.4631 2.10125ZM56.3475 0.773809C56.0725 0.799537 55.8705 1.04328 55.8962 1.31822C55.9219 1.59316 56.1657 1.79519 56.4406 1.76946L56.3475 0.773809ZM56.4506 1.76853C56.7255 1.74283 56.9276 1.49912 56.9019 1.22417C56.8762 0.949229 56.6325 0.747171 56.3575 0.772867L56.4506 1.76853ZM59.3803 0.544183C59.1046 0.560146 58.894 0.796568 58.91 1.07225C58.926 1.34793 59.1624 1.55847 59.4381 1.54251L59.3803 0.544183ZM59.448 1.54193C59.7237 1.52601 59.9343 1.28961 59.9184 1.01393C59.9024 0.738242 59.666 0.527671 59.3903 0.543599L59.448 1.54193ZM62.4194 0.42228C62.1434 0.428447 61.9246 0.65725 61.9307 0.933323C61.9369 1.2094 62.1657 1.4282 62.4418 1.42203L62.4194 0.42228ZM62.4518 1.42181C62.7278 1.41567 62.9467 1.18689 62.9405 0.91082C62.9344 0.634745 62.7056 0.415917 62.4295 0.422054L62.4518 1.42181ZM65.4609 0.408336C65.1848 0.404697 64.958 0.625585 64.9543 0.901703C64.9507 1.17782 65.1716 1.40461 65.4477 1.40825L65.4609 0.408336ZM65.4577 1.40838C65.7338 1.41205 65.9606 1.19119 65.9643 0.915075C65.968 0.638958 65.7471 0.412143 65.471 0.40847L65.4577 1.40838ZM68.501 0.502485C68.2252 0.489029 67.9907 0.701713 67.9773 0.977527C67.9638 1.25334 68.1765 1.48784 68.4523 1.5013L68.501 0.502485ZM68.4623 1.50178C68.7381 1.51527 68.9726 1.30261 68.9861 1.0268C68.9996 0.750989 68.7869 0.516464 68.5111 0.502977L68.4623 1.50178ZM71.5362 0.70477C71.261 0.6815 71.0191 0.885699 70.9958 1.16086C70.9725 1.43602 71.1767 1.67794 71.4519 1.70121L71.5362 0.70477ZM71.4619 1.70205C71.737 1.72536 71.979 1.52119 72.0023 1.24603C72.0256 0.97087 71.8214 0.728922 71.5462 0.705621L71.4619 1.70205ZM74.5616 1.01503C74.2874 0.98196 74.0383 1.1774 74.0053 1.45155C73.9722 1.72571 74.1677 1.97476 74.4418 2.00783L74.5616 1.01503ZM74.4517 2.00903C74.7259 2.04213 74.975 1.84672 75.0081 1.57257C75.0412 1.29842 74.8457 1.04934 74.5716 1.01624L74.4517 2.00903ZM77.5741 1.43312C77.3013 1.39028 77.0455 1.57669 77.0026 1.84949C76.9598 2.12229 77.1462 2.37817 77.419 2.42101L77.5741 1.43312ZM77.4289 2.42256C77.7017 2.46544 77.9576 2.27905 78.0004 2.00626C78.0433 1.73347 77.8569 1.47756 77.5841 1.43469L77.4289 2.42256ZM80.5704 1.95882C80.2993 1.90624 80.0369 2.08337 79.9844 2.35446C79.9318 2.62554 80.1089 2.88794 80.38 2.94052L80.5704 1.95882ZM80.3898 2.94242C80.6609 2.99504 80.9233 2.81794 80.9759 2.54686C81.0285 2.27577 80.8514 2.01336 80.5803 1.96075L80.3898 2.94242ZM83.546 2.59162C83.277 2.52934 83.0084 2.69694 82.9461 2.96597C82.8838 3.235 83.0514 3.50357 83.3205 3.56586L83.546 2.59162ZM83.3302 3.56811C83.5992 3.63043 83.8678 3.46286 83.9301 3.19384C83.9925 2.92482 83.8249 2.65622 83.5559 2.59391L83.3302 3.56811ZM86.4957 3.3306C86.2291 3.25869 85.9547 3.41653 85.8828 3.68314C85.8109 3.94975 85.9687 4.22418 86.2353 4.2961L86.4957 3.3306ZM86.245 4.2987C86.5116 4.37064 86.786 4.21284 86.858 3.94624C86.9299 3.67963 86.7721 3.40518 86.5055 3.33324L86.245 4.2987ZM89.4176 4.17545C89.1538 4.09398 88.8738 4.24183 88.7924 4.50568C88.7109 4.76953 88.8587 5.04947 89.1226 5.13094L89.4176 4.17545ZM89.1321 5.13388C89.396 5.21539 89.6759 5.06758 89.7574 4.80373C89.8389 4.5399 89.6911 4.25994 89.4273 4.17844L89.1321 5.13388ZM92.3083 5.12552C92.0475 5.03458 91.7624 5.17222 91.6715 5.43295C91.5806 5.69369 91.7182 5.97878 91.9789 6.06973L92.3083 5.12552ZM91.9884 6.07302C92.2491 6.16399 92.5342 6.02639 92.6252 5.76566C92.7161 5.50494 92.5785 5.21983 92.3178 5.12885L91.9884 6.07302ZM95.1618 6.17908C94.9045 6.07877 94.6146 6.20601 94.5143 6.46329C94.414 6.72057 94.5413 7.01045 94.7985 7.11077L95.1618 6.17908ZM94.8079 7.1144C95.0651 7.21474 95.355 7.08753 95.4554 6.83027C95.5557 6.573 95.4285 6.2831 95.1712 6.18276L94.8079 7.1144ZM97.9742 7.33467C97.7207 7.22512 97.4264 7.34179 97.3169 7.59527C97.2073 7.84876 97.324 8.14305 97.5775 8.25261L97.9742 7.33467ZM97.5866 8.25657C97.8401 8.36616 98.1344 8.24952 98.244 7.99605C98.3536 7.74259 98.237 7.44827 97.9835 7.33869L97.5866 8.25657ZM100.744 8.5919C100.495 8.47324 100.197 8.57917 100.078 8.82852C99.9592 9.07787 100.065 9.3762 100.314 9.49486L100.744 8.5919ZM100.323 9.49915C100.573 9.61785 100.871 9.51194 100.99 9.26261C101.109 9.01328 101.003 8.71494 100.753 8.59624L100.323 9.49915ZM103.469 9.94965C103.224 9.82203 102.922 9.91708 102.794 10.162C102.667 10.4068 102.762 10.7088 103.007 10.8364L103.469 9.94965ZM103.015 10.841C103.26 10.9687 103.562 10.8737 103.69 10.6288C103.818 10.3839 103.723 10.082 103.478 9.95431L103.015 10.841ZM106.139 11.4031C105.899 11.2667 105.593 11.3508 105.457 11.5909C105.321 11.831 105.405 12.1362 105.645 12.2726L106.139 11.4031ZM105.653 12.2776C105.894 12.414 106.199 12.33 106.335 12.0899C106.472 11.8498 106.388 11.5446 106.147 11.4081L105.653 12.2776ZM108.755 12.9525C108.52 12.8075 108.212 12.8805 108.067 13.1155C107.922 13.3505 107.995 13.6586 108.23 13.8036L108.755 12.9525ZM108.238 13.8088C108.473 13.9538 108.781 13.8809 108.926 13.6459C109.071 13.4109 108.998 13.1028 108.763 12.9578L108.238 13.8088ZM111.316 14.5968C111.086 14.4434 110.775 14.5052 110.622 14.7349C110.469 14.9645 110.531 15.275 110.76 15.4284L111.316 14.5968ZM110.768 15.4339C110.998 15.5873 111.309 15.5255 111.462 15.2959C111.615 15.0663 111.554 14.7558 111.324 14.6024L110.768 15.4339ZM113.815 16.3321C113.591 16.1706 113.279 16.2212 113.117 16.4452C112.956 16.6692 113.006 16.9817 113.23 17.1432L113.815 16.3321ZM113.239 17.1491C113.463 17.3106 113.775 17.26 113.937 17.0361C114.098 16.8121 114.048 16.4996 113.824 16.3381L113.239 17.1491ZM116.248 18.1532C116.029 17.9837 115.715 18.0232 115.546 18.2412C115.376 18.4593 115.416 18.7734 115.634 18.9428L116.248 18.1532ZM115.642 18.9489C115.86 19.1184 116.174 19.079 116.343 18.861C116.513 18.6429 116.474 18.3288 116.256 18.1594L115.642 18.9489ZM118.616 20.062C118.404 19.8849 118.089 19.9131 117.912 20.125C117.735 20.3369 117.763 20.6522 117.975 20.8293L118.616 20.062ZM117.982 20.8357C118.194 21.0128 118.509 20.9846 118.687 20.7727C118.864 20.5608 118.835 20.2455 118.624 20.0684L117.982 20.8357ZM120.919 22.0569C120.713 21.8724 120.397 21.8894 120.213 22.0949C120.028 22.3004 120.045 22.6165 120.251 22.801L120.919 22.0569ZM120.258 22.8077C120.464 22.9922 120.78 22.9752 120.964 22.7697C121.149 22.5643 121.132 22.2482 120.926 22.0637L120.258 22.8077ZM123.18 24.1609C122.981 23.9692 122.664 23.9749 122.473 24.1736C122.281 24.3723 122.287 24.6889 122.485 24.8806L123.18 24.1609ZM122.493 24.8876C122.691 25.0794 123.008 25.0737 123.2 24.875C123.391 24.6763 123.386 24.3598 123.187 24.168L122.493 24.8876ZM125.363 26.3451C125.172 26.1464 124.855 26.1406 124.656 26.3323C124.458 26.5239 124.452 26.8405 124.643 27.0393L125.363 26.3451ZM124.651 27.0466C124.842 27.2454 125.159 27.2512 125.358 27.0595C125.556 26.8679 125.562 26.5513 125.37 26.3525L124.651 27.0466ZM127.467 28.6071C127.282 28.4015 126.966 28.3842 126.76 28.5686C126.555 28.7529 126.538 29.069 126.722 29.2746L127.467 28.6071ZM126.729 29.2822C126.913 29.4878 127.229 29.5051 127.435 29.3208C127.64 29.1365 127.658 28.8204 127.473 28.6148L126.729 29.2822ZM129.486 30.9442C129.309 30.732 128.994 30.7032 128.782 30.8799C128.57 31.0566 128.541 31.3719 128.717 31.5841L129.486 30.9442ZM128.724 31.5919C128.901 31.8041 129.216 31.833 129.428 31.6563C129.64 31.4796 129.669 31.1643 129.492 30.9521L128.724 31.5919ZM131.419 33.3536C131.25 33.1351 130.936 33.0947 130.717 33.2636C130.499 33.4324 130.458 33.7464 130.627 33.9649L131.419 33.3536ZM130.633 33.9729C130.802 34.1915 131.116 34.2318 131.335 34.0631C131.553 33.8943 131.594 33.5803 131.425 33.3617L130.633 33.9729ZM133.261 35.8322C133.101 35.6076 132.788 35.5558 132.564 35.7165C132.339 35.8771 132.288 36.1895 132.448 36.414L133.261 35.8322ZM132.454 36.4223C132.615 36.6469 132.927 36.6987 133.152 36.5381C133.376 36.3775 133.428 36.0652 133.267 35.8405L132.454 36.4223ZM135.012 38.3771C134.86 38.1467 134.55 38.0835 134.319 38.2358C134.089 38.3881 134.026 38.6983 134.178 38.9286L135.012 38.3771ZM134.184 38.9371C134.336 39.1674 134.646 39.2307 134.877 39.0784C135.107 38.9262 135.17 38.616 135.018 38.3856L134.184 38.9371ZM136.668 40.9845C136.525 40.7487 136.217 40.6741 135.981 40.8178C135.745 40.9616 135.671 41.2692 135.814 41.505L136.668 40.9845ZM135.82 41.5137C135.963 41.7495 136.271 41.8241 136.507 41.6804C136.743 41.5367 136.817 41.2291 136.674 40.9933L135.82 41.5137ZM138.227 43.651C138.092 43.4101 137.788 43.3242 137.547 43.4592C137.306 43.5942 137.22 43.8989 137.355 44.1398L138.227 43.651ZM137.36 44.1486C137.495 44.3896 137.799 44.4755 138.04 44.3406C138.281 44.2056 138.367 43.9009 138.232 43.66L137.36 44.1486ZM139.687 46.373C139.561 46.1273 139.26 46.0303 139.014 46.1563C138.768 46.2823 138.671 46.5837 138.797 46.8294L139.687 46.373ZM1.37236 29.5242C1.37347 29.523 1.37459 29.5217 1.37571 29.5205L0.631653 28.8524C0.630522 28.8536 0.62939 28.8549 0.628259 28.8562L1.37236 29.5242ZM3.41964 27.3222C3.42194 27.3198 3.42425 27.3174 3.42655 27.315L2.70623 26.6214C2.7039 26.6238 2.70157 26.6262 2.69924 26.6286L3.41964 27.3222ZM5.54233 25.1931C5.54472 25.1908 5.54711 25.1885 5.54951 25.1862L4.85392 24.4677C4.85149 24.4701 4.84907 24.4724 4.84665 24.4748L5.54233 25.1931ZM7.73571 23.1425C7.73819 23.1403 7.74067 23.138 7.74316 23.1358L7.07327 22.3933C7.07076 22.3956 7.06825 22.3978 7.06574 22.4001L7.73571 23.1425ZM10.004 21.1672C10.0065 21.165 10.0091 21.1629 10.0116 21.1607L9.36843 20.395C9.36586 20.3972 9.36328 20.3994 9.36071 20.4015L10.004 21.1672ZM12.3405 19.2739C12.3431 19.2718 12.3457 19.2698 12.3483 19.2677L11.7328 18.4796C11.7301 18.4817 11.7275 18.4838 11.7248 18.4858L12.3405 19.2739ZM14.7405 17.4666C14.7432 17.4646 14.7459 17.4626 14.7486 17.4607L14.1615 16.6512C14.1588 16.6532 14.156 16.6552 14.1533 16.6571L14.7405 17.4666ZM17.2034 15.7459C17.2062 15.7441 17.209 15.7422 17.2117 15.7404L16.6538 14.9104C16.651 14.9123 16.6483 14.9142 16.6455 14.9161L17.2034 15.7459ZM19.7293 14.1124C19.7321 14.1106 19.7349 14.1088 19.7378 14.1071L19.2099 13.2578C19.207 13.2595 19.2042 13.2613 19.2013 13.2631L19.7293 14.1124ZM22.31 12.5713C22.3128 12.5696 22.3157 12.568 22.3186 12.5663L21.8215 11.6987C21.8185 11.7003 21.8156 11.702 21.8127 11.7037L22.31 12.5713ZM24.9428 11.1241C24.9457 11.1226 24.9487 11.121 24.9516 11.1195L24.4858 10.2346C24.4828 10.2362 24.4798 10.2378 24.4768 10.2393L24.9428 11.1241ZM27.6275 9.77106C27.6305 9.76962 27.6335 9.76817 27.6365 9.76673L27.2025 8.86578C27.1995 8.86724 27.1965 8.8687 27.1934 8.87016L27.6275 9.77106ZM30.3591 8.51462C30.3622 8.51329 30.3652 8.51195 30.3683 8.51062L29.9668 7.59474C29.9637 7.5961 29.9606 7.59745 29.9576 7.5988L30.3591 8.51462ZM33.1328 7.35697C33.1359 7.35574 33.139 7.35451 33.1421 7.35329L32.7735 6.42368C32.7704 6.42492 32.7673 6.42616 32.7641 6.4274L33.1328 7.35697ZM35.9453 6.29917C35.9484 6.29806 35.9516 6.29694 35.9547 6.29582L35.6195 5.35367C35.6163 5.3548 35.6131 5.35593 35.61 5.35706L35.9453 6.29917ZM38.7956 5.34158C38.7987 5.34058 38.8019 5.33957 38.8051 5.33857L38.5037 4.38508C38.5004 4.3861 38.4972 4.38711 38.494 4.38813L38.7956 5.34158ZM41.6776 4.48618C41.6808 4.48529 41.684 4.4844 41.6872 4.48351L41.4199 3.5199C41.4167 3.5208 41.4134 3.5217 41.4102 3.52261L41.6776 4.48618ZM44.5876 3.7339C44.5909 3.73313 44.5941 3.73235 44.5974 3.73157L44.3644 2.75908C44.3611 2.75987 44.3579 2.76065 44.3546 2.76144L44.5876 3.7339ZM47.5223 3.08547C47.5256 3.08481 47.5288 3.08415 47.5321 3.08349L47.3338 2.10334C47.3305 2.10401 47.3272 2.10468 47.3239 2.10534L47.5223 3.08547ZM50.4793 2.54135C50.4826 2.5408 50.4859 2.54026 50.4892 2.53972L50.3258 1.55315C50.3225 1.5537 50.3191 1.55425 50.3158 1.5548L50.4793 2.54135ZM53.4532 2.10253C53.4565 2.10211 53.4598 2.10168 53.4631 2.10125L53.3349 1.10952C53.3315 1.10995 53.3282 1.11038 53.3248 1.11081L53.4532 2.10253ZM56.4406 1.76946C56.4439 1.76915 56.4473 1.76884 56.4506 1.76853L56.3575 0.772867C56.3542 0.77318 56.3508 0.773495 56.3475 0.773809L56.4406 1.76946ZM59.4381 1.54251C59.4414 1.54232 59.4447 1.54213 59.448 1.54193L59.3903 0.543599C59.387 0.543794 59.3836 0.543989 59.3803 0.544183L59.4381 1.54251ZM62.4418 1.42203C62.4451 1.42196 62.4484 1.42188 62.4518 1.42181L62.4295 0.422054C62.4262 0.422127 62.4228 0.422204 62.4194 0.42228L62.4418 1.42203ZM65.4477 1.40825C65.451 1.40829 65.4544 1.40834 65.4577 1.40838L65.471 0.40847C65.4676 0.408425 65.4642 0.408381 65.4609 0.408336L65.4477 1.40825ZM68.4523 1.5013C68.4556 1.50146 68.459 1.50162 68.4623 1.50178L68.5111 0.502977C68.5078 0.502813 68.5044 0.502648 68.501 0.502485L68.4523 1.5013ZM71.4519 1.70121C71.4552 1.70149 71.4585 1.70178 71.4619 1.70205L71.5462 0.705621C71.5429 0.705336 71.5395 0.705054 71.5362 0.70477L71.4519 1.70121ZM74.4418 2.00783C74.4451 2.00823 74.4484 2.00863 74.4517 2.00903L74.5716 1.01624C74.5682 1.01584 74.5649 1.01543 74.5616 1.01503L74.4418 2.00783ZM77.419 2.42101C77.4223 2.42153 77.4256 2.42205 77.4289 2.42256L77.5841 1.43469C77.5808 1.43417 77.5775 1.43364 77.5741 1.43312L77.419 2.42101ZM80.38 2.94052C80.3833 2.94115 80.3865 2.94179 80.3898 2.94242L80.5803 1.96075C80.577 1.9601 80.5737 1.95946 80.5704 1.95882L80.38 2.94052ZM83.3205 3.56586C83.3237 3.56661 83.327 3.56736 83.3302 3.56811L83.5559 2.59391C83.5526 2.59314 83.5493 2.59239 83.546 2.59162L83.3205 3.56586ZM86.2353 4.2961C86.2385 4.29697 86.2418 4.29783 86.245 4.2987L86.5055 3.33324C86.5023 3.33236 86.499 3.33148 86.4957 3.3306L86.2353 4.2961ZM89.1226 5.13094C89.1258 5.13192 89.129 5.1329 89.1321 5.13388L89.4273 4.17844C89.4241 4.17744 89.4208 4.17645 89.4176 4.17545L89.1226 5.13094ZM91.9789 6.06973C91.9821 6.07083 91.9852 6.07192 91.9884 6.07302L92.3178 5.12885C92.3146 5.12774 92.3115 5.12663 92.3083 5.12552L91.9789 6.06973ZM94.7985 7.11077C94.8016 7.11198 94.8048 7.11319 94.8079 7.1144L95.1712 6.18276C95.1681 6.18153 95.165 6.18031 95.1618 6.17908L94.7985 7.11077ZM97.5775 8.25261C97.5805 8.25393 97.5836 8.25525 97.5866 8.25657L97.9835 7.33869C97.9804 7.33735 97.9773 7.33601 97.9742 7.33467L97.5775 8.25261ZM100.314 9.49486C100.317 9.49629 100.32 9.49772 100.323 9.49915L100.753 8.59624C100.75 8.59479 100.747 8.59335 100.744 8.5919L100.314 9.49486ZM103.007 10.8364C103.01 10.838 103.013 10.8395 103.015 10.841L103.478 9.95431C103.475 9.95276 103.472 9.9512 103.469 9.94965L103.007 10.8364ZM105.645 12.2726C105.648 12.2743 105.651 12.2759 105.653 12.2776L106.147 11.4081C106.145 11.4065 106.142 11.4048 106.139 11.4031L105.645 12.2726ZM108.23 13.8036C108.233 13.8053 108.235 13.8071 108.238 13.8088L108.763 12.9578C108.761 12.956 108.758 12.9543 108.755 12.9525L108.23 13.8036ZM110.76 15.4284C110.763 15.4302 110.766 15.432 110.768 15.4339L111.324 14.6024C111.321 14.6005 111.318 14.5986 111.316 14.5968L110.76 15.4284ZM113.23 17.1432C113.233 17.1452 113.236 17.1471 113.239 17.1491L113.824 16.3381C113.821 16.3361 113.818 16.3341 113.815 16.3321L113.23 17.1432ZM115.634 18.9428C115.637 18.9449 115.639 18.9469 115.642 18.9489L116.256 18.1594C116.253 18.1573 116.25 18.1552 116.248 18.1532L115.634 18.9428ZM117.975 20.8293C117.977 20.8314 117.98 20.8335 117.982 20.8357L118.624 20.0684C118.621 20.0663 118.618 20.0641 118.616 20.062L117.975 20.8293ZM120.251 22.801C120.252 22.8021 120.253 22.8032 120.254 22.8043L120.922 22.0602C120.921 22.0591 120.92 22.058 120.919 22.0569L120.251 22.801ZM120.254 22.8043C120.256 22.8055 120.257 22.8066 120.258 22.8077L120.926 22.0637C120.925 22.0625 120.924 22.0614 120.922 22.0602L120.254 22.8043ZM122.485 24.8806C122.488 24.8829 122.49 24.8853 122.493 24.8876L123.187 24.168C123.185 24.1657 123.182 24.1633 123.18 24.1609L122.485 24.8806ZM124.643 27.0393C124.646 27.0417 124.648 27.0441 124.651 27.0466L125.37 26.3525C125.368 26.3501 125.366 26.3476 125.363 26.3451L124.643 27.0393ZM126.722 29.2746C126.724 29.2771 126.726 29.2797 126.729 29.2822L127.473 28.6148C127.471 28.6122 127.469 28.6097 127.467 28.6071L126.722 29.2746ZM128.717 31.5841C128.72 31.5867 128.722 31.5893 128.724 31.5919L129.492 30.9521C129.49 30.9495 129.488 30.9469 129.486 30.9442L128.717 31.5841ZM130.627 33.9649C130.629 33.9676 130.631 33.9703 130.633 33.9729L131.425 33.3617C131.423 33.359 131.421 33.3563 131.419 33.3536L130.627 33.9649ZM132.448 36.414C132.45 36.4168 132.452 36.4195 132.454 36.4223L133.267 35.8405C133.265 35.8378 133.263 35.835 133.261 35.8322L132.448 36.414ZM134.178 38.9286C134.18 38.9314 134.182 38.9342 134.184 38.9371L135.018 38.3856C135.016 38.3828 135.014 38.3799 135.012 38.3771L134.178 38.9286ZM135.814 41.505C135.816 41.5079 135.818 41.5108 135.82 41.5137L136.674 40.9933C136.672 40.9904 136.67 40.9874 136.668 40.9845L135.814 41.505ZM137.355 44.1398C137.356 44.1427 137.358 44.1457 137.36 44.1486L138.232 43.66C138.231 43.657 138.229 43.654 138.227 43.651L137.355 44.1398ZM138.797 46.8294C138.798 46.8309 138.799 46.8324 138.8 46.8339L139.689 46.3776C139.689 46.3761 139.688 46.3745 139.687 46.373L138.797 46.8294Z" fill="black"/>
</svg>
