<svg width="86" height="86" viewBox="0 0 86 86" fill="none" xmlns="http://www.w3.org/2000/svg">
<rect width="86" height="86" fill="white"/>
<path d="M24.3755 76.0343C24.3755 76.5866 24.8232 77.0343 25.3755 77.0343H54.8674C55.4197 77.0343 55.8674 76.5866 55.8674 76.0343V23.7611C55.8674 23.2088 55.4197 22.7611 54.8674 22.7611H24.3755H17.4727C16.7664 22.7611 16.2827 23.4734 16.5432 24.1299L24.305 43.6896C24.3516 43.807 24.3755 43.9322 24.3755 44.0585V76.0343Z" stroke="#221C35" stroke-width="2.5"/>
<path d="M55.8665 52.913C64.1927 52.913 70.9424 46.1633 70.9424 37.8371C70.9424 29.5109 64.1927 22.7612 55.8665 22.7612" stroke="#221C35" stroke-width="2.5"/>
<path d="M55.8682 48.8927C61.974 48.8927 66.9238 43.9429 66.9238 37.837C66.9238 31.7312 61.974 26.7814 55.8682 26.7814" stroke="#221C35" stroke-width="2.5"/>
<path d="M24.376 23.4312V23.4312C24.376 19.3606 27.6758 16.0607 31.7464 16.0607H48.4974C52.568 16.0607 55.8678 19.3606 55.8678 23.4312V23.4312" stroke="#221C35" stroke-width="2.5"/>
<path d="M25.0459 52.5779H55.1977" stroke="#221C35" stroke-width="2.5"/>
<path d="M25.0459 58.9432H55.1977" stroke="#221C35" stroke-width="2.5"/>
<path d="M39.7861 22.7611V52.9129" stroke="#221C35" stroke-width="2.5"/>
<path d="M39.7861 16.0608L39.7861 10.7005" stroke="#221C35" stroke-width="2.5"/>
<circle cx="39.4518" cy="7.68522" r="3.68522" stroke="#221C35" stroke-width="2.5"/>
<g style="mix-blend-mode:multiply">
<path d="M27.5 46C27.5 45.4477 27.9477 45 28.5 45H51.5C52.0523 45 52.5 45.4477 52.5 46V73C52.5 73.5523 52.0523 74 51.5 74H28.5C27.9477 74 27.5 73.5523 27.5 73V46Z" fill="#08B1A8"/>
</g>
</svg>
