<svg width="35" height="30" viewBox="0 0 35 30" fill="none" xmlns="http://www.w3.org/2000/svg">
<line x1="1" y1="19.1746" x2="34.5789" y2="19.1746" stroke="white" stroke-width="1.3"/>
<path d="M17.1782 20.8157C17.5631 20.149 18.5254 20.149 18.9103 20.8157L21.8046 25.8288C22.1895 26.4955 21.7084 27.3288 20.9386 27.3288H15.1499C14.3801 27.3288 13.899 26.4955 14.2839 25.8288L17.1782 20.8157Z" stroke="white" stroke-width="1.3"/>
<rect x="1.50879" y="5.07019" width="14.7544" height="10.1754" rx="1" stroke="white" stroke-width="1.3"/>
<line x1="8.77305" y1="9.64917" x2="8.77305" y2="12.3626" stroke="white" stroke-width="1.3"/>
<path d="M12.5323 4.73099C12.5323 2.67042 10.8619 1 8.80131 1C6.74074 1 5.07031 2.67042 5.07031 4.73099" stroke="white" stroke-width="1.3"/>
<path d="M2.01804 5.07036C2.01804 7.88023 5.09314 10.1581 8.88646 10.1581C12.6798 10.1581 15.7549 7.88023 15.7549 5.07036" stroke="white" stroke-width="1.3"/>
<path d="M19.6955 6.5276C19.4555 6.71725 19.3154 7.00635 19.3154 7.31229V14.2456C19.3154 14.7979 19.7631 15.2456 20.3154 15.2456H33.0698C33.6221 15.2456 34.0698 14.7979 34.0698 14.2456V7.31229C34.0698 7.00635 33.9298 6.71725 33.6897 6.5276L27.3125 1.48971C26.9491 1.20262 26.4361 1.20262 26.0727 1.48971L19.6955 6.5276Z" stroke="white" stroke-width="1.3" stroke-linecap="square"/>
<path d="M27.4735 9.64917H25.9121C25.3598 9.64917 24.9121 10.0969 24.9121 10.6492V14.2457C24.9121 14.7979 25.3598 15.2457 25.9121 15.2457H27.4735C28.0258 15.2457 28.4735 14.7979 28.4735 14.2457V10.6492C28.4735 10.0969 28.0258 9.64917 27.4735 9.64917Z" stroke="white" stroke-width="1.3" stroke-linecap="square"/>
</svg>
