<svg width="68" height="59" viewBox="0 0 68 59" fill="none" xmlns="http://www.w3.org/2000/svg">
<line x1="1" y1="37.75" x2="67" y2="37.75" stroke="#221C35" stroke-width="2.5"/>
<path d="M33.634 39.5C34.0189 38.8333 34.9811 38.8333 35.366 39.5L42.7272 52.25C43.1121 52.9167 42.631 53.75 41.8612 53.75H27.1388C26.369 53.75 25.8879 52.9167 26.2728 52.25L33.634 39.5Z" fill="#00B2A9" stroke="#221C35" stroke-width="2.5"/>
<rect x="2" y="10" width="29" height="20" rx="1" stroke="#221C35" stroke-width="2.5"/>
<line x1="16.25" y1="19" x2="16.25" y2="24.3333" stroke="#221C35" stroke-width="2.5"/>
<path d="M23.6667 9.33333C23.6667 5.28325 20.3834 2 16.3333 2C12.2832 2 9 5.28325 9 9.33333" stroke="#221C35" stroke-width="2.5"/>
<path d="M3 10C3 15.5228 9.04416 20 16.5 20C23.9558 20 30 15.5228 30 10" stroke="#221C35" stroke-width="2.5"/>
<path d="M37.3801 13.1545C37.14 13.3442 37 13.6333 37 13.9392V29C37 29.5523 37.4477 30 38 30H65C65.5523 30 66 29.5523 66 29V13.9392C66 13.6333 65.86 13.3442 65.6199 13.1545L52.1199 2.48971C51.7565 2.20262 51.2435 2.20262 50.8801 2.48971L37.3801 13.1545Z" stroke="#221C35" stroke-width="2.5" stroke-linecap="square"/>
<path d="M54 19H49C48.4477 19 48 19.4477 48 20V29C48 29.5523 48.4477 30 49 30H54C54.5523 30 55 29.5523 55 29V20C55 19.4477 54.5523 19 54 19Z" stroke="#221C35" stroke-width="2.5" stroke-linecap="square"/>
</svg>
