<svg width="403" height="118" viewBox="0 0 403 118" fill="none" xmlns="http://www.w3.org/2000/svg">
<path d="M86.4742 32.4407C86.4742 32.4407 84.4724 35.0882 85.5379 42.1394C87.5331 55.383 80.5788 67.1737 68.2392 67.1737H59.1346C59.1346 67.1737 50.2302 66.7282 44.8772 72.0812C29.0249 87.9399 25.241 92.0532 24.1045 92.6601C23.3813 93.0476 23.1941 92.2017 23.1941 92.2017L70.073 34.4037C69.0786 23.9818 81.4506 21.2053 86.0028 28.941L90.3033 27.7335L86.4871 32.4407H86.4742ZM90.0514 74.8771H60.7618V70.3378H90.0514V74.8771ZM58.3274 0.316394C26.1127 0.316394 0 26.4291 0 58.6439C0 90.8586 26.1127 116.971 58.3274 116.971C90.5422 116.971 116.655 90.8586 116.655 58.6439C116.655 26.4291 90.5422 0.316394 58.3274 0.316394Z" fill="white"/>
<path d="M78.6868 29.464C77.4148 29.464 76.3817 30.4971 76.3817 31.7692C76.3817 33.0413 77.4148 34.0744 78.6868 34.0744C79.9589 34.0744 80.9921 33.0413 80.9921 31.7692C80.9921 30.4971 79.9589 29.464 78.6868 29.464Z" fill="white"/>
<path d="M170.676 19.0809V0.258262H180.62V64.9719H171.831V60.8909C169.61 64.1776 166.33 66.1277 161.797 66.1277C153.009 66.1277 145.996 59.9998 145.996 48.7256V33.0994C145.996 21.8252 153.099 15.6973 161.532 15.6973C165.439 15.6973 168.454 16.9371 170.676 19.0679V19.0809ZM170.766 33.2866C170.766 28.6697 168.106 25.1183 163.398 25.1183C158.691 25.1183 155.94 28.6697 155.94 33.2866V48.5578C155.94 53.1747 158.517 56.7261 163.398 56.7261C168.28 56.7261 170.766 53.1747 170.766 48.5578V33.2866Z" fill="white"/>
<path d="M223.314 64.9783H214.616V61.6916C212.221 64.268 208.844 66.1277 203.962 66.1277C194.109 66.1277 188.691 59.5608 188.691 51.1277C188.691 42.6947 194.464 36.0374 204.756 36.0374C208.308 36.0374 211.149 37.0124 213.37 38.6977V33.2801C213.37 28.3081 210.975 25.1119 206.622 25.1119C202.27 25.1119 199.875 27.7722 199.875 32.0339V32.8346H189.931V31.95C189.931 22.4515 196.498 15.7038 206.622 15.7038C216.747 15.7038 223.314 23.2522 223.314 33.1058V64.9783ZM213.732 51.1277C213.732 47.3115 211.336 44.2056 206.274 44.2056C201.211 44.2056 198.725 47.3115 198.725 51.1277C198.725 54.9439 201.386 57.9659 206.274 57.9659C211.162 57.9659 213.732 54.7696 213.732 51.1277Z" fill="white"/>
<path d="M245.688 25.8286V50.9534C245.688 54.0593 247.554 55.4798 250.04 55.4798H254.392V64.9783H248.265C240.897 64.9783 235.751 59.9159 235.751 53.0842V25.8286H229.448V16.8596H235.751V3.09943H245.695V16.8596H254.664V25.8286H245.688Z" fill="white"/>
<path d="M295.131 64.9783H286.433V61.6916C284.037 64.268 280.66 66.1277 275.779 66.1277C265.925 66.1277 260.507 59.5608 260.507 51.1277C260.507 42.6947 266.28 36.0374 276.573 36.0374C280.124 36.0374 282.965 37.0124 285.187 38.6977V33.2801C285.187 28.3081 282.791 25.1119 278.439 25.1119C274.087 25.1119 271.691 27.7722 271.691 32.0339V32.8346H261.747V31.95C261.747 22.4515 268.314 15.7038 278.439 15.7038C288.564 15.7038 295.131 23.2522 295.131 33.1058V64.9783ZM285.542 51.1277C285.542 47.3115 283.146 44.2056 278.084 44.2056C273.021 44.2056 270.535 47.3115 270.535 51.1277C270.535 54.9439 273.196 57.9659 278.084 57.9659C282.972 57.9659 285.542 54.7696 285.542 51.1277Z" fill="white"/>
<path d="M315.367 10.4735H304.803V0H315.367V10.4735ZM315.019 64.9783H305.075V16.8661H315.019V64.9783Z" fill="white"/>
<path d="M339.601 44.2056L335.165 50.1527V64.9783H325.221V0.264726H335.165V36.4829L349.28 16.8661H360.91L346.265 37.2836L361.891 64.9783H350.527L339.607 44.2056H339.601Z" fill="white"/>
<path d="M376.794 48.5578C376.794 53.5298 379.099 56.7261 384.072 56.7261C388.598 56.7261 391.084 53.5298 391.084 48.5578H391.174V16.8661H401.118V64.9783H391.975V60.807C389.754 64.0937 386.293 66.1341 381.592 66.1341C372.093 66.1341 366.857 59.296 366.857 50.7791V16.8661H376.801V48.5578H376.794Z" fill="white"/>
<path d="M402.107 83.2862H387.368V94.3802H401.249V99.3109H387.368V111.53H402.107V116.461H382.116V78.3555H402.107V83.2862Z" fill="white"/>
<path d="M376.982 104.027V105.635C376.982 112.12 372.748 117.211 365.62 117.211C358.599 117.211 354.418 112.066 354.418 105.581V89.128C354.418 82.6967 358.599 77.5516 365.62 77.5516C372.64 77.5516 376.874 82.5359 376.874 88.9136V90.0391H371.622V88.86C371.622 85.3228 369.371 82.5359 365.62 82.5359C361.814 82.5359 359.724 85.43 359.724 89.1816L359.671 105.581C359.671 109.333 361.814 112.281 365.62 112.281C369.478 112.281 371.729 109.333 371.729 105.635V104.027H376.982Z" fill="white"/>
<path d="M345.211 78.4091H350.463V116.461H345.747L333.259 89.1816V116.461H328.007V78.4091H332.884L345.211 105.046V78.4091Z" fill="white"/>
<path d="M323.355 83.2862H308.616V94.3802H322.497V99.3109H308.616V111.53H323.355V116.461H303.364V78.3555H323.355V83.2862Z" fill="white"/>
<path d="M293.245 116.461L285.152 100.168H281.508V116.461H276.256V78.3555H286.439C294.585 78.3555 298.229 83.715 298.229 89.2888C298.229 93.7907 295.818 98.1854 290.565 99.6325L299.462 116.461H293.245ZM281.508 83.2862V95.2377H286.492C290.726 95.2377 292.87 92.826 292.87 89.2888C292.87 85.7515 290.726 83.2862 286.492 83.2862H281.508Z" fill="white"/>
<path d="M270.853 83.2862H256.115V94.3802H269.996V99.3109H256.115V111.53H270.853V116.461H250.862V78.3555H270.853V83.2862Z" fill="white"/>
<path d="M244.977 83.2862H230.453V94.3802H243.906V99.3645H230.453V116.461H225.201V78.3555H244.977V83.2862Z" fill="white"/>
<path d="M213.957 78.4091H219.209V116.461H214.493L202.005 89.1816V116.461H196.753V78.4091H201.63L213.957 105.046V78.4091Z" fill="white"/>
<path d="M181.703 77.5516C188.992 77.5516 193.387 82.6966 193.387 89.1816V105.689C193.387 112.227 188.992 117.319 181.703 117.319C174.415 117.319 170.02 112.227 170.02 105.689V89.1816C170.02 82.6966 174.415 77.5516 181.703 77.5516ZM181.703 82.4823C177.577 82.4823 175.219 85.3228 175.219 89.128V105.689C175.219 109.44 177.577 112.388 181.703 112.388C185.83 112.388 188.188 109.44 188.188 105.689V89.128C188.188 85.3228 185.83 82.4823 181.703 82.4823Z" fill="white"/>
<path d="M166.975 104.027V105.635C166.975 112.12 162.741 117.211 155.613 117.211C148.593 117.211 144.412 112.066 144.412 105.581V89.128C144.412 82.6967 148.593 77.5516 155.613 77.5516C162.634 77.5516 166.868 82.5359 166.868 88.9136V90.0391H161.616V88.86C161.616 85.3228 159.365 82.5359 155.613 82.5359C151.808 82.5359 149.718 85.43 149.718 89.1816L149.664 105.581C149.664 109.333 151.808 112.281 155.613 112.281C159.472 112.281 161.723 109.333 161.723 105.635V104.027H166.975Z" fill="white"/>
</svg>
