<svg width="86" height="86" viewBox="0 0 86 86" fill="none" xmlns="http://www.w3.org/2000/svg">
<rect width="86" height="86" fill="white"/>
<path d="M21 31.8921V30.6421H19.75V31.8921H21ZM56.903 31.8921H58.153V30.6421H56.903V31.8921ZM21 33.1421H56.903V30.6421H21V33.1421ZM55.653 31.8921V56.2979H58.153V31.8921H55.653ZM41.903 70.0479H36V72.5479H41.903V70.0479ZM22.25 56.2979V31.8921H19.75V56.2979H22.25ZM36 70.0479C28.4061 70.0479 22.25 63.8918 22.25 56.2979H19.75C19.75 65.2725 27.0254 72.5479 36 72.5479V70.0479ZM55.653 56.2979C55.653 63.8918 49.497 70.0479 41.903 70.0479V72.5479C50.8777 72.5479 58.153 65.2725 58.153 56.2979H55.653Z" fill="#221C35"/>
<path d="M56.5612 57.6187C61.7871 57.6187 66.0234 53.3823 66.0234 48.1564C66.0234 42.9306 61.7871 38.6942 56.5612 38.6942" stroke="#221C35" stroke-width="2.5"/>
<path d="M56.5612 61.9858C64.199 61.9858 70.3906 55.7942 70.3906 48.1564C70.3906 40.5187 64.199 34.327 56.5612 34.327" stroke="#221C35" stroke-width="2.5"/>
<path d="M33.2593 8L35.4485 9.97029C36.6185 11.0233 36.6185 12.8579 35.4485 13.9109V13.9109C34.2785 14.9639 34.2785 16.7985 35.4485 17.8514V17.8514C36.6185 18.9044 36.6185 20.739 35.4485 21.792L33.2593 23.7623" stroke="#221C35" stroke-width="2.5"/>
<path d="M40.2648 8L42.0162 9.97029C43.015 11.0939 43.015 12.7872 42.0162 13.9109V13.9109C41.0174 15.0345 41.0174 16.7278 42.0162 17.8514V17.8514C43.015 18.9751 43.015 20.6684 42.0162 21.792L40.2648 23.7623" stroke="#221C35" stroke-width="2.5"/>
<path d="M24 47H54V57.5C52.8289 63.6481 47.5734 68.1771 41.3198 68.4272L39.5 68.5L36.0998 68.3786C29.965 68.1595 24.8682 63.5771 24 57.5V47Z" fill="#00B2A9"/>
</svg>
