<svg width="175" height="150" viewBox="0 0 175 150" fill="none" xmlns="http://www.w3.org/2000/svg">
<path d="M98.8506 48V52.0803L106.737 55.1624L98.8506 58.0944V62.2949L112.358 56.8241V53.4398L98.8506 48Z" fill="#221C35"/>
<path d="M145.785 74.0497H151.709C151.618 71.7229 150.56 70.7255 148.808 70.7255C147.418 70.7255 146.149 71.4808 145.785 74.0497ZM148.929 84.1122C144.366 84.1122 141.254 81.3923 141.254 76.1345V75.8333C141.254 70.5445 144.547 67.6434 148.777 67.6434C152.706 67.6434 156 69.8483 156 75.0771V76.9816H145.726C145.908 79.8217 147.115 80.91 149.02 80.91C150.711 80.91 151.618 80.0037 151.921 78.8553H156C155.518 81.8464 153.069 84.1122 148.929 84.1122ZM130.705 67.9765H135.117V70.8766C136.053 68.7609 137.535 67.7645 139.862 67.7645V72.1151C136.87 72.1151 135.117 73.0214 135.117 75.6513V83.781H130.705V67.9765ZM127.501 83.781H123.088V81.4533C122.333 82.9648 120.852 84.1122 118.493 84.1122C115.654 84.1122 113.568 82.3896 113.568 78.6742V67.9765H118.011V78.009C118.011 79.8217 118.735 80.668 120.308 80.668C121.848 80.668 123.088 79.7007 123.088 77.7369V67.9765H127.501V83.781ZM107.856 63.2009V67.9765H110.878V71.2679H107.856V78.7634C107.856 79.9436 108.399 80.4869 109.426 80.4869C110.062 80.4869 110.545 80.3959 110.968 80.2157V83.6591C110.455 83.811 109.577 83.9912 108.489 83.9912C105.046 83.9912 103.412 82.4206 103.412 79.2166V71.2679H101.569V67.9765H103.412V65.0136L107.856 63.2009ZM85.6423 67.9765H90.0538V70.3333C90.841 68.8519 92.4116 67.6434 94.8294 67.6434C97.7004 67.6434 99.6041 69.366 99.6041 73.2034V83.781H95.1907V73.8677C95.1907 72.025 94.4363 71.2087 92.8347 71.2087C91.2932 71.2087 90.0538 72.146 90.0538 74.1407V83.781H85.6423V67.9765ZM72.706 74.0497H78.6291C78.539 71.7229 77.4807 70.7255 75.7281 70.7255C74.3385 70.7255 73.0691 71.4808 72.706 74.0497ZM75.85 84.1122C71.2855 84.1122 68.1734 81.3923 68.1734 76.1345V75.8333C68.1734 70.5445 71.4675 67.6434 75.698 67.6434C79.6264 67.6434 82.9214 69.8483 82.9214 75.0771V76.9816H72.646C72.827 79.8217 74.0364 80.91 75.9392 80.91C77.6317 80.91 78.539 80.0037 78.8411 78.8553H82.9214C82.4364 81.8464 79.9895 84.1122 75.85 84.1122ZM59.2866 84.1122C54.905 84.1122 51.7319 81.3923 51.7319 76.0435V75.8333C51.7319 70.4844 55.1161 67.6434 59.3166 67.6434C62.9128 67.6434 65.8748 69.457 66.2379 73.5956H62.0065C61.7344 72.0559 60.9491 71.0586 59.4076 71.0586C57.533 71.0586 56.2345 72.5382 56.2345 75.6513V76.1345C56.2345 79.3385 57.3829 80.789 59.4385 80.789C60.9491 80.789 62.0665 79.6706 62.3086 77.948H66.328C66.0259 81.5434 63.578 84.1122 59.2866 84.1122ZM42.8451 84.1122C38.4635 84.1122 35.2904 81.3923 35.2904 76.0435V75.8333C35.2904 70.4844 38.6746 67.6434 42.8751 67.6434C46.4713 67.6434 49.4333 69.457 49.7964 73.5956H45.565C45.2929 72.0559 44.5076 71.0586 42.9661 71.0586C41.0915 71.0586 39.793 72.5382 39.793 75.6513V76.1345C39.793 79.3385 40.9414 80.789 42.997 80.789C44.5076 80.789 45.6251 79.6706 45.8671 77.948H49.8865C49.5844 81.5434 47.1365 84.1122 42.8451 84.1122ZM28.4283 78.5222V77.0117H26.6748C24.4999 77.0117 23.3825 77.6159 23.3825 79.0355V79.1865C23.3825 80.2749 24.0476 81.0301 25.5273 81.0301C27.0387 81.0301 28.4283 80.1848 28.4283 78.5222ZM24.1978 84.1122C21.3577 84.1122 19 82.6626 19 79.4577V79.2784C19 75.3783 22.3842 74.1098 26.4646 74.1098H28.4283V73.3554C28.4283 71.7829 27.7331 70.8156 26.1015 70.8156C24.6209 70.8156 23.8356 71.6619 23.7137 72.8713H19.4832C19.7853 69.366 22.5653 67.6434 26.3135 67.6434C30.1208 67.6434 32.8408 69.275 32.8408 73.2034V83.781H28.5193V81.9665C27.7631 83.1158 26.3135 84.1122 24.1978 84.1122Z" fill="#221C35"/>
</svg>
