<svg width="175" height="150" viewBox="0 0 175 150" fill="none" xmlns="http://www.w3.org/2000/svg">
<path d="M69.5632 68.159C69.5632 69.188 69.6744 70.0222 69.8691 70.634C70.0915 71.2458 70.3696 71.9132 70.7589 72.6362C70.898 72.8587 70.9536 73.0812 70.9536 73.2758C70.9536 73.5539 70.7867 73.832 70.4252 74.1101L68.6733 75.2781C68.423 75.4449 68.1727 75.5283 67.9503 75.5283C67.6722 75.5283 67.3941 75.3893 67.116 75.139C66.7267 74.7219 66.393 74.2769 66.1149 73.832C65.8368 73.3593 65.5587 72.8309 65.2528 72.1913C63.0838 74.7497 60.3585 76.0289 57.0771 76.0289C54.7412 76.0289 52.878 75.3615 51.5154 74.0267C50.1527 72.6919 49.4575 70.9121 49.4575 68.6874C49.4575 66.3237 50.2918 64.4049 51.9881 62.9588C53.6844 61.5128 55.9369 60.7898 58.8012 60.7898C59.7467 60.7898 60.72 60.8732 61.7489 61.0122C62.7779 61.1513 63.8346 61.3737 64.9469 61.624V59.594C64.9469 57.4805 64.502 56.0067 63.6399 55.1446C62.75 54.2825 61.2484 53.8654 59.1071 53.8654C58.1338 53.8654 57.1327 53.9766 56.1038 54.2269C55.0749 54.4772 54.0738 54.7831 53.1005 55.1724C52.6555 55.3671 52.3218 55.4783 52.1271 55.5339C51.9325 55.5895 51.7934 55.6173 51.6822 55.6173C51.2929 55.6173 51.0982 55.3393 51.0982 54.7553V53.3927C51.0982 52.9477 51.1538 52.614 51.2929 52.4194C51.4319 52.2247 51.6822 52.03 52.0715 51.8354C53.0448 51.3348 54.2128 50.9177 55.5754 50.584C56.938 50.2225 58.3841 50.0556 59.9136 50.0556C63.2228 50.0556 65.6421 50.8065 67.1994 52.3081C68.7289 53.8098 69.5075 56.0901 69.5075 59.149V68.159H69.5632ZM58.2729 72.386C59.1905 72.386 60.136 72.2191 61.1371 71.8854C62.1383 71.5517 63.0281 70.9399 63.779 70.1056C64.2239 69.5773 64.5576 68.9933 64.7245 68.3259C64.8913 67.6585 65.0025 66.852 65.0025 65.9065V64.7386C64.1961 64.5439 63.334 64.3771 62.4442 64.2658C61.5543 64.1546 60.6922 64.099 59.8301 64.099C57.967 64.099 56.6043 64.4605 55.6867 65.2113C54.769 65.9622 54.324 67.0189 54.324 68.4093C54.324 69.7163 54.6577 70.6896 55.353 71.357C56.0204 72.0523 56.9937 72.386 58.2729 72.386ZM80.6032 75.3893C80.1026 75.3893 79.7689 75.3059 79.5465 75.1112C79.324 74.9444 79.1293 74.555 78.9625 74.0267L72.4275 52.5306C72.2606 51.9744 72.1772 51.6129 72.1772 51.4182C72.1772 50.9733 72.3996 50.723 72.8446 50.723H75.5698C76.0982 50.723 76.4597 50.8065 76.6544 51.0011C76.8768 51.168 77.0437 51.5573 77.2105 52.0856L81.8824 70.495L86.2205 52.0856C86.3596 51.5295 86.5264 51.168 86.7489 51.0011C86.9714 50.8343 87.3607 50.723 87.8612 50.723H90.0859C90.6143 50.723 90.9758 50.8065 91.1983 51.0011C91.4208 51.168 91.6154 51.5573 91.7267 52.0856L96.1204 70.7174L100.931 52.0856C101.098 51.5295 101.293 51.168 101.487 51.0011C101.71 50.8343 102.071 50.723 102.572 50.723H105.158C105.603 50.723 105.853 50.9455 105.853 51.4182C105.853 51.5573 105.826 51.6963 105.798 51.8632C105.77 52.03 105.714 52.2525 105.603 52.5584L98.9013 74.0545C98.7344 74.6106 98.5398 74.9722 98.3173 75.139C98.0948 75.3059 97.7333 75.4171 97.2606 75.4171H94.869C94.3407 75.4171 93.9791 75.3337 93.7567 75.139C93.5342 74.9444 93.3396 74.5828 93.2283 74.0267L88.918 56.0901L84.6355 73.9989C84.4964 74.555 84.3296 74.9165 84.1071 75.1112C83.8846 75.3059 83.4953 75.3893 82.9947 75.3893H80.6032ZM116.337 76.1401C114.891 76.1401 113.445 75.9733 112.055 75.6396C110.664 75.3059 109.58 74.9444 108.857 74.5272C108.412 74.2769 108.106 73.9989 107.995 73.7486C107.883 73.4983 107.828 73.2202 107.828 72.9699V71.5517C107.828 70.9677 108.05 70.6896 108.467 70.6896C108.634 70.6896 108.801 70.7174 108.968 70.7731C109.135 70.8287 109.385 70.9399 109.663 71.0511C110.609 71.4683 111.638 71.802 112.722 72.0244C113.835 72.2469 114.919 72.3581 116.031 72.3581C117.783 72.3581 119.146 72.0523 120.091 71.4405C121.037 70.8287 121.538 69.9388 121.538 68.7986C121.538 68.02 121.287 67.3804 120.787 66.852C120.286 66.3237 119.341 65.8509 117.978 65.406L113.946 64.1546C111.916 63.515 110.414 62.5695 109.496 61.3181C108.579 60.0945 108.106 58.7319 108.106 57.2859C108.106 56.1179 108.356 55.089 108.857 54.1991C109.357 53.3092 110.025 52.5306 110.859 51.9188C111.693 51.2792 112.639 50.8065 113.751 50.4727C114.863 50.139 116.031 50 117.255 50C117.867 50 118.506 50.0278 119.118 50.1112C119.758 50.1947 120.342 50.3059 120.926 50.4171C121.482 50.5562 122.01 50.6952 122.511 50.8621C123.011 51.0289 123.401 51.1958 123.679 51.3626C124.068 51.5851 124.346 51.8076 124.513 52.0578C124.68 52.2803 124.763 52.5862 124.763 52.9755V54.2825C124.763 54.8665 124.541 55.1724 124.124 55.1724C123.901 55.1724 123.54 55.0612 123.067 54.8387C121.482 54.1157 119.702 53.7542 117.728 53.7542C116.143 53.7542 114.891 54.0044 114.029 54.5328C113.167 55.0612 112.722 55.8676 112.722 57.0078C112.722 57.7864 113 58.4538 113.556 58.9822C114.113 59.5106 115.142 60.0389 116.615 60.5117L120.564 61.7631C122.566 62.4027 124.012 63.2925 124.875 64.4327C125.737 65.5728 126.154 66.8798 126.154 68.3259C126.154 69.5217 125.903 70.6062 125.431 71.5517C124.93 72.4972 124.263 73.3315 123.401 73.9989C122.539 74.6941 121.51 75.1946 120.314 75.5561C119.063 75.9455 117.756 76.1401 116.337 76.1401Z" fill="#221C35"/>
<path fill-rule="evenodd" clip-rule="evenodd" d="M121.593 89.6552C112.444 96.4127 99.1512 100 87.7219 100C71.7041 100 57.2714 94.0767 46.3704 84.2325C45.5083 83.4538 46.287 82.3971 47.3159 83.0089C59.1068 89.8498 73.6507 93.9933 88.6952 93.9933C98.8453 93.9933 109.997 91.8798 120.258 87.5417C121.787 86.8465 123.094 88.5428 121.593 89.6552Z" fill="#221C35"/>
<path fill-rule="evenodd" clip-rule="evenodd" d="M125.403 85.317C124.235 83.8154 117.672 84.594 114.696 84.9555C113.807 85.0668 113.668 84.2881 114.474 83.7041C119.702 80.0334 128.295 81.0901 129.296 82.3137C130.297 83.5651 129.018 92.158 124.124 96.2736C123.373 96.9132 122.65 96.5795 122.983 95.7453C124.096 92.9922 126.571 86.7909 125.403 85.317Z" fill="#221C35"/>
</svg>
