<svg width="175" height="150" viewBox="0 0 175 150" fill="none" xmlns="http://www.w3.org/2000/svg">
<path d="M38.4628 70.111C38.4628 72.4088 37.4117 73.6799 34.6433 73.6799H32.2783V66.6582C32.5778 66.6277 33.58 66.6094 33.8795 66.6094H34.6861C37.5095 66.6094 38.4628 67.8072 38.4628 70.111ZM44.085 79.2777C44.085 75.6538 41.1272 74.3399 37.54 74.2605V74.126C40.5955 73.8755 43.095 72.5982 43.095 69.5182C43.095 66.0899 40.2595 65.4482 37.0878 65.4482C33.2744 65.4482 28.8011 65.5522 25 65.4482V66.6277C25.8006 66.5727 27.7561 66.6827 27.7561 67.691V82.2844C27.7561 83.2622 25.7517 83.3966 25 83.3966V84.5455C28.6667 84.4477 33.0361 84.5455 36.7333 84.5455C40.62 84.5455 44.085 83.2316 44.085 79.2777ZM39.1961 78.9049C39.1961 81.9055 38.1511 83.3294 34.5211 83.3294H32.26V74.9205H34.6678C37.9861 74.9205 39.2145 76.0388 39.2145 78.8805L39.1961 78.9049Z" fill="#221C35"/>
<path d="M68.6819 84.5147C66.9708 84.5147 65.2658 84.5147 63.5608 84.5453V83.372C64.3369 83.372 66.488 83.3292 66.488 82.2842V68.7297H66.4269L58.7147 84.7775H57.7858L50.263 68.6992H50.208V82.2842C50.208 83.3536 52.3408 83.372 53.1475 83.372L53.1842 84.5453C51.0513 84.478 48.1425 84.4292 46.0464 84.5453V83.372C46.8592 83.372 48.6925 83.3047 48.6925 82.2842V67.6664C48.6925 66.6703 46.798 66.5847 46.0464 66.5847V65.4053C48.4908 65.5092 51.0819 65.5092 53.508 65.4053L59.9369 78.9658L66.5185 65.4542C68.853 65.558 71.493 65.5275 73.8519 65.4237V66.603C73.0758 66.603 71.0408 66.658 71.0408 67.6847V82.2842C71.0408 83.3292 73.0513 83.372 73.8519 83.372V84.5453C72.1225 84.4964 70.3869 84.5147 68.6819 84.5147Z" fill="#221C35"/>
<path d="M91.8068 74.9634C91.8068 78.6301 91.4462 83.6962 86.0318 83.6962C80.6174 83.6962 80.2262 78.6057 80.2262 74.9634C80.2262 71.3212 80.6174 66.2674 86.0318 66.2674C91.4462 66.2674 91.8068 71.3334 91.8068 74.9634ZM96.8668 74.9634C96.8668 68.6384 93.0046 65.0879 86.0318 65.0879C79.059 65.0879 75.1602 68.6079 75.1602 74.9634C75.1602 81.319 79.0285 84.8634 86.0318 84.8634C93.0352 84.8634 96.8668 81.3251 96.8668 74.9634Z" fill="#221C35"/>
<path fill-rule="evenodd" clip-rule="evenodd" d="M117.027 56.7077C120.645 54.2903 124.899 53 129.249 53C135.085 53 140.68 55.3179 144.806 59.4437C148.931 63.5694 151.249 69.1653 151.249 75C151.249 79.3512 149.959 83.6047 147.542 87.2225C145.125 90.8405 141.688 93.6602 137.668 95.3254C133.648 96.9905 129.226 97.4261 124.958 96.5773C120.69 95.7284 116.77 93.6331 113.694 90.5564C110.616 87.4796 108.521 83.5596 107.672 79.292C106.823 75.0244 107.259 70.601 108.924 66.581C110.589 62.561 113.409 59.1251 117.027 56.7077ZM124.758 63.2973L128.577 68.2779C128.657 68.3802 128.759 68.4632 128.875 68.5203C128.991 68.5775 129.12 68.6074 129.249 68.6079C129.379 68.6088 129.508 68.5795 129.624 68.5222C129.741 68.4649 129.843 68.3813 129.921 68.2779L133.711 63.2912C133.791 63.1876 133.894 63.1035 134.011 63.0453C134.129 62.987 134.258 62.9562 134.389 62.9551C134.517 62.9544 134.644 62.9832 134.76 63.0394C134.875 63.0955 134.976 63.1776 135.054 63.279L139.601 69.0051V77.9884L135.079 72.1951C134.998 72.0895 134.893 72.0041 134.774 71.9459C134.654 71.8875 134.522 71.8578 134.389 71.859C134.255 71.8599 134.122 71.8911 134.001 71.9504C133.881 72.0096 133.775 72.0954 133.692 72.2012L129.854 77.2184C129.782 77.3135 129.69 77.3914 129.584 77.4464C129.479 77.5014 129.363 77.532 129.243 77.5362C129.124 77.5308 129.008 77.4996 128.902 77.4447C128.797 77.3898 128.704 77.3126 128.632 77.2184L124.794 72.2012C124.713 72.0943 124.607 72.0078 124.486 71.9485C124.365 71.8891 124.232 71.8585 124.098 71.859C123.965 71.8592 123.834 71.8895 123.714 71.9477C123.594 72.006 123.489 72.0906 123.407 72.1951L118.878 77.9884H118.873V69.0112L123.419 63.2851C123.496 63.1837 123.597 63.1018 123.711 63.0456C123.826 62.9893 123.951 62.9605 124.079 62.9612C124.211 62.961 124.34 62.9912 124.458 63.0495C124.575 63.1079 124.678 63.1927 124.758 63.2973ZM118.873 77.9884H118.854V84.5762H139.632V77.9884H139.601H118.878L118.873 77.9946V77.9884Z" fill="#221C35"/>
</svg>
