<svg width="175" height="150" viewBox="0 0 175 150" fill="none" xmlns="http://www.w3.org/2000/svg">
<path d="M31.6775 73.2442L21.4202 79.0588L10.5227 72.8653L10.0131 73.1397V77.6346L21.4333 84.1417L31.6905 78.3271V80.7183L21.4333 86.5329L10.5227 80.3394L10.0131 80.6138V81.3716L21.4333 87.8788L32.8927 81.3716V76.8767L32.3831 76.6023L21.4202 82.7959L11.2021 76.9812V74.6293L21.4202 80.4047L32.8796 73.8975V69.468L32.2916 69.1544L21.4202 75.3087L11.7509 69.8077L21.4202 64.3459L29.4039 68.8408L30.1225 68.4618V67.913L21.4202 63L10 69.481V70.1736L21.4202 76.6807L31.6775 70.8661V73.2442Z" fill="#221C35"/>
<path d="M74.4138 78.9709V72.5181C74.4138 72.3488 74.308 72.2431 74.1387 72.2431H72.0231V69.7254H74.1387C74.308 69.7254 74.4138 69.6196 74.4138 69.4504V65.4094H77.418V69.4504C77.418 69.6196 77.5238 69.7254 77.6931 69.7254H80.655V72.2431H77.6931C77.5238 72.2431 77.418 72.3488 77.418 72.5181V78.2304C77.418 80.9174 78.3701 81.1501 79.5972 81.1501C80.0415 81.1501 80.7185 81.0866 81.0993 81.0443V83.6677C80.5916 83.7312 79.7664 83.837 78.8144 83.837C77.6508 83.7735 74.4138 83.7735 74.4138 78.9709ZM156.185 80.5365L158.639 79.246C159.189 80.5365 160.247 81.3828 161.474 81.3828C162.426 81.3828 163.484 80.9808 163.484 79.8172C163.484 79.0344 162.976 78.5901 161.813 78.1881L160.141 77.6381C157.793 76.9187 156.629 75.5647 156.629 73.6606C156.629 71.2487 158.639 69.4504 161.368 69.4504C163.547 69.4504 165.388 70.6352 166.277 72.4758L163.822 73.8298C163.272 72.645 162.384 71.9892 161.326 71.9892C160.268 71.9892 159.549 72.5393 159.549 73.3855C159.549 74.1049 160.099 74.6761 161.22 75.0146L162.892 75.5647C165.346 76.3475 166.509 77.7015 166.509 79.5422C166.509 82.4618 164.013 83.9639 161.495 83.9639C158.978 83.9005 156.968 82.6099 156.185 80.5365ZM146.939 78.0189C146.876 78.0823 146.834 78.1247 146.834 78.1881V83.562H143.766V63.6746H146.834V74.5492C146.834 74.6549 146.897 74.7819 147.003 74.7819C147.109 74.8454 147.235 74.7819 147.278 74.7184L152.229 69.6831H155.952L150.176 75.5435C150.071 75.6493 150.071 75.7762 150.176 75.882L156.46 83.562H152.736L147.891 77.5111C147.828 77.4476 147.786 77.4053 147.722 77.4053C147.659 77.4053 147.616 77.4053 147.553 77.4688L146.939 78.0189ZM142.264 71.566L140.317 73.4067C139.196 72.5604 138.096 72.1796 136.869 72.1796C134.309 72.1796 132.405 74.0837 132.405 76.6648C132.405 79.246 134.309 81.1501 136.869 81.1501C137.99 81.1501 139.154 80.7481 140.381 79.923L142.116 81.7636C139.619 83.6043 138.265 83.9428 136.551 83.9428C134.499 83.9428 132.658 83.2234 131.326 81.8694C130.035 80.5788 129.316 78.6747 129.316 76.6648C129.316 72.4546 132.383 69.3869 136.615 69.3869C137.969 69.3869 140.042 69.5985 142.264 71.566ZM127.898 65.5787C127.898 66.5942 127.073 67.4193 126.058 67.4193C125.063 67.4193 124.217 66.573 124.217 65.5787C124.217 64.5631 125.042 63.738 126.058 63.738C127.052 63.7169 127.898 64.5631 127.898 65.5787ZM127.602 83.562H124.534V69.7254H127.602V83.562ZM117.87 77.5111V83.6254H114.802V69.7889H117.806V71.4603C117.806 71.566 117.87 71.693 117.976 71.7353C118.081 71.7988 118.208 71.7353 118.251 71.6295C119.033 70.339 120.472 69.4927 122.038 69.4927C122.27 69.4927 122.419 69.4927 122.546 69.5561V72.6874C122.376 72.6239 122.101 72.6239 121.826 72.6239C119.372 72.5816 117.87 74.4857 117.87 77.5111ZM101.431 76.6648C101.431 74.1472 103.335 72.1796 105.768 72.1796C108.222 72.1796 110.105 74.1472 110.105 76.6648C110.105 79.1825 108.201 81.1501 105.768 81.1501C103.335 81.1501 101.431 79.1825 101.431 76.6648ZM101.706 81.9329C101.77 81.9329 101.77 81.9329 101.812 81.9329C101.875 81.9329 101.981 81.9964 102.045 82.0387C103.102 83.2658 104.668 83.9428 106.445 83.9428C110.232 83.9428 113.131 80.7481 113.131 76.6648C113.131 74.6549 112.454 72.8566 111.184 71.4603C109.957 70.1062 108.222 69.3869 106.403 69.3869C104.668 69.3869 103.06 70.1062 102.002 71.3968C101.939 71.4603 101.833 71.5026 101.727 71.4603C101.621 71.3968 101.558 71.3545 101.558 71.2275V63.7169H98.4902V83.6043H101.558V82.2079C101.537 82.0387 101.6 81.9964 101.706 81.9329ZM89.012 81.1501C86.6213 81.1501 84.6748 79.1825 84.6748 76.6648C84.6748 74.1472 86.5789 72.1796 89.012 72.1796C91.4662 72.1796 93.3491 74.1472 93.3491 76.6648C93.3491 79.1825 91.4027 81.1501 89.012 81.1501ZM96.2053 83.562V69.7254H93.201V71.1218C93.201 71.2275 93.1375 71.3545 93.0318 71.3545C92.926 71.4179 92.799 71.3545 92.7567 71.291C91.7624 70.0639 90.1967 69.3869 88.3561 69.3869C84.569 69.3869 81.6706 72.5816 81.6706 76.6648C81.6706 80.7481 84.6325 83.9428 88.3561 83.9428C90.091 83.9428 91.6989 83.2234 92.7567 81.9329C92.8202 81.8271 92.926 81.8271 93.0318 81.8694C93.1375 81.9329 93.201 81.9752 93.201 82.1021V83.6254H96.2053V83.562ZM63.2218 81.1501C60.8311 81.1501 58.8847 79.1825 58.8847 76.6648C58.8847 74.1472 60.7888 72.1796 63.2218 72.1796C65.6125 72.1796 67.559 74.1472 67.559 76.6648C67.559 79.1825 65.6125 81.1501 63.2218 81.1501ZM70.4151 83.562V69.7254H67.4109V71.1218C67.4109 71.2275 67.3474 71.3545 67.2416 71.3545C67.1358 71.4179 67.0089 71.3545 66.9666 71.291C65.9722 70.0639 64.4066 69.3869 62.566 69.3869C58.7789 69.3869 55.8804 72.5816 55.8804 76.6648C55.8804 80.7481 58.8424 83.9428 62.566 83.9428C64.3008 83.9428 65.9087 83.2234 66.9666 81.9329C67.0301 81.8271 67.1358 81.8271 67.2416 81.8694C67.3474 81.9329 67.4109 81.9752 67.4109 82.1021V83.6254H70.4151V83.562ZM46.9522 81.1501C44.4981 81.1501 42.6151 79.1825 42.6151 76.6648C42.6151 74.1472 44.5192 72.1796 46.9522 72.1796C49.343 72.1796 51.2894 74.1472 51.2894 76.6648C51.3105 79.1825 49.343 81.1501 46.9522 81.1501ZM54.1456 83.562V63.7169H51.0778V71.1641C51.0778 71.2699 51.0144 71.3968 50.9086 71.3968C50.8028 71.4603 50.6758 71.3968 50.6335 71.3333C49.5757 70.1062 48.0101 69.4292 46.2329 69.4292C42.4458 69.4292 39.5474 72.6239 39.5474 76.7072C39.5474 78.7171 40.2244 80.5154 41.4938 81.9117C42.7209 83.2658 44.4557 83.9851 46.2752 83.9851C48.0101 83.9851 49.618 83.2658 50.6758 81.9752C50.7393 81.9117 50.8451 81.8694 50.9509 81.9117C51.0567 81.9752 51.1201 82.0175 51.1201 82.1444V83.6043H54.1244V83.562H54.1456Z" fill="#221C35"/>
</svg>
