<svg width="175" height="150" viewBox="0 0 175 150" fill="none" xmlns="http://www.w3.org/2000/svg">
<path d="M140.746 82.9351C140.746 81.2085 142.148 79.8076 143.873 79.8076C145.6 79.8076 147 81.2085 147 82.9351C147 84.6618 145.6 86.0618 143.873 86.0618C142.148 86.0618 140.746 84.6618 140.746 82.9351Z" fill="#221C35"/>
<path d="M41.0034 74.6526C41.0034 72.6717 40.6206 71.202 39.8551 70.2446C39.0885 69.288 37.9274 68.8102 36.3664 68.8102H34.7058V80.924H35.9763C37.7102 80.924 38.9808 80.41 39.7898 79.3783C40.5979 78.3485 41.0034 76.7729 41.0034 74.6526ZM46.9254 74.4463C46.9254 78.0553 45.9552 80.8362 44.015 82.7881C42.0748 84.741 39.3473 85.7175 35.8315 85.7175H29V64.0918H36.3084C39.6984 64.0918 42.3155 64.9796 44.1598 66.7542C46.0032 68.5297 46.9254 71.0925 46.9254 74.4463Z" fill="#221C35"/>
<path d="M65.8481 85.7174H71.2842V64.0012H65.8481V85.7174Z" fill="#221C35"/>
<path d="M78.9211 77.6169C78.9211 79.0015 79.1021 80.0576 79.4632 80.7833C79.8252 81.51 80.4314 81.8729 81.2839 81.8729C82.1273 81.8729 82.7237 81.51 83.0712 80.7833C83.4187 80.0576 83.5915 79.0015 83.5915 77.6169C83.5915 76.2396 83.4159 75.2007 83.0639 74.4993C82.711 73.7962 82.1093 73.4441 81.256 73.4441C80.4216 73.4441 79.8252 73.7944 79.4632 74.4912C79.1021 75.1889 78.9211 76.2305 78.9211 77.6169ZM89.1245 77.6169C89.1245 80.2549 88.433 82.3127 87.0466 83.7878C85.6612 85.2638 83.7219 86.0022 81.2287 86.0022C78.8379 86.0022 76.9346 85.2475 75.522 83.738C74.1076 82.2285 73.4009 80.1888 73.4009 77.6169C73.4009 74.9871 74.0932 72.9437 75.4796 71.4867C76.8659 70.0298 78.8098 69.3013 81.3129 69.3013C82.8595 69.3013 84.2278 69.6388 85.4133 70.313C86.5996 70.9872 87.5155 71.9528 88.1589 73.2107C88.8032 74.4668 89.1245 75.9364 89.1245 77.6169Z" fill="#221C35"/>
<path d="M91.2832 85.7173H96.7202V77.4062V69.5864H91.2832V85.7173Z" fill="#221C35"/>
<path d="M91.2832 67.6352H96.7202V64H91.2832V67.6352Z" fill="#221C35"/>
<path d="M107.735 81.603C108.469 81.603 109.343 81.4166 110.363 81.0465V85.1052C109.63 85.4273 108.933 85.6581 108.271 85.7948C107.608 85.9332 106.831 86.002 105.941 86.002C104.116 86.002 102.8 85.5432 101.992 84.6274C101.187 83.7116 100.784 82.3053 100.784 80.4076V73.758H98.8799V69.5879H100.784V65.4686L106.263 64.5156V69.5879H109.731V73.758H106.263V80.0365C106.263 81.0809 106.754 81.603 107.735 81.603Z" fill="#221C35"/>
<path d="M120.319 81.603C121.053 81.603 121.927 81.4166 122.947 81.0465V85.1052C122.215 85.4273 121.517 85.6581 120.854 85.7948C120.191 85.9332 119.416 86.002 118.525 86.002C116.7 86.002 115.384 85.5432 114.578 84.6274C113.771 83.7116 113.368 82.3053 113.368 80.4076V73.758H111.463V69.5879H113.368V65.4061L118.846 64.5156V69.5879H122.316V73.758H118.846V80.0365C118.846 81.0809 119.337 81.603 120.319 81.603Z" fill="#221C35"/>
<path d="M129.807 75.6518C129.881 74.7686 130.133 74.1215 130.564 73.708C130.997 73.2953 131.531 73.089 132.17 73.089C132.866 73.089 133.42 73.3207 133.831 73.7876C134.245 74.2519 134.46 74.8736 134.477 75.6518H129.807ZM137.473 71.2031C136.181 69.9362 134.348 69.3018 131.976 69.3018C129.483 69.3018 127.564 70.0302 126.219 71.4872C124.876 72.9442 124.203 75.0347 124.203 77.7586C124.203 80.3965 124.93 82.4308 126.38 83.8589C127.83 85.2869 129.867 86.0018 132.491 86.0018C133.75 86.0018 134.835 85.9159 135.743 85.7448C136.646 85.5756 137.521 85.2697 138.369 84.8281L137.533 81.1929C136.917 81.4444 136.33 81.6381 135.777 81.7657C134.977 81.9512 134.099 82.0444 133.143 82.0444C132.095 82.0444 131.268 81.7883 130.662 81.2761C130.056 80.763 129.732 80.0554 129.695 79.154H139.413V76.6771C139.413 74.2944 138.767 72.4691 137.473 71.2031Z" fill="#221C35"/>
<path d="M54.1401 75.6518C54.2143 74.7686 54.4668 74.1215 54.8975 73.708C55.3292 73.2953 55.8641 73.089 56.5039 73.089C57.199 73.089 57.7527 73.3207 58.1645 73.7876C58.578 74.2519 58.7925 74.8736 58.8116 75.6518H54.1401ZM61.8078 71.2031C60.5147 69.9362 58.6821 69.3018 56.3093 69.3018C53.8152 69.3018 51.8976 70.0302 50.5537 71.4872C49.2099 72.9442 48.5366 75.0347 48.5366 77.7586C48.5366 80.3965 49.2624 82.4308 50.714 83.8589C52.1637 85.2869 54.2007 86.0018 56.8242 86.0018C58.0839 86.0018 59.168 85.9159 60.0766 85.7448C60.9797 85.5756 61.854 85.2697 62.7029 84.8281L61.8667 81.1929C61.2504 81.4444 60.6639 81.6381 60.111 81.7657C59.3093 81.9512 58.4323 82.0444 57.4766 82.0444C56.4296 82.0444 55.6017 81.7883 54.9954 81.2761C54.3881 80.763 54.066 80.0554 54.0289 79.154H63.7462V76.6771C63.7462 74.2944 63.1001 72.4691 61.8078 71.2031Z" fill="#221C35"/>
</svg>
