<?xml version="1.0" encoding="UTF-8"?>
<svg id="Layer_1" data-name="Layer 1" xmlns="http://www.w3.org/2000/svg" viewBox="0 0 948 282">
  <defs>
    <style>
      .cls-1 {
        fill: #4dc9c3;
      }

      .cls-2 {
        fill: #211c35;
      }
    </style>
  </defs>
  <path class="cls-1" d="M210.92,88.89s-3.98,5.26-1.87,19.29c3.97,26.34-9.86,49.78-34.41,49.78h-18.1s-17.71-.89-28.36,9.76c-31.53,31.54-39.05,39.72-41.32,40.93-1.44.77-1.81-.91-1.81-.91l93.23-114.95c-1.98-20.72,22.63-26.25,31.68-10.86l8.55-2.41-7.58,9.36ZM218.04,173.29h-58.25v-9.03h58.25v9.03ZM154.94,25c-64.06,0-116,51.93-116,116s51.94,116,116,116,116-51.93,116-116S219,25,154.94,25"/>
  <path class="cls-1" d="M195.44,82.96c-2.54,0-4.59,2.05-4.59,4.59s2.05,4.59,4.59,4.59,4.59-2.05,4.59-4.59-2.05-4.59-4.59-4.59"/>
  <g>
    <path class="cls-2" d="M374.79,108.45v-43.63h23.05v150.04h-20.37v-9.47c-5.15,7.61-12.76,12.14-23.26,12.14-20.37,0-36.63-14.2-36.63-40.34v-36.22c0-26.14,16.46-40.34,36.02-40.34,9.06,0,16.05,2.88,21.2,7.82ZM375,141.38c0-10.7-6.17-18.93-17.08-18.93s-17.29,8.23-17.29,18.93v35.4c0,10.7,5.97,18.93,17.29,18.93s17.08-8.23,17.08-18.93v-35.4Z"/>
    <path class="cls-2" d="M496.84,140.96v73.89h-20.17v-7.61c-5.56,5.97-13.38,10.29-24.7,10.29-22.85,0-35.4-15.23-35.4-34.78s13.38-34.99,37.25-34.99c8.23,0,14.82,2.26,19.96,6.17v-12.55c0-11.53-5.56-18.93-15.64-18.93s-15.64,6.17-15.64,16.05v1.85h-23.05v-2.06c0-22.02,15.23-37.66,38.69-37.66s38.69,17.49,38.69,40.34ZM474.61,182.74c0-8.85-5.56-16.05-17.29-16.05s-17.49,7.2-17.49,16.05,6.17,15.85,17.49,15.85,17.29-7.41,17.29-15.85Z"/>
    <path class="cls-2" d="M548.7,124.09v58.24c0,7.2,4.32,10.5,10.09,10.5h10.08v22.02h-14.2c-17.08,0-29.02-11.73-29.02-27.58v-63.18h-14.61v-20.79h14.61v-31.9h23.05v31.9h20.79v20.79h-20.79Z"/>
    <path class="cls-2" d="M663.34,140.96v73.89h-20.17v-7.61c-5.56,5.97-13.38,10.29-24.7,10.29-22.85,0-35.4-15.23-35.4-34.78s13.38-34.99,37.25-34.99c8.23,0,14.82,2.26,19.96,6.17v-12.55c0-11.53-5.56-18.93-15.64-18.93s-15.64,6.17-15.64,16.05v1.85h-23.05v-2.06c0-22.02,15.23-37.66,38.69-37.66s38.69,17.49,38.69,40.34ZM641.11,182.74c0-8.85-5.56-16.05-17.29-16.05s-17.49,7.2-17.49,16.05,6.17,15.85,17.49,15.85,17.29-7.41,17.29-15.85Z"/>
    <path class="cls-2" d="M710.26,88.48h-24.49v-24.29h24.49v24.29ZM709.44,214.85h-23.05v-111.55h23.05v111.55Z"/>
    <path class="cls-2" d="M766.44,166.69l-10.29,13.79v34.37h-23.05V64.81h23.05v83.97l32.72-45.48h26.96l-33.96,47.34,36.22,64.21h-26.34l-25.31-48.16Z"/>
    <path class="cls-2" d="M852.67,176.78c0,11.53,5.35,18.93,16.88,18.93,10.5,0,16.26-7.41,16.26-18.93h.21v-73.47h23.05v111.55h-21.2v-9.67c-5.15,7.62-13.17,12.35-24.08,12.35-22.02,0-34.16-15.85-34.16-35.61v-78.62h23.05v73.47Z"/>
  </g>
</svg>