<svg width="175" height="150" viewBox="0 0 175 150" fill="none" xmlns="http://www.w3.org/2000/svg">
<path d="M54.4624 76.1994V63.9553H57.7024V68.5139H61.3568V63.9553H64.5968V76.1994H61.3568V71.3395H57.7024V76.1994H54.4624ZM69.902 76.4254C68.8722 76.4254 68.125 76.0801 67.6603 75.3894C67.1957 74.6861 66.9634 73.7506 66.9634 72.5827V66.781H70.2034V72.1683C70.2034 72.7711 70.2788 73.1728 70.4294 73.3738C70.5926 73.5747 70.8313 73.6752 71.1453 73.6752C71.4466 73.6752 71.6978 73.6124 71.8988 73.4869C72.0997 73.3613 72.3006 73.1478 72.5016 72.8464V66.781H75.7415V76.1994H73.1042L72.8782 74.9562H72.8028C72.4262 75.4083 72.0055 75.7662 71.5408 76.0299C71.0888 76.2937 70.5425 76.4254 69.902 76.4254ZM81.3572 80.0799C80.6415 80.0799 79.9821 79.9983 79.3793 79.835C78.7766 79.6842 78.2931 79.4394 77.929 79.1003C77.5772 78.7613 77.4015 78.3091 77.4015 77.744C77.4015 77.0032 77.8409 76.4004 78.7201 75.9357V75.8603C78.4793 75.6823 78.2693 75.4659 78.0984 75.22C77.9352 74.9562 77.8536 74.6296 77.8536 74.2403C77.8536 73.9138 77.9478 73.5936 78.1361 73.2797C78.3371 72.9657 78.5945 72.6957 78.9084 72.4697V72.3943C78.5693 72.1683 78.2681 71.8481 78.0043 71.4336C77.7531 71.0066 77.6275 70.5231 77.6275 69.9832C77.6275 69.2045 77.8159 68.5642 78.1927 68.0618C78.5819 67.5469 79.0843 67.1702 79.6995 66.9316C80.315 66.6805 80.968 66.5548 81.6586 66.5548C82.2111 66.5548 82.7135 66.6302 83.1655 66.781H86.6694V69.1167H85.3131C85.3506 69.2298 85.3821 69.3742 85.4072 69.5499C85.4449 69.7257 85.4637 69.9078 85.4637 70.0961C85.4637 70.8371 85.2942 71.44 84.9551 71.9046C84.616 72.3566 84.1578 72.6895 83.58 72.9029C83.0023 73.1165 82.3619 73.2232 81.6586 73.2232C81.3448 73.2232 80.993 73.1793 80.6038 73.0912C80.453 73.2294 80.3778 73.4115 80.3778 73.6375C80.3778 73.8384 80.4782 73.9828 80.6792 74.0709C80.8926 74.1587 81.2317 74.2026 81.6963 74.2026H83.1091C84.2895 74.2026 85.2 74.3973 85.8405 74.7866C86.4935 75.1634 86.82 75.7849 86.82 76.6514C86.82 77.3297 86.594 77.9261 86.1419 78.4411C85.7023 78.9559 85.0745 79.3577 84.2581 79.6465C83.4418 79.9355 82.4748 80.0799 81.3572 80.0799ZM81.6586 71.3018C81.96 71.3018 82.2049 71.1951 82.3932 70.9815C82.5817 70.7681 82.6758 70.4352 82.6758 69.9832C82.6758 69.5436 82.5817 69.2234 82.3932 69.0224C82.2049 68.809 81.96 68.7024 81.6586 68.7024C81.3572 68.7024 81.1124 68.809 80.924 69.0224C80.7355 69.2234 80.6415 69.5436 80.6415 69.9832C80.6415 70.4352 80.7355 70.7681 80.924 70.9815C81.1124 71.1951 81.3572 71.3018 81.6586 71.3018ZM81.8846 78.0831C82.4121 78.0831 82.8516 78.0015 83.2032 77.8382C83.5549 77.6874 83.7306 77.4803 83.7306 77.2166C83.7306 76.9655 83.6177 76.8085 83.3917 76.7457C83.1781 76.6829 82.8705 76.6514 82.4686 76.6514H81.734C81.3572 76.6514 81.0684 76.639 80.8675 76.6137C80.6792 76.6013 80.5159 76.5762 80.3778 76.5385C80.1518 76.7645 80.0387 76.9906 80.0387 77.2166C80.0387 77.518 80.2081 77.7378 80.5472 77.8759C80.899 78.0141 81.3448 78.0831 81.8846 78.0831ZM91.6404 80.0799C90.9245 80.0799 90.2653 79.9983 89.6625 79.835C89.0597 79.6842 88.5762 79.4394 88.212 79.1003C87.8604 78.7613 87.6846 78.3091 87.6846 77.744C87.6846 77.0032 88.1241 76.4004 89.0031 75.9357V75.8603C88.7623 75.6823 88.5523 75.4659 88.3816 75.22C88.2182 74.9562 88.1366 74.6296 88.1366 74.2403C88.1366 73.9138 88.2308 73.5936 88.4191 73.2797C88.6201 72.9657 88.8776 72.6957 89.1916 72.4697V72.3943C88.8525 72.1683 88.5511 71.8481 88.2874 71.4336C88.0361 71.0066 87.9106 70.5231 87.9106 69.9832C87.9106 69.2045 88.0991 68.5642 88.4757 68.0618C88.865 67.5469 89.3673 67.1702 89.9827 66.9316C90.598 66.6805 91.251 66.5548 91.9417 66.5548C92.4943 66.5548 92.9967 66.6302 93.4487 66.781H96.9524V69.1167H95.5961C95.6338 69.2298 95.6651 69.3742 95.6904 69.5499C95.7279 69.7257 95.7467 69.9078 95.7467 70.0961C95.7467 70.8371 95.5773 71.44 95.2382 71.9046C94.8992 72.3566 94.4408 72.6895 93.863 72.9029C93.2855 73.1165 92.645 73.2232 91.9417 73.2232C91.6278 73.2232 91.2762 73.1793 90.8868 73.0912C90.7362 73.2294 90.6608 73.4115 90.6608 73.6375C90.6608 73.8384 90.7613 73.9828 90.9622 74.0709C91.1758 74.1587 91.5147 74.2026 91.9794 74.2026H93.3922C94.5726 74.2026 95.483 74.3973 96.1235 74.7866C96.7765 75.1634 97.103 75.7849 97.103 76.6514C97.103 77.3297 96.877 77.9261 96.425 78.4411C95.9854 78.9559 95.3575 79.3577 94.5413 79.6465C93.7251 79.9355 92.7581 80.0799 91.6404 80.0799ZM91.9417 71.3018C92.2431 71.3018 92.4879 71.1951 92.6764 70.9815C92.8647 70.7681 92.959 70.4352 92.959 69.9832C92.959 69.5436 92.8647 69.2234 92.6764 69.0224C92.4879 68.809 92.2431 68.7024 91.9417 68.7024C91.6404 68.7024 91.3954 68.809 91.2071 69.0224C91.0188 69.2234 90.9245 69.5436 90.9245 69.9832C90.9245 70.4352 91.0188 70.7681 91.2071 70.9815C91.3954 71.1951 91.6404 71.3018 91.9417 71.3018ZM92.1679 78.0831C92.6953 78.0831 93.1347 78.0015 93.4864 77.8382C93.838 77.6874 94.0138 77.4803 94.0138 77.2166C94.0138 76.9655 93.9007 76.8085 93.6747 76.7457C93.4613 76.6829 93.1535 76.6514 92.7516 76.6514H92.0171C91.6404 76.6514 91.3515 76.639 91.1505 76.6137C90.9622 76.6013 90.799 76.5762 90.6608 76.5385C90.4348 76.7645 90.3217 76.9906 90.3217 77.2166C90.3217 77.518 90.4913 77.7378 90.8304 77.8759C91.182 78.0141 91.6278 78.0831 92.1679 78.0831ZM98.4952 76.1994V66.781H101.735V76.1994H98.4952ZM100.115 65.613C99.5877 65.613 99.1606 65.4686 98.8341 65.1798C98.5076 64.8784 98.3444 64.4828 98.3444 63.993C98.3444 63.5033 98.5076 63.1139 98.8341 62.8251C99.1606 62.5237 99.5877 62.373 100.115 62.373C100.643 62.373 101.07 62.5237 101.396 62.8251C101.723 63.1139 101.886 63.5033 101.886 63.993C101.886 64.4828 101.723 64.8784 101.396 65.1798C101.07 65.4686 100.643 65.613 100.115 65.613ZM103.922 76.1994V66.781H106.559L106.785 67.911H106.86C107.237 67.5469 107.664 67.233 108.141 66.9693C108.631 66.6929 109.196 66.5548 109.837 66.5548C110.879 66.5548 111.626 66.9065 112.078 67.6098C112.543 68.3005 112.775 69.2298 112.775 70.3976V76.1994H109.535V70.8121C109.535 70.2092 109.46 69.8074 109.309 69.6064C109.158 69.4055 108.92 69.305 108.593 69.305C108.292 69.305 108.041 69.3678 107.84 69.4935C107.639 69.619 107.413 69.7949 107.162 70.0209V76.1994H103.922ZM118.314 80.0799C117.598 80.0799 116.939 79.9983 116.336 79.835C115.733 79.6842 115.25 79.4394 114.886 79.1003C114.534 78.7613 114.358 78.3091 114.358 77.744C114.358 77.0032 114.798 76.4004 115.677 75.9357V75.8603C115.436 75.6823 115.226 75.4659 115.055 75.22C114.892 74.9562 114.81 74.6296 114.81 74.2403C114.81 73.9138 114.904 73.5936 115.093 73.2797C115.294 72.9657 115.551 72.6957 115.865 72.4697V72.3943C115.526 72.1683 115.225 71.8481 114.961 71.4336C114.71 71.0066 114.584 70.5231 114.584 69.9832C114.584 69.2045 114.772 68.5642 115.149 68.0618C115.539 67.5469 116.041 67.1702 116.656 66.9316C117.272 66.6805 117.925 66.5548 118.615 66.5548C119.168 66.5548 119.67 66.6302 120.122 66.781H123.626V69.1167H122.27C122.307 69.2298 122.339 69.3742 122.364 69.5499C122.401 69.7257 122.42 69.9078 122.42 70.0961C122.42 70.8371 122.251 71.44 121.912 71.9046C121.573 72.3566 121.114 72.6895 120.537 72.9029C119.959 73.1165 119.319 73.2232 118.615 73.2232C118.301 73.2232 117.95 73.1793 117.56 73.0912C117.41 73.2294 117.334 73.4115 117.334 73.6375C117.334 73.8384 117.435 73.9828 117.636 74.0709C117.849 74.1587 118.188 74.2026 118.653 74.2026H120.066C121.246 74.2026 122.157 74.3973 122.797 74.7866C123.45 75.1634 123.777 75.7849 123.777 76.6514C123.777 77.3297 123.551 77.9261 123.098 78.4411C122.659 78.9559 122.031 79.3577 121.215 79.6465C120.398 79.9355 119.431 80.0799 118.314 80.0799ZM118.615 71.3018C118.917 71.3018 119.162 71.1951 119.35 70.9815C119.538 70.7681 119.632 70.4352 119.632 69.9832C119.632 69.5436 119.538 69.2234 119.35 69.0224C119.162 68.809 118.917 68.7024 118.615 68.7024C118.314 68.7024 118.069 68.809 117.881 69.0224C117.692 69.2234 117.598 69.5436 117.598 69.9832C117.598 70.4352 117.692 70.7681 117.881 70.9815C118.069 71.1951 118.314 71.3018 118.615 71.3018ZM118.841 78.0831C119.369 78.0831 119.808 78.0015 120.16 77.8382C120.512 77.6874 120.687 77.4803 120.687 77.2166C120.687 76.9655 120.574 76.8085 120.348 76.7457C120.135 76.6829 119.827 76.6514 119.425 76.6514H118.691C118.314 76.6514 118.025 76.639 117.824 76.6137C117.636 76.6013 117.472 76.5762 117.334 76.5385C117.108 76.7645 116.995 76.9906 116.995 77.2166C116.995 77.518 117.165 77.7378 117.504 77.8759C117.855 78.0141 118.301 78.0831 118.841 78.0831ZM129.203 76.1994V63.9553H137.19V66.6679H132.443V69.0036H136.512V71.7161H132.443V76.1994H129.203ZM140.733 76.4254C140.143 76.4254 139.635 76.2937 139.208 76.0299C138.8 75.7611 138.469 75.3912 138.247 74.9562C138.021 74.5167 137.908 74.0394 137.908 73.5246C137.908 72.545 138.31 71.7791 139.113 71.2264C139.917 70.6613 141.223 70.2846 143.032 70.0961C142.956 69.4432 142.517 69.1167 141.713 69.1167C141.374 69.1167 141.016 69.1857 140.639 69.3238C140.262 69.4494 139.829 69.6441 139.339 69.9078L138.209 67.7981C138.875 67.3962 139.547 67.0886 140.225 66.875C140.914 66.6618 141.632 66.5539 142.353 66.5548C143.584 66.5548 144.545 66.9065 145.236 67.6098C145.926 68.3005 146.272 69.4181 146.272 70.9627V76.1994H143.634L143.408 75.2952H143.333C142.956 75.6343 142.554 75.9106 142.127 76.124C141.713 76.325 141.248 76.4254 140.733 76.4254ZM141.864 73.9389C142.127 73.9389 142.347 73.8824 142.523 73.7695C142.699 73.6439 142.868 73.4869 143.032 73.2986V72.0175C142.265 72.1306 141.732 72.3001 141.43 72.5261C141.142 72.7523 140.997 72.9972 140.997 73.2609C140.997 73.7129 141.286 73.9389 141.864 73.9389ZM152.641 76.4254C151.749 76.4254 150.946 76.2307 150.23 75.8415C149.514 75.4522 148.943 74.8933 148.516 74.1649C148.101 73.4241 147.894 72.5325 147.894 71.4901C147.894 70.4479 148.126 69.5625 148.591 68.8341C149.068 68.0931 149.69 67.5282 150.456 67.1387C151.222 66.7495 152.051 66.5548 152.942 66.5548C153.507 66.5548 154.016 66.6428 154.468 66.8185C154.933 66.9944 155.341 67.233 155.692 67.5344L154.186 69.6064C153.985 69.4307 153.803 69.3114 153.639 69.2486C153.477 69.1859 153.305 69.154 153.131 69.1544C152.528 69.1544 152.057 69.3678 151.718 69.7949C151.379 70.2092 151.209 70.7744 151.209 71.4901C151.209 72.206 151.385 72.7774 151.737 73.2043C152.088 73.6187 152.515 73.826 153.018 73.826C153.281 73.826 153.539 73.7694 153.79 73.6564C154.047 73.5345 154.293 73.3894 154.525 73.2232L155.768 75.3329C155.303 75.7474 154.788 76.0362 154.223 76.1994C153.658 76.35 153.131 76.4254 152.641 76.4254ZM161.069 76.4254C160.152 76.4254 159.323 76.2307 158.582 75.8415C157.854 75.4522 157.276 74.8933 156.849 74.1649C156.422 73.4241 156.209 72.5325 156.209 71.4901C156.209 70.4729 156.422 69.6002 156.849 68.8718C157.289 68.1308 157.854 67.5595 158.545 67.1576C159.235 66.7557 159.964 66.5548 160.73 66.5548C161.659 66.5548 162.425 66.7621 163.028 67.1764C163.643 67.5783 164.095 68.1246 164.384 68.8153C164.685 69.5059 164.836 70.272 164.836 71.1135C164.836 71.3896 164.817 71.6597 164.78 71.9235C164.755 72.1745 164.729 72.3566 164.704 72.4697H159.336C159.486 73.0349 159.756 73.4303 160.146 73.6564C160.535 73.8699 160.993 73.9766 161.521 73.9766C162.124 73.9766 162.764 73.7883 163.442 73.4115L164.497 75.3329C163.995 75.6844 163.43 75.9546 162.802 76.1429C162.174 76.3312 161.596 76.4254 161.069 76.4254ZM159.298 70.3599H162.086C162.086 69.9957 161.992 69.6818 161.803 69.4181C161.628 69.1418 161.295 69.0036 160.805 69.0036C160.453 69.0036 160.139 69.1105 159.863 69.3238C159.587 69.5374 159.398 69.8827 159.298 70.3599Z" fill="#221C35"/>
<path d="M47.4986 77.9941C47.4031 77.6336 47.2484 77.2916 47.0408 76.9819C47.0853 76.8186 47.1191 76.6529 47.1418 76.4856C47.2891 75.4229 46.9208 74.45 46.2264 73.6971C45.8503 73.286 45.4472 73.0146 45.0202 72.848C45.3005 71.6489 45.4424 70.4218 45.4431 69.1903C45.4431 68.6281 45.4113 68.0772 45.3579 67.5344C45.33 67.2634 45.2964 66.993 45.2571 66.7234C45.1348 65.928 44.9534 65.1428 44.7144 64.3743C44.5577 63.8694 44.3765 63.3725 44.1715 62.8852C43.864 62.1637 43.505 61.4652 43.0972 60.7951C42.8296 60.3494 42.5383 59.9184 42.2245 59.5039C42.0707 59.2946 41.9104 59.0903 41.7436 58.8911C41.2497 58.2907 40.713 57.7269 40.1374 57.2041C39.9464 57.0284 39.7499 56.8587 39.5481 56.6954C39.3494 56.5297 39.1464 56.3693 38.9392 56.2143C38.5222 55.904 38.0911 55.6128 37.6477 55.3418C35.1971 53.8534 32.3232 53 29.2517 53C20.3088 53 13.0605 60.2485 13.0605 69.1911C13.0602 70.438 13.2047 71.6806 13.491 72.8941C13.1069 73.0609 12.7386 73.3207 12.3974 73.6968C11.7031 74.4491 11.3347 75.4186 11.4821 76.4811C11.5043 76.6501 11.5381 76.8172 11.5829 76.9815C11.3755 77.2915 11.2209 77.6336 11.1252 77.9941C10.9118 78.8051 10.9821 79.5365 11.2533 80.1772C10.9586 81.0149 11.0322 81.9069 11.4161 82.6824C11.6953 83.2488 12.0949 83.6867 12.5873 84.0785C13.1729 84.5438 13.9059 84.9395 14.7902 85.3188C15.845 85.7687 17.1325 86.1914 17.718 86.3464C19.2306 86.7382 20.6809 86.9864 22.151 86.9984C24.2451 87.0179 26.0485 86.5253 27.3399 85.2651C27.9742 85.3428 28.6126 85.3818 29.2517 85.3816C29.9269 85.3802 30.6014 85.3375 31.2714 85.2543C32.5596 86.5225 34.37 87.0195 36.4719 86.9994C37.9416 86.9879 39.3919 86.7396 40.9006 86.3473C41.4901 86.1923 42.7772 85.7696 43.8325 85.3199C44.7169 84.9397 45.4497 84.5442 46.0393 84.0794C46.528 83.6878 46.9272 83.2496 47.2066 82.6833C47.5944 81.9078 47.6643 81.0158 47.3734 80.1781C47.6421 79.5374 47.7118 78.8044 47.4986 77.9941ZM45.9979 80.123C46.2951 80.6868 46.3141 81.324 46.0518 81.9174C45.6542 82.8168 44.6665 83.5251 42.7484 84.2856C41.5557 84.7588 40.4633 85.0611 40.4537 85.064C38.8761 85.4732 37.4492 85.6809 36.214 85.6809C34.1687 85.6809 32.6469 85.1166 31.6817 84.002C30.0494 84.28 28.3827 84.2894 26.7474 84.0299C25.7811 85.126 24.2676 85.6809 22.2396 85.6809C21.0042 85.6809 19.5775 85.4732 17.9999 85.064C17.9901 85.0611 16.8985 84.7588 15.7053 84.2856C13.7871 83.5251 12.7993 82.8172 12.4018 81.9174C12.1395 81.324 12.1586 80.6868 12.4557 80.123C12.4833 80.0707 12.5126 80.0195 12.5441 79.9702C12.366 79.7028 12.2465 79.4005 12.1935 79.0836C12.1406 78.7667 12.1553 78.442 12.2368 78.1312C12.3549 77.6827 12.5988 77.3096 12.93 77.0416C12.7705 76.7795 12.6659 76.4879 12.6223 76.1842C12.527 75.5237 12.7461 74.8642 13.2394 74.3266C13.6233 73.9082 14.1662 73.6779 14.7674 73.6779H14.7834C14.3302 72.2253 14.1004 70.7122 14.1018 69.1905C14.1018 60.8911 20.8301 54.1626 29.1304 54.1626C37.4309 54.1626 44.159 60.8906 44.159 69.1905C44.1601 70.7163 43.9287 72.2333 43.4728 73.6893C43.5454 73.6822 43.6165 73.6784 43.6862 73.6784C44.2872 73.6784 44.8303 73.9085 45.2142 74.327C45.7072 74.8642 45.9268 75.5243 45.8313 76.1845C45.7877 76.4882 45.6832 76.7801 45.5237 77.0422C45.8548 77.31 46.0987 77.683 46.2168 78.1317C46.2981 78.4425 46.3128 78.7671 46.2598 79.0841C46.2069 79.401 46.0875 79.7031 45.9095 79.9707C45.941 80.0195 45.9707 80.0707 45.9979 80.123Z" fill="white"/>
<path d="M45.9098 79.9708C46.0878 79.7032 46.2071 79.401 46.2601 79.0842C46.3131 78.7671 46.2983 78.4426 46.2171 78.1317C46.099 77.6833 45.855 77.3102 45.5239 77.0422C45.6833 76.7801 45.788 76.4885 45.8316 76.1847C45.9269 75.5243 45.7078 74.8648 45.2145 74.3272C44.8306 73.9088 44.2875 73.6785 43.6865 73.6785C43.6166 73.6785 43.5456 73.682 43.4731 73.6893C43.9285 72.2333 44.1595 70.7163 44.1581 69.1907C44.1581 60.8915 37.4297 54.1628 29.1302 54.1628C20.8306 54.1628 14.1015 60.8908 14.1015 69.1907C14.1001 70.7124 14.3299 72.2255 14.7831 73.6781H14.7671C14.1661 73.6781 13.6232 73.9084 13.2393 74.3268C12.7463 74.864 12.5269 75.524 12.6222 76.1844C12.6657 76.4881 12.7704 76.7797 12.9299 77.0419C12.5987 77.3098 12.3548 77.6829 12.2369 78.1316C12.1555 78.4424 12.1408 78.7671 12.1938 79.0842C12.2468 79.401 12.3663 79.7033 12.5445 79.9708C12.5127 80.0201 12.4835 80.0713 12.4561 80.1235C12.1592 80.6874 12.14 81.3246 12.4022 81.918C12.7997 82.8172 13.7875 83.5259 15.7057 84.2862C16.8983 84.7594 17.9907 85.0617 18.0003 85.0646C19.578 85.4737 21.0047 85.6816 22.2398 85.6816C24.2681 85.6816 25.7814 85.1268 26.7478 84.0305C28.3831 84.29 30.0499 84.2805 31.6821 84.0026C32.6472 85.1172 34.1691 85.6816 36.2145 85.6816C37.4496 85.6816 38.8765 85.4737 40.4542 85.0646C40.4638 85.0617 41.5556 84.7594 42.7488 84.2862C44.667 83.5259 45.6548 82.8172 46.0522 81.918C46.3145 81.3246 46.2955 80.6874 45.9984 80.1235C45.9712 80.0707 45.9413 80.0197 45.9098 79.9708ZM26.0563 82.3145C25.9731 82.4602 25.884 82.6022 25.789 82.7404C25.5392 83.1062 25.2106 83.3855 24.8293 83.5934C24.1 83.9909 23.1773 84.1299 22.2396 84.1299C20.7587 84.1299 19.2405 83.7833 18.3894 83.5625C18.3476 83.5516 13.1731 82.0901 13.8282 80.846C13.9385 80.6369 14.12 80.5533 14.3484 80.5533C15.2707 80.5533 16.9503 81.9269 17.6723 81.9269C17.8334 81.9269 17.9472 81.858 17.9936 81.6907C18.3012 80.5873 13.318 80.1235 13.7377 78.526C13.8119 78.2432 14.0126 78.1285 14.2952 78.1285C15.5145 78.1284 18.2516 80.2729 18.824 80.2729C18.8679 80.2729 18.8994 80.2601 18.9165 80.2331L18.9239 80.2208C19.1925 79.7771 19.0385 79.4546 17.1976 78.3272L17.0209 78.2196C14.9955 76.9935 13.5736 76.2559 14.3823 75.3756C14.4753 75.2739 14.6071 75.2289 14.7673 75.2289C14.9574 75.2289 15.1873 75.2926 15.4405 75.3991C16.5103 75.8503 17.993 77.0806 18.6124 77.6173C18.795 77.7763 18.9026 77.8734 18.9026 77.8734C18.9026 77.8734 19.6868 78.6889 20.1611 78.6889C20.2702 78.6889 20.3627 78.646 20.4255 78.5395C20.7619 77.9726 17.3024 75.3511 17.1073 74.2696C16.9752 73.5366 17.2001 73.1655 17.6164 73.1655C17.8141 73.1655 18.0556 73.2496 18.3222 73.4187C19.1491 73.9436 20.7456 76.6871 21.3301 77.7542C21.526 78.112 21.8605 78.2632 22.1619 78.2632C22.76 78.2632 23.2275 77.6687 22.2167 76.9133C20.6976 75.7765 21.2307 73.9186 21.9557 73.8042C21.9866 73.7994 22.0179 73.7969 22.049 73.7967C22.7084 73.7967 22.9993 74.933 22.9993 74.933C22.9993 74.933 23.8516 77.0737 25.316 78.5368C26.6449 79.865 26.8304 80.9551 26.0563 82.3145ZM30.7916 82.5652L30.7156 82.5743L30.586 82.5893C30.5179 82.5962 30.4498 82.6029 30.3813 82.6093L30.3145 82.6154L30.2536 82.6206L30.167 82.6275C30.1352 82.6298 30.1034 82.6323 30.0716 82.6342L29.9762 82.6406L29.9553 82.6419L29.8802 82.6463L29.8484 82.6479L29.7595 82.6524L29.6562 82.6567L29.5623 82.6598L29.4997 82.6616H29.468C29.4485 82.6616 29.4291 82.6627 29.4095 82.6629H29.3784C29.3588 82.6629 29.3394 82.6629 29.3199 82.6639L29.2404 82.6648H29.1291C29.0418 82.6648 28.9548 82.6639 28.8679 82.6623L28.7974 82.6607C28.7775 82.6607 28.7574 82.6597 28.7375 82.6591L28.663 82.6568L28.5702 82.6533L28.4868 82.6497L28.4651 82.6488L28.3856 82.6446C28.3636 82.6433 28.3415 82.6422 28.3196 82.6408L28.2682 82.6378C28.2037 82.6337 28.1391 82.6291 28.0746 82.6241L28.007 82.6188L27.9217 82.6115L27.8219 82.6022C27.7662 82.5971 27.7106 82.5914 27.6549 82.5852H27.6523C28.4649 80.7722 28.054 79.0792 26.4118 77.4382C25.3349 76.3627 24.6182 74.7742 24.4697 74.4255C24.1689 73.3933 23.3724 72.2458 22.0499 72.2458C21.9381 72.2459 21.8266 72.2548 21.7161 72.2723C21.1366 72.3633 20.6302 72.6969 20.2688 73.1987C19.8785 72.7131 19.4988 72.327 19.1556 72.1088C18.6382 71.7809 18.122 71.6145 17.6187 71.6145C16.991 71.6145 16.4296 71.8723 16.0384 72.34L16.0286 72.3519L16.0066 72.2593L16.0057 72.2554C15.9313 71.9371 15.8688 71.6159 15.8182 71.293C15.8182 71.2907 15.8182 71.2885 15.8172 71.2864L15.8062 71.2133C15.8002 71.1738 15.7944 71.1342 15.7887 71.0947C15.7841 71.0618 15.7795 71.0289 15.7752 70.9962C15.7709 70.9635 15.7663 70.9306 15.7624 70.8977C15.7581 70.8646 15.7542 70.8317 15.7503 70.7988C15.7466 70.7675 15.743 70.7362 15.7395 70.7049L15.7384 70.6969C15.7224 70.5525 15.7086 70.408 15.6971 70.2632L15.6909 70.1794C15.6891 70.1565 15.6875 70.1334 15.6861 70.1101C15.6861 70.1048 15.6854 70.0993 15.6851 70.0943L15.6792 70.0014C15.6771 69.9678 15.6755 69.9342 15.6737 69.9006C15.6719 69.8672 15.6701 69.8336 15.6687 69.7998L15.6651 69.7118L15.6641 69.6851L15.6614 69.6037L15.6595 69.5347C15.6595 69.5071 15.6582 69.4794 15.6577 69.4518L15.6562 69.3648C15.6559 69.3359 15.6562 69.307 15.6555 69.2781C15.6546 69.2489 15.6555 69.2199 15.6555 69.1907C15.6555 61.7484 21.6893 55.7147 29.1323 55.7147C36.5753 55.7147 42.6089 61.7481 42.6089 69.1907V69.3648C42.6089 69.3938 42.6081 69.423 42.6074 69.4518C42.6074 69.476 42.6065 69.4996 42.6058 69.5238C42.6058 69.5453 42.6049 69.5667 42.6041 69.5875C42.6041 69.6147 42.6025 69.6417 42.6016 69.6689V69.6712C42.5993 69.7303 42.5968 69.7893 42.5943 69.8483L42.5932 69.8679L42.5886 69.9561L42.5843 70.026C42.5744 70.1915 42.5614 70.3571 42.5455 70.5223V70.5246C42.5427 70.5555 42.5395 70.5867 42.5361 70.6176C42.5283 70.6896 42.5203 70.7616 42.5123 70.8337L42.5032 70.906L42.492 70.991C42.4881 71.0222 42.4838 71.0531 42.4794 71.084C42.4746 71.1187 42.4694 71.1532 42.4645 71.1877L42.452 71.2692L42.4374 71.3616C42.4325 71.3924 42.4275 71.423 42.4216 71.4537C42.4156 71.4843 42.4109 71.5149 42.4056 71.5457C42.3949 71.6068 42.3839 71.6678 42.372 71.7288C42.3483 71.8503 42.3236 71.9714 42.2975 72.0923C42.2909 72.1224 42.2841 72.1526 42.2772 72.1826C41.8979 71.814 41.3957 71.6132 40.8416 71.6132C40.3389 71.6132 39.8222 71.7795 39.3049 72.1076C38.9615 72.3256 38.5822 72.7118 38.1915 73.1975C37.8297 72.6955 37.3232 72.3621 36.7444 72.2708C36.634 72.2536 36.5223 72.2447 36.4104 72.2445C35.0876 72.2445 34.2917 73.392 33.9906 74.4243C33.8414 74.773 33.1248 76.3613 32.0466 77.4386C30.4057 79.0742 29.9915 80.7598 30.7916 82.5652ZM44.7045 78.9362L44.6992 78.952C44.6954 78.9622 44.6917 78.9723 44.6876 78.9823C44.6812 78.9974 44.6745 79.0121 44.6673 79.0269C44.6501 79.0621 44.6305 79.0963 44.609 79.129C44.5793 79.1733 44.5468 79.2156 44.5114 79.2554C44.5032 79.2647 44.4954 79.2737 44.4861 79.2828C44.4737 79.2965 44.4604 79.3098 44.4472 79.3232C44.2077 79.5606 43.8428 79.7684 43.4302 79.9594C43.3835 79.9806 43.3362 80.0017 43.2881 80.0229L43.2405 80.0441C43.2087 80.0581 43.177 80.0722 43.1436 80.0858C43.111 80.0997 43.0783 80.1134 43.0456 80.1269L42.9464 80.168C42.7143 80.2635 42.4766 80.3544 42.2445 80.4443L42.1454 80.4828L42.0473 80.5212C41.9822 80.5466 41.9178 80.572 41.8543 80.5974L41.7599 80.6355L41.6673 80.6736L41.6216 80.6926C41.5913 80.7054 41.5615 80.7178 41.532 80.7306C40.8495 81.0233 40.3587 81.3212 40.4618 81.6909C40.4647 81.7014 40.4679 81.7113 40.4714 81.7209C40.4807 81.7483 40.4933 81.7743 40.5089 81.7985C40.5182 81.8131 40.5288 81.8267 40.5408 81.8392C40.662 81.9651 40.8827 81.9452 41.161 81.8452C41.1836 81.8371 41.2067 81.8283 41.23 81.8191C41.246 81.8131 41.2618 81.8067 41.2778 81.8002L41.3018 81.7901C41.3655 81.7631 41.4329 81.733 41.5019 81.7001C41.5191 81.6921 41.5366 81.6843 41.554 81.6751C41.8942 81.5088 42.2799 81.2846 42.6626 81.0806C42.7212 81.0488 42.7801 81.0184 42.8386 80.9881C42.9343 80.9385 43.0308 80.8907 43.1283 80.845C43.4907 80.6746 43.8312 80.5537 44.1052 80.5537C44.2336 80.5537 44.3473 80.58 44.4417 80.6405L44.4575 80.651C44.5053 80.6848 44.547 80.7262 44.5809 80.7739C44.5887 80.7851 44.5969 80.7966 44.6039 80.8085C44.6113 80.8208 44.6184 80.8334 44.6252 80.8462C44.7605 81.103 44.6473 81.3692 44.3823 81.6301C44.1278 81.8804 43.732 82.126 43.2819 82.3535C43.2487 82.3704 43.2151 82.3872 43.1813 82.4036C41.8421 83.0612 40.0887 83.5564 40.0642 83.5627C39.5969 83.6838 38.9286 83.8429 38.1759 83.9619L38.0644 83.9791L38.0462 83.9818C37.8755 84.0074 37.7043 84.03 37.5327 84.0495L37.5169 84.0511C37.2048 84.0867 36.8847 84.1125 36.5641 84.1233H36.5593C36.4441 84.1276 36.329 84.1296 36.2138 84.1296H36.0811C35.9054 84.1271 35.7299 84.1193 35.5548 84.1057C35.5507 84.1057 35.5464 84.1057 35.5421 84.1048C35.4795 84.1 35.4168 84.0942 35.3543 84.0872C35.2469 84.0757 35.1397 84.0615 35.0328 84.0447C34.9912 84.0378 34.9468 84.0305 34.9039 84.023C34.8844 84.0195 34.865 84.0159 34.8456 84.012L34.841 84.0111C34.7793 83.9994 34.7179 83.9864 34.6567 83.9724C34.6214 83.9644 34.5858 83.9564 34.5508 83.9469L34.5298 83.9414C34.5124 83.9372 34.4953 83.9325 34.4782 83.9279L34.4688 83.9254L34.4138 83.9096C34.3939 83.9039 34.3742 83.898 34.3543 83.8922L34.3472 83.89L34.2954 83.8742C34.2758 83.8682 34.2565 83.8618 34.2371 83.8555C34.2211 83.8502 34.2052 83.8447 34.1892 83.8395L34.1542 83.8273C34.1204 83.8155 34.087 83.8031 34.0536 83.7903L34.0219 83.778L33.9958 83.7675C33.9454 83.7472 33.8953 83.7261 33.8457 83.7039L33.8126 83.688L33.8071 83.6855C33.7954 83.68 33.7838 83.6745 33.7721 83.6695C33.7491 83.6585 33.7264 83.6471 33.7038 83.6356L33.697 83.6322L33.6643 83.6149C33.6062 83.5847 33.5491 83.5524 33.4932 83.5179L33.4627 83.4992C33.4468 83.4896 33.4324 83.4798 33.4173 83.47L33.3775 83.4435C33.3631 83.4339 33.3487 83.4241 33.3346 83.414L33.309 83.3959C33.282 83.3765 33.2555 83.3567 33.2293 83.3363C33.2155 83.3256 33.2018 83.3146 33.1881 83.3045C33.1577 83.2801 33.128 83.255 33.0986 83.2292L33.0974 83.2282C33.0688 83.2035 33.0409 83.1779 33.0136 83.1517L33.0122 83.1499C32.998 83.1364 32.9841 83.1229 32.9703 83.1089C32.9566 83.0948 32.9427 83.0809 32.9294 83.0669C32.9158 83.0527 32.9023 83.0383 32.8892 83.0235C32.8764 83.0096 32.8639 82.9956 32.8515 82.9814L32.8472 82.9766C32.783 82.902 32.7229 82.824 32.6672 82.7427L32.6452 82.7102C32.6306 82.6887 32.6162 82.667 32.602 82.6453L32.56 82.5807C32.5394 82.5492 32.5193 82.5174 32.4997 82.4854C32.4857 82.4626 32.4718 82.4399 32.4581 82.4169C32.4466 82.3974 32.435 82.378 32.424 82.3588C32.4178 82.3483 32.4119 82.3376 32.406 82.327C32.4002 82.3159 32.3932 82.3047 32.387 82.2935L32.377 82.2759C32.3737 82.2701 32.3726 82.2683 32.3708 82.2644C32.3587 82.2432 32.347 82.2217 32.3356 82.1998C32.3304 82.1904 32.3253 82.1808 32.3198 82.1714L32.3038 82.1408L32.288 82.1104L32.2574 82.0487C32.2524 82.0385 32.2476 82.0284 32.2428 82.0183C32.2323 81.9964 32.2223 81.9749 32.2124 81.9534C32.2085 81.9446 32.2044 81.9359 32.2008 81.9272C32.1871 81.8975 32.1741 81.8675 32.1619 81.8371C32.1535 81.817 32.1459 81.797 32.1377 81.7771C32.1147 81.7185 32.0932 81.6592 32.0735 81.5993C32.0676 81.5815 32.0618 81.5639 32.0566 81.5461C32.0438 81.5058 32.0322 81.4651 32.0219 81.424C32.0093 81.3761 31.9981 81.3278 31.9887 81.2792C31.9826 81.2506 31.9773 81.2218 31.9728 81.1928C31.968 81.1642 31.964 81.1355 31.9606 81.1071C31.9533 81.0504 31.9481 80.9935 31.9451 80.9364C31.9451 80.927 31.9442 80.9174 31.944 80.9079C31.9431 80.8891 31.9426 80.8702 31.9424 80.8514C31.9325 80.0917 32.3171 79.361 33.1392 78.5393C34.6034 77.0764 35.4559 74.9355 35.4559 74.9355C35.4559 74.9355 35.4788 74.8457 35.5267 74.7166C35.5427 74.6738 35.5594 74.6311 35.577 74.589C35.5971 74.5413 35.6186 74.4942 35.6417 74.4479L35.6485 74.4344C35.6782 74.3754 35.7103 74.3179 35.7454 74.2619C35.7534 74.249 35.7612 74.236 35.7705 74.2232C35.7964 74.1844 35.824 74.1469 35.853 74.1104C35.8754 74.0825 35.8992 74.0555 35.9243 74.0299C36.0093 73.9424 36.1062 73.8709 36.2159 73.8327L36.2298 73.8282C36.239 73.8252 36.2481 73.8224 36.2575 73.8197C36.2685 73.8168 36.2796 73.8142 36.2906 73.8119L36.2956 73.811C36.3189 73.8063 36.3422 73.8031 36.3658 73.8015H36.3679C36.3802 73.8015 36.3925 73.8003 36.4051 73.8003C36.4366 73.8005 36.4679 73.803 36.499 73.8078C36.6309 73.8286 36.7567 73.9072 36.8648 74.0284L36.8794 74.0455C36.9146 74.0868 36.9466 74.1309 36.975 74.1771C36.9964 74.2114 37.0165 74.2475 37.0355 74.2854C37.0431 74.3014 37.0504 74.316 37.0577 74.3316C37.0613 74.3396 37.0648 74.3475 37.0682 74.3556C37.0753 74.3715 37.0819 74.3875 37.0885 74.4042C37.1257 74.4995 37.1545 74.5978 37.1747 74.6981C37.1962 74.8064 37.2087 74.9163 37.2123 75.0268C37.2135 75.0753 37.2135 75.1244 37.2123 75.1742C37.2114 75.193 37.2105 75.212 37.2091 75.2311C37.1945 75.4425 37.1484 75.6506 37.0723 75.8485C37.0647 75.868 37.0563 75.888 37.0485 75.9079C37.0102 75.9993 36.9658 76.0878 36.9156 76.1732C36.887 76.2219 36.8561 76.2703 36.823 76.3183L36.8027 76.3471C36.7243 76.4566 36.6368 76.5594 36.5411 76.6544C36.4469 76.7488 36.3459 76.8361 36.239 76.916C36.1318 76.9951 36.0313 77.0829 35.9385 77.1784C35.6712 77.459 35.609 77.7064 35.6691 77.894C35.6762 77.9152 35.6846 77.936 35.6942 77.956C35.7164 77.9996 35.7452 78.0396 35.7797 78.0745L35.7891 78.0839C35.7989 78.0933 35.8092 78.1024 35.8197 78.1111L35.8304 78.1198C35.8563 78.1397 35.8837 78.1575 35.9124 78.173C35.9205 78.1774 35.9282 78.1819 35.9376 78.1862C35.9769 78.2057 36.018 78.2214 36.0603 78.2333L36.072 78.2363L36.0879 78.2406L36.1017 78.2439L36.1165 78.2471L36.1313 78.2502L36.1453 78.2525C36.1558 78.2544 36.1665 78.256 36.177 78.2575L36.1873 78.2589L36.2056 78.2608L36.217 78.2619L36.2358 78.2633H36.2467L36.2662 78.2642H36.3279L36.3455 78.2633L36.3658 78.2621L36.3905 78.2598L36.4136 78.2569C36.4188 78.2569 36.4241 78.2555 36.4295 78.2546C36.5109 78.2427 36.5902 78.2198 36.6653 78.1863C36.6813 78.1796 36.6971 78.1721 36.7117 78.1643C36.743 78.1486 36.7734 78.131 36.8025 78.1116C36.8433 78.085 36.8817 78.0549 36.9178 78.0222L36.9428 77.9984C36.9468 77.9945 36.9508 77.9907 36.9546 77.9866C36.9791 77.9621 37.0022 77.9361 37.0238 77.9089C37.0618 77.8609 37.0956 77.8099 37.1249 77.7562C37.4729 77.1235 37.8377 76.5 38.2187 75.8867L38.271 75.803L38.3238 75.719C38.3503 75.6767 38.3768 75.6347 38.4033 75.5933L38.4302 75.5515L38.4837 75.4681C38.5555 75.357 38.6276 75.2471 38.7001 75.1383L38.7543 75.0572C38.8632 74.8961 38.9718 74.7392 39.0792 74.59L39.1329 74.5164C39.2498 74.3549 39.3716 74.1972 39.498 74.0432L39.5483 73.9831C39.5565 73.973 39.5642 73.9632 39.5732 73.9534L39.6225 73.8963C39.6307 73.8869 39.6385 73.8777 39.647 73.8686L39.6947 73.8147L39.7187 73.7887C39.7418 73.7637 39.7653 73.739 39.7891 73.7144C39.8051 73.6986 39.8199 73.6826 39.8353 73.6678C39.9255 73.5755 40.0249 73.4928 40.1321 73.4212L40.1568 73.4054L40.1819 73.3894C40.1979 73.3794 40.2141 73.3698 40.2306 73.3607C40.651 73.1223 40.9992 73.1047 41.1994 73.3049C41.3209 73.4263 41.3879 73.6275 41.3844 73.9072C41.3844 73.9196 41.3844 73.9319 41.3833 73.9447V73.9586C41.3833 73.9712 41.3822 73.9842 41.3813 73.9972C41.3813 74.013 41.3794 74.029 41.3778 74.0448C41.3762 74.0608 41.3755 74.0729 41.3739 74.087C41.3739 74.091 41.373 74.0951 41.3724 74.0992C41.3712 74.1117 41.3696 74.1243 41.368 74.1367C41.368 74.1407 41.368 74.1444 41.3664 74.1483C41.3646 74.1652 41.3621 74.1821 41.3591 74.1988C41.3572 74.2143 41.3547 74.2297 41.3516 74.2452C41.3504 74.2541 41.3486 74.2628 41.3472 74.2717C41.3426 74.297 41.3365 74.322 41.3292 74.3466C41.3155 74.3925 41.2988 74.4374 41.2791 74.4812C41.2706 74.5002 41.2615 74.5192 41.2522 74.5379C41.233 74.5765 41.2113 74.616 41.1875 74.6569C41.1756 74.677 41.1633 74.6978 41.1502 74.7186L41.1302 74.7502C41.11 74.7821 41.0888 74.8143 41.0668 74.8468C41.0447 74.8793 41.0211 74.9126 40.9956 74.9462C40.9627 74.991 40.9281 75.0367 40.8914 75.0829L40.8637 75.118C40.7853 75.2156 40.7049 75.3116 40.6227 75.4061L40.5575 75.4798L40.5242 75.5172C40.4789 75.5679 40.4334 75.6182 40.3875 75.6682L40.3523 75.7062C40.329 75.7315 40.3046 75.7571 40.2813 75.7825C40.2575 75.8083 40.2333 75.8339 40.2091 75.8595L40.1359 75.9367L40.0617 76.014C40.037 76.0398 40.0121 76.066 39.987 76.0917L39.836 76.2473C39.115 76.9869 38.3551 77.724 38.098 78.1835C38.0809 78.2135 38.0655 78.2443 38.0514 78.2758C38.0149 78.3594 37.9997 78.4308 38.01 78.4886C38.0133 78.5077 38.0201 78.526 38.0299 78.5425C38.0445 78.5676 38.0621 78.5907 38.0823 78.6113C38.0918 78.6206 38.1015 78.6293 38.1122 78.6371C38.165 78.6748 38.229 78.6942 38.294 78.6922H38.3142L38.335 78.6908L38.356 78.6883L38.3733 78.6858C38.3756 78.6857 38.3779 78.6851 38.3802 78.6846L38.396 78.6816L38.4003 78.6805L38.4177 78.6768L38.4239 78.6752L38.4426 78.6704L38.4648 78.6638C38.4794 78.6593 38.494 78.6544 38.5089 78.6489C38.5411 78.6375 38.5726 78.6243 38.6034 78.6096C38.6112 78.6058 38.6192 78.6023 38.6268 78.5982L38.6505 78.5864C38.6814 78.5708 38.7122 78.5539 38.7431 78.5356C38.7679 78.521 38.7924 78.5061 38.8169 78.4902L38.8408 78.4744C38.8486 78.4694 38.8566 78.4643 38.8644 78.4584L38.8881 78.4426L38.9005 78.4339L38.9347 78.41C38.9665 78.388 38.9962 78.3654 39.0264 78.3425L39.0291 78.3405L39.0767 78.3035C39.142 78.2519 39.2041 78.2 39.2601 78.1511L39.2974 78.1182L39.301 78.115L39.3204 78.0978C39.3662 78.0567 39.4071 78.0183 39.4413 77.9865L39.4551 77.9729L39.4888 77.9411L39.5088 77.9216L39.5158 77.9144L39.5177 77.9125C39.5348 77.8954 39.5348 77.8954 39.5519 77.8782L39.5533 77.8767L39.5597 77.8711C39.5617 77.8689 39.5643 77.8668 39.5674 77.8641L39.5698 77.8618L39.5766 77.8558L39.6127 77.8239L39.633 77.8056C39.6429 77.7971 39.6538 77.7873 39.6648 77.7768L39.6892 77.7555C39.6934 77.7519 39.6977 77.7478 39.7021 77.7439L39.7276 77.7217L39.7651 77.689L39.7848 77.6717C39.8622 77.6043 39.9564 77.523 40.0644 77.4315L40.1086 77.3941L40.1819 77.3328L40.2566 77.2702C40.3544 77.1891 40.4597 77.1028 40.571 77.0132L40.6441 76.9545C40.7063 76.9051 40.7703 76.8544 40.8351 76.8036C40.861 76.7831 40.8875 76.7627 40.9145 76.7424C40.9809 76.6912 41.0476 76.6402 41.1144 76.5898C41.267 76.4746 41.4244 76.3592 41.5835 76.2466L41.652 76.1991C41.6996 76.1661 41.7473 76.1332 41.7951 76.101L41.8383 76.0716C41.9239 76.014 42.0101 75.9577 42.0971 75.9025L42.1403 75.8753L42.1831 75.8487C42.226 75.8222 42.2689 75.7958 42.3112 75.7704L42.3537 75.7452L42.4389 75.6955C42.4668 75.6794 42.4945 75.6635 42.5223 75.6479L42.539 75.6385L42.6051 75.6024C42.6325 75.5874 42.6601 75.573 42.6873 75.559L42.7282 75.538L42.7677 75.5179C42.858 75.4726 42.9499 75.4306 43.0435 75.3922C43.0563 75.3868 43.0689 75.3817 43.0815 75.3762C43.1066 75.3657 43.1315 75.3561 43.1562 75.3475C43.1809 75.3392 43.2053 75.3305 43.2293 75.3219C43.2512 75.3147 43.2723 75.3079 43.2929 75.3015L43.2999 75.2994C43.3109 75.296 43.3219 75.2928 43.333 75.2899L43.3362 75.289C43.3586 75.2826 43.381 75.2768 43.4036 75.2714H43.4053C43.4386 75.2634 43.4709 75.2567 43.5026 75.2513C43.5134 75.2496 43.5241 75.2478 43.5344 75.2464C43.5652 75.2417 43.5961 75.2385 43.6271 75.2364C43.6466 75.235 43.6664 75.2345 43.6859 75.2345H43.7009C43.7208 75.2345 43.74 75.2357 43.759 75.2377C43.7677 75.2377 43.7764 75.2393 43.785 75.2405H43.7885C43.7971 75.2414 43.8058 75.2428 43.8141 75.2446C43.8225 75.2464 43.831 75.2476 43.8392 75.2496H43.8421C43.8502 75.2513 43.8579 75.2537 43.8664 75.256C43.9344 75.2743 43.9968 75.3088 44.0485 75.3564L44.0531 75.3611L44.0622 75.37L44.0711 75.3794C44.1424 75.4544 44.2014 75.5403 44.2459 75.6338L44.2528 75.6497C44.268 75.6852 44.2799 75.722 44.2882 75.7597C44.3113 75.8648 44.3051 75.9744 44.2701 76.0761C44.255 76.1204 44.2365 76.1634 44.2146 76.2047L44.2 76.231C44.1445 76.324 44.0791 76.4106 44.0046 76.4892L43.9886 76.5061C43.9536 76.5432 43.9171 76.5793 43.8796 76.614C43.8677 76.6252 43.8554 76.6364 43.843 76.6476L43.8241 76.6647C43.785 76.6994 43.745 76.7332 43.7044 76.7662C43.6973 76.7719 43.69 76.7776 43.6831 76.7837C43.6548 76.8064 43.6257 76.8295 43.5954 76.8527C43.4912 76.9323 43.3851 77.0091 43.2769 77.0833C43.2133 77.1269 43.1475 77.1708 43.0796 77.2154C42.9529 77.2985 42.8254 77.3797 42.6967 77.4594C42.6595 77.4823 42.6222 77.5056 42.5841 77.5287C42.2344 77.7439 41.8465 77.974 41.4329 78.2242L41.3259 78.2893C41.2087 78.3608 41.0981 78.4291 40.994 78.494L40.9416 78.527L40.8424 78.5907C40.8031 78.6156 40.7648 78.6401 40.7277 78.6643C40.6996 78.6823 40.6722 78.7001 40.6453 78.7177L40.5923 78.7525C40.5665 78.7694 40.5409 78.7863 40.5153 78.8036L40.4904 78.8194C40.4641 78.837 40.4385 78.8542 40.4136 78.8713L40.3729 78.899L40.3251 78.9323L40.281 78.9631C40.2113 79.012 40.1424 79.0619 40.0742 79.1128L40.0503 79.1309C40.0235 79.1512 39.9975 79.1715 39.9724 79.1912L39.9397 79.2174C39.8846 79.2616 39.8346 79.3041 39.7895 79.3447L39.7674 79.365C39.7548 79.3765 39.7423 79.3881 39.7306 79.3994C39.7222 79.4073 39.7146 79.4153 39.7062 79.4231L39.6947 79.4345C39.6692 79.4599 39.6445 79.486 39.6205 79.5129L39.6088 79.5264C39.5826 79.5566 39.5599 79.5856 39.5398 79.6139L39.5309 79.6267C39.5078 79.6605 39.4873 79.6962 39.4699 79.7334L39.4639 79.7464L39.4601 79.7555L39.4571 79.7633L39.453 79.7741C39.4518 79.7779 39.4493 79.7844 39.4479 79.7901C39.4406 79.8113 39.4352 79.8332 39.4317 79.8554L39.4299 79.8673L39.4285 79.8782L39.4276 79.8886V79.9445C39.4276 79.9491 39.4276 79.9539 39.4286 79.9587C39.4288 79.9616 39.4292 79.9644 39.4295 79.9672C39.4295 79.9719 39.4308 79.9765 39.4313 79.9813L39.4347 80.0008V80.0017C39.4359 80.008 39.4372 80.0142 39.4388 80.0204C39.4404 80.0266 39.442 80.0336 39.4439 80.0401C39.4496 80.0602 39.4566 80.0802 39.4646 80.0995C39.4646 80.101 39.4658 80.1026 39.4663 80.104C39.4685 80.1088 39.4704 80.1138 39.4727 80.1186C39.4815 80.1388 39.4912 80.1586 39.5019 80.178L39.5131 80.1981L39.5249 80.2183L39.5371 80.2386C39.5393 80.242 39.5416 80.245 39.5442 80.248L39.5483 80.2523L39.5526 80.2562L39.5574 80.2599C39.5606 80.2622 39.564 80.2642 39.5675 80.2662C39.5711 80.2678 39.575 80.2695 39.5789 80.271C39.5832 80.2724 39.5874 80.2736 39.5917 80.2747C39.6943 80.2978 39.9052 80.2128 40.1853 80.0649L40.2356 80.0382L40.3208 79.9918L40.3626 79.9687C40.3921 79.9527 40.4225 79.9349 40.4533 79.9173L40.5096 79.8854C40.88 79.6722 41.3227 79.3982 41.78 79.1308C41.8227 79.1057 41.8657 79.0808 41.9088 79.0559L41.9952 79.0008C42.0384 78.9759 42.0814 78.9513 42.1246 78.9271C42.3085 78.8226 42.4949 78.7221 42.6832 78.6259L42.7677 78.5831C42.8238 78.5553 42.8795 78.5283 42.9345 78.502C43.041 78.4515 43.1485 78.4036 43.2572 78.3583L43.3168 78.3341L43.3241 78.3313C43.6395 78.2062 43.9256 78.1289 44.1572 78.1289C44.2073 78.1285 44.2573 78.1326 44.3067 78.1412H44.3081C44.3241 78.144 44.3385 78.1472 44.3531 78.1509H44.3558C44.3771 78.1561 44.3981 78.1627 44.4184 78.1709C44.4346 78.1767 44.4502 78.1837 44.4653 78.1918C44.5317 78.2255 44.5884 78.2751 44.6307 78.3362C44.6343 78.3414 44.6376 78.3467 44.6408 78.3522C44.6565 78.3761 44.67 78.4011 44.681 78.4275C44.6876 78.4426 44.6937 78.4582 44.6994 78.4751C44.705 78.4922 44.71 78.5085 44.7152 78.5262C44.7529 78.6609 44.7491 78.8036 44.7045 78.9362Z" fill="#221C35"/>
<path fill-rule="evenodd" clip-rule="evenodd" d="M42.6065 69.2778V69.1906C42.6065 61.748 36.5751 55.7146 29.1319 55.7146C21.6891 55.7146 15.6554 61.7483 15.6554 69.1906L15.6552 69.2198C15.655 69.2392 15.6548 69.2584 15.6552 69.2778C15.656 69.3068 15.6563 69.3357 15.6561 69.3647L15.6571 69.4287L15.6575 69.4519L15.6584 69.4835C15.6587 69.5006 15.6593 69.5175 15.6593 69.5345L15.661 69.6037L15.6639 69.685L15.6648 69.7117L15.6683 69.7958V69.7997L15.6733 69.898V69.9005C15.6751 69.9341 15.6769 69.9677 15.679 70.0012C15.6808 70.0323 15.6827 70.0632 15.6849 70.0942L15.6854 70.0997C15.687 70.1262 15.6888 70.1528 15.6907 70.1793L15.6913 70.1863C15.6931 70.2119 15.695 70.2377 15.6971 70.2631L15.6975 70.2681L15.7011 70.3125C15.7117 70.4407 15.7242 70.5689 15.7384 70.6968L15.7393 70.7048L15.75 70.7987L15.7622 70.8976C15.7705 70.9634 15.7792 71.029 15.7885 71.0946C15.7941 71.1343 15.7999 71.1737 15.8058 71.2132L15.8067 71.218C15.82 71.3073 15.8343 71.3965 15.8497 71.4855C15.8939 71.7435 15.9459 72.0003 16.0055 72.2553L16.0064 72.2593L16.0121 72.2834C16.0174 72.3061 16.0227 72.3289 16.0284 72.3518L16.0382 72.3399C16.4294 71.8722 16.9906 71.6144 17.6185 71.6144C18.1218 71.6144 18.6382 71.7806 19.1555 72.1087C19.4987 72.3267 19.8781 72.713 20.2686 73.1986C20.63 72.6966 21.1364 72.3632 21.7158 72.2721C21.8264 72.2547 21.938 72.2458 22.0497 72.2457C23.3722 72.2457 24.1687 73.3933 24.4695 74.4254C24.618 74.7743 25.3347 76.3625 26.4151 77.4369C28.0573 79.0776 28.4683 80.7709 27.6556 82.5838H27.6583C27.7138 82.5899 27.7694 82.5955 27.8253 82.6007C27.8585 82.6039 27.8918 82.6071 27.925 82.6099L27.9368 82.611C27.9611 82.6133 27.9857 82.6155 28.0102 82.6172L28.0778 82.6228C28.1421 82.6277 28.2067 82.6322 28.2716 82.6364L28.3228 82.6395L28.3635 82.6418L28.389 82.6432L28.4683 82.6475L28.49 82.6484L28.5735 82.6519L28.6662 82.6555L28.7409 82.6576L28.7533 82.6581C28.769 82.6587 28.785 82.6594 28.8008 82.6594L28.8177 82.6597C28.9226 82.6622 29.0273 82.6635 29.1323 82.6635H29.2436L29.3232 82.6626C29.3428 82.6615 29.3622 82.6615 29.3817 82.6615H29.4127L29.4395 82.661C29.45 82.6606 29.4607 82.6603 29.4712 82.6603H29.503L29.5654 82.6585L29.6593 82.6553L29.7628 82.6508C29.7925 82.6496 29.822 82.6482 29.8517 82.6466L29.8836 82.6448L29.9307 82.6421L29.9586 82.6405L29.9794 82.6393L30.0749 82.6329C30.1067 82.6309 30.1386 82.6284 30.1704 82.626L30.2568 82.6192L30.3178 82.614L30.3845 82.608C30.453 82.6016 30.5212 82.5948 30.5892 82.5877C30.6326 82.5829 30.6756 82.5781 30.7188 82.573L30.7947 82.5639C29.9947 80.7584 30.4089 79.0728 32.0445 77.4385C33.1225 76.3614 33.8391 74.7729 33.9885 74.4242C34.2895 73.3919 35.0853 72.2444 36.4081 72.2444C36.52 72.2446 36.6316 72.2533 36.7421 72.2709C37.3209 72.3619 37.8275 72.6955 38.1894 73.1974C38.5801 72.7117 38.9594 72.3255 39.3026 72.1075C39.8198 71.7794 40.3366 71.6131 40.8393 71.6131C41.3934 71.6131 41.8958 71.8141 42.2751 72.1825C42.2959 72.0897 42.316 71.9969 42.3352 71.9037C42.3469 71.8455 42.3585 71.7872 42.3698 71.7287C42.3837 71.6569 42.3969 71.5847 42.409 71.5125C42.4122 71.4929 42.4155 71.4734 42.4193 71.4536C42.4251 71.4229 42.4303 71.3925 42.4351 71.3615L42.4371 71.3498L42.4497 71.2692L42.4621 71.1876L42.4623 71.1867C42.4673 71.1526 42.4724 71.1182 42.4771 71.0839C42.4808 71.058 42.4844 71.032 42.4877 71.0059L42.4899 70.9909L42.5009 70.9059L42.51 70.8336C42.5155 70.7859 42.5208 70.7382 42.526 70.6904C42.5283 70.6714 42.5302 70.6522 42.5322 70.633L42.534 70.6175C42.5373 70.5857 42.5404 70.554 42.5432 70.5222L42.5503 70.4482C42.5651 70.2843 42.577 70.1203 42.5862 69.956V69.9549L42.591 69.8678L42.5919 69.8482L42.5955 69.7655C42.5969 69.7344 42.5982 69.7029 42.5992 69.6711V69.6688L42.6001 69.6459C42.601 69.6263 42.6017 69.6067 42.6017 69.5874L42.6021 69.5794C42.6028 69.5612 42.6035 69.5424 42.6035 69.5237L42.604 69.5077C42.6046 69.489 42.6051 69.4705 42.6051 69.4519L42.6055 69.436C42.606 69.4122 42.6065 69.3886 42.6065 69.3647V69.2778ZM25.7895 82.7403C26.8566 81.1751 26.7811 80.0004 25.3167 78.5369C23.8523 77.0734 23 74.9331 23 74.9331C23 74.9331 22.6819 73.6898 21.9564 73.8041C21.2308 73.9183 20.6986 75.776 22.2176 76.9132C23.7365 78.0504 21.9155 78.8214 21.3308 77.7543C20.7459 76.687 19.1498 73.9437 18.322 73.4189C17.4944 72.8942 16.9124 73.1883 17.1075 74.2698C17.2044 74.8067 18.1056 75.7228 18.9476 76.5789C19.8019 77.4475 20.5951 78.254 20.4257 78.5394C20.089 79.1063 18.9035 77.8734 18.9035 77.8734C18.9035 77.8734 15.1912 74.4953 14.383 75.3757C13.6381 76.1871 14.7869 76.8769 16.5573 77.9399C16.7079 78.0304 16.863 78.1236 17.0218 78.2196C19.0472 79.4459 19.2047 79.7694 18.9174 80.2333C18.8112 80.4048 18.1332 79.9977 17.2992 79.497C15.8775 78.6434 14.0027 77.518 13.7381 78.5253C13.5088 79.3972 14.888 79.9314 16.1389 80.416C17.1809 80.8196 18.134 81.1888 17.9939 81.6899C17.8486 82.2093 17.0611 81.7761 16.2 81.3024C15.2336 80.7705 14.1746 80.1878 13.8282 80.8454C13.1731 82.0884 18.3467 83.5517 18.3892 83.5624C20.0608 83.9959 24.3058 84.9145 25.7895 82.7403ZM32.6649 82.7403C31.5976 81.1751 31.6734 80.0004 33.1377 78.5369C34.6021 77.0734 35.4546 74.9331 35.4546 74.9331C35.4546 74.9331 35.7726 73.6898 36.4981 73.8041C37.2236 73.9183 37.756 75.776 36.2369 76.9132C34.7177 78.0504 36.539 78.8214 37.1239 77.7543C37.7085 76.687 39.304 73.9437 40.1316 73.4189C40.9592 72.8942 41.5414 73.1883 41.3463 74.2698C41.2494 74.8067 40.3482 75.723 39.506 76.579C38.6519 77.4475 37.8586 78.254 38.0281 78.5394C38.3645 79.1063 39.5511 77.8727 39.5511 77.8727C39.5511 77.8727 43.2632 74.4946 44.0714 75.375C44.8163 76.1864 43.6674 76.8764 41.897 77.9396C41.7464 78.0299 41.5915 78.1229 41.4327 78.2191C39.4071 79.4452 39.2497 79.7689 39.5371 80.2326C39.6433 80.404 40.3213 79.997 41.1551 79.4964C42.577 78.6429 44.4518 77.5172 44.7164 78.5246C44.9456 79.3965 43.5664 79.9308 42.3154 80.4154C41.2734 80.8191 40.3204 81.1881 40.4604 81.6894C40.6056 82.2088 41.3929 81.7754 42.2535 81.3017C43.22 80.7698 44.2791 80.1869 44.6257 80.8447C45.2808 82.0886 40.1065 83.5503 40.0645 83.5611C38.393 83.9959 34.148 84.9145 32.6649 82.7403Z" fill="white"/>
<path fill-rule="evenodd" clip-rule="evenodd" d="M32.0952 73.8362C33.5432 72.6953 34.0751 70.8329 34.0751 69.6856C34.0751 68.7787 33.4648 69.0641 32.488 69.5476L32.433 69.575C31.5363 70.019 30.3427 70.6101 29.0325 70.6101C27.7221 70.6101 26.5286 70.0188 25.6322 69.5748C24.6237 69.0753 23.9912 68.762 23.9912 69.6858C23.9912 70.8692 24.557 72.8126 26.1103 73.9418C26.3152 73.5257 26.6036 73.1564 26.9578 72.8569C27.3119 72.5575 27.7241 72.3345 28.1685 72.2016C28.3235 72.1554 28.4832 72.4223 28.6468 72.6954C28.8046 72.9592 28.9657 73.2287 29.1298 73.2287C29.3044 73.2287 29.4762 72.9631 29.6439 72.7036C29.819 72.4326 29.9897 72.1684 30.1549 72.2212C30.9865 72.4881 31.6819 73.0669 32.0952 73.8362Z" fill="#898989"/>
<path d="M34.0228 66.038C33.8743 65.8229 33.718 65.5968 33.5081 65.5225C33.3141 65.4541 33.06 65.5556 32.8159 65.6532L32.8153 65.6534C32.5038 65.778 32.2086 65.8959 32.0756 65.6457C31.8956 65.3071 31.82 64.9227 31.8585 64.5411C31.897 64.1596 32.0478 63.7981 32.2916 63.5022C32.5356 63.2063 32.8617 62.9894 33.2289 62.8788C33.5035 62.7961 33.793 62.7753 34.0766 62.818C34.3601 62.8606 34.6307 62.9656 34.8688 63.1255C35.1068 63.2853 35.3065 63.496 35.4533 63.7423C35.6002 63.9886 35.6906 64.2644 35.7179 64.5498C35.7548 64.9315 35.6776 65.3156 35.496 65.6534C35.3145 65.9912 35.0369 66.2676 34.6981 66.4475C34.4111 66.6001 34.224 66.3295 34.0231 66.0384L34.0228 66.038Z" fill="#221C35"/>
<path d="M23.8571 66.0385C24.0057 65.8234 24.1622 65.597 24.3722 65.5227C24.5664 65.4541 24.8206 65.5557 25.0647 65.6533L25.0649 65.6534C25.3764 65.778 25.6716 65.8961 25.805 65.6459C25.9851 65.3073 26.0607 64.9229 26.0223 64.5413C25.9837 64.1597 25.8329 63.7981 25.5889 63.5022C25.4065 63.2811 25.1772 63.1031 24.9178 62.9812C24.6584 62.8592 24.3751 62.7963 24.0884 62.7969C23.8018 62.7975 23.5187 62.8617 23.2598 62.9848C23.0009 63.1079 22.7725 63.2869 22.591 63.5088C22.4098 63.7309 22.28 63.9904 22.2108 64.2686C22.1418 64.5469 22.1354 64.8369 22.1919 65.118C22.2485 65.3991 22.3666 65.664 22.5378 65.894C22.7091 66.1239 22.929 66.3131 23.1821 66.4477C23.4691 66.6003 23.6561 66.3295 23.8571 66.0385Z" fill="#221C35"/>
<path d="M32.0947 73.8359C31.3405 74.4301 30.3381 74.8286 29.0329 74.8286C27.8064 74.8286 26.8471 74.4769 26.1104 73.9415C26.3154 73.5256 26.604 73.1562 26.958 72.8569C27.3121 72.5575 27.7243 72.3343 28.1685 72.2013C28.4731 72.1104 28.7957 73.2284 29.1296 73.2284C29.4872 73.2284 29.8317 72.1175 30.155 72.2209C30.9861 72.488 31.6814 73.0668 32.0947 73.8359Z" fill="#221C35"/>
<path fill-rule="evenodd" clip-rule="evenodd" d="M20.9104 67.1362C20.7728 67.2288 20.6183 67.2934 20.4557 67.3261C20.2931 67.3588 20.1256 67.3592 19.9629 67.3272C19.8002 67.295 19.6454 67.2311 19.5074 67.1392C19.3694 67.0471 19.2509 66.9288 19.1588 66.7909C19.0666 66.653 19.0026 66.4982 18.9703 66.3356C18.9381 66.1729 18.9383 66.0054 18.9709 65.8427C19.0035 65.6802 19.0679 65.5256 19.1603 65.3878C19.2528 65.2501 19.3715 65.1321 19.5097 65.0403C19.7876 64.8559 20.1274 64.7891 20.4544 64.8547C20.7815 64.9202 21.0693 65.1128 21.2547 65.3901C21.44 65.6675 21.5079 66.007 21.4433 66.3342C21.3788 66.6616 21.1871 66.95 20.9104 67.1362ZM38.9439 67.1362C38.8062 67.2288 38.6517 67.2934 38.4892 67.3261C38.3267 67.3588 38.1591 67.3592 37.9964 67.3272C37.8337 67.295 37.6788 67.2311 37.5409 67.1392C37.4029 67.0471 37.2844 66.9288 37.1923 66.7909C37.1 66.653 37.036 66.4982 37.0038 66.3356C36.9716 66.1729 36.9718 66.0054 37.0044 65.8427C37.0369 65.6802 37.1013 65.5256 37.1937 65.3878C37.2862 65.2501 37.405 65.1321 37.5432 65.0403C37.8211 64.8559 38.1609 64.7891 38.4879 64.8547C38.815 64.9202 39.1027 65.1128 39.2881 65.3901C39.4734 65.6675 39.5414 66.007 39.4768 66.3342C39.4123 66.6616 39.2206 66.95 38.9439 67.1362Z" fill="#221C35"/>
</svg>
