<svg width="175" height="150" viewBox="0 0 175 150" fill="none" xmlns="http://www.w3.org/2000/svg">
<path d="M119.195 63.5667V72.6188H115.963V58.6037H119.195V60.3698H119.361C119.992 59.2213 121.114 58.3253 123.14 58.3253C125.988 58.3253 127.466 60.1203 127.466 63.0069V72.6197H124.233V63.0329C124.233 61.3815 123.573 60.2879 121.904 60.2879C120.236 60.2879 119.194 61.4942 119.194 63.5677M104.082 65.6112C104.082 69.313 105.26 71.3585 107.367 71.3585C109.474 71.3585 110.653 69.339 110.653 65.6112C110.653 61.8835 109.474 59.864 107.367 59.864C105.26 59.864 104.082 61.9085 104.082 65.6112ZM114.047 65.6151C114.047 69.6213 111.665 72.9011 107.367 72.9011C103.069 72.9011 100.687 69.6213 100.687 65.6151C100.687 61.6089 103.069 58.3291 107.367 58.3291C111.665 58.3291 114.047 61.6089 114.047 65.6151ZM99.3459 68.3312C99.3459 71.134 97.3457 72.9001 93.6507 72.9001V72.8972C90.3372 72.8972 88.1491 71.4125 87.9834 69.0028L90.8845 68.1616C91.1841 70.4875 92.1409 71.4125 94.0043 71.4125C95.7299 71.4125 96.7146 70.6002 96.7146 69.1694C96.7146 67.992 96.0585 67.4612 94.6074 67.096L91.8692 66.3955C90.1156 65.9475 88.5557 64.6863 88.5557 62.3604C88.5557 59.6154 90.7438 58.3253 93.7856 58.3253C96.8273 58.3253 98.7148 59.6982 99.0434 61.6599L96.3051 62.5011C96.1712 60.735 95.1585 59.81 93.5139 59.81C92.1197 59.81 91.188 60.4854 91.188 61.605C91.188 62.5011 91.7632 63.1187 93.0755 63.4549L95.7039 64.1265C97.5663 64.6034 99.345 65.698 99.345 68.3312M78.1807 63.5638V72.6197H74.9492V58.6047H78.1807V60.3708H78.3465C78.9775 59.2223 80.1 58.3262 82.1253 58.3262C84.9724 58.3262 86.4514 60.1212 86.4514 63.0079V72.6168H83.2198V63.03C83.2198 61.3786 82.5598 60.285 80.8911 60.285C79.2223 60.285 78.1807 61.4913 78.1807 63.5648M64.0838 63.5638V72.6159L64.0809 72.6188H60.8483V53H64.0809V60.3688H64.2466C64.8777 59.2203 66.0002 58.3243 68.0255 58.3243C70.8726 58.3243 72.3516 60.1193 72.3516 63.0059V72.6149H69.119V63.0281C69.119 61.3767 68.4629 60.2831 66.7931 60.2831C65.1234 60.2831 64.0828 61.4894 64.0828 63.5628M48.9703 65.6083C48.9703 69.3111 50.1458 71.3556 52.2559 71.3556C54.3659 71.3556 55.5414 69.3371 55.5414 65.6083C55.5414 61.8796 54.363 59.8611 52.2559 59.8611C50.1487 59.8611 48.9703 61.9056 48.9703 65.6083ZM58.9358 65.6112C58.9358 69.6175 56.554 72.8972 52.2559 72.8972C47.9577 72.8972 45.5759 69.6175 45.5759 65.6112C45.5759 61.605 47.9577 58.3253 52.2559 58.3253C56.554 58.3253 58.9358 61.605 58.9358 65.6112ZM43.6595 66.594C43.6595 70.264 41.8809 73.0668 37.3081 73.0668C32.7354 73.0668 30.9568 70.264 30.9568 66.594V65.3877L34.3512 64.5206V67.2116C34.3512 69.762 35.226 71.2467 37.3081 71.2467C39.3903 71.2467 40.2651 69.8449 40.2651 67.4901V53.001H43.6595V66.594ZM137.341 95.5491V95.552L137.343 95.5491H137.341ZM137.341 95.5491V86.6984C137.341 84.6702 138.383 83.4909 140.055 83.4909C141.726 83.4909 142.386 84.5613 142.386 86.1762V95.552H145.622V86.1511C145.622 83.3281 144.142 81.5726 141.291 81.5726C139.264 81.5726 138.139 82.4493 137.508 83.5728H137.344V81.8452H134.109V95.5491H137.341H137.341ZM122.209 88.6986C122.209 92.3194 123.389 94.3187 125.498 94.3187C127.607 94.3187 128.788 92.3445 128.788 88.6986C128.788 85.0527 127.607 83.0775 125.498 83.0775C123.389 83.0775 122.209 85.0778 122.209 88.6986ZM132.186 88.7025C132.186 92.621 129.801 95.8285 125.498 95.8285C121.195 95.8285 118.811 92.621 118.811 88.7025C118.811 84.7839 121.195 81.5764 125.498 81.5764C129.801 81.5764 132.186 84.7839 132.186 88.7025ZM117.467 91.3588C117.467 94.1 115.464 95.8275 111.765 95.8275L111.768 95.8246C108.451 95.8246 106.26 94.3726 106.094 92.0159L108.998 91.1931C109.299 93.4679 110.257 94.3726 112.122 94.3726C113.849 94.3726 114.835 93.5778 114.835 92.1788C114.835 91.0274 114.178 90.5081 112.726 90.1506L109.985 89.4655C108.229 89.0272 106.668 87.7948 106.668 85.5191C106.668 82.8338 108.859 81.5726 111.903 81.5726C114.948 81.5726 116.838 82.9147 117.167 84.834L114.426 85.6568C114.291 83.9293 113.277 83.0246 111.631 83.0246C110.232 83.0246 109.299 83.6846 109.299 84.7801C109.299 85.6568 109.875 86.26 111.189 86.5885L113.822 87.2456C115.687 87.712 117.467 88.7824 117.467 91.3579M96.281 86.6965V95.55L96.2781 95.5472H93.0417V81.8433H96.2781V83.5709H96.4439C97.0759 82.4474 98.1994 81.5706 100.228 81.5706C103.079 81.5706 104.558 83.3261 104.558 86.1492V95.55H101.322V86.1742C101.322 84.5594 100.665 83.489 98.9933 83.489C97.3216 83.489 96.2801 84.6683 96.2801 86.6965M82.1667 86.6965V95.55L82.1638 95.5472H78.9274V76.36H82.1638V83.5709H82.3296C82.9616 82.4474 84.0851 81.5706 86.1132 81.5706C88.9642 81.5706 90.4442 83.3261 90.4442 86.1492V95.55H87.2078V86.1742C87.2078 84.5594 86.5506 83.489 84.879 83.489C83.2073 83.489 82.1658 84.6683 82.1658 86.6965M67.0359 88.6957C67.0359 92.3165 68.2153 94.3158 70.3253 94.3158C72.4354 94.3158 73.6147 92.3416 73.6147 88.6957C73.6147 85.0498 72.4344 83.0756 70.3253 83.0756C68.2162 83.0756 67.0359 85.0749 67.0359 88.6957ZM77.013 88.6986C77.013 92.6162 74.6283 95.8246 70.3253 95.8246C66.0223 95.8246 63.6377 92.6172 63.6377 88.6986C63.6377 84.7801 66.0223 81.5726 70.3253 81.5726C74.6283 81.5726 77.013 84.7801 77.013 88.6986ZM61.7184 89.6592C61.7184 93.2492 59.9378 95.9904 55.3593 95.9904V95.9933C50.7807 95.9933 49.0002 93.2521 49.0002 89.6621V88.4828L52.3985 87.632V90.2643C52.3985 92.7588 53.2743 94.2108 55.3593 94.2108C57.4443 94.2108 58.3192 92.8397 58.3192 90.537V76.3668H61.7184V89.6611V89.6592ZM33.0177 89.5812C33.0177 91.857 34.6354 93.994 37.2677 93.994C38.4441 93.994 39.7342 93.5556 40.8856 92.8705L34.6893 86.101C33.6468 86.84 33.0186 88.1571 33.0186 89.5812M44.175 87.6879C44.175 85.469 42.8039 84.1798 40.585 84.1798C39.8152 84.1798 38.8854 84.3147 37.9248 84.6991L43.2982 90.6198C43.8994 89.6872 44.175 88.6735 44.175 87.6869M39.8431 80.0146C39.8431 78.315 38.8854 77.3823 37.2677 77.3823L37.2648 77.3852C35.675 77.3852 34.6614 78.2899 34.6614 79.8797C34.6614 80.7276 34.962 81.4415 36.0036 82.5929L37.1838 83.9071C39.0771 83.0554 39.8441 81.5755 39.8441 80.0136M46.472 86.2108C46.472 87.8825 45.6241 89.8008 44.1432 91.5563L44.1461 91.5592L47.6542 95.4238V95.5616H43.3512L41.7046 93.7811C39.6735 95.2051 37.4267 96 35.5083 96C32.1659 96 30 93.6433 30 90.8202C30 88.6793 31.2333 86.5982 33.9186 85.309L33.8906 85.2531C32.3008 83.5256 31.6967 82.0986 31.6967 80.6746C31.6967 78.0423 33.5592 75.9332 37.3419 75.9332C40.6312 75.9332 42.4966 77.576 42.4966 79.66C42.4966 81.112 41.6208 82.1545 39.5357 83.278L39.5926 83.3878C40.4405 83.0592 41.7296 82.7307 42.882 82.7307C45.073 82.7307 46.472 84.1268 46.472 86.2108Z" fill="#211C35"/>
</svg>
