<svg width="175" height="150" viewBox="0 0 175 150" fill="none" xmlns="http://www.w3.org/2000/svg">
<path fill-rule="evenodd" clip-rule="evenodd" d="M122 75.0028C122 93.7782 106.781 108.999 88 109C69.2765 108.999 54.0297 93.866 54 75.0578C54 75.0394 54 75.0211 54 75.0028C54 56.2542 69.2598 41 88.0028 41C88.5948 41 89.1833 41.0152 89.768 41.0453C107.689 41.9674 122 56.8466 122 75.0028ZM95.6271 66.1475C95.6271 62.2812 98.2444 58.5315 99.6724 59.2379C101.3 60.0539 98.4526 63.6953 95.6271 66.1475ZM77.8291 67.5561C77.8291 64.4475 80.8961 58.5412 82.7696 59.1657C84.9844 59.904 80.9349 65.8616 77.8291 67.5561ZM72.3656 87.444C72.3656 88.9497 73.3092 89.8518 74.7192 89.7879C79.5583 89.57 81.4664 83.1073 82.2186 77.4591C77.979 79.5338 72.3656 83.3987 72.3656 87.444ZM94.9693 81.7847C94.9693 78.9607 97.4159 76.6056 100.617 76.6056C104.764 76.6056 106.93 80.1819 106.932 84.0398C106.932 88.2794 103.26 92.7078 97.8919 92.7078C91.3889 92.7078 88.0958 87.2428 88.0958 82.3454C88.0958 75.4718 92.8044 72.5506 94.7806 71.514C94.4073 71.2322 94.1228 70.8562 93.8411 70.3857C91.579 71.99 89.5251 73.4027 85.1981 75.8549C85.0052 78.8732 84.7041 82.1622 83.9533 84.4201C82.3504 89.2259 79.0504 92.7091 74.7206 92.7091C71.0486 92.7091 69.2611 90.0738 69.2611 87.2442C69.2611 85.175 70.4865 82.5397 72.6473 80.5593C75.2064 78.2655 78.0141 76.799 81.7691 74.8377C82.0214 74.7059 82.2781 74.5719 82.5392 74.4352C82.6363 73.8731 82.7279 73.3055 82.8195 72.6478C81.7829 73.5873 80.2771 73.9647 79.0504 73.9647C77.0742 73.9647 75.4755 72.2689 75.098 70.4773C72.4627 70.2927 70.4865 68.404 70.3894 65.3898C70.3894 63.2235 71.2373 61.3403 72.6473 61.3403C73.2149 61.3403 73.4036 61.8094 73.4036 62.1869C73.4036 62.3222 73.3436 62.5648 73.2664 62.8768C73.1275 63.4381 72.9331 64.2238 72.9331 65.0123C72.9331 66.2377 73.4952 67.8364 75.0064 67.8364C75.0064 62.9446 78.5813 56.6317 82.8195 56.6317C85.6436 56.6317 86.0211 58.7064 86.0211 59.6459C86.0211 64.0728 81.5941 68.9702 78.0137 70.1956C78.1095 70.5744 78.4883 71.6111 79.6166 71.6111C81.0321 71.6111 82.7279 70.2927 83.5758 69.2519C83.9533 67.2744 85.3633 64.4461 87.2437 64.4461C88.0042 64.4461 88.3775 65.0137 88.3775 65.6715C88.3775 67.0856 86.8273 68.9216 85.6991 70.147C85.4216 71.5237 85.3355 72.5881 85.3355 73.0002C88.6287 71.0227 90.4508 69.9083 92.9016 68.1209C92.7073 67.4631 92.7073 66.7068 92.7073 65.956C92.7073 61.5291 95.6271 56.6317 99.4892 56.6317C101.656 56.6317 102.788 58.1388 102.788 59.8332C102.788 63.0362 100.057 65.8589 96.1947 68.7815C96.4764 69.5309 96.9316 70.1817 97.5866 70.5148C97.5866 70.5148 98.8495 70.0651 100.1 70.1137C101.224 70.1567 102.78 70.5592 102.857 71.6055C103.019 73.9003 98.0033 73.0887 97.6318 73.0286C97.6183 73.0264 97.6109 73.0252 97.6102 73.0252C95.5369 73.5873 91.579 75.9409 91.579 81.9721C91.579 86.0229 94.1214 89.7865 98.0793 89.7865C101.088 89.7865 103.655 87.3649 103.747 83.8775C103.747 81.6196 102.691 79.4311 100.433 79.4311C99.3033 79.4311 98.1653 80.2388 98.0834 81.4461C98.0152 82.4684 98.4916 83.012 98.9255 83.5071C99.2685 83.8985 99.585 84.2596 99.585 84.8031C99.585 85.6441 98.9272 86.0229 98.2624 86.0229C96.3848 86.0229 94.9693 84.1398 94.9693 81.7847ZM116.638 84.7296C116.745 84.7642 116.797 84.7254 116.811 84.6962C116.826 84.6615 118.377 80.5011 118.321 75.0014C118.22 64.2616 112.862 53.1484 101.085 49.5694C98.6385 48.8131 96.5638 48.3482 94.2158 48.3482C90.9671 48.3482 89.5829 49.4456 88.4602 50.3358C87.6942 50.9431 87.0499 51.454 86.0183 51.454C84.6097 51.454 83.6647 50.4173 83.6647 49.1961C83.6647 47.027 86.2084 45.3312 90.2579 45.3353C94.2077 45.3353 96.9364 46.3294 97.4304 46.5094C97.4787 46.527 97.5056 46.5368 97.5103 46.5371C97.538 46.5427 97.5963 46.533 97.6366 46.4414C97.6657 46.3651 97.6366 46.3012 97.6074 46.2762C97.4381 46.1416 93.0348 44.6345 88.0014 44.6734C77.17 44.758 66.1484 50.2313 62.568 61.9107C61.8172 64.3573 61.3426 66.4306 61.3426 68.7856C61.3426 72.0325 62.441 73.4494 63.3322 74.599C63.9406 75.3839 64.4526 76.0443 64.4526 77.0775C64.4526 78.3958 63.4159 79.3353 62.1947 79.3353C60.0284 79.3353 58.334 76.8887 58.334 72.7421C58.334 69.1243 59.2456 66.1802 59.4378 65.5594C59.4459 65.5335 59.4526 65.5116 59.458 65.4939C59.4622 65.4689 59.4442 65.4009 59.3609 65.3731C59.279 65.3426 59.2124 65.3731 59.193 65.4009C59.1694 65.4398 57.6762 69.6793 57.672 75.0028C57.6678 85.9272 63.2286 96.9432 74.9107 100.521C77.3573 101.277 79.4306 101.748 81.7842 101.748C85.0299 101.748 86.4146 100.617 87.5381 99.6991C88.3048 99.0729 88.9498 98.546 89.9817 98.546C91.2987 98.546 92.3353 99.5827 92.3353 100.9C92.3353 102.974 89.8846 104.669 85.7421 104.669C81.973 104.669 78.9269 103.71 78.4994 103.545C78.4564 103.525 78.3829 103.574 78.3593 103.636C78.3246 103.72 78.3648 103.801 78.4078 103.826C79.4625 104.3 83.0096 105.327 88.0042 105.327C98.83 105.327 109.943 99.8616 113.432 88.0907C114.181 85.7371 114.652 83.5708 114.652 81.3129C114.652 77.9993 113.547 76.5946 112.655 75.4609C112.052 74.694 111.546 74.0511 111.546 73.0252C111.546 71.6097 112.487 70.6647 113.809 70.6647C115.97 70.6647 117.655 73.2084 117.665 77.3606C117.673 80.8516 116.738 83.9391 116.564 84.5128C116.547 84.5704 116.537 84.6026 116.536 84.6074C116.536 84.6616 116.554 84.7004 116.638 84.7296ZM55.6042 75.0014C55.6042 57.1021 70.1077 42.6029 88.0028 42.6029C105.894 42.6029 120.397 57.1993 120.397 75.0014C120.397 92.8965 105.894 107.396 88.0028 107.396C70.1077 107.396 55.6042 92.8965 55.6042 75.0014Z" fill="#221C35"/>
</svg>
