<svg width="175" height="150" viewBox="0 0 175 150" fill="none" xmlns="http://www.w3.org/2000/svg">
<path d="M29.0005 61.0034C32.9278 61.0034 36.8551 61.0034 40.7818 61.0034C40.7824 61.2656 40.7813 61.5284 40.7829 61.7906C40.1062 61.8303 39.4263 61.8984 38.7678 62.0657C38.4005 62.1649 38.0332 62.2962 37.7264 62.5268C37.4734 62.7188 37.3103 63.0035 37.194 63.2936C36.9484 63.9617 36.9189 64.6835 36.9146 65.3881C36.9151 72.0024 36.9146 78.6161 36.9151 85.2304C36.9168 85.6293 36.9479 86.0529 37.165 86.3999C37.3388 86.6691 37.6621 86.7801 37.9608 86.8423C38.4557 86.9366 38.9608 86.9533 39.4627 86.9726C40.6773 86.9876 41.8934 86.9951 43.1074 86.9484C44.4201 86.9002 45.7354 86.8095 47.0261 86.5575C47.5956 86.439 48.1645 86.291 48.6911 86.039C49.4198 85.6846 50.0027 85.1022 50.5207 84.4915C51.2923 83.5397 51.8987 82.4656 52.4344 81.3669C52.7889 81.3664 53.1433 81.3653 53.4978 81.3674C52.8275 83.7504 52.1535 86.1323 51.4848 88.5158C51.4767 88.5855 51.4381 88.6171 51.3695 88.6112C43.9139 88.6129 36.4578 88.6123 29.0021 88.6118C29.0038 88.349 28.9968 88.0868 29.0075 87.8246C29.7459 87.7436 30.4875 87.6428 31.1953 87.4101C31.5385 87.2895 31.9015 87.1452 32.1337 86.8508C32.3675 86.5329 32.472 86.142 32.545 85.7596C32.6629 85.0877 32.6715 84.4035 32.6683 83.7236C32.6688 77.7185 32.6683 71.7139 32.6683 65.7087C32.6645 64.9253 32.6484 64.1242 32.4077 63.3714C32.2779 62.9494 32.0189 62.5477 31.6082 62.3547C30.8028 61.9509 29.8848 61.8683 29 61.7917C29.0032 61.5289 29.0027 61.2662 29.0005 61.0034Z" fill="#221C35"/>
<path d="M48.9595 61.0035C52.6643 61.0035 56.369 61.0035 60.0732 61.0035C60.077 61.2464 60.077 61.4893 60.0738 61.7322C59.4298 61.7504 58.7793 61.7558 58.146 61.8855C57.6763 61.9858 57.2034 62.2716 57.0393 62.7451C56.8436 63.2894 57.0189 63.8706 57.1894 64.3967C57.5305 65.3436 57.9487 66.26 58.3514 67.1818C60.6207 72.233 62.8803 77.2879 65.1544 82.337C66.8805 77.7561 68.6045 73.1751 70.33 68.5942C70.7601 67.4274 71.232 66.2745 71.6046 65.0873C71.7655 64.5254 71.9344 63.9425 71.8572 63.3521C71.8116 62.9451 71.6143 62.5531 71.2947 62.2936C71.0636 62.1097 70.788 61.9842 70.5011 61.9177C69.9461 61.7847 69.374 61.7493 68.8056 61.7317C68.8061 61.4887 68.8056 61.2464 68.8061 61.0035C71.6475 61.0029 74.489 61.0045 77.3299 61.0029C77.3331 61.2453 77.3315 61.4877 77.332 61.7306C76.5293 61.8512 75.6649 62.0679 75.1094 62.7054C74.4016 63.4921 73.9667 64.4766 73.5688 65.4455C71.8937 69.6924 70.2319 73.9446 68.5621 78.1936C67.1374 81.8313 65.7019 85.4653 64.2842 89.1057C64.0707 89.1094 63.8579 89.1084 63.645 89.1073C61.9108 85.2428 60.1767 81.3782 58.4431 77.5132C56.6564 73.5414 54.8848 69.5626 53.0895 65.5951C52.6375 64.6503 52.1822 63.6937 51.5446 62.8577C50.9387 62.0705 49.9065 61.7976 48.959 61.7311C48.959 61.4882 48.959 61.2458 48.9595 61.0035Z" fill="#221C35"/>
<path d="M79.0034 61.0027C81.7472 61.0038 84.4916 61.0043 87.2354 61.0022C90.434 67.9269 93.6256 74.8549 96.8193 81.7818C99.9385 74.8565 103.052 67.928 106.172 61.0027C108.937 61.0049 111.702 61.0011 114.467 61.0043C114.469 61.2666 114.468 61.5282 114.468 61.7899C113.757 61.8478 113.039 61.9245 112.358 62.1465C111.989 62.2714 111.612 62.4409 111.371 62.7594C111.099 63.1256 110.985 63.5793 110.908 64.0217C110.788 64.774 110.8 65.5381 110.802 66.2974C110.802 71.91 110.802 77.5231 110.802 83.1363C110.804 83.9739 110.778 84.8179 110.915 85.6474C110.987 86.0549 111.09 86.4705 111.332 86.8137C111.556 87.1327 111.928 87.2963 112.283 87.4261C112.987 87.6663 113.731 87.7564 114.467 87.8282C114.469 88.0894 114.468 88.35 114.468 88.6111C110.57 88.6127 106.671 88.6116 102.772 88.6116C102.771 88.3505 102.772 88.0888 102.772 87.8277C103.466 87.7682 104.163 87.6872 104.835 87.4979C105.227 87.3735 105.642 87.2314 105.927 86.9188C106.258 86.5198 106.353 85.9911 106.438 85.4946C106.585 84.4833 106.551 83.458 106.556 82.4392C106.554 76.5853 106.56 70.7314 106.553 64.8775C102.986 72.7856 99.4285 80.6981 95.8718 88.6111C95.675 88.6122 95.4777 88.6191 95.2819 88.5988C93.351 84.3734 91.3927 80.1603 89.4527 75.9386C87.896 72.5749 86.3555 69.2042 84.7919 65.8437C84.8004 70.5174 84.7929 75.1911 84.7956 79.8648C84.808 81.2236 84.7576 82.5851 84.8519 83.9417C84.9082 84.5916 85.0015 85.2431 85.2064 85.8646C85.3538 86.2855 85.5517 86.7097 85.8949 87.0073C86.163 87.2266 86.4901 87.359 86.8166 87.4663C87.4269 87.662 88.0639 87.7473 88.6966 87.8341C88.6902 88.0931 88.6939 88.3521 88.6929 88.6116C85.4343 88.6122 82.1757 88.6122 78.9176 88.6116C78.9165 88.35 78.917 88.0888 78.9165 87.8277C79.6334 87.743 80.3541 87.6389 81.0378 87.3982C81.4791 87.2378 81.9263 87.0228 82.2282 86.6501C82.5515 86.226 82.67 85.6908 82.7714 85.1782C82.9971 83.8484 82.9526 82.4944 82.9591 81.1512C82.9591 76.344 82.9591 71.5362 82.9591 66.729C82.9478 65.9231 82.9912 65.1129 82.891 64.3112C82.8223 63.7879 82.7178 63.2468 82.418 62.8018C82.1842 62.4554 81.7853 62.2752 81.4019 62.1476C80.6265 61.903 79.8082 61.8419 79.0018 61.7915C79.0061 61.5282 79.0044 61.2655 79.0034 61.0027Z" fill="#221C35"/>
<path d="M119.009 61.0059C122.867 60.9973 126.725 61.0091 130.583 61C130.595 61.2633 130.588 61.5271 130.588 61.7904C129.926 61.8451 129.259 61.9164 128.619 62.1046C128.266 62.2194 127.903 62.3523 127.627 62.6108C127.331 62.8955 127.186 63.2939 127.094 63.6849C126.955 64.3133 126.923 64.96 126.923 65.6024C126.923 68.2878 126.923 70.9732 126.923 73.6586C131.141 73.6575 135.359 73.6585 139.577 73.6575C139.576 70.8648 139.583 68.0717 139.573 65.279C139.553 64.5519 139.511 63.8039 139.228 63.124C139.09 62.7829 138.831 62.4934 138.495 62.3395C137.693 61.9464 136.786 61.8665 135.909 61.7915C135.913 61.5282 135.911 61.2654 135.91 61.0027C139.77 61.0043 143.63 61.0021 147.491 61.0038C147.49 61.2654 147.489 61.5276 147.492 61.7893C146.59 61.8735 145.652 61.9513 144.839 62.3818C144.414 62.6028 144.166 63.0435 144.047 63.4913C143.769 64.4919 143.833 65.5407 143.824 66.5676C143.824 72.3764 143.824 78.1859 143.824 83.9947C143.825 84.6318 143.849 85.2731 143.985 85.8972C144.055 86.2222 144.168 86.5428 144.356 86.8185C144.586 87.1289 144.952 87.2968 145.305 87.4265C146.009 87.6668 146.753 87.7542 147.49 87.8276C147.49 88.0882 147.49 88.3494 147.491 88.6105C143.631 88.6137 139.771 88.611 135.912 88.6116C135.91 88.3499 135.911 88.0888 135.911 87.8276C136.584 87.7542 137.261 87.6673 137.914 87.4823C138.282 87.3633 138.669 87.2367 138.95 86.9579C139.246 86.6378 139.344 86.1954 139.425 85.7798C139.605 84.7664 139.572 83.7325 139.578 82.7083C139.577 80.3039 139.579 77.8995 139.577 75.4951C135.359 75.4935 131.141 75.4962 126.923 75.4935C126.923 78.3092 126.923 81.1243 126.923 83.94C126.923 84.643 126.948 85.3535 127.116 86.0388C127.22 86.4227 127.374 86.8211 127.698 87.0742C127.976 87.2866 128.309 87.4147 128.643 87.5139C129.277 87.6936 129.935 87.7649 130.589 87.8298C130.589 88.0898 130.59 88.3504 130.589 88.6116C126.73 88.6121 122.87 88.6121 119.011 88.6116C119.009 88.3504 119.01 88.0893 119.01 87.8287C119.723 87.7445 120.44 87.6464 121.127 87.4303C121.498 87.3043 121.895 87.152 122.141 86.8308C122.437 86.3986 122.514 85.8656 122.585 85.3583C122.721 84.2124 122.664 83.0558 122.677 81.9045C122.677 76.4893 122.677 71.0734 122.677 65.6576C122.677 64.9981 122.65 64.3331 122.506 63.687C122.412 63.2972 122.271 62.8966 121.976 62.6113C121.689 62.3427 121.31 62.206 120.941 62.0917C120.312 61.9116 119.659 61.8435 119.009 61.7904C119.01 61.5287 119.011 61.2676 119.009 61.0059Z" fill="#221C35"/>
</svg>
