<svg width="175" height="150" viewBox="0 0 175 150" fill="none" xmlns="http://www.w3.org/2000/svg">
<path d="M21.5544 61H15.7886V66.7197H21.5544V61Z" fill="#221C35"/>
<path d="M44.6408 61H38.875V66.7197H44.6408V61Z" fill="#221C35"/>
<path d="M27.3202 66.7197H15.7886V72.4394H27.3202V66.7197Z" fill="#221C35"/>
<path d="M44.641 66.7197H33.1094V72.4394H44.641V66.7197Z" fill="#221C35"/>
<path d="M44.6408 72.4163H15.7886V78.136H44.6408V72.4163Z" fill="#221C35"/>
<path d="M21.5544 78.136H15.7886V83.8557H21.5544V78.136Z" fill="#221C35"/>
<path d="M33.0857 78.136H27.3198V83.8557H33.0857V78.136Z" fill="#221C35"/>
<path d="M44.6408 78.136H38.875V83.8557H44.6408V78.136Z" fill="#221C35"/>
<path d="M27.3206 83.8557H10V89.5754H27.3206V83.8557Z" fill="#221C35"/>
<path d="M50.407 83.8557H33.0864V89.5754H50.407V83.8557Z" fill="#221C35"/>
<path d="M21.5544 61H15.7886V66.7197H21.5544V61Z" fill="#221C35"/>
<path d="M44.6408 61H38.875V66.7197H44.6408V61Z" fill="#221C35"/>
<path d="M27.3202 66.7197H15.7886V72.4394H27.3202V66.7197Z" fill="#221C35"/>
<path d="M44.641 66.7197H33.1094V72.4394H44.641V66.7197Z" fill="#221C35"/>
<path d="M44.6408 72.4163H15.7886V78.136H44.6408V72.4163Z" fill="#221C35"/>
<path d="M21.5544 78.136H15.7886V83.8557H21.5544V78.136Z" fill="#221C35"/>
<path d="M33.0857 78.136H27.3198V83.8557H33.0857V78.136Z" fill="#221C35"/>
<path d="M44.6408 78.136H38.875V83.8557H44.6408V78.136Z" fill="#221C35"/>
<path d="M27.3206 83.8557H10V89.5754H27.3206V83.8557Z" fill="#221C35"/>
<path d="M50.407 83.8557H33.0864V89.5754H50.407V83.8557Z" fill="#221C35"/>
<path d="M61.2695 83.3253V66.1431H66.4588L69.5723 77.8592L72.6628 66.1431H77.8751V83.3253H74.6463V69.8101L71.2329 83.3253H67.8887L64.4984 69.8101V83.3253H61.2695Z" fill="#221C35"/>
<path d="M81.2886 69.2109V66.1665H84.5866V69.2109H81.2886ZM81.2886 83.3256V70.8714H84.5866V83.3256H81.2886Z" fill="#221C35"/>
<path d="M86.801 79.7735L90.0991 79.2661C90.2374 79.9118 90.5142 80.3962 90.9524 80.719C91.3906 81.0419 91.9903 81.2264 92.7514 81.2264C93.5124 81.2264 94.2505 81.065 94.6656 80.7652C94.9654 80.5576 95.1038 80.2578 95.1038 79.8888C95.1038 79.5198 95.0346 79.4275 94.8732 79.2661C94.7117 79.1046 94.3427 78.9662 93.7661 78.8279C91.1139 78.2513 89.4302 77.6978 88.7153 77.2134C87.7235 76.5446 87.2392 75.599 87.2392 74.4228C87.2392 73.2465 87.6544 72.4393 88.5077 71.7013C89.361 70.9633 90.6757 70.5942 92.4746 70.5942C94.2735 70.5942 95.4498 70.871 96.28 71.4245C97.1103 71.978 97.6869 72.8083 97.9867 73.8923L94.8732 74.4689C94.7348 73.9846 94.4811 73.6155 94.1121 73.3618C93.7431 73.1081 93.2126 72.9698 92.5207 72.9698C91.8288 72.9698 91.0216 73.0851 90.6526 73.3388C90.3989 73.5002 90.2836 73.7309 90.2836 74.0076C90.2836 74.2844 90.3989 74.4458 90.6065 74.6073C90.9063 74.8148 91.9211 75.1377 93.6739 75.5298C95.4267 75.9219 96.6491 76.4062 97.341 77.0059C98.0329 77.5824 98.3788 78.4127 98.3788 79.4506C98.3788 80.4884 97.8945 81.5724 96.9489 82.4027C96.0033 83.233 94.5964 83.625 92.7283 83.625C90.8602 83.625 89.6839 83.2791 88.6922 82.5872C87.7005 81.8953 87.0547 80.9727 86.7549 79.7965L86.801 79.7735Z" fill="#221C35"/>
<path d="M107.004 70.8941V73.5233H104.744V78.5511C104.744 79.5659 104.744 80.1656 104.813 80.327C104.859 80.4885 104.951 80.6268 105.113 80.7422C105.274 80.8575 105.459 80.9036 105.666 80.9036C105.874 80.9036 106.404 80.7883 106.981 80.5807L107.258 83.1407C106.497 83.4636 105.62 83.6251 104.651 83.6251C103.683 83.6251 103.521 83.5328 103.037 83.3253C102.553 83.1177 102.207 82.864 101.999 82.5411C101.792 82.2182 101.63 81.8031 101.538 81.2496C101.469 80.8575 101.423 80.0964 101.423 78.9202V73.5003H99.9004V70.871H101.423V68.4033L104.721 66.489V70.8941H106.981H107.004Z" fill="#221C35"/>
<path d="M112.447 83.3252H109.149V70.871H112.217V72.6469C112.747 71.8166 113.209 71.2631 113.624 70.9863C114.039 70.7096 114.523 70.5942 115.054 70.5942C115.584 70.5942 116.53 70.8018 117.222 71.217L116.207 74.0999C115.653 73.7309 115.146 73.5694 114.662 73.5694C114.177 73.5694 113.808 73.7078 113.485 73.9615C113.162 74.2152 112.909 74.6765 112.724 75.3453C112.54 76.0141 112.447 77.3979 112.447 79.5198V83.3713V83.3252Z" fill="#221C35"/>
<path d="M121.096 74.6765L118.098 74.146C118.444 72.9467 119.02 72.0472 119.828 71.4706C120.658 70.8941 121.857 70.5942 123.495 70.5942C125.132 70.5942 126.055 70.7787 126.77 71.1247C127.485 71.4706 127.992 71.9088 128.292 72.4393C128.592 72.9698 128.73 73.9615 128.73 75.3914L128.684 79.243C128.684 80.327 128.73 81.1342 128.845 81.6646C128.961 82.1951 129.145 82.7486 129.445 83.3252H126.193C126.101 83.1176 126.009 82.7717 125.87 82.3565C125.824 82.172 125.778 82.0337 125.755 81.9645C125.201 82.518 124.602 82.9331 123.956 83.1868C123.31 83.4405 122.641 83.602 121.903 83.602C120.612 83.602 119.62 83.256 118.882 82.5641C118.144 81.8722 117.775 80.9958 117.775 79.9349C117.775 78.874 117.936 78.5972 118.282 78.0437C118.628 77.4902 119.09 77.075 119.689 76.7752C120.289 76.4754 121.165 76.2217 122.318 76.0141C123.864 75.7143 124.925 75.4606 125.524 75.2069V74.884C125.524 74.2613 125.363 73.8 125.063 73.5233C124.74 73.2465 124.163 73.1081 123.287 73.1081C122.411 73.1081 122.249 73.2235 121.926 73.4541C121.603 73.6847 121.327 74.0999 121.119 74.6765H121.096ZM125.501 77.3518C125.086 77.4902 124.417 77.6516 123.495 77.8592C122.572 78.0437 121.972 78.2513 121.696 78.4358C121.257 78.7356 121.05 79.1277 121.05 79.5889C121.05 80.0502 121.211 80.4423 121.557 80.7882C121.903 81.1342 122.341 81.2956 122.872 81.2956C123.402 81.2956 124.025 81.1111 124.579 80.719C124.971 80.4192 125.247 80.0502 125.363 79.6351C125.455 79.3583 125.501 78.8279 125.501 78.0206V77.3749V77.3518Z" fill="#221C35"/>
<path d="M131.982 83.3253V66.1431H135.28V83.3253H131.982Z" fill="#221C35"/>
<path d="M159.958 83.3253H156.176L154.676 79.4276H147.804L146.397 83.3253H142.707L149.395 66.1431H153.062L159.935 83.3253H159.958ZM153.569 76.5446L151.194 70.1792L148.864 76.5446H153.546H153.569Z" fill="#221C35"/>
<path d="M161.688 83.3253V66.1431H165.147V83.3253H161.688Z" fill="#221C35"/>
</svg>
