<svg width="175" height="150" viewBox="0 0 175 150" fill="none" xmlns="http://www.w3.org/2000/svg">
<path d="M28.7357 73.8099L28.6759 73.9645C29.6736 74.4035 31.9133 76.1445 31.9133 79.6513C31.9133 82.9536 29.1298 86.2809 24.755 86.2809C19.3126 86.2809 17.437 83.0983 17.437 80.1751C17.437 76.4288 20.0559 73.9346 20.0559 70.5225C20.0417 69.3158 19.6185 68.1495 18.8555 67.2144C18.0926 66.2793 17.035 65.6307 15.8557 65.3745L15.7659 65.5292C16.1936 65.9441 16.5329 66.4413 16.7635 66.9908C16.9941 67.5403 17.1112 68.1308 17.1078 68.7267C17.1078 72.4131 14 75.0321 14 79.2622C14 83.1582 16.7237 87.1289 24.6103 87.1289C31.639 87.1289 35.3454 83.6869 35.3454 80.0254C35.3404 76.8828 33.0906 74.2239 28.7357 73.8099Z" fill="#221C35"/>
<path d="M59.6144 86.5004L50.2711 74.4534V85.3131L52.1767 85.7671V86.2659H47.8318V85.7671L49.3882 85.3131V73.4806C49.0094 73.1275 48.5533 72.8679 48.0563 72.7224C47.8667 72.6825 47.6123 72.6376 47.6123 72.6376V72.1388H51.2987L59.2802 82.5146V73.1015L57.3746 72.6426V72.1437H61.7195V72.6426L60.1631 73.1015V83.8715C60.1631 84.8691 60.233 86.3208 60.2479 86.5053L59.6144 86.5004ZM79.149 78.8282C79.149 83.8166 75.6571 86.7099 71.841 86.7099C68.0248 86.7099 64.518 83.7767 64.518 79.2173C64.518 74.6579 68.0099 71.6948 71.806 71.6948C72.7616 71.6632 73.7137 71.8248 74.6054 72.1697C75.4971 72.5147 76.31 73.036 76.9955 73.7025C77.6811 74.3689 78.2251 75.1668 78.5951 76.0484C78.9651 76.9299 79.1535 77.8771 79.149 78.8332V78.8282ZM76.7196 79.5765C76.7196 75.91 74.5247 72.3533 71.5417 72.3533C68.369 72.3533 66.9374 75.4211 66.9374 78.7035C66.9374 81.9859 68.7482 86.0564 72.1552 86.0564C75.3578 86.0564 76.7196 82.8139 76.7196 79.5765ZM82.1669 73.0915L80.6704 72.6326V72.1338H86.4021V72.6326L84.6063 73.0915L88.5621 83.8765L92.5179 73.0915L90.7221 72.6326V72.1338H94.9622V72.6326L93.4657 73.0915L88.5122 86.5353H87.2451L82.1669 73.0915ZM116.038 79.0527H115.13V72.877C118.123 72.877 119.904 73.5654 119.904 76.0097C119.889 77.8255 118.333 79.0527 116.038 79.0527ZM141.684 85.7671L143.679 85.3131V73.0965L141.684 72.6376V72.1388H147.904V72.6376L145.909 73.0965V85.3131L147.904 85.7671V86.2659H141.684V85.7671ZM151.715 82.3849H152.109L153.431 85.4279C154.217 85.8226 155.081 86.0373 155.96 86.0564C157.676 86.0564 159.243 85.0587 159.243 83.2729C159.243 81.916 158.365 81.1079 156.943 80.3646L155.536 79.6363C153.855 78.7633 152.174 77.5262 152.174 75.5359C152.174 73.3709 153.671 71.6998 156.873 71.6998C157.999 71.7112 159.116 71.8946 160.186 72.2435L160.52 75.5159H160.096L158.874 72.892C158.241 72.5386 157.528 72.3532 156.803 72.3533C155.182 72.3533 154.08 73.3509 154.08 74.7327C154.08 75.9848 154.913 76.773 156.339 77.5113L158.006 78.3792C160.28 79.5565 161.358 80.649 161.358 82.6693C161.358 85.1635 159.018 86.7149 156.11 86.7149C154.741 86.7357 153.378 86.5318 152.074 86.1113L151.715 82.3849ZM94.0493 85.7671L95.6506 85.3131L100.594 72.1288L102.245 71.7048L107.348 85.3081L108.95 85.7671V86.2659H102.894V85.7671L104.944 85.3081L103.497 81.3972H98.06L96.6233 85.3081L98.6736 85.7621V86.2609H94.0493V85.7671ZM98.4391 80.3546H103.143L100.809 74.0493L98.4391 80.3546ZM118.892 79.357C119.39 79.2323 122.189 78.5189 122.189 75.8651C122.189 73.735 120.558 72.0839 116.537 72.0839C114.043 72.0839 111.549 72.1388 111.234 72.1487V72.6476L112.876 73.1065V85.3081L111.234 85.7671V86.2659H117.041V85.7671L115.135 85.3081V79.791H116.776L120.972 86.2759H124.688V85.777L122.807 85.2782L118.892 79.357ZM131.153 72.872V85.3131L129.158 85.7671V86.2659H135.378V85.7671L133.383 85.3131V72.877H136.74L137.847 75.2615H138.276L137.957 72.1537H126.579L126.259 75.2615H126.688L127.786 72.902L131.153 72.872ZM24.7056 81.8512L26.7009 63H22.5605L24.5559 81.8512H24.7056Z" fill="#221C35"/>
</svg>
