<svg width="175" height="150" viewBox="0 0 175 150" fill="none" xmlns="http://www.w3.org/2000/svg">
<path d="M24.2534 73.6481L24.1889 73.8147C25.2639 74.2877 27.6774 76.1637 27.6774 79.9425C27.6774 83.5009 24.678 87.0861 19.964 87.0861C14.0996 87.0861 12.0785 83.6567 12.0785 80.5069C12.0785 76.4701 14.9005 73.7825 14.9005 70.1058C14.8851 68.8055 14.4291 67.5488 13.607 66.5412C12.7849 65.5336 11.6454 64.8346 10.3746 64.5586L10.2778 64.7252C10.7387 65.1724 11.1043 65.7081 11.3528 66.3003C11.6013 66.8924 11.7275 67.5286 11.7238 68.1707C11.7238 72.143 8.375 74.965 8.375 79.5232C8.375 83.7212 11.3099 87.9999 19.8081 87.9999C27.3818 87.9999 31.3756 84.291 31.3756 80.3456C31.3702 76.9592 28.946 74.0942 24.2534 73.6481Z" fill="#221C35"/>
<path d="M57.5262 87.3227L47.4585 74.3415V86.0433L49.5118 86.5325V87.07H44.83V86.5325L46.507 86.0433V73.2933C46.0989 72.9129 45.6074 72.6331 45.0719 72.4763C44.8676 72.4333 44.5935 72.3849 44.5935 72.3849V71.8474H48.5657L57.1661 83.0279V72.8848L55.1128 72.3903V71.8528H59.7946V72.3903L58.1175 72.8848V84.4899C58.1175 85.565 58.1928 87.1291 58.2089 87.328L57.5262 87.3227ZM78.5756 79.0556C78.5756 84.4308 74.8129 87.5484 70.7009 87.5484C66.5888 87.5484 62.8101 84.3878 62.8101 79.4748C62.8101 74.5619 66.5727 71.369 70.6633 71.369C71.6929 71.335 72.7189 71.5091 73.6797 71.8808C74.6405 72.2525 75.5165 72.8142 76.2552 73.5324C76.9939 74.2505 77.5801 75.1102 77.9788 76.0602C78.3775 77.0101 78.5805 78.0307 78.5756 79.0609V79.0556ZM75.9579 79.8618C75.9579 75.9111 73.5928 72.0785 70.3784 72.0785C66.9597 72.0785 65.4171 75.3843 65.4171 78.9212C65.4171 82.4581 67.3683 86.8443 71.0395 86.8443C74.4904 86.8443 75.9579 83.3504 75.9579 79.8618ZM81.8276 72.8741L80.215 72.3795V71.842H86.3911V72.3795L84.4561 72.8741L88.7186 84.4953L92.9812 72.8741L91.0461 72.3795V71.842H95.615V72.3795L94.0025 72.8741L88.6649 87.3603H87.2996L81.8276 72.8741ZM118.325 79.2975H117.347V72.6429C120.572 72.6429 122.491 73.3847 122.491 76.0186C122.475 77.9751 120.798 79.2975 118.325 79.2975ZM145.959 86.5325L148.109 86.0433V72.8794L145.959 72.3849V71.8474H152.662V72.3849L150.512 72.8794V86.0433L152.662 86.5325V87.07H145.959V86.5325ZM156.769 82.8881H157.194L158.618 86.167C159.465 86.5923 160.396 86.8237 161.343 86.8443C163.192 86.8443 164.88 85.7692 164.88 83.8449C164.88 82.3828 163.934 81.512 162.402 80.7111L160.886 79.9264C159.075 78.9857 157.263 77.6526 157.263 75.5079C157.263 73.1751 158.876 71.3744 162.327 71.3744C163.539 71.3867 164.743 71.5843 165.896 71.9603L166.256 75.4864H165.799L164.482 72.6591C163.8 72.2783 163.033 72.0785 162.252 72.0785C160.505 72.0785 159.317 73.1536 159.317 74.6425C159.317 75.9917 160.214 76.841 161.752 77.6365L163.547 78.5718C165.998 79.8403 167.159 81.0175 167.159 83.1945C167.159 85.8821 164.638 87.5538 161.504 87.5538C160.029 87.5762 158.56 87.3565 157.156 86.9034L156.769 82.8881ZM94.6314 86.5325L96.3568 86.0433L101.684 71.8366L103.463 71.3798L108.962 86.038L110.687 86.5325V87.07H104.162V86.5325L106.371 86.038L104.812 81.8238H98.953L97.405 86.038L99.6142 86.5271V87.0646H94.6314V86.5325ZM99.3616 80.7004H104.43L101.915 73.9061L99.3616 80.7004ZM121.4 79.6253C121.937 79.491 124.953 78.7223 124.953 75.8627C124.953 73.5675 123.195 71.7883 118.863 71.7883C116.175 71.7883 113.488 71.8474 113.149 71.8581V72.3957L114.917 72.8902V86.038L113.149 86.5325V87.07H119.406V86.5325L117.352 86.038V80.093H119.121L123.641 87.0808H127.646V86.5432L125.619 86.0057L121.4 79.6253ZM134.612 72.6376V86.0433L132.462 86.5325V87.07H139.165V86.5325L137.015 86.0433V72.6429H140.632L141.826 75.2123H142.288L141.944 71.8635H129.683L129.339 75.2123H129.801L130.984 72.6698L134.612 72.6376ZM19.9105 82.3129L22.0606 62H17.5991L19.7492 82.3129H19.9105Z" fill="#221C35"/>
</svg>
