<svg width="175" height="150" viewBox="0 0 175 150" fill="none" xmlns="http://www.w3.org/2000/svg">
<path d="M105.31 65.4869V84.5297H110.684V65.4869H105.31ZM63.0283 65.4546V84.5136H68.4507V69.715L72.6788 69.7312C74.0667 69.7312 75.035 70.0701 75.6967 70.7801C76.552 71.6839 76.8909 73.1524 76.8909 75.8152V84.5136H82.1519V73.9916C82.1519 66.4713 77.3589 65.4546 72.6788 65.4546H63.0283ZM113.976 65.4869V84.5297H122.691C127.338 84.5297 128.855 83.7551 130.485 82.0283C131.647 80.818 132.389 78.1391 132.389 75.2181C132.389 72.5392 131.76 70.1508 130.647 68.6661C128.678 66.0033 125.805 65.4869 121.512 65.4869H113.976ZM119.302 69.6182H121.609C124.966 69.6182 127.128 71.119 127.128 75.0244C127.128 78.9298 124.966 80.4468 121.609 80.4468H119.302V69.6182ZM97.5637 65.4869L93.0773 80.5759L88.7846 65.4869H82.9749L89.1073 84.5297H96.8536L103.051 65.4869H97.5637ZM134.907 84.5297H140.281V65.4869H134.907V84.5297ZM149.98 65.4869L142.476 84.5136H147.769L148.963 81.1407H157.839L158.969 84.4974H164.73L157.161 65.4869H149.98ZM153.466 68.9565L156.726 77.8647H150.109L153.466 68.9565Z" fill="#221C35"/>
<path d="M28.3478 68.65V66.0356C28.606 66.0195 28.8642 66.0033 29.1224 66.0033C36.2877 65.7774 40.9839 72.1681 40.9839 72.1681C40.9839 72.1681 35.9165 79.2042 30.478 79.2042C29.7518 79.2042 29.0417 79.0913 28.3639 78.8653V70.9254C31.1558 71.2643 31.7206 72.4908 33.3829 75.2827L37.1107 72.1519C37.1107 72.1519 34.3834 68.5854 29.8002 68.5854C29.3161 68.5693 28.8319 68.6016 28.3478 68.65ZM28.3478 60V63.9054L29.1224 63.857C39.0796 63.5181 45.5832 72.0228 45.5832 72.0228C45.5832 72.0228 38.1274 81.0924 30.3651 81.0924C29.6873 81.0924 29.0256 81.0278 28.3639 80.9149V83.3356C28.9126 83.4001 29.4775 83.4485 30.0262 83.4485C37.256 83.4485 42.4847 79.7529 47.552 75.3957C48.3912 76.0735 51.8286 77.7034 52.5387 78.4135C47.7296 82.448 36.5136 85.6917 30.1553 85.6917C29.542 85.6917 28.961 85.6594 28.3801 85.5949V89H55.847V60H28.3478ZM28.3478 78.8653V80.931C21.6667 79.7368 19.8108 72.7813 19.8108 72.7813C19.8108 72.7813 23.0223 69.2309 28.3478 68.65V70.9093H28.3317C25.5398 70.5704 23.345 73.1848 23.345 73.1848C23.345 73.1848 24.5876 77.5904 28.3478 78.8653ZM16.4864 72.4908C16.4864 72.4908 20.4402 66.6489 28.3639 66.0356V63.9054C19.5849 64.6155 12 72.039 12 72.039C12 72.039 16.2927 84.4652 28.3478 85.5949V83.3356C19.5042 82.2382 16.4864 72.4908 16.4864 72.4908Z" fill="#221C35"/>
</svg>
