<svg width="175" height="150" viewBox="0 0 175 150" fill="none" xmlns="http://www.w3.org/2000/svg">
<path d="M61.7393 72.75C61.7393 79.1266 65.8343 83.5727 71.509 83.5727C77.1836 83.5727 81.2787 79.1266 81.2787 72.75C81.2787 66.3733 77.1836 61.9272 71.509 61.9272C65.8343 61.9272 61.7393 66.3733 61.7393 72.75ZM77.5346 72.75C77.5346 77.3131 75.0483 80.2674 71.509 80.2674C67.9696 80.2674 65.4833 77.3131 65.4833 72.75C65.4833 68.1869 67.9696 65.2326 71.509 65.2326C75.0483 65.2326 77.5346 68.1869 77.5346 72.75Z" fill="#221C35"/>
<path d="M91.8219 83.5726C96.1218 83.5726 98.5788 79.9456 98.5788 75.5872C98.5788 71.2289 96.1218 67.6018 91.8219 67.6018C89.8329 67.6018 88.3704 68.3916 87.4051 69.5323V67.8943H83.895V88.516H87.4051V81.6421C88.3704 82.7829 89.8329 83.5726 91.8219 83.5726ZM87.3173 75.1485C87.3173 72.2527 88.9554 70.6731 91.1199 70.6731C93.6647 70.6731 95.0395 72.6622 95.0395 75.5872C95.0395 78.5123 93.6647 80.5013 91.1199 80.5013C88.9554 80.5013 87.3173 78.8925 87.3173 76.0552V75.1485Z" fill="#221C35"/>
<path d="M108.078 83.5726C111.149 83.5726 113.577 81.9639 114.659 79.2728L111.647 78.132C111.179 79.7116 109.804 80.5891 108.078 80.5891C105.826 80.5891 104.246 78.9803 103.983 76.3477H114.747V75.1777C114.747 70.9656 112.378 67.6018 107.932 67.6018C103.486 67.6018 100.619 71.0826 100.619 75.5872C100.619 80.3258 103.69 83.5726 108.078 83.5726ZM107.903 70.5561C110.126 70.5561 111.179 72.0187 111.208 73.7152H104.158C104.685 71.6384 106.089 70.5561 107.903 70.5561Z" fill="#221C35"/>
<path d="M117.381 83.2509H120.891V74.2417C120.891 72.0479 122.5 70.8779 124.079 70.8779C126.01 70.8779 126.77 72.2527 126.77 74.1539V83.2509H130.28V73.1302C130.28 69.8249 128.35 67.6018 125.132 67.6018C123.143 67.6018 121.768 68.5086 120.891 69.5323V67.8943H117.381V83.2509Z" fill="#221C35"/>
<path d="M140.561 62.2488L132.605 83.2507H136.32L138.104 78.4536H147.172L148.985 83.2507H152.759L144.802 62.2488H140.561ZM142.609 66.4024L145.943 75.1776H139.333L142.609 66.4024Z" fill="#221C35"/>
<path d="M158.784 62.3098H155.04V83.3118H158.784V62.3098Z" fill="#221C35"/>
<path d="M53.1612 69.9625C54.046 67.3068 53.7413 64.3976 52.3263 61.9819C50.1984 58.2769 45.9205 56.3707 41.7425 57.2677C39.8839 55.1739 37.2135 53.9831 34.414 54.0002C30.1434 53.9904 26.3542 56.74 25.0404 60.8034C22.2969 61.3652 19.9288 63.0825 18.5431 65.5164C16.3993 69.2117 16.888 73.8699 19.7521 77.0387C18.8673 79.6944 19.172 82.6036 20.587 85.0192C22.715 88.7243 26.9929 90.6305 31.1708 89.7335C33.0282 91.8273 35.6998 93.0181 38.4993 92.9998C42.7724 93.0108 46.5628 90.2588 47.8766 86.1917C50.6201 85.6299 52.9881 83.9126 54.3739 81.4787C56.5153 77.7834 56.0253 73.1289 53.1624 69.9601L53.1612 69.9625ZM38.5018 90.4513C36.7918 90.4538 35.1355 89.8554 33.8229 88.7597C33.8826 88.728 33.9862 88.6707 34.0532 88.6293L41.8193 84.1442C42.2166 83.9187 42.4604 83.4958 42.4579 83.0387V72.0905L45.7401 73.9857C45.7754 74.0027 45.7986 74.0369 45.8035 74.0759V83.1423C45.7986 87.174 42.5335 90.4428 38.5018 90.4513ZM22.7991 83.7444C21.9423 82.2648 21.6339 80.5305 21.9276 78.8474C21.9849 78.8815 22.0861 78.9437 22.158 78.9851L29.924 83.4702C30.3177 83.7005 30.8052 83.7005 31.2001 83.4702L40.6809 77.9954V81.7858C40.6834 81.8248 40.6651 81.8626 40.6346 81.887L32.7845 86.4196C29.2878 88.433 24.8222 87.2362 22.8003 83.7444H22.7991ZM20.7552 66.7925C21.6083 65.3104 22.9551 64.177 24.559 63.5883C24.559 63.6553 24.5553 63.7735 24.5553 63.8564V72.8278C24.5529 73.2837 24.7966 73.7066 25.1927 73.932L34.6736 79.4056L31.3914 81.3008C31.3585 81.3227 31.3171 81.3264 31.2805 81.3105L23.4292 76.7742C19.9398 74.7535 18.743 70.2891 20.754 66.7937L20.7552 66.7925ZM47.7218 73.0679L38.241 67.5932L41.5231 65.6992C41.556 65.6773 41.5975 65.6736 41.634 65.6895L49.4854 70.2221C52.9808 72.2416 54.1789 76.7133 52.1594 80.2087C51.305 81.6883 49.9595 82.8218 48.3568 83.4117V74.1721C48.3605 73.7163 48.1179 73.2946 47.723 73.0679H47.7218ZM50.9881 68.1514C50.9308 68.116 50.8297 68.0551 50.7578 68.0137L42.9917 63.5286C42.5981 63.2982 42.1106 63.2982 41.7157 63.5286L32.2348 69.0033V65.2129C32.2324 65.1739 32.2507 65.1361 32.2811 65.1118L40.1313 60.5828C43.6279 58.5657 48.0984 59.7662 50.1143 63.2641C50.9662 64.7413 51.2745 66.4707 50.9857 68.1514H50.9881ZM30.4505 74.9071L27.1672 73.0119C27.1318 72.9948 27.1087 72.9607 27.1038 72.9217V63.8552C27.1062 59.8186 30.3811 56.5474 34.4177 56.5499C36.1252 56.5499 37.7778 57.1495 39.0904 58.2415C39.0307 58.2732 38.9283 58.3305 38.8601 58.3719L31.094 62.857C30.6967 63.0825 30.453 63.5042 30.4554 63.9612L30.4505 74.9046V74.9071ZM32.2336 71.063L36.4567 68.6243L40.6797 71.0618V75.9381L36.4567 78.3757L32.2336 75.9381V71.063Z" fill="#221C35"/>
</svg>
