<svg width="175" height="150" viewBox="0 0 175 150" fill="none" xmlns="http://www.w3.org/2000/svg">
<path fill-rule="evenodd" clip-rule="evenodd" d="M133.261 85.5634C135.036 85.0413 136.046 83.1966 135.558 81.4216L125.917 45.5373C125.465 43.7622 123.655 42.6485 121.845 43.1009L42.4195 64.4366C40.6444 64.9587 39.6351 66.8034 40.1223 68.5784L49.7634 104.463C50.2159 106.238 52.0258 107.352 53.8356 106.899L133.261 85.5634ZM55.2628 85.9114L54.9496 82.8485L54.706 79.9249C55.6805 79.8553 56.6551 79.6464 57.56 79.2636C60.0312 78.3238 62.0847 76.3399 61.9803 72.4418C61.8759 68.474 59.1958 67.1165 54.4623 68.3695C51.9563 69.0308 50.0769 69.901 49.4852 70.3186C49.1371 70.5971 49.3808 70.7711 49.3808 70.7711C49.868 71.2584 50.1813 71.9197 50.2857 72.6158L50.3901 73.6947L51.4691 86.9556C51.5039 87.1992 51.7823 87.2688 52.0608 87.234C53.1049 86.9556 54.1143 86.6075 55.0888 86.155C55.1584 86.155 55.2628 86.0506 55.2628 85.9114ZM55.4369 77.4537L54.5319 77.6973L54.0099 71.0843L54.8452 70.8059C55.7501 70.5623 57.9429 70.2838 58.1865 73.2423C58.4301 76.3051 56.3418 77.2101 55.4369 77.4537ZM73.2572 78.4631C72.1086 78.8807 70.9252 79.2636 69.7419 79.5768L68.106 79.9945L67.8276 76.2355L70.5076 75.5046C71.4473 75.261 71.7606 74.8781 72.039 72.755C72.039 72.755 72.0738 72.5114 71.8998 72.5462L68.6281 73.4163L67.6187 73.6947L67.3403 70.3882L69.0457 69.9358C70.0551 69.6573 70.9252 69.3789 71.1689 69.1353C71.4821 68.822 71.7954 68.1607 71.8998 66.7685C71.8998 66.7685 71.9346 66.5249 71.8302 66.5597L66.6094 68.0563C65.5304 68.2999 64.5211 68.648 63.5117 69.1004C62.9548 69.3789 63.094 69.6573 63.1985 69.7966C63.5813 70.249 63.825 70.8407 63.8598 71.4324C63.8851 71.6355 64.3366 77.3403 64.5924 80.5735L64.5925 80.5746C64.6873 81.7727 64.7553 82.6312 64.7647 82.7441C64.7995 83.1618 65.0083 83.3358 65.4956 83.3706C65.9829 83.4054 67.1663 83.0574 69.185 82.4309C70.786 81.9436 71.865 81.5955 72.3871 81.4215C73.118 81.1431 73.5008 79.3332 73.5008 78.7763C73.5356 78.4979 73.3616 78.4283 73.2572 78.4631ZM88.8152 76.862C89.5461 76.862 90.2422 76.7576 90.9383 76.5836C94.5232 75.7483 95.811 74.8433 97.064 73.2075C98.5606 71.2236 98.7695 69.3789 98.5954 66.9425C98.3518 63.2184 95.7762 59.877 90.6946 61.4433C89.3024 61.7913 87.945 62.2786 86.6572 62.9051C86.1003 63.1835 86.2396 63.4272 86.344 63.6012C86.3766 63.6431 86.4091 63.6819 86.4415 63.7204L86.4416 63.7205C86.6515 63.9704 86.8545 64.212 87.0053 65.2371C87.0337 65.4075 87.4099 70.4474 87.6608 73.8082C87.7173 74.5649 87.7674 75.2365 87.8058 75.7483C87.8058 75.7483 87.8058 76.5488 88.119 76.688C88.3627 76.7924 88.5715 76.862 88.8152 76.862ZM91.9128 73.5207C91.6692 73.6251 91.4255 73.6599 91.1471 73.6599L90.451 64.541C90.7642 64.3321 91.0775 64.1929 91.4604 64.1233C93.6879 63.5316 95.0801 65.2371 95.2193 68.2651C95.3934 72.2329 93.5487 73.0334 91.9128 73.5207ZM110.186 57.7887L110.812 65.4807C111.125 69.2049 109.281 71.7456 106.079 72.581C102.876 73.4163 100.719 71.9893 100.44 68.2651L99.9528 62.0698C99.918 61.4781 99.7092 60.9212 99.396 60.3991C99.3653 60.3455 99.3279 60.2935 99.2912 60.2425C99.1611 60.0619 99.0396 59.893 99.2567 59.703C99.8136 59.2157 101.345 58.6241 101.972 58.4152C102.024 58.3976 102.075 58.3802 102.124 58.3635C102.65 58.1829 102.926 58.0882 103.085 58.6937L103.294 61.1648L103.851 67.9171C103.955 69.4137 104.582 70.2142 105.905 69.8662C107.227 69.5181 107.68 68.4391 107.575 66.9425L106.844 57.9976C106.809 57.5451 107.123 57.1622 107.575 57.0578C108.097 56.8838 110.046 56.2921 110.046 56.2921C110.081 56.2573 110.151 56.2921 110.186 56.3269V56.3965C110.151 56.5705 110.151 57.0578 110.186 57.7887ZM80.0094 71.2236C79.4873 71.502 78.9304 71.676 78.3736 71.7456L78.0255 67.2906L78.652 67.0817C79.4177 66.8729 80.7751 66.7337 80.9144 68.7176C81.0536 70.3186 80.4271 70.9451 80.0094 71.2236ZM86.8312 77.1405C85.9959 76.3051 85.2302 75.4002 84.4993 74.4605C83.6292 73.3467 83.0375 72.6506 82.0977 72.2677C83.5944 71.2584 84.4297 69.5529 84.3601 67.743C84.1164 64.6802 82.2369 63.6708 78.3388 64.7846C76.9465 65.1326 75.6239 65.6199 74.3362 66.2116C73.7793 66.49 73.9185 66.7685 74.0229 66.9077C74.4058 67.395 74.6494 67.9519 74.6842 68.5436C74.719 68.822 75.5195 79.4028 75.5195 79.8901C75.5543 80.5166 76.0068 80.5514 76.3201 80.5166C76.6346 80.4594 76.9257 80.3787 77.2318 80.2938L77.2319 80.2938C77.2984 80.2754 77.3655 80.2568 77.4338 80.2381C77.8515 80.0989 78.2691 79.9597 78.652 79.7857C79.0001 79.6116 79.0001 79.368 79.0001 79.368L78.5476 73.9036L78.826 73.834C79.1045 73.7644 79.4873 73.6947 79.9746 74.4605C81.2624 76.4096 82.0977 77.4885 82.585 77.941C83.2811 78.6023 83.9424 78.6023 84.8474 78.3587C86.17 78.0454 86.6572 77.5581 86.7964 77.3493C86.9009 77.2797 86.8661 77.1753 86.8312 77.1405ZM122.054 65.3763C120.906 65.7939 119.722 66.1768 118.539 66.49L116.938 66.9077L116.625 63.1835L119.305 62.4526C120.244 62.209 120.558 61.8261 120.836 59.703C120.836 59.703 120.871 59.4594 120.697 59.529L117.425 60.3991L116.416 60.6776L116.137 57.3711L117.843 56.9186C118.852 56.6402 119.722 56.3617 119.966 56.1181C120.279 55.8048 120.592 55.1435 120.697 53.7513C120.697 53.7513 120.732 53.5425 120.627 53.5425L115.406 54.9347C114.362 55.1783 113.318 55.5264 112.309 55.9789C111.752 56.2573 111.891 56.5357 111.995 56.675C112.378 57.1274 112.622 57.7191 112.692 58.3108C112.713 58.486 113.052 62.7529 113.309 65.9889L113.309 65.9903C113.461 67.8972 113.584 69.4458 113.597 69.5877C113.631 69.9706 113.84 70.1794 114.327 70.2142C114.815 70.249 115.998 69.901 118.017 69.2745C118.34 69.176 118.643 69.0846 118.923 68.9998L118.924 68.9997C120.031 68.6648 120.802 68.4317 121.219 68.2651C121.95 67.9867 122.333 66.1768 122.333 65.6199C122.333 65.3763 122.159 65.3415 122.054 65.3763ZM125.291 73.2769H125.57H125.987H126.196L126.335 73.3117H126.405L126.544 73.3465H126.614L126.718 73.3813L126.788 73.4161L126.892 73.4509L126.927 73.4857L127.031 73.5553L127.101 73.6249L127.171 73.6945L127.24 73.7641L127.31 73.8337L127.345 73.9034L127.379 73.973V74.0774L127.414 74.1818V74.5646V74.9127L127.379 75.0171L127.345 75.1215L127.31 75.226V75.2608L127.275 75.3652L127.24 75.4696L127.171 75.574L127.136 75.6088L127.066 75.7132L127.031 75.748L126.962 75.8524V75.8873L126.857 75.9917L126.823 76.0265L126.718 76.1309L126.683 76.1657L126.544 76.2701L126.509 76.3049L126.37 76.4093H126.335L126.161 76.6182L126.126 76.653L125.952 76.7574H125.918L125.709 76.827H125.674L125.465 76.8966H125.43L125.187 76.9662H125.152L124.873 77.0358L123.551 77.3839L122.263 77.7319L120.94 78.08L119.653 78.428L118.365 78.7761L117.042 79.1241L115.72 79.4722L114.397 79.8203L113.075 80.1683L111.717 80.5164L110.36 80.8992L109.002 81.2821L107.123 81.839L105.243 82.3958L103.399 82.9527L101.554 83.5096L99.7789 84.0665L98.0038 84.6234L96.2287 85.1803L94.4885 85.7372L92.7482 86.294L91.0428 86.8509L89.3721 87.4078L87.7014 87.9647L86.0656 88.5216L84.4297 89.0785L82.8287 89.6353L81.2625 90.1922L79.6962 90.7491L78.1648 91.306L76.6682 91.8629L75.1715 92.4546L73.7097 93.0115L72.2827 93.6031L70.8557 94.16L69.4635 94.7517L68.1061 95.3086L66.7487 95.9003L65.4261 96.492L64.1383 97.0489L62.8505 97.6058L61.5975 98.0234L60.3793 98.5803L59.1959 99.1372L58.9871 99.2416L58.9523 99.2764L58.7434 99.346L58.7086 99.3808L58.465 99.4504H58.4302L58.1866 99.4852H58.1517L57.9081 99.52H57.8733L57.6297 99.5549H56.9684L56.7247 99.52H56.7943L56.5507 99.4852H56.5159L56.2723 99.4504H56.2375L55.9938 99.4156H55.959L55.7154 99.346H55.6806L55.4369 99.2764L55.1933 99.2068H55.1585L54.9497 99.1372L54.7408 99.0328H54.706L54.4972 98.9284L54.2884 98.8239H54.2536L54.0447 98.7195L53.8359 98.6151L53.6619 98.5107L53.4878 98.4063L53.3138 98.3019L53.1746 98.1974L53.0354 98.093L52.8961 97.9886L52.6525 98.0582H52.6177L52.5133 97.9538L52.4089 97.8494L52.3741 97.8146L52.3045 97.7102L52.2697 97.6754L52.2 97.5709L52.1652 97.5361L52.0956 97.4317V97.3969L52.0608 97.2925L52.026 97.2577L51.9912 97.1533V96.7008L52.026 96.6312L52.0608 96.5268L52.0956 96.492L52.1652 96.3876L52.2 96.318L52.2697 96.2135L52.3045 96.1787L52.4089 96.0743L52.4437 96.0395L52.5481 95.9351L52.5829 95.9003L52.7221 95.7959L52.7569 95.7611L52.931 95.6567L52.9658 95.6219L53.1398 95.5174H53.1746L53.3834 95.413L54.5668 94.8909L55.785 94.3689L57.0032 93.8468L58.2562 93.3247L59.544 92.8026L60.8318 92.2805L62.1544 91.7585L63.5118 91.2364L64.8692 90.7143L66.2614 90.1922L67.6884 89.6702L69.1502 89.1133L70.612 88.5912L72.1087 88.0343L73.6053 87.5122L75.1019 86.9901L76.6334 86.4681L78.1648 85.946L79.731 85.4239L81.2973 84.9018L82.8983 84.3797L84.4994 83.8577L86.1352 83.3356L87.771 82.8135L89.4069 82.2914L91.0776 81.8042L92.7482 81.3169L94.5233 80.7948L96.2287 80.3075L97.9342 79.8203L99.7789 79.2982L101.589 78.8109L103.399 78.3236L105.209 77.8363L107.018 77.3839L108.793 76.9314L110.569 76.4789L112.344 76.0613L114.084 75.6436L115.824 75.226L117.564 74.8431L119.305 74.4602L121.01 74.1122L122.716 73.7641L124.386 73.4161L124.595 73.3813H124.63L124.839 73.3465H124.873L125.082 73.3117L125.291 73.2769Z" fill="#221C35"/>
</svg>
