<svg width="175" height="150" viewBox="0 0 175 150" fill="none" xmlns="http://www.w3.org/2000/svg">
<path d="M48.4609 62.5482H55.9111C61.3026 62.5482 62.6683 65.7994 62.6683 68.4493C62.6683 71.0991 61.272 74.3503 55.9111 74.3503H51.3146V83.6452H48.4609V62.5482ZM51.3146 65.0554V71.8431H55.0754C57.338 71.8431 59.6006 71.3132 59.6006 68.4493C59.6006 65.5854 57.338 65.0554 55.0754 65.0554H51.3146ZM66.3985 62.4463C67.4754 62.447 68.3515 63.3135 68.3641 64.3904C68.3766 65.4672 67.5209 66.354 66.4444 66.3798C65.3678 66.4056 64.4705 65.5608 64.4315 64.4846C64.415 63.9515 64.6146 63.4343 64.985 63.0505C65.3554 62.6667 65.8651 62.4488 66.3985 62.4463ZM65.0838 69.5194H67.7336V83.6452H65.0838V69.5194ZM70.8014 69.5194H73.4818V71.7004H73.543C74.4774 70.0334 76.2828 69.0476 78.1904 69.1627C80.932 69.1627 83.2863 70.8036 83.2863 74.5541V83.6452H80.6365V75.3083C80.6365 72.6483 79.1179 71.6699 77.4158 71.6699C75.1838 71.6699 73.4818 73.0967 73.4818 76.3785V83.6452H70.8014V69.5194ZM88.1988 77.5709C88.1988 80.0373 90.4919 81.6476 92.9685 81.6476C94.5221 81.6025 95.9609 80.8187 96.8414 79.5379L98.8798 81.0871C97.3997 83.0394 95.0482 84.1312 92.6016 84.0019C88.2187 84.0019 85.4496 80.9212 85.3384 76.8388L85.3349 76.5823C85.2559 74.618 85.9909 72.7082 87.3665 71.3037C88.742 69.8992 90.6361 69.1246 92.6016 69.1627C97.5752 69.1627 99.4811 72.9744 99.4811 76.6129V77.5709H88.1988ZM96.6784 75.4205C96.6172 73.0661 95.3025 71.3437 92.6016 71.3437C90.2918 71.328 88.3702 73.1156 88.2192 75.4205H96.6784ZM111.65 73.2802C110.778 72.2486 109.485 71.6678 108.134 71.7004C105.219 71.7004 103.721 74.0547 103.721 76.7046C103.647 77.958 104.097 79.1858 104.962 80.0955C105.828 81.0052 107.031 81.5156 108.287 81.505C109.614 81.5494 110.884 80.9636 111.711 79.9252L113.617 81.8107C112.23 83.2787 110.274 84.0711 108.256 83.9816C106.273 84.0814 104.34 83.3393 102.933 81.9381C101.526 80.5368 100.776 78.6067 100.867 76.6231C100.778 74.6318 101.525 72.6938 102.929 71.2785C104.332 69.8632 106.264 69.0997 108.256 69.1729C110.297 69.1211 112.265 69.9313 113.678 71.4049L111.65 73.2802ZM121.546 69.1627C125.627 69.23 128.888 72.581 128.843 76.6625C128.799 80.744 125.466 84.0229 121.384 84.0012C117.302 83.9788 114.005 80.664 114.004 76.5823C114.004 74.5931 114.803 72.6871 116.221 71.2921C117.564 69.9705 119.357 69.2124 121.233 69.1641L121.546 69.1627ZM121.546 81.505C124.4 81.505 126.194 79.4666 126.194 76.5823C126.194 73.698 124.4 71.6699 121.546 71.6699C118.693 71.6699 116.889 73.7082 116.889 76.5823C116.889 79.3766 118.584 81.3905 121.31 81.5002L121.546 81.505ZM131.229 69.5194H133.909V71.7004C134.847 70.0318 136.656 69.0461 138.567 69.1627C141.308 69.1627 143.663 70.8036 143.663 74.5541V83.6452H140.982V75.3083C140.982 72.6483 139.464 71.6699 137.772 71.6699C135.529 71.6699 133.838 73.0967 133.838 76.3785V83.6452H131.229V69.5194ZM148.657 77.5709C148.657 80.0373 150.95 81.6476 153.426 81.6476C154.979 81.5976 156.415 80.8149 157.299 79.5379L159.338 81.0871C157.856 83.0232 155.514 84.1027 153.08 83.9714C148.707 83.9714 145.928 80.8907 145.817 76.8082L145.813 76.5517C145.734 74.582 146.473 72.6672 147.855 71.2618C149.237 69.8563 151.14 69.0855 153.11 69.1321C158.094 69.1321 160 72.9438 160 76.5823V77.5403L148.657 77.5709ZM157.116 75.4205C157.055 73.0661 155.75 71.3437 153.039 71.3437C150.727 71.3229 148.803 73.1132 148.657 75.4205H157.116Z" fill="#221C35"/>
<path d="M26.9766 81.7089C27.8941 81.7089 28.6379 82.4526 28.6379 83.3701C28.6379 84.2876 27.8941 85.0314 26.9766 85.0314C26.0591 85.0314 25.3153 84.2876 25.3153 83.3701C25.3153 82.4526 26.0591 81.7089 26.9766 81.7089ZM36.1933 78.6778L37.835 79.1642L36.5318 83.5624C36.418 83.9467 36.0527 84.2005 35.6528 84.1733L35.2503 84.1457L35.2404 84.1538L31.0583 83.8603L31.1746 82.1521L33.9845 82.3427L32.1449 79.6892L33.552 78.7136L35.394 81.3705L36.1933 78.6778ZM18.3253 75.6373L20.0332 75.7583L19.8331 78.5677L22.4819 76.7258L23.4597 78.1314L20.8075 79.9752L23.5146 80.7729L23.0307 82.4153L18.6118 81.1134C18.226 80.9998 17.9714 80.6329 17.9998 80.2317L18.3253 75.6373ZM29.3529 73.2451L32.4354 76.9667L31.0462 78.1174L29.2116 75.9025L28.6169 79.3079L26.8399 78.9972L27.4352 75.5866L24.9655 77.0428L24.0498 75.4885L28.2004 73.0433C28.582 72.8185 29.0704 72.904 29.3529 73.2451ZM37.9772 70.7482L39.517 69.9104L41.7603 74.0334C41.9568 74.3946 41.8758 74.8438 41.5655 75.1137L41.2482 75.3879L38.0097 78.2062L36.8593 76.8835L39.0365 74.9894L35.7936 74.4051L36.1047 72.68L39.3453 73.2639L37.9772 70.7482ZM19.8176 66.4376L20.9776 67.7519L18.8303 69.6458L22.0794 70.2131L21.7783 71.94L18.5255 71.3723L19.9227 73.8981L18.3888 74.7467L16.1096 70.6266C15.9106 70.2669 15.9883 69.8172 16.2965 69.5452L19.8176 66.4376ZM30.8003 65.0817L33.8724 68.7933L32.4828 69.9435L30.6487 67.7277L30.0539 71.134L28.2769 70.8234L28.8702 67.426L26.4099 68.8682L25.4978 67.3119L29.2769 65.0962L29.2806 65.0818L29.2972 65.084L29.6494 64.8786C30.0309 64.655 30.5183 64.741 30.8003 65.0817ZM34.7591 63.2563L35.431 61.6372L39.7771 63.4408C40.1565 63.5982 40.3756 63.9979 40.3044 64.4024L40.232 64.8047L39.4899 69.0263L37.7635 68.7222L38.2609 65.8962L35.3775 67.4898L34.5302 65.9552L37.4191 64.3603L34.7591 63.2563ZM26.4798 60.0657L26.5545 61.8171L23.6836 61.9398L25.8489 64.4143L24.5297 65.5687L22.3607 63.0904L21.8554 65.9197L20.1298 65.6111L20.9568 60.9875C21.029 60.5834 21.3721 60.2836 21.7822 60.2661L22.1885 60.2479L22.1976 60.2413L26.4798 60.0657ZM32.3525 56.3306L35.4107 60.0656L34.015 61.2085L32.1999 58.9913L31.5877 62.3931L29.8122 62.0736L30.4255 58.6641L27.9473 60.1131L27.0371 58.5555L31.1996 56.1233C31.5826 55.8995 32.0715 55.9874 32.3525 56.3306Z" fill="#221C35"/>
</svg>
