<svg width="175" height="150" viewBox="0 0 175 150" fill="none" xmlns="http://www.w3.org/2000/svg">
<path d="M85.6933 88.6335C68.7881 75.0981 61.7356 57.7168 44 57.7168V88.6335H85.6933Z" fill="#221C35"/>
<path d="M121.647 57.2529C118.195 57.2529 115.109 58.7546 113.319 60.9594V48H109.146V78.9167H112.582L113.022 75.6669C114.234 77.2896 116.703 79.3804 121.447 79.3804C127.819 79.3804 132.334 74.8251 132.334 68.3679C132.334 61.9107 128.002 57.2529 121.648 57.2529H121.647ZM120.504 75.5079C115.907 75.5079 113.163 72.7713 113.163 68.3229C113.163 63.8744 115.975 61.1378 120.504 61.1378C125.034 61.1378 127.846 63.8744 127.846 68.3229C127.846 72.7713 125.034 75.5079 120.504 75.5079Z" fill="#221C35"/>
<path d="M106.054 48H101.88V78.9167H106.054V48Z" fill="#221C35"/>
<path d="M90.0824 75.7764C87.0384 75.7764 83.8425 74.2915 82.1262 72.1574L79.311 74.8366C82.0564 77.9477 85.6472 79.3804 89.9022 79.3804C95.7419 79.3804 99.4069 76.779 99.4069 72.3924C99.4069 63.2737 83.5661 68.9765 83.5661 63.8373C83.5661 61.9567 85.7594 60.8914 89.1752 60.8914C92.2192 60.8914 94.4169 61.8781 95.7834 63.2887L98.5986 60.6096C96.7348 58.6044 93.2253 57.2529 89.2803 57.2529C83.3788 57.2529 79.4965 60.0451 79.4965 64.4636C79.4965 73.3314 95.2746 67.6913 95.2746 72.8614C95.2746 74.6793 93.2182 75.7755 90.0815 75.7755L90.0824 75.7764Z" fill="#221C35"/>
<path d="M131.869 85.5417H86.7529C96.0659 93.1411 110.365 101 131.869 101V85.5417Z" fill="#221C35"/>
</svg>
