<svg width="175" height="150" viewBox="0 0 175 150" fill="none" xmlns="http://www.w3.org/2000/svg">
<path fill-rule="evenodd" clip-rule="evenodd" d="M165.836 67.9324H165.414V68.4644H165.836C166.021 68.4644 166.153 68.3846 166.153 68.1984C166.153 68.0122 166.047 67.9324 165.836 67.9324ZM164.886 67.427H165.836C166.364 67.427 166.707 67.7196 166.707 68.1718C166.707 68.4378 166.575 68.6506 166.364 68.7836L166.733 69.3422V69.4486H166.179L165.81 68.9166H165.387V69.4486H164.859L164.886 67.427ZM167.551 68.491C167.551 67.427 166.839 66.6024 165.757 66.6024C164.675 66.6024 163.989 67.3738 163.989 68.491C163.989 69.555 164.701 70.3796 165.757 70.3796C166.812 70.3796 167.551 69.555 167.551 68.491ZM168 68.491C168 69.7678 167.155 70.8052 165.757 70.8052C164.358 70.8052 163.54 69.7412 163.54 68.491C163.54 67.2408 164.358 66.1769 165.757 66.1769C167.155 66.1769 168 67.2142 168 68.491ZM42.4037 72.9863L38.0755 75.5133L42.4037 78.0137C43.4857 78.652 43.8816 80.0618 43.2482 81.1524C42.6148 82.243 41.216 82.642 40.134 82.0036L32.375 77.4817C31.8735 77.1891 31.504 76.7369 31.3457 76.1783C31.2665 75.9389 31.2401 75.6729 31.2401 75.4335C31.2401 75.2473 31.2665 75.0877 31.3193 74.9015C31.4776 74.3163 31.8471 73.8375 32.375 73.5183L40.1076 69.023C41.1897 68.3846 42.5884 68.757 43.2218 69.8742C43.8816 70.9648 43.5121 72.3745 42.4037 72.9863ZM38.313 85.1955L30.5539 80.7002C30.1581 80.4608 29.683 80.3544 29.2344 80.4076C28.0468 80.4874 27.1231 81.4982 27.1231 82.6952V91.7124C27.1231 92.9892 28.1523 94 29.3927 94C30.6595 94 31.6624 92.9626 31.6624 91.7124V86.6585L36.0433 89.1855C37.1254 89.8239 38.5241 89.4515 39.1575 88.3343C39.7909 87.2437 39.4214 85.8339 38.313 85.1955ZM29.3663 76.3911L26.1466 79.6096C26.041 79.716 25.8827 79.7692 25.7507 79.7958H24.8006C24.6423 79.7958 24.5103 79.716 24.4048 79.6096L21.185 76.3911C21.0795 76.2847 21.0267 76.1251 21.0267 75.9921V75.0345C21.0267 74.8749 21.1059 74.7419 21.185 74.6355L24.4048 71.3638C24.5103 71.2574 24.6687 71.2042 24.8006 71.2042H25.7507C25.9091 71.2042 26.041 71.284 26.1466 71.3638L29.3663 74.6089C29.4719 74.7153 29.5247 74.8749 29.5247 75.0079V75.9655C29.5247 76.1251 29.4719 76.2581 29.3663 76.3911ZM26.8064 75.4867C26.8064 75.3271 26.7272 75.1941 26.648 75.0611L25.6979 74.1301C25.5924 74.0237 25.434 73.9705 25.3021 73.9705H25.2757C25.1173 73.9705 24.9854 74.0503 24.8798 74.1301L23.9561 75.0611C23.8506 75.1675 23.7978 75.3271 23.7978 75.4867V75.5133C23.7978 75.6729 23.8506 75.8059 23.9561 75.9123L24.8798 76.8433C24.9854 76.9497 25.1437 77.0029 25.2757 77.0029H25.3021C25.4604 77.0029 25.5924 76.9231 25.6979 76.8433L26.6216 75.9123C26.7272 75.8059 26.78 75.6463 26.8064 75.5133V75.4867ZM12.2384 65.8045L19.9974 70.2998C21.0795 70.9382 22.4782 70.5658 23.1116 69.4486C23.3227 69.1028 23.4283 68.7038 23.4283 68.3048V59.2876C23.4283 58.0108 22.399 57 21.1586 57C19.8919 57 18.889 58.0374 18.889 59.2876V64.3415L14.5608 61.8145C13.4788 61.1761 12.08 61.5485 11.4466 62.6657C10.8132 63.7829 11.1563 65.1661 12.2384 65.8045ZM29.2344 70.5924C29.683 70.619 30.1581 70.5126 30.5539 70.2998L38.2866 65.8045C39.3687 65.1661 39.7645 63.7563 39.1311 62.6657C38.4977 61.5751 37.099 61.1761 36.017 61.8145L31.6888 64.3415V59.2876C31.6888 58.0108 30.6595 57 29.4191 57C28.1523 57 27.1495 58.0374 27.1495 59.2876V68.3048C27.1231 69.5018 28.0468 70.5126 29.2344 70.5924ZM21.317 80.4076C20.8683 80.381 20.3933 80.4608 19.9974 80.7002L12.2384 85.1955C11.1563 85.8339 10.7605 87.2437 11.3938 88.3343C12.0272 89.4249 13.426 89.8239 14.508 89.1855L18.8362 86.6585V91.7124C18.8362 92.9892 19.8655 94 21.1059 94C22.3462 94 23.3755 92.9626 23.3755 91.7124V82.6686C23.4283 81.4982 22.5046 80.4874 21.317 80.4076ZM19.2057 76.1783C19.2849 75.9389 19.3112 75.6729 19.3112 75.4335C19.3112 75.2473 19.2849 75.0877 19.2321 74.9015C19.0737 74.3163 18.7042 73.8109 18.1764 73.5183L10.4438 68.9964C9.36171 68.358 7.96297 68.7304 7.32958 69.8476C6.69619 70.9648 7.06567 72.348 8.1741 72.9863L12.5023 75.5133L8.14771 78.0137C7.06567 78.652 6.6698 80.0618 7.30319 81.1524C7.93658 82.243 9.36171 82.642 10.4438 82.0036L18.1764 77.4817C18.6779 77.1891 19.0473 76.7369 19.2057 76.1783ZM115.27 62.7189H114.901C114.373 62.7189 113.819 62.7987 113.317 62.9583C112.816 63.1179 112.367 63.4105 112.024 63.8095C111.681 64.2351 111.417 64.7139 111.285 65.2459C111.127 65.8577 111.074 66.496 111.074 67.1344V68.5176H109.57C109.068 68.5176 108.646 68.9166 108.62 69.4486C108.62 69.7146 108.699 69.954 108.883 70.1668C109.068 70.353 109.306 70.4594 109.57 70.486H111.074V81.711C111.074 81.977 111.179 82.2164 111.364 82.4026C111.549 82.5888 111.786 82.6686 112.05 82.6686C112.578 82.6686 112.974 82.243 112.974 81.711V70.4594H114.584C114.848 70.4594 115.085 70.3264 115.244 70.1668C115.428 69.9806 115.534 69.7412 115.534 69.4752V69.4486C115.508 68.9432 115.085 68.5176 114.584 68.5176H112.948V67.1344C112.948 66.6556 113 66.2035 113.106 65.7513C113.159 65.5119 113.264 65.2725 113.423 65.0863C113.555 64.9533 113.713 64.8469 113.898 64.7937C114.214 64.7139 114.531 64.6607 114.848 64.6607H114.901H114.98H115.059H115.27C115.798 64.6607 116.247 64.2351 116.247 63.6765C116.247 63.1179 115.824 62.6923 115.27 62.7189ZM148.682 69.9806C148.866 69.7944 148.972 69.555 148.972 69.289C148.972 69.023 148.866 68.7836 148.682 68.624C148.338 68.2516 147.731 68.2516 147.388 68.5974L147.362 68.624L139.92 75.9389V63.6233C139.92 63.0913 139.471 62.6657 138.943 62.6657C138.679 62.6657 138.442 62.7721 138.283 62.9583C138.099 63.1445 137.993 63.3839 137.993 63.6233V81.6578C137.993 82.1898 138.415 82.6154 138.943 82.6154C139.471 82.6154 139.92 82.1898 139.92 81.6578V78.6786L142.348 76.2315L147.309 82.243C147.388 82.376 147.52 82.4558 147.652 82.5356C147.784 82.5888 147.916 82.6154 148.048 82.6154C148.286 82.6154 148.497 82.5356 148.682 82.4026C148.866 82.2164 148.998 81.9504 148.998 81.6844C148.998 81.445 148.919 81.2322 148.761 81.046L143.72 74.8749L148.682 69.9806ZM135.222 68.757C135.407 68.9432 135.512 69.1826 135.512 69.4486V81.6578C135.512 82.1898 135.09 82.6154 134.562 82.6154C134.298 82.6154 134.061 82.509 133.902 82.3228C133.718 82.1366 133.612 81.8972 133.612 81.6578V80.4608C131.263 83.1208 127.225 83.3336 124.586 80.9928C124.428 80.8598 124.27 80.7002 124.111 80.5406C121.525 77.7211 121.525 73.3853 124.111 70.5924C126.513 67.959 130.577 67.7994 133.19 70.22C133.322 70.353 133.454 70.486 133.586 70.619V69.4486C133.586 69.1826 133.691 68.9432 133.876 68.757C134.272 68.3846 134.852 68.3846 135.222 68.757ZM133.586 75.5399C133.586 74.1833 133.084 72.8533 132.187 71.8692C130.524 70.0072 127.7 69.8476 125.853 71.5234C125.721 71.6298 125.616 71.7628 125.51 71.8692C124.586 72.8799 124.085 74.1833 124.085 75.5399C124.085 76.8965 124.586 78.1999 125.51 79.184C127.199 81.046 130.076 81.179 131.923 79.4766C132.029 79.3968 132.108 79.2904 132.213 79.184C133.111 78.1999 133.612 76.8965 133.586 75.5399ZM56.8397 75.1941C56.0216 74.8483 55.1771 74.5291 54.3325 74.2631C53.5936 74.0503 52.8546 73.7843 52.1421 73.4651C51.8781 73.3321 51.667 73.1725 51.4823 72.9597C51.3239 72.7735 51.2448 72.5607 51.2448 72.3214C51.2448 72.0022 51.3239 71.683 51.5087 71.4436C51.8254 71.0446 52.2212 70.752 52.6963 70.5658C53.1185 70.3796 53.5936 70.2998 54.0422 70.2732C54.8604 70.2466 55.6785 70.5126 56.3383 71.018C56.6022 71.2042 56.8133 71.3904 57.0245 71.55C57.13 71.6298 57.2356 71.7096 57.3411 71.7628C57.4467 71.816 57.5787 71.8692 57.7106 71.8692C57.7898 71.8692 57.8954 71.8426 57.9745 71.816C58.0537 71.7894 58.1329 71.7362 58.2121 71.683C58.2912 71.6032 58.344 71.55 58.3704 71.4436C58.3968 71.3638 58.4232 71.2574 58.4232 71.1776C58.4232 71.018 58.3704 70.8318 58.2912 70.6988C58.1329 70.4062 57.8954 70.1402 57.6578 69.9274C57.1828 69.5284 56.655 69.1826 56.0744 68.9166C55.4938 68.6506 54.8604 68.491 54.227 68.4644C52.8018 68.4644 51.6142 68.7836 50.7697 69.3954C50.3211 69.688 49.9252 70.0604 49.6613 70.5126C49.3446 71.0712 49.1862 71.683 49.1862 72.3214V72.4277C49.1862 73.0927 49.3974 73.7311 49.7932 74.2365C50.3474 74.9547 51.192 75.3803 52.0101 75.6729C52.8282 75.9655 53.6464 76.1517 54.1478 76.3379C54.8604 76.5507 55.5465 76.8433 56.2063 77.1891C56.4702 77.3221 56.6814 77.5349 56.8661 77.7477C57.0245 77.9605 57.1036 78.1999 57.1036 78.4659V78.4925C57.1036 78.8648 56.9981 79.2106 56.7869 79.5032C56.4438 79.9288 55.9952 80.248 55.4674 80.4076C55.0187 80.5672 54.5437 80.6736 54.0422 80.6736C53.1185 80.7002 52.1948 80.4874 51.3767 80.0618C51.0864 79.9022 50.8225 79.7692 50.6114 79.6362C50.5058 79.583 50.4002 79.5298 50.2947 79.4766C50.1891 79.4234 50.0571 79.3968 49.9516 79.3968C49.8724 79.3968 49.7932 79.4234 49.7141 79.45C49.6349 79.4766 49.5557 79.5298 49.5029 79.583C49.4238 79.6628 49.3446 79.7426 49.2918 79.849C49.239 79.9554 49.2126 80.0618 49.2126 80.1682C49.2126 80.3544 49.2654 80.5406 49.371 80.6736C49.5557 80.913 49.7932 81.1258 50.0308 81.312C50.3738 81.5248 50.7169 81.7376 51.0864 81.8972C52.0101 82.3228 53.013 82.5356 54.0158 82.5622C55.3618 82.5622 56.5494 82.243 57.5523 81.4982C58.5288 80.78 59.1094 79.6628 59.1094 78.4393C59.1094 77.8275 58.9774 77.2423 58.6871 76.7103C58.2385 76.0453 57.6051 75.5133 56.8397 75.1941ZM119.229 62.6657C118.965 62.6657 118.727 62.7721 118.569 62.9583C118.384 63.1445 118.279 63.3839 118.279 63.6233V81.6578C118.279 81.9238 118.384 82.1632 118.569 82.3228C118.939 82.6952 119.572 82.6952 119.941 82.3228C120.126 82.1366 120.232 81.8972 120.232 81.6578V63.6233C120.205 63.0913 119.757 62.6657 119.229 62.6657ZM163.144 75.0877V75.1941C163.144 75.4601 163.038 75.6995 162.854 75.8591C162.669 76.0187 162.431 76.0985 162.194 76.0985H151.479C151.743 78.7318 153.828 80.6736 156.335 80.7002H156.968C157.813 80.6736 158.631 80.4076 159.317 79.9288C160.03 79.45 160.637 78.8116 161.059 78.0669C161.138 77.9339 161.27 77.8009 161.402 77.7211C161.534 77.6413 161.692 77.6147 161.851 77.6147C162.009 77.6147 162.194 77.6679 162.326 77.7477C162.59 77.9339 162.748 78.2531 162.775 78.5722C162.775 78.7584 162.722 78.918 162.643 79.0776C162.036 80.0618 161.217 80.913 160.267 81.5514C159.291 82.2164 158.156 82.5622 156.968 82.5888H156.335C154.514 82.5622 152.799 81.8174 151.532 80.4874C150.265 79.1574 149.552 77.4019 149.552 75.5665C149.552 73.7045 150.265 71.8958 151.532 70.5392C152.799 69.2092 154.54 68.4644 156.361 68.4644C158.103 68.4644 159.766 69.156 161.006 70.3796C162.247 71.6298 163.012 73.3055 163.144 75.0877ZM161.033 74.1833C160.531 71.9756 158.605 70.4062 156.361 70.3796C154.092 70.4062 152.139 71.949 151.611 74.1833H161.033ZM67.0004 68.491C65.5752 68.491 64.1765 69.0496 63.1209 70.0072V69.4486C63.1209 69.2092 63.0153 68.9698 62.8569 68.7836C62.6722 68.5974 62.4347 68.491 62.1972 68.491C61.6693 68.491 61.2471 68.89 61.2471 69.422V69.4486V81.9238L61.2735 81.977C61.2999 82.0302 61.2998 82.0568 61.3262 82.11C61.4582 82.3494 61.6693 82.509 61.9332 82.5888H61.9596H62.1708C62.3027 82.5888 62.4611 82.5622 62.5666 82.509C62.6722 82.4558 62.7778 82.376 62.8569 82.2962L62.8833 82.2696C62.9361 82.2164 62.9625 82.1366 62.9889 82.0834C63.0153 82.0302 63.0417 81.9504 63.0417 81.8706V81.844V74.2897C63.0681 73.2523 63.4903 72.2682 64.2029 71.55C65.6808 70.0338 68.1088 70.0072 69.6395 71.4968C70.3785 72.2416 70.8007 73.2523 70.8007 74.2897V81.6578C70.8007 82.1898 71.223 82.6154 71.7772 82.6154C72.0147 82.6154 72.2522 82.509 72.437 82.3494C72.6217 82.1632 72.7273 81.9238 72.7273 81.6578V74.2897C72.7537 71.0978 70.1937 68.491 67.0004 68.491ZM85.9758 70.5658C88.5621 73.3587 88.5621 77.6945 85.9758 80.514C83.6005 83.1474 79.5627 83.3336 76.9499 80.9396C76.7916 80.8066 76.6596 80.6736 76.5276 80.514C73.9413 77.7211 73.9413 73.3587 76.5276 70.5658C78.9029 67.9324 82.9671 67.7462 85.5535 70.1668C85.7118 70.2998 85.8438 70.4328 85.9758 70.5658ZM86.0021 75.5399C86.0021 74.1833 85.5007 72.8799 84.6034 71.8692C82.9671 70.0072 80.1433 69.8476 78.2959 71.4968C78.1639 71.6032 78.032 71.7362 77.9264 71.8692C77.0027 72.8533 76.5013 74.1833 76.5013 75.5399C76.5013 76.8965 77.0027 78.1999 77.9264 79.184C79.589 81.046 82.4129 81.2056 84.2603 79.5298C84.3923 79.4234 84.4978 79.317 84.6034 79.184C85.5271 78.1999 86.0285 76.8965 86.0021 75.5399ZM106.587 68.5708C106.482 68.5176 106.35 68.491 106.244 68.491C105.848 68.491 105.505 68.7304 105.347 69.0762L101.705 79.1308L98.9075 72.4012C98.8283 72.215 98.6964 72.082 98.538 71.9756C98.3797 71.8692 98.1949 71.816 97.9838 71.816C97.5879 71.816 97.2448 72.0554 97.0865 72.4012L94.2626 79.1308L90.5942 69.0762C90.5415 68.89 90.4095 68.7304 90.2511 68.624C90.0928 68.5176 89.9081 68.4644 89.7233 68.4644C89.5914 68.4644 89.4858 68.491 89.3538 68.5442C88.9052 68.757 88.6941 69.289 88.8788 69.7678L93.3653 81.977C93.3917 82.0834 93.4445 82.1632 93.5237 82.243C93.5764 82.2962 93.6556 82.3494 93.7348 82.4026C93.7612 82.4292 93.7876 82.4292 93.814 82.4558C93.8668 82.4824 93.8931 82.509 93.9459 82.509C94.0515 82.5356 94.1571 82.5622 94.2626 82.5622C94.4474 82.5622 94.6057 82.509 94.7641 82.4026C94.9224 82.2962 95.028 82.1632 95.1071 81.977L97.9574 75.1143L100.808 81.9504C100.86 82.11 100.992 82.2696 101.124 82.376C101.256 82.4824 101.415 82.5356 101.599 82.5622H101.731C101.837 82.5622 101.943 82.5356 102.048 82.509C102.127 82.4824 102.206 82.4292 102.286 82.376C102.444 82.243 102.549 82.0834 102.629 81.9238L107.115 69.7944C107.326 69.3422 107.089 68.7836 106.587 68.5708Z" fill="#221C35"/>
</svg>
