<svg width="175" height="150" viewBox="0 0 175 150" fill="none" xmlns="http://www.w3.org/2000/svg">
<mask id="mask0_1145_5540" style="mask-type:luminance" maskUnits="userSpaceOnUse" x="51" y="34" width="75" height="82">
<path d="M125.121 34H51V116H125.121V34Z" fill="white"/>
</mask>
<g mask="url(#mask0_1145_5540)">
<path d="M60.5464 106.094C60.4251 105.707 60.0709 104.838 59.9744 104.197C59.7615 102.776 60.5043 101.84 61.1865 101.626C61.9521 101.412 62.2511 101.797 62.5474 102.69C62.9306 104.051 62.9733 105.835 62.8444 108.388C62.677 111.875 60.9323 116.087 56.5952 115.999C52.8515 115.917 51.1949 113.492 51.0227 109.793C50.9413 108.049 51.0661 106.305 51.7882 103.84C52.1713 102.519 52.5131 102.05 53.7018 101.797C54.6362 101.626 54.5521 102.603 54.3406 103.755C53.8747 106.305 53.6584 107.537 53.8306 110.43C53.9974 113.492 55.4038 114.684 56.9349 114.684C59.2316 114.728 60.2514 112.814 60.6787 110.047C61.0156 107.836 60.7614 106.773 60.5464 106.094ZM109.515 109.114C110.409 109.114 110.666 110.172 110.452 110.813C110.238 111.449 109.474 112.176 108.284 112.387C108.028 111.748 107.9 109.114 109.515 109.114ZM92.8902 110.555C92.8902 109.835 92.505 109.239 92.0413 109.239C91.654 109.239 90.7644 109.663 90.7644 111.025C90.7644 112.091 91.1434 112.597 91.317 112.814C92.547 112.43 92.8902 111.407 92.8902 110.555ZM79.6613 101.881C79.6014 101.199 79.0667 100.735 78.3431 100.735C77.5362 100.735 76.7762 101.582 76.8568 102.646C76.9085 103.347 77.3219 103.924 78.1343 103.924C79.0667 103.925 79.7468 102.861 79.6613 101.881ZM86.5776 104.379C86.5039 103.19 86.2158 102.653 85.577 102.697C84.7302 102.748 84.3388 105.413 84.5117 108.214C84.622 110.041 84.8942 110.323 85.1478 110.305C85.6163 110.277 86.7402 107.012 86.5776 104.379ZM114.789 108.856C114.262 111.043 112.664 114.259 110.28 114.259C109.728 114.259 108.749 114.045 108.749 113.492C108.749 112.896 112.494 112.814 112.494 109.963C112.494 108.901 111.517 107.411 110.07 107.411C108.156 107.411 106.289 109.496 106.289 112.388C106.289 114.98 107.9 115.831 109.516 115.831C112.324 115.831 114.025 113.533 114.917 111.621C115.344 112.897 115.595 115.831 116.663 115.831C117.086 115.831 117.386 115.618 117.897 114.472C119.169 111.62 120.404 108.346 122.106 108.346C122.742 108.346 122.361 109.496 123.892 109.496C124.613 109.496 125.122 108.901 125.122 108.217C125.122 107.238 124.23 106.475 122.871 106.475C118.872 106.475 118.024 112.473 117.385 112.473C116.322 112.473 116.662 107.666 115.895 107.666C115.214 107.666 114.88 108.477 114.789 108.856ZM80.768 113.959C81.4054 113.959 82.5017 113.752 83.3644 112.371C82.871 111.275 82.5189 109.061 82.47 108.255C82.2164 104.132 83.8047 100.254 85.5433 100.146C86.8181 100.069 87.8379 101.276 87.955 103.231C88.2686 108.368 86.5576 110.512 85.7011 112.362C85.8458 113.08 87.0627 114.301 88.2107 114.301C88.6345 114.301 89.1471 114.088 89.276 113.915C89.1906 113.62 89.1037 113.237 89.1037 112.683C89.1037 109.706 91.018 107.196 92.6773 107.196C93.9955 107.196 94.761 108.939 94.761 110.09C94.761 111.449 93.6117 112.557 91.9117 113.62C92.2108 113.915 92.7607 114.13 93.2306 114.13C95.6568 114.13 96.9261 111.195 97.866 108.514C98.0355 108.003 98.3353 107.282 98.9293 107.282C99.9498 107.282 100.377 114.002 102.074 114.002C102.799 114.002 103.393 112.512 103.393 111.367C103.393 110.515 103.095 110.429 103.095 109.196C103.095 107.836 103.819 106.689 104.799 106.689C105.394 106.689 105.609 107.282 105.609 108.003C105.609 110.726 103.65 115.788 100.762 115.788C98.5896 115.788 98.7591 112.045 97.9942 112.045C97.1397 112.045 95.949 115.83 91.7429 115.83C91.0593 115.83 90.3379 115.49 89.7439 114.808C88.7247 115.49 87.8717 115.788 86.8932 115.788C85.3214 115.788 84.6392 114.171 84.0032 114.171C83.2363 114.171 82.388 115.83 79.8336 115.83C77.7926 115.83 77.4522 113.111 76.7307 113.111C76.0912 113.111 75.1134 115.83 74.0509 115.83C72.262 115.83 71.883 111.11 70.3064 111.11C69.0737 111.11 65.177 115.903 64.1192 115.794C63.6941 115.75 63.5149 115.432 63.5597 115.006C63.6197 114.418 64.1261 112.843 64.3315 112.098C64.6753 110.804 64.9909 109.387 65.1673 108.935C65.3423 108.479 65.8144 108.153 66.1933 108.189C66.3842 108.206 66.4414 108.563 66.5007 108.857C66.7157 109.908 67.0154 110.981 67.3538 110.981C67.9512 110.981 69.924 107.195 71.072 107.195C72.4777 107.195 72.6459 113.151 74.5587 113.151C75.1982 113.151 75.6674 112.386 76.0912 111.448C76.1346 109.872 76.5598 107.623 77.8353 107.623C78.729 107.623 79.1549 109.62 78.5147 111.366C78.5133 113.448 79.8729 113.959 80.768 113.959Z" fill="#221C35"/>
</g>
<path d="M110.39 47.2675C110.075 47.2675 109.623 47.2675 109.374 46.772C109.17 46.3655 109.239 45.7101 108.855 45.4173C109.239 45.5296 109.645 45.5296 109.96 45.5296C110.977 45.5296 111.949 44.8302 112.695 44.8302C113.186 44.8302 113.344 45.1465 113.344 45.4614C113.345 46.4557 111.34 47.2675 110.39 47.2675ZM110.886 49.8177C113.231 49.8177 115.378 47.9448 115.378 46.2979C115.378 45.5296 115.016 44.8984 114.091 44.7854C114.248 44.9887 114.316 45.1465 114.316 45.5076C114.316 46.7493 112.424 48.126 110.368 48.126C109.623 48.126 109.397 48.6442 109.397 48.915C109.397 49.5476 110.007 49.8177 110.886 49.8177ZM110.707 50.7659C111.001 52.9089 114.248 55.7982 115.128 55.73C115.717 55.6804 115.942 52.9317 115.942 50.7659C115.942 49.5249 116.01 48.554 115.355 48.3279C114.315 50.4276 111.588 50.8562 110.707 50.7659Z" fill="#221C35"/>
<path d="M59.912 64.96C60.6783 64.96 60.5205 60.2653 61.7615 60.2653C62.0558 60.2653 62.146 60.5589 62.146 60.92C62.146 61.9805 61.6265 63.5385 61.6265 64.395C61.6265 64.8243 61.7395 64.96 61.9428 64.96C62.4851 64.96 63.4325 59.7913 64.3573 59.7913C64.6508 59.7913 64.7859 60.0848 64.7859 60.3784C64.7859 61.4616 63.4105 64.5755 63.4105 65.4555C63.4105 65.5912 63.4546 65.7035 63.5683 65.7035C64.1326 65.7035 65.2607 63.267 65.621 62.0487C65.8243 61.4161 66.0951 61.0771 66.3439 61.0771C66.5692 61.0771 66.7732 61.3258 66.7732 61.8454C66.7732 63.0637 65.6438 65.9295 64.6508 67.8486C63.8846 69.3377 62.6883 71.48 62.6883 72.6763C62.6883 73.2861 62.7993 73.9173 63.6799 74.6849C62.2356 74.5947 61.6492 74.4596 61.1083 73.3316C58.6931 78.1379 65.5535 77.6645 63.2065 81.9278C62.7772 81.1623 59.3932 80.3719 59.3932 75.9039C59.3932 72.0451 62.7772 69.7884 62.7772 68.187C62.7772 67.8714 62.6656 67.6006 62.372 67.3525C61.6265 66.7192 61.6037 66.2017 61.0173 66.2017C60.5894 66.2017 60.0685 67.194 60.6108 68.0739C60.792 68.3675 60.9498 68.548 60.9498 68.8188C60.9498 69.45 59.9561 71.1417 59.2574 71.1417C58.5573 71.1417 58.0171 69.4066 58.0171 66.6069C58.0171 64.1235 58.5801 61.6201 59.2802 61.6201C59.4828 61.6201 59.5503 61.7551 59.5503 61.9364C59.5503 62.2299 59.4607 62.8156 59.4607 63.8086C59.4607 64.8691 59.7088 64.96 59.912 64.96Z" fill="#221C35"/>
<path d="M65.6655 71.5712C66.6143 71.5712 67.4033 70.8704 67.4033 69.3158V67.0129C67.4033 66.133 67.4715 65.1407 68.0586 64.4399C67.9904 64.7342 67.9904 65.0498 67.9904 65.3433C67.9904 67.2844 69.0729 68.6164 69.0729 70.4886C69.0729 71.1874 68.8697 71.5719 68.3294 71.5719C67.8099 71.5719 67.8553 71.0978 67.7417 71.0978C67.6521 71.0978 67.5163 71.3906 67.5163 71.7069C67.5163 72.181 67.8547 72.9252 68.8021 72.9252C69.6152 72.9252 70.2685 72.181 70.2685 71.3458C70.2685 69.3165 68.6891 67.0584 68.6891 64.8927C68.6891 63.9445 68.9372 63.3133 69.1405 62.8158C69.1405 67.3072 72.9538 70.5789 72.9538 72.4511C72.9538 72.8804 72.6382 73.2194 72.1641 73.2194C71.6453 73.2194 71.3965 72.8122 71.3965 72.4959C71.3965 72.3381 71.3738 72.2933 71.3062 72.2933C71.1719 72.2933 70.7653 72.7447 70.7653 73.3325C70.7653 74.076 71.3738 74.98 72.5025 74.98C73.7876 74.98 74.4877 73.8954 74.4877 72.9252C74.4877 70.5569 69.8619 66.9681 69.8619 63.1328C69.8619 62.4774 69.9736 61.417 70.449 60.6052C67.4702 62.5222 66.5454 65.0732 66.5454 67.3072C66.5454 69.2483 66.4779 70.2171 65.4849 70.2171C64.9654 70.2171 64.8303 69.7444 64.6491 69.7444C64.514 69.7444 64.4458 70.1503 64.4458 70.2626C64.4472 71.0971 65.057 71.5712 65.6655 71.5712Z" fill="#221C35"/>
<path d="M99.8535 46.1621C100.14 45.9699 101.412 46.2745 103.057 45.4614C103.26 45.3504 103.463 45.3049 103.643 45.3049C104.435 45.3049 104.231 46.2069 104.954 46.2069C105.517 46.2069 106.241 45.7328 106.671 45.7328C107.343 45.7328 108.314 47.8545 108.314 48.8475C108.314 49.9982 106.58 50.6983 104.525 50.6983C101.525 50.6983 99.7178 48.0805 99.7178 46.3875C99.7185 46.2524 99.7867 46.2069 99.8535 46.1621ZM104.774 49.028C105.767 49.028 106.512 48.5767 106.512 48.3052C106.512 48.2163 106.377 48.1481 106.083 48.1481C105.789 48.1481 105.202 48.126 104.095 47.9448C103.146 47.787 102.424 47.4259 102.153 47.4259C102.063 47.4259 102.017 47.4707 102.017 47.5382C102.017 48.126 103.102 49.028 104.774 49.028Z" fill="#221C35"/>
<path d="M66.1394 80.0785C65.3952 80.2597 64.1982 81.4311 64.1982 83.284C64.1982 85.4939 66.568 88.9028 70.4716 88.9028C73.7654 88.9028 74.5785 86.6233 74.5785 85.0873C74.5785 81.6806 72.4809 79.2881 69.7508 79.2881C68.261 79.2881 66.929 80.3713 66.929 81.9727C66.929 83.4639 68.0578 85.6972 70.7424 85.6972C72.0062 85.6972 72.7504 84.7931 72.7504 83.7581C72.7504 82.7417 71.8256 81.3436 70.4709 81.3436C70.065 81.3436 69.7722 81.6117 69.7722 82.0423C69.7722 82.5826 70.5157 83.1255 71.4418 83.1255C71.6664 83.1255 71.8477 83.0801 71.9386 83.0346C71.9827 83.1042 72.0062 83.2158 72.0062 83.3061C72.0062 83.8256 71.5093 84.1419 70.7424 84.1419C69.5916 84.1419 68.4857 83.2847 68.4857 81.9279C68.4857 81.1176 69.1858 80.5312 70.2008 80.5312C72.2087 80.5312 73.4043 82.3131 73.4043 84.0971C73.4043 85.6979 72.5257 86.6247 70.7197 86.6247C67.1089 86.624 65.3504 83.3736 66.1394 80.0785Z" fill="#221C35"/>
<path d="M91.899 93.3004C92.9815 93.3004 92.925 93.2101 93.264 93.2101C93.6017 93.2101 93.6251 93.4134 93.6251 93.5492C93.6251 94.046 92.5184 94.6551 90.5553 94.6551C89.4045 94.6551 88.7044 94.0453 88.5018 93.3686C87.3738 94.0908 85.6594 94.7454 83.9663 94.7454C79.3412 94.7454 78.1677 92.7354 76.7228 92.0828C75.6168 91.586 73.9244 92.5569 71.5547 89.9164C71.871 89.9846 72.3003 90.0066 72.6386 90.0066C74.7134 90.0066 75.8194 88.993 75.8194 87.3668C75.8194 87.1628 75.7966 86.9395 75.7739 86.737C76.4065 86.985 77.8515 88.0669 78.1905 89.9846C78.2346 90.2106 79.1593 90.4132 79.7464 90.4132C80.5595 90.4132 81.5973 90.0741 81.7551 88.7442C84.4631 88.5189 86.2919 86.9175 86.6758 84.884C87.6446 85.2003 88.7506 86.0803 89.0214 86.533C89.4052 86.3979 89.8558 86.3297 90.3747 86.3297C91.0969 86.3297 91.91 86.4655 92.8795 86.759C92.925 86.4655 92.9698 86.1044 93.4218 86.1044C94.0985 86.1044 93.9179 86.8493 94.144 87.2758C94.257 87.5018 94.822 87.6369 94.822 88.0889C94.822 88.5189 94.4589 88.6774 94.2335 88.6774C94.1433 88.6774 94.0303 88.6547 93.962 88.6326C93.5114 88.7904 93.488 92.038 91.593 92.038C90.1949 92.038 88.9084 90.8873 88.3433 89.4443C88.1855 89.0157 87.8472 88.7442 87.5309 88.7442C87.1705 88.7442 86.9672 88.8125 86.5393 89.2865C85.321 90.6165 83.2896 91.7672 80.7849 91.7672C80.0172 91.7672 79.4081 91.6983 79.2496 91.6983C79.1586 91.6983 79.1586 91.721 79.1586 91.7431C79.1586 91.9016 79.9256 92.5114 81.5959 92.5114C85.5677 92.5114 86.5386 90.2767 87.1698 90.2767C87.2615 90.2767 87.5302 90.2767 87.688 90.6385C88.6148 92.8036 90.6352 93.3004 91.899 93.3004ZM90.1494 88.7904C90.1494 89.2872 90.5559 89.6938 91.0528 89.6938C91.5496 89.6938 91.9555 89.2872 91.9555 88.7904C91.9555 88.2929 91.5496 87.8863 91.0528 87.8863C90.5559 87.8863 90.1494 88.2929 90.1494 88.7904Z" fill="#221C35"/>
<path d="M108.021 77.5282C107.704 77.5282 107.366 77.777 107.366 78.3875C107.366 79.0621 107.886 79.4921 108.179 79.6264C108.337 79.7181 108.586 79.8084 108.832 79.8084C109.487 79.8084 110.007 79.6264 110.007 79.0841C110.007 78.3875 108.99 77.5282 108.021 77.5282ZM105.586 78.9263C105.112 78.9263 102.491 82.4241 100.802 82.4241C100.396 82.4241 100.057 81.6571 100.057 81.0728C100.057 80.7565 100.26 80.5305 100.984 80.3713C104.864 79.4914 104.006 76.5793 107.32 76.5793C109.147 76.5793 111.182 77.8224 111.182 80.6194C111.182 83.5983 106.942 87.2979 106.309 87.2979C105.79 87.2979 105.225 86.5537 105.225 86.0576C105.225 85.8998 105.293 85.6965 105.745 85.516C107.908 84.6574 109.148 82.6722 109.148 81.6558C109.148 81.4297 109.036 81.2065 108.742 81.2065C108.359 81.2065 106.716 84.9509 104.886 84.9509C103.62 84.9509 102.333 83.8029 102.333 83.2599C102.333 82.3559 105.993 80.6876 105.993 79.4225C105.992 78.9477 105.767 78.9263 105.586 78.9263Z" fill="#221C35"/>
<path d="M60.9269 49.3443C60.9269 49.3443 60.273 49.8397 59.4606 49.8397C58.4911 49.8397 57.7234 49.1183 57.7234 48.1026C57.7234 47.4025 58.0845 46.681 58.919 46.3192C58.8969 46.455 58.8969 46.5673 58.8969 46.7031C58.8962 47.9903 59.6184 48.9598 60.9269 49.3443ZM65.756 53.6772C65.2598 54.2629 64.7403 55.2566 64.7403 56.2716C64.7403 57.4899 65.4859 58.5049 66.6366 58.5049C67.7419 58.5049 68.2615 57.5574 68.2615 56.5879C68.2615 55.076 66.8847 54.0142 65.756 53.6772ZM58.265 54.5792C58.2223 54.6488 58.1968 54.7377 58.1968 54.828C58.1968 55.0312 58.4228 55.2566 58.6247 55.2566C58.8053 55.2566 58.9183 55.2118 59.0086 55.2118C59.5495 55.2118 60.1593 55.5949 61.0393 55.5949C61.5574 55.5949 62.1673 55.4364 62.9342 55.054C64.5591 54.2409 65.1916 52.2329 65.1916 51.8939C65.1916 51.4646 64.8471 51.5211 64.5591 51.1262C64.271 50.7328 64.3813 50.3848 64.198 50.2008C64.0939 50.0954 63.7701 50.0885 63.3628 50.043C63.2271 50.0285 63.0465 50.0203 62.866 50.0203C62.1225 50.0203 61.2398 50.1119 60.2489 50.7431C58.2919 51.9924 58.5799 54.0603 58.265 54.5792ZM63.5675 51.7809C63.7239 51.9938 64.1553 52.2556 64.1553 52.4134C64.1553 52.7283 63.9733 53.1356 63.613 53.1356C62.8226 53.1356 62.1914 51.9393 62.1914 51.2613C62.1914 50.8334 62.4402 50.7886 62.7778 50.7886C62.9356 50.7886 63.0038 50.8113 63.1161 50.8789C63.3187 50.9919 63.3187 51.4425 63.5675 51.7809ZM61.4906 54.5344C60.7464 54.5344 59.934 53.6097 59.934 52.7738C59.934 52.3232 60.2723 51.7581 60.5204 51.7581C60.6107 51.7581 60.6561 51.8263 60.6782 51.9848C60.8132 53.0901 61.5361 53.7227 62.2134 54.0376C62.281 54.0824 62.3265 54.1051 62.3265 54.1499C62.3265 54.3084 61.8972 54.5344 61.4906 54.5344ZM63.4097 48.8475C63.522 48.4857 63.6123 48.0357 63.6123 47.5382C63.6123 46.4557 63.1148 44.8081 61.5809 44.8081C60.7016 44.8081 60.0684 45.5075 60.0684 46.3427C60.0684 48.126 61.8517 48.8475 63.4097 48.8475ZM57.5649 57.8737C57.5649 59.5881 58.0845 60.4012 59.0092 60.4012C59.7314 60.4012 60.7016 59.8816 61.8517 58.8887C60.9724 59.092 60.2944 59.2277 59.6859 59.2277C58.8735 59.2277 58.2423 58.9114 57.5649 57.8737ZM58.3553 55.865C58.3333 55.9787 58.3333 56.091 58.3333 56.2033C58.3333 57.2638 58.8962 57.8509 59.6411 57.8509C60.2034 57.8509 60.8594 57.5126 61.4444 56.767C61.1977 56.8118 60.9035 56.8345 60.6327 56.8345C59.7989 56.8345 58.8962 56.6099 58.3553 55.865ZM63.8838 55.5494C63.3635 55.6845 62.281 56.3164 62.281 57.4444C62.281 58.2561 62.9122 58.7764 63.7025 58.7764C64.1091 58.7764 64.402 58.6854 64.5825 58.5503C63.9513 57.9412 63.7253 57.2638 63.7253 56.5879C63.7253 56.1131 63.7928 55.8202 63.8838 55.5494ZM64.6955 49.3663C64.6955 49.8625 65.1014 50.2697 65.5975 50.2697C66.0943 50.2697 66.5009 49.8632 66.5009 49.3663C66.5009 48.8702 66.0943 48.463 65.5975 48.463C65.1014 48.463 64.6955 48.8702 64.6955 49.3663ZM65.8683 51.397C65.8683 51.8939 66.2755 52.3004 66.7731 52.3004C67.2685 52.3004 67.6751 51.8939 67.6751 51.397C67.6751 50.9016 67.2685 50.495 66.7731 50.495C66.2749 50.495 65.8683 50.9016 65.8683 51.397Z" fill="#221C35"/>
<path d="M101.074 62.4768C101.074 62.0261 101.481 61.6423 101.926 61.6423C102.424 61.6423 102.808 62.0261 102.808 62.4768C102.808 62.9957 102.423 63.3574 101.926 63.3574C101.481 63.3574 101.074 62.9957 101.074 62.4768ZM93.151 55.5268C93.151 56.0229 93.5583 56.4295 94.053 56.4295C94.5512 56.4295 94.9578 56.0229 94.9578 55.5268C94.9578 55.0313 94.5505 54.6248 94.053 54.6248C93.5583 54.6248 93.151 55.0313 93.151 55.5268ZM92.3848 58.7082C92.3848 59.4083 92.9698 59.9941 93.6706 59.9941C94.3693 59.9941 94.9578 59.4083 94.9578 58.7082C94.9578 58.0095 94.3693 57.4217 93.6706 57.4217C92.9698 57.4217 92.3848 58.0095 92.3848 58.7082ZM95.2286 57.2639C95.2286 58.0323 95.8384 58.6407 96.6012 58.6407C97.3682 58.6407 97.9801 58.0323 97.9801 57.2639C97.9801 56.497 97.3682 55.8879 96.6012 55.8879C95.8384 55.8879 95.2286 56.497 95.2286 57.2639ZM95.3423 54.3305C95.3423 54.8053 95.7261 55.1898 96.1954 55.1898C96.6694 55.1898 97.0533 54.8053 97.0533 54.3305C97.0533 53.8578 96.6687 53.474 96.1954 53.474C95.7261 53.474 95.3423 53.8578 95.3423 54.3305ZM99.4251 52.1655C99.4251 52.6382 99.8089 53.022 100.284 53.022C100.758 53.022 101.142 52.6382 101.142 52.1655C101.142 51.6907 100.758 51.3069 100.284 51.3069C99.8089 51.3069 99.4251 51.6907 99.4251 52.1655ZM97.7313 54.9411C97.7313 55.7301 98.3859 56.384 99.1763 56.384C99.9674 56.384 100.623 55.7301 100.623 54.9411C100.623 54.15 99.968 53.4968 99.1763 53.4968C98.3859 53.4968 97.7313 54.15 97.7313 54.9411ZM95.4091 60.2208C95.4091 60.7176 95.8157 61.1228 96.3084 61.1228C96.8052 61.1228 97.2124 60.7176 97.2124 60.2208C97.2124 59.7239 96.8052 59.3181 96.3084 59.3181C95.8157 59.3181 95.4091 59.7239 95.4091 60.2208ZM98.3639 58.4147C98.3639 58.9115 98.7697 59.3181 99.2679 59.3181C99.7641 59.3181 100.171 58.9115 100.171 58.4147C100.171 57.9193 99.7641 57.5127 99.2679 57.5127C98.7697 57.5127 98.3639 57.9193 98.3639 58.4147ZM97.5287 61.5969C97.5287 62.4541 98.2281 63.1542 99.0867 63.1542C99.9446 63.1542 100.646 62.4541 100.646 61.5969C100.646 60.7396 99.9446 60.0395 99.0867 60.0395C98.2281 60.0395 97.5287 60.7396 97.5287 61.5969ZM100.78 59.6778C100.78 60.2656 101.255 60.7396 101.838 60.7396C102.425 60.7396 102.899 60.2656 102.899 59.6778C102.899 59.0921 102.425 58.618 101.838 58.618C101.255 58.618 100.78 59.0921 100.78 59.6778ZM100.712 56.8347C100.712 57.3549 101.142 57.7835 101.656 57.7835C102.176 57.7835 102.605 57.3549 102.605 56.8347C102.605 56.3165 102.176 55.8879 101.656 55.8879C101.142 55.8879 100.712 56.3165 100.712 56.8347Z" fill="#221C35"/>
<path d="M103.011 86.4427C102.424 86.8947 101.051 87.9084 98.7697 87.9084C97.5507 87.9084 97.0084 87.5246 96.8279 87.5246C96.6019 87.5246 96.3538 87.7499 96.1051 88.0441C95.569 88.6767 94.8682 89.8502 94.8682 91.1353C94.8682 92.0373 95.569 92.9386 96.8727 92.9386C101.097 92.9386 104.253 90.2995 104.253 88.1571C104.253 86.9395 103.531 86.4427 103.011 86.4427ZM101.837 86.1946C102.02 86.0389 102.063 85.7888 102.063 85.5393V85.0205C102.063 84.3651 101.074 83.9834 99.7186 83.9834C98.0696 83.9834 97.189 84.7262 97.189 85.0432V86.0809C97.189 86.5109 98.1833 86.9395 99.403 86.9395C100.374 86.9395 101.255 86.6915 101.837 86.1946ZM101.656 88.4286C101.769 88.4286 101.904 88.4955 101.904 88.9027C101.904 89.3982 101.679 90.0521 100.87 90.5703C100.306 90.9555 99.5373 91.2717 98.4086 91.2917C98.5892 90.7522 98.7249 90.1865 98.7249 89.6476C98.7249 89.4664 98.7029 89.3306 98.6801 89.128H98.9737C100.758 89.1287 101.526 88.4286 101.656 88.4286Z" fill="#221C35"/>
<path d="M93.0376 60.8533C93.2856 62.7703 95.8607 61.8001 95.8607 64.1236C95.8607 64.4626 95.7704 64.9602 95.7704 65.3881C95.7704 65.8849 95.8145 66.3135 96.1949 66.3135C96.578 66.3135 96.669 66.0434 96.669 65.6816C96.669 65.3199 96.578 64.8692 96.578 64.6211C96.578 63.8308 97.1431 63.6509 97.4828 63.6509C98.3407 63.6509 98.9953 64.5309 100.283 64.5309C99.989 65.9752 97.008 65.5914 97.008 67.1714C97.008 67.9618 97.7984 68.1409 98.3179 68.1409C98.792 68.1409 98.9505 68.0734 98.9505 67.6682C98.9505 67.4415 98.905 67.1935 98.905 67.0357C98.905 66.9447 98.9733 66.8544 99.0863 66.8544C99.5845 66.8544 102.017 68.7053 102.017 69.2703C102.017 69.7885 99.4473 70.3074 98.7024 70.3074C98.4764 70.3074 98.431 70.1496 98.431 70.0593C98.431 69.9015 98.8148 69.4274 98.8148 69.1573C98.8148 68.954 98.4764 68.8183 97.5724 68.8183C97.1431 68.8183 96.8268 68.8638 96.8268 69.2028C96.8268 69.8106 97.8204 70.5561 97.8204 71.1191C97.8204 71.5712 97.5496 71.842 96.8268 71.842C96.2169 71.842 95.295 71.3672 95.295 70.5782C95.295 69.9463 95.9461 69.3158 95.9461 68.9313C95.9461 68.8183 95.86 68.6378 95.5892 68.6378C94.7527 68.6378 94.5273 70.8483 91.5698 71.0971C92.0439 70.6685 92.4491 70.1944 92.4491 69.2255C92.4491 68.7515 92.3375 68.367 92.3375 67.8488C92.3375 67.1714 92.6524 66.8324 93.1037 66.8324C93.9382 66.8324 94.3447 68.0052 94.8884 68.0052C95.1826 68.0052 95.4982 67.7358 95.4982 67.3292C95.4982 65.6141 92.2024 65.8622 92.2024 63.4476C92.2031 62.793 92.4277 61.9806 93.0376 60.8533ZM103.801 67.465C103.801 68.0279 103.983 68.6825 104.547 68.6825C105.021 68.6825 105.427 67.9618 105.427 67.1714C105.427 66.2687 105.269 65.5686 105.269 65.2068C105.269 65.0497 105.338 64.9822 105.427 64.9822C105.766 65.005 106.082 65.9297 106.444 65.9297C106.851 65.9297 107.456 65.1841 107.704 65.1841C107.772 65.1841 107.794 65.2751 107.794 65.2971C107.794 65.6361 107.275 66.3817 107.275 66.6746C107.275 66.9226 108.584 66.9674 108.584 67.1935C108.584 67.5325 107.211 67.5325 106.557 67.826C105.925 68.0961 105.539 68.4345 105.539 68.8865C105.539 69.3379 105.991 69.4274 106.624 69.4274C108.132 69.4274 109.193 68.6157 109.531 68.6157C109.599 68.6157 109.644 68.6598 109.644 68.728C109.644 68.954 108.877 69.6982 108.877 70.0373C108.877 70.4204 110.277 70.8704 110.254 71.0971C110.232 71.1646 110.141 71.1866 109.983 71.1866C109.734 71.1866 109.351 71.1191 109.056 71.1191C108.876 71.1191 108.718 71.1412 108.649 71.2314C108.493 71.4127 108.695 72.6089 108.381 72.6089C108.086 72.6089 107.319 69.9463 105.585 69.9463C105.336 69.9463 105.156 70.1496 105.156 70.4879C105.156 71.3899 106.036 72.4277 106.872 72.9245C107.25 73.1733 107.884 73.4213 107.884 73.5578C107.884 73.8272 106.443 73.5798 106.443 74.0305C106.443 74.437 106.623 75.0475 106.623 75.4072C106.623 75.5202 106.601 75.6546 106.466 75.6546C106.195 75.6546 105.539 74.4143 105.223 74.4143C104.952 74.4143 104.365 75.1585 104.117 75.1585C104.049 75.1585 104.004 75.091 104.004 75.0241C104.004 74.5045 104.84 73.3317 104.84 72.1803C104.84 71.6387 104.772 70.4652 104.117 70.4652C103.575 70.4652 102.964 71.3224 102.694 72.1803C102.536 72.6764 102.649 74.5948 102.287 74.5948C101.949 74.5948 102.039 73.309 101.586 73.309C101.253 73.309 100.531 73.9175 100.282 73.9175C100.236 73.9175 100.191 73.8947 100.191 73.8499C100.191 73.5798 100.846 72.6992 100.846 72.5186C100.846 72.1803 99.3557 72.1355 99.3557 71.8647C99.3557 71.7062 99.9428 71.5939 100.484 71.5029C101.632 71.2997 103.325 70.4652 103.325 69.2924C103.325 67.9838 102.061 67.4188 101.23 66.8772C100.801 66.6064 100.327 66.3817 100.327 66.2012C100.327 66.02 100.868 66.02 101.094 66.02C101.433 66.02 101.767 65.9972 101.767 65.7271C101.767 65.5231 101.722 65.118 101.722 64.8017C101.722 64.5757 101.744 64.3951 101.836 64.3951C102.174 64.3951 102.648 65.5004 102.875 65.5004C103.235 65.5004 103.732 64.5977 104.072 64.5977C104.183 64.5977 104.23 64.6659 104.23 64.8685C104.231 65.7037 103.801 66.6512 103.801 67.465Z" fill="#221C35"/>
<path d="M93.6926 73.7139C94.7317 73.8496 94.9805 74.21 94.9805 74.5043C94.9805 75.0011 94.5285 75.1582 94.0985 75.1582C93.7836 75.1582 93.4218 75.0907 93.038 75.0907C92.5405 75.0907 92.045 75.2037 91.6392 75.6778C91.932 75.7226 92.3613 75.9265 92.3613 76.3786C92.3613 77.6871 88.7285 76.6025 88.7285 79.9666C88.7285 81.7485 90.5794 83.6903 93.3763 83.6903C94.8227 83.6903 95.7481 83.2163 95.7481 82.6733C95.7481 82.2453 94.9812 82.5375 94.9812 82.1764C94.9812 82.0186 95.252 81.7244 95.252 81.475C95.252 81.3661 95.1617 81.1614 94.9812 81.1614C94.5733 81.1614 93.8056 81.814 92.2483 81.814C91.0293 81.814 89.8331 81.1166 89.8331 80.1678C89.8331 79.9652 89.9241 79.8515 90.0591 79.8515C90.1949 79.8515 90.3747 79.9424 90.5332 79.9424C90.669 79.9424 90.691 79.8515 90.691 79.6041C90.691 79.3554 90.691 78.6553 91.1189 78.6553C91.5489 78.6553 92.3613 80.2353 95.4773 80.2353C96.5116 80.2353 98.5217 80.0334 99.2672 79.3554C99.2445 81.8381 97.3013 85.1098 93.2413 85.1098C89.0214 85.1098 86.7646 81.7244 86.7646 78.6098C86.7646 75.1582 89.5843 72.0222 93.4445 72.0222C94.4361 72.0222 95.2734 72.3599 95.2734 72.7892C95.2727 73.3769 93.8049 73.0152 93.6926 73.7139ZM100.621 74.9115C100.779 75.1582 100.847 75.407 100.847 75.6323C100.847 76.2649 100.418 76.8513 100.418 77.5066C100.418 78.2508 100.983 78.8592 101.837 78.8592C102.762 78.8592 103.395 78.1164 103.395 77.2351C103.395 76.0388 102.311 75.0238 100.621 74.9115ZM93.1503 76.3551C93.3749 76.5798 93.4439 76.8058 93.4439 77.0318C93.4439 77.3701 93.2861 77.7319 93.2861 78.1157C93.2861 78.6553 93.6926 79.13 94.2783 79.13C94.9116 79.13 95.3416 78.6325 95.3416 78.0482C95.3416 77.1903 94.4582 76.3551 93.1503 76.3551ZM96.1499 72.5183C98.521 72.9697 99.8082 74.753 99.8082 76.4233C99.8082 77.5748 99.086 78.6332 97.8209 78.6332C96.6687 78.6332 95.8377 77.8442 95.8377 76.5805C95.8377 75.633 96.5778 74.64 96.5778 73.6691C96.5778 73.286 96.4655 72.9022 96.1499 72.5183ZM97.324 75.52C97.324 75.8356 97.5501 76.0843 97.8663 76.0843C98.2267 76.0843 98.4534 75.768 98.4534 75.407C98.4534 74.9336 98.0241 74.2789 97.6176 74.2789C97.4364 74.2789 97.5046 74.5497 97.4598 74.8433C97.4364 75.0679 97.324 75.3387 97.324 75.52Z" fill="#221C35"/>
<path d="M72.4137 52.3003C73.1806 52.3003 74.0599 48.148 74.0599 47.4479C74.0599 47.2673 73.9931 47.1316 73.8353 47.1316C73.1352 47.1316 72.1656 51.0814 72.1656 51.962C72.1649 52.1198 72.2097 52.3003 72.4137 52.3003ZM77.9422 53.5414C78.5051 53.5414 79.137 51.3742 79.137 50.0202C79.137 49.7266 79.0922 49.4117 78.9558 49.4117C78.4817 49.4117 77.692 51.6457 77.692 52.864C77.6927 53.3381 77.8064 53.5414 77.9422 53.5414ZM74.2618 51.5327C74.5099 51.5327 74.8262 51.2605 75.4146 50.608C75.4587 50.3144 75.4587 50.0429 75.4587 49.7046C75.4587 49.2539 75.2782 48.7571 75.0081 48.7571C74.33 48.7571 73.9924 50.5625 73.9924 51.0373C73.9931 51.3067 74.1274 51.5327 74.2618 51.5327ZM77.3544 50.608C77.3544 50.2235 77.2634 50.1332 77.1738 50.1332C76.9478 50.1332 76.7004 50.4047 76.3394 51.0138C76.3842 51.8262 76.5199 52.1873 76.7452 52.1873C76.9933 52.1873 77.3544 51.397 77.3544 50.608ZM79.0922 47.9447C80.582 47.9447 81.258 49.2312 81.258 50.6755C81.258 51.3067 81.0788 52.2328 80.7853 52.2328C80.4917 52.2328 80.5372 51.7132 80.4917 51.2392C80.4469 50.63 80.3333 50.495 80.13 50.495C79.7462 50.495 79.4988 51.397 79.4988 52.2328C79.4988 52.751 79.5891 53.3381 79.9942 53.3381C80.2202 53.3381 80.4235 53.2251 80.5593 53.09C80.469 54.1271 79.7007 55.0311 78.6181 55.0311C76.6322 55.0311 75.8873 52.7062 75.6627 51.3522C74.4665 52.6159 73.3612 53.5414 71.3746 53.5414C69.5251 53.5414 68.6899 52.1873 68.6899 50.9015C68.6899 50.517 68.825 49.5247 69.2998 49.5247C69.8634 49.5247 69.3673 51.3742 70.4726 51.3742C70.7441 51.3742 71.2388 51.1482 71.511 50.4047C71.6688 49.9527 71.7591 49.4799 71.7591 49.0727C71.7591 48.4629 71.624 48.0804 71.1727 48.0804C70.7882 48.0804 70.3141 48.3726 70.1563 48.5311C70.6986 46.9062 72.0072 46.0718 73.4494 46.0718C75.2341 46.0718 76.1809 47.6511 76.1809 49.4117C76.1809 49.6591 76.1581 49.9299 76.1127 50.1787C76.8803 48.9149 77.9422 47.9447 79.0922 47.9447Z" fill="#221C35"/>
<path d="M74.8722 54.0142C73.902 54.0142 73.8572 55.1897 73.8572 57.5574C73.1343 56.0008 71.9395 54.3304 70.54 54.3304C69.5925 54.3304 69.2321 54.963 69.2321 56.0676C69.2321 56.2936 69.2542 56.6326 69.2996 56.8345C69.4126 56.4521 69.7737 56.2936 70.2244 56.2936C71.196 56.2936 72.3688 57.0378 73.1357 58.0542C72.2565 57.8964 71.3986 57.7379 70.6771 57.7379C70.2251 57.7379 69.8192 57.7834 69.4809 57.9412C68.8262 58.2341 67.9463 59.205 67.9463 60.672C67.9463 60.898 67.969 61.1454 68.0145 61.4162C68.8042 59.6556 70.9024 58.8659 72.2565 58.8659C72.528 58.8659 72.7299 58.8887 72.8883 58.9114C72.1882 59.5426 72.0311 60.6486 71.985 61.3935C71.9636 61.7545 71.8272 61.778 71.5784 61.778C71.5784 62.5215 72.1662 63.6281 72.1662 64.1918C72.1662 64.3951 72.0532 64.5756 71.9409 64.6211C71.9409 65.6141 72.9324 66.3362 72.9324 66.9674C72.9324 67.1252 72.8883 67.261 72.8194 67.3292C72.8883 67.7357 73.9798 68.4186 74.1211 68.7611C74.2947 69.1773 74.4898 69.2476 74.6028 69.2476C74.9866 69.2476 75.5943 68.7955 75.5943 68.389C75.5943 68.2539 75.4813 68.0961 75.3924 68.0279C74.9631 67.713 74.7371 67.0356 74.5566 66.585C74.3981 66.585 74.1941 66.5181 74.1225 66.2521C73.9991 65.785 73.9929 64.9146 73.8124 64.3951C73.5188 64.3276 73.3831 64.2145 73.3831 63.6054C73.3831 63.3119 73.5643 62.1604 73.5643 61.7539C73.4293 61.7539 73.2487 61.6636 73.2487 61.3928C73.2487 60.6713 73.9716 60.107 74.1735 59.1822C75.46 60.129 75.7749 61.0992 75.7749 61.9578C75.7749 62.4078 75.7073 62.8371 75.6171 63.2443C76.5652 62.7696 77.9868 62.0701 77.9868 60.6486C77.9868 59.8127 77.603 58.888 75.0527 58.5269C75.8424 58.2334 76.8361 58.0763 77.6705 58.0763C79.1155 58.0763 79.95 58.5269 80.1298 59.5419C80.4234 59.0913 80.6494 58.5717 80.6494 58.0983C80.6494 56.9917 79.7233 56.2709 78.5505 56.2709C77.1737 56.2709 75.9554 56.9917 74.6462 57.873C75.2346 56.6547 75.6384 55.9325 76.362 55.9325C76.4743 55.9325 76.5873 55.9553 76.7003 55.978C76.4295 54.9858 75.4145 54.0142 74.8722 54.0142Z" fill="#221C35"/>
<path d="M112.893 70.2844C114.023 70.2844 114.926 71.7508 114.926 73.4666C114.926 75.294 114.067 77.2806 112.537 78.6333C112.514 75.5876 108.786 76.5578 108.786 74.3472C108.786 73.3997 109.465 72.7672 110.278 72.7672C111.001 72.7672 111.565 72.9704 111.972 73.3777C111.565 72.9932 111.362 72.4509 111.362 71.9327C111.362 71.0734 111.904 70.2844 112.893 70.2844Z" fill="#221C35"/>
<path d="M92.7441 48.8476C93.3319 49.412 93.8494 49.6594 94.482 49.6594C94.7314 49.6594 95.0256 49.5925 95.1841 49.5925C95.3874 49.5925 95.5218 49.6821 95.5218 49.8399C95.5218 50.0886 95.2958 50.4952 95.0256 50.7212C95.2958 50.8335 95.59 50.879 95.9063 50.879C97.188 50.879 98.6557 50.0659 98.6557 48.0359C98.9279 48.3956 99.0857 49.1412 99.0857 49.4802C99.0857 51.9395 97.2782 52.887 95.612 52.887C94.5281 52.887 93.9851 52.5252 93.8487 52.5252C93.4208 52.5252 93.4435 53.3838 93.15 53.3611C92.6304 53.2708 92.1577 52.12 92.1577 50.9018C92.1584 50.1789 92.3389 49.412 92.7441 48.8476ZM96.1502 47.2C95.9697 46.9065 95.2958 46.7494 94.9809 46.7494C93.9858 46.7494 93.3085 47.4481 93.1734 48.0807C93.0831 47.8547 93.0156 47.5839 93.0156 47.313C93.0156 46.3201 93.693 45.1018 95.3426 45.1018C96.7828 45.1018 97.3471 45.8687 97.5511 45.8687C97.7764 45.8687 98.0025 45.6427 98.1837 45.6427C98.4317 45.6427 98.4317 46.0265 98.4317 46.298C98.4317 47.2 98.0245 48.7574 97.0088 49.3217C96.8276 48.9379 96.4665 48.5086 95.8835 48.2385C95.7257 48.1709 95.6582 48.0359 95.6582 47.9001C95.6575 47.6514 95.8829 47.3351 96.1502 47.2Z" fill="#221C35"/>
<path d="M77.061 42.2803C77.061 43.07 79.8814 46.9288 80.4237 46.9288C80.8757 46.9288 81.2134 46.1392 81.2134 45.4611C81.2134 45.282 81.1679 45.1021 81.079 44.9657C80.6724 44.4013 77.8066 42.1446 77.174 42.1446C77.1058 42.1446 77.061 42.2128 77.061 42.2803ZM60.4749 39.9561C60.4749 40.4081 58.7605 41.9193 58.1521 41.9193C57.9267 41.9193 57.8578 41.6492 57.8578 41.4011C57.8578 40.9504 58.0611 40.3179 58.3099 40.1139C58.602 39.8431 59.2794 39.7094 59.7983 39.7094C60.1139 39.7094 60.4749 39.7756 60.4749 39.9561ZM81.079 41.2653C81.079 39.9106 77.4179 37.4513 77.3773 36.3915C77.3732 36.2943 77.4262 36.1979 77.5082 36.1117C78.1353 35.4502 80.7393 34.9679 80.7393 34.4042C80.7393 34.112 80.197 34.112 79.9262 34.112C77.8279 34.112 74.7588 34.879 74.7588 35.6232C74.7588 36.3915 77.5117 38.2644 77.5117 39.1898C77.5117 39.4379 77.3539 39.5282 77.1051 39.5282C76.3388 39.5282 74.6685 38.6021 73.8788 38.6021C73.5178 38.6021 73.3813 38.8501 73.3813 39.2126C73.3813 40.2951 74.6678 42.3486 74.6678 42.9563C74.6678 43.0245 74.6451 43.1148 74.5548 43.1148C74.1483 43.1148 72.232 40.8595 71.5539 40.8595C71.3065 40.8595 71.2831 41.1971 71.2831 41.6939V42.4609C71.2831 42.9798 71.2604 43.296 71.0137 43.296C70.4252 43.296 70.1551 41.6492 69.5914 41.6492C69.0043 41.6492 68.8913 44.5819 68.3283 44.5819C67.673 44.5819 68.2374 41.3549 67.6055 41.3549C66.9061 41.3549 66.1157 43.4993 65.6189 43.4993C65.439 43.4993 65.3943 43.3181 65.3943 43.1603C65.3943 42.5064 65.7767 41.4459 65.7767 40.8147C65.7767 40.4977 65.6864 40.3179 65.417 40.3179C64.7162 40.3179 63.1823 41.4459 62.5959 41.4459C62.5057 41.4459 62.3926 41.4011 62.3926 41.3101C62.3926 40.7699 64.852 39.0541 64.852 38.2872C64.852 37.5416 61.4658 38.0391 61.4658 37.1805C61.4658 36.459 63.8824 35.7141 63.8824 34.9693C63.8824 34.3146 61.0159 34.0225 59.9106 34.0225C58.5786 34.0225 57.8571 34.1789 57.8571 34.5627C57.8571 35.1498 60.8815 35.331 60.8815 35.8492C60.8815 36.346 57.7441 37.6773 57.7441 38.4443C57.7441 39.1216 62.1666 38.489 62.1666 39.1898C62.1666 39.9561 58.3092 43.2726 58.3092 44.3786C58.3092 44.6273 58.4897 44.7403 58.7371 44.7403C59.9106 44.7403 62.9556 42.5064 63.7915 42.5064C64.085 42.5064 64.1078 42.8667 64.1078 43.183C64.1078 43.7701 63.9052 44.6721 63.9052 45.3274C63.9052 45.8456 64.0402 46.2067 64.4909 46.2067C65.3274 46.2067 66.093 44.7851 66.6587 44.7851C67.3802 44.7851 66.9516 48.9596 68.0348 48.9596C68.9595 48.9596 69.3427 44.4468 69.9298 44.4468C70.5168 44.4468 70.9916 45.7554 71.5325 45.7554C72.2085 45.7554 71.8929 43.4766 72.6158 43.4766C73.4048 43.4766 75.6615 46.1846 76.6772 46.1846C76.9928 46.1846 77.1051 45.9359 77.1051 45.6196C77.1051 44.4234 75.4362 41.7167 75.4362 40.8595C75.4362 40.6341 75.503 40.5659 75.7511 40.5659C76.631 40.5659 79.2047 41.7842 80.4223 41.7842C80.8316 41.7842 81.079 41.5589 81.079 41.2653ZM78.7313 36.7974C78.7313 37.2032 80.1529 38.0839 80.8082 38.0839C81.1913 38.0839 81.3043 37.5643 81.3043 37.0227C81.3043 36.346 81.0122 36.3233 80.4244 36.3233C79.6795 36.3233 78.7313 36.5266 78.7313 36.7974ZM73.4282 34.4952C73.4282 34.3594 72.7515 34.2237 71.8268 34.2237C70.3597 34.2237 70.563 35.444 69.435 35.444C68.2615 35.444 68.5537 34.1789 67.0646 34.1789C66.1619 34.1789 65.3281 34.3374 65.3281 34.54C65.3281 34.8115 66.3879 34.6984 66.3879 35.444C66.3879 36.233 64.1084 36.459 64.1084 36.9331C64.1084 37.0909 64.2883 37.1584 64.5143 37.1584C65.0118 37.1584 65.8001 36.9331 66.3652 36.9331C66.6815 36.9331 66.975 37 66.975 37.2935C66.975 37.8579 65.7553 38.8736 65.7553 39.3249C65.7553 39.4606 65.8677 39.5061 65.9807 39.5061C66.4327 39.5061 67.2003 38.3547 67.9218 38.3547C69.118 38.3547 68.329 40.9043 68.9823 40.9043C69.659 40.9043 69.3661 38.3988 70.3363 38.3988C71.1274 38.3988 71.7131 40.1366 72.2547 40.1366C72.3904 40.1366 72.5028 40.0243 72.5028 39.8658C72.5028 39.3931 71.8261 38.4215 71.8261 37.7903C71.8261 37.4065 72.0969 37.2253 72.458 37.2253C72.9762 37.2253 73.6763 37.5416 74.0587 37.5416C74.1938 37.5416 74.3295 37.4968 74.3295 37.339C74.3295 36.7974 72.3229 36.211 72.3229 35.5116C72.3236 34.8115 73.4282 34.8115 73.4282 34.4952Z" fill="#221C35"/>
<path d="M113.434 38.1522C113.434 40.1595 111.971 41.6941 109.328 42.1227C109.622 42.1447 109.893 42.1447 110.164 42.1447C113.254 42.1447 114.384 40.7466 114.384 39.5738C114.384 38.9185 114.022 38.3328 113.434 38.1522ZM109.622 40.4303C109.622 38.8282 105.789 38.4217 105.789 38.0613C105.789 37.7684 107.929 37.2709 109.035 37.2482C107.343 35.0824 104.931 35.3084 104.931 34.9246C104.931 34.6986 106.737 34.2465 108.405 34.2465C109.803 34.2465 111.113 34.5628 111.113 35.6233C111.113 36.2111 110.639 36.8209 110.639 37.7222C110.639 38.2191 110.885 38.6477 111.542 38.6477C112.243 38.6477 112.4 37.9035 112.4 37.1124C112.4 36.4592 112.287 35.9623 112.287 35.6461C112.287 34.6986 112.937 34.0674 113.863 34.0674C114.631 34.0674 114.812 34.4043 115.942 34.4043C115.331 34.7668 115.106 35.4214 115.106 35.7363C115.106 36.6852 115.717 37.3391 115.717 39.2802C115.717 42.8441 112.378 44.1079 108.292 44.1079C107.168 44.1079 105.97 44.0176 104.795 43.8378C104.615 43.815 104.57 43.7703 104.57 43.6572C104.57 43.3637 106.174 43.2052 106.174 41.7623C106.174 41.1972 105.993 40.6563 105.993 40.4537C105.993 40.3407 106.083 40.2725 106.174 40.2725C106.512 40.2725 107.191 41.5811 108.451 41.5811C108.786 41.5811 109.622 41.4681 109.622 40.4303ZM113.299 35.4442C113.299 35.7591 113.547 36.0071 113.863 36.0071C114.18 36.0071 114.428 35.7591 114.428 35.4442C114.428 35.1279 114.18 34.8791 113.863 34.8791C113.547 34.8791 113.299 35.1279 113.299 35.4442Z" fill="#221C35"/>
<path d="M111.294 56.2936C111.294 55.8202 110.097 55.7754 109.984 54.4434C109.961 54.2409 109.893 53.8805 109.645 53.8805C109.239 53.8805 109.554 55.1215 109.103 55.1215C108.065 55.1215 107.727 53.0901 107.343 53.0901C107.252 53.0901 107.145 53.1576 107.145 53.4284C107.145 53.6772 107.19 53.835 107.19 54.1272C107.19 54.4214 107.121 54.6247 106.851 54.6247C106.241 54.6247 105.699 53.2024 105.179 53.2024C105.066 53.2024 104.954 53.2706 104.954 53.3836C104.954 53.6544 105.405 54.1499 105.405 54.3986C105.405 54.941 103.937 54.6467 103.937 55.0987C103.937 55.302 104.14 55.3689 104.411 55.3689C104.886 55.3689 105.631 55.167 106.015 55.167C106.241 55.167 106.58 55.2118 106.58 55.5039C106.58 55.8202 105.766 56.2261 105.766 56.5196C105.766 56.6554 105.901 56.7222 106.014 56.7222C106.624 56.7222 107.703 55.6624 108.471 55.6624C108.606 55.6624 108.944 55.7299 108.944 55.9332C108.944 56.2261 108.177 56.7443 108.177 57.1736C108.177 57.2866 108.246 57.4216 108.381 57.4216C108.785 57.4216 109.328 56.3618 110.096 56.3618C110.389 56.3618 110.819 56.4748 111.045 56.4748C111.227 56.4748 111.294 56.3618 111.294 56.2936ZM111.881 67.2382C112.243 66.1109 112.695 65.3198 113.434 64.1015C112.695 63.7191 110.729 62.9053 110.729 61.574C110.729 60.0167 112.67 58.7984 113.073 58.7984C113.254 58.7984 113.299 58.9569 113.299 59.2504C113.299 60.0622 112.915 61.3707 112.915 62.0708C112.915 62.702 113.321 63.3125 113.683 63.3125C114.066 63.3125 115.128 61.9585 115.128 60.6265C115.128 58.234 113.027 57.5126 112.377 57.5126C111.768 57.5126 110.661 58.5049 108.064 58.5049C103.214 58.5049 102.107 53.6999 102.107 51.6003C102.107 51.51 102.129 51.4873 102.152 51.4873C102.265 51.4873 102.74 52.0751 104.275 52.0751C105.065 52.0751 105.788 51.8711 106.94 51.8711C109.643 51.8711 110.841 53.7454 112.512 56.1358C113.523 56.767 115.941 57.7834 115.941 60.6493C115.941 63.1768 113.253 64.5756 112.603 67.2837C113.636 67.1714 114.247 65.3198 115.308 65.3198C115.85 65.3198 116.098 65.7491 116.098 66.4272C116.098 67.4187 115.533 68.9092 114.449 69.8339C114.472 69.7437 114.472 69.63 114.472 69.4949C114.472 68.8637 114.224 67.9617 113.5 67.9617C112.376 67.9617 112.015 69.18 111.383 70.1943C110.728 67.8935 109.847 65.8166 108.268 64.5529C106.67 63.2671 103.913 63.9658 103.913 61.6195C103.913 60.9869 104.321 60.0849 104.321 59.3628C104.321 59.1147 104.275 58.8887 104.139 58.7081C106.307 59.5212 105.539 60.9642 106.873 62.4539C107.703 63.4028 110.006 64.3048 111.338 68.2084C111.36 68.0961 111.383 67.8032 111.383 67.6C111.383 64.26 106.962 60.9869 106.578 59.6329C109.146 59.9264 109.598 60.559 110.817 63.9437C111.067 64.6438 111.881 66.3817 111.881 67.2382Z" fill="#221C35"/>
<path d="M99.5379 43.3638C97.9564 43.3638 96.918 42.5749 96.918 42.1676C96.918 41.9643 97.0531 41.83 97.235 41.83C97.7311 41.83 98.815 42.5962 99.1754 42.5962C99.2671 42.5962 99.3339 42.5521 99.3339 42.4164C99.3339 42.0098 98.9501 41.3331 98.9501 40.9955C98.9501 40.9045 99.0183 40.8377 99.1534 40.8377C99.7625 40.8377 100.666 41.0858 101.141 41.0858C101.299 41.0858 101.344 40.9955 101.344 40.9045C101.344 40.4084 99.8755 39.4382 99.8755 39.1446C99.8755 38.8738 101.7 38.4666 101.7 38.0394C101.7 37.5873 99.2195 37.9036 99.2195 37.4743C99.2195 37.1587 99.6943 36.6171 99.6943 36.369C99.6943 36.256 99.6033 36.2112 99.4462 36.2112C99.2429 36.2112 98.159 36.6398 97.707 36.6398C97.4817 36.6398 97.2102 36.5951 97.2102 36.2781C97.2102 35.7592 98.0908 35.1955 99.4689 35.1955C101.699 35.1955 103.033 36.7301 103.033 39.3024C103.034 42.5521 100.758 43.3638 99.5379 43.3638ZM95.1388 39.0771C95.1388 38.8284 94.2568 38.355 94.2568 38.0842C94.2568 38.0394 94.3009 38.0166 94.3691 38.0166C94.6185 38.0166 95.0478 38.1069 95.3876 38.1069C95.6811 38.1069 95.7259 36.8431 95.9478 36.8431C96.1056 36.8431 96.3757 38.0394 96.6258 38.0394C96.9187 38.0394 97.4603 37.7003 97.6863 37.7003C97.7311 37.7003 97.7766 37.7224 97.7766 37.7686C97.7766 37.9264 97.2122 38.5348 97.2122 38.7153C97.2122 38.9186 98.4774 39.1674 98.4774 39.3479C98.4774 39.5739 97.1895 39.5512 97.1895 39.7545C97.1895 39.9109 97.6643 40.5435 97.6643 40.7467C97.6643 40.7922 97.6408 40.815 97.596 40.815C97.4148 40.815 96.7154 40.498 96.5121 40.498C96.2634 40.498 95.8616 41.4234 95.6584 41.4234C95.5908 41.4234 95.546 41.3331 95.546 41.2201L95.5006 40.3181C95.5006 40.2279 95.4565 40.1369 95.3428 40.1369C95.0713 40.1369 94.5517 40.1142 94.3925 40.1142C94.2795 40.1142 94.2347 40.0921 94.2347 40.0466C94.234 39.8661 95.1388 39.2349 95.1388 39.0771ZM94.4821 42.7761C94.8446 42.7761 94.9121 43.6574 94.981 44.1756C95.0258 44.4471 95.0713 44.4691 95.1843 44.4691C95.4558 44.4691 95.8837 43.4314 96.1738 43.4314C96.6017 43.4314 97.7545 44.6276 99.6736 44.6276C102.402 44.6276 104.977 42.7085 104.977 39.3252C104.977 36.0528 102.672 34.1344 99.4924 34.1344C97.9805 34.1344 96.8725 34.8793 96.2854 34.8793C95.9292 34.902 95.3876 34 95.1154 34C95.0031 34 94.89 34.2239 94.89 34.6085C94.89 34.8572 94.89 35.6462 94.6185 35.6462C94.0756 35.6462 91.978 34.0903 91.978 34.6532C91.978 35.1728 93.3755 36.7529 93.3755 37.1587C93.3755 37.5646 92.0001 37.9491 92.0001 38.2192C92.0001 38.7153 93.4664 38.8056 93.4664 39.4382C93.4664 40.0694 91.9312 40.5662 91.9312 41.0403C91.9312 41.4234 93.4664 41.1533 93.4664 41.6267C93.4664 42.1001 92.3384 43.6801 92.3384 44.1301C92.3384 44.2438 92.3604 44.2438 92.45 44.2438C92.8793 44.2438 94.1658 42.7761 94.4821 42.7761Z" fill="#221C35"/>
<path d="M84.2598 82.4028C84.2598 82.6061 84.1916 82.8321 84.0111 83.0568C83.7644 82.6061 83.0636 82.3801 82.7473 82.3808C80.423 82.3808 81.303 85.7435 78.8209 85.7435C77.7832 85.7435 77.6922 85.6077 77.3098 85.6077C77.1513 85.6077 77.061 85.6759 77.061 85.811C77.061 86.3988 77.8962 87.8417 80.2204 87.8417C82.5447 87.8417 84.7794 86.4208 84.7794 84.6589C84.7794 84.3653 84.7118 84.0518 84.5761 83.7355C84.6664 83.5998 84.8931 83.5095 85.0957 83.5095C85.456 83.5095 85.6593 83.9174 85.9977 83.9174C86.3594 83.9174 86.6302 83.6452 86.6302 83.2848C86.6302 82.9899 86.4724 82.788 86.2023 82.6509C86.3829 82.5165 86.5179 82.2905 86.5179 82.0424C86.5179 81.6572 86.2464 81.2982 85.7944 81.2982C85.5911 81.2982 85.4567 81.3671 85.2989 81.5215C85.2548 81.1177 85.0281 80.7339 84.5988 80.7339C84.2605 80.7339 84.0111 80.9813 84.0111 81.3665C84.0111 81.7248 84.2598 82.0197 84.2598 82.4028Z" fill="#221C35"/>
<path d="M71.8942 78.2069C73.6995 78.6555 74.6022 79.6264 74.7821 80.7778C74.9626 81.8831 75.1879 82.7872 75.6165 83.2371C76.1809 83.8704 77.2869 84.4313 78.2578 84.4313C79.0702 84.4313 79.7234 84.1632 79.7234 83.4177C79.7234 82.6046 78.6182 80.7771 76.9933 80.7771C76.8355 80.7771 76.6322 80.8006 76.4062 80.8006C76.203 80.8006 75.9094 80.7558 75.7296 80.5973C75.3692 80.2803 75.2555 78.5879 74.5788 77.5729C73.8346 76.4442 73.0222 76.1279 71.9169 76.1279C71.1279 76.1279 70.2466 76.5558 70.2466 77.1884C70.2466 77.5743 70.4499 77.8444 71.8942 78.2069ZM78.1902 83.2606C77.5122 83.2606 76.4972 82.537 76.4972 82.1305C76.4972 81.7914 76.8135 81.6109 77.0602 81.6109C77.6252 81.6109 78.6395 82.3124 78.6395 82.8988C78.6402 83.0566 78.5272 83.2606 78.1902 83.2606Z" fill="#221C35"/>
<path d="M76.1138 65.6818C76.1138 64.2375 79.5447 63.4706 79.5447 61.6872C79.5447 61.3937 79.4317 60.8755 79.2284 60.4917C80.4233 61.1456 81.3039 62.2523 81.3039 63.1543C81.3039 64.7116 79.6798 65.4338 79.6798 66.4047C79.6798 67.5327 81.4169 67.7132 81.4169 69.112C81.4169 70.2621 79.7693 71.5941 79.7693 73.0832C79.7693 74.2339 80.5825 75.1807 81.8221 75.3392C81.4162 75.4295 81.0558 75.497 80.672 75.497C78.3919 75.497 76.0456 73.6248 76.0456 71.3901C76.0456 70.2848 76.5197 69.316 77.2404 68.6159C77.8737 69.1575 78.5049 69.5179 78.9114 69.5179C79.2718 69.5179 79.431 69.3381 79.431 69.0672C79.4317 68.2314 76.1138 67.4651 76.1138 65.6818ZM83.3126 77.0777C82.5387 77.4319 82.23 77.3713 82.23 78.1617C82.23 78.4545 82.1618 78.8363 82.1618 79.0402C82.1618 79.311 82.2066 79.4695 82.5222 79.4695C83.3353 79.4695 84.6218 78.0934 84.6218 76.9193C84.6218 76.6023 84.4406 76.4693 84.2373 76.4693C84.0568 76.4693 83.8549 76.829 83.3126 77.0777ZM83.2223 75.4522C83.2223 74.4372 81.1234 74.4145 81.1234 72.8799C81.1234 72.4954 81.3708 71.8422 81.8683 71.1414C82.0722 72.3149 82.5442 72.9247 83.5613 73.3092C85.5686 74.0527 85.8401 75.1807 85.8401 76.3783C85.8401 78.4097 84.4185 80.9366 80.763 80.9366C77.8289 80.9366 75.73 78.3181 75.73 76.1068C75.73 75.497 75.8878 74.821 76.2716 74.821C76.6106 74.821 76.7229 75.0911 76.9937 75.3613C78.0101 76.3783 79.1154 76.6478 80.7175 76.6478C82.1618 76.6485 83.2223 76.0621 83.2223 75.4522Z" fill="#221C35"/>
<path d="M67.242 75.9413C67.2971 76.4126 66.9601 76.8378 66.4895 76.8929C66.0182 76.9481 65.5909 76.6104 65.5372 76.1398C65.4821 75.6677 65.819 75.2412 66.2904 75.1861C66.7617 75.131 67.1875 75.4693 67.242 75.9413ZM63.0248 76.8288C63.1206 77.5992 63.8393 78.1836 64.6504 78.0933C64.9432 78.0609 65.2147 77.981 65.3959 77.868C65.5765 78.5894 66.1822 79.0539 67.0008 78.9464C67.8318 78.8382 68.3969 78.1836 68.3073 77.3484C68.2839 77.1238 68.2391 76.9866 68.1722 76.8288C68.1722 76.8288 68.2818 76.8171 68.3645 76.802C69.1797 76.6476 69.7288 75.9937 69.6606 75.204C69.571 74.3916 68.842 73.7886 68.0833 73.8824C67.7891 73.9182 67.5176 74.0305 67.3364 74.1883C67.1324 73.5123 66.4964 72.9245 65.6282 73.0679C64.8433 73.1981 64.3244 73.8637 64.403 74.7079C64.4161 74.845 64.4478 75.0014 64.516 75.1585C64.516 75.1585 64.383 75.1785 64.2914 75.1916C63.6326 75.2894 62.918 75.9523 63.0248 76.8288Z" fill="#221C35"/>
</svg>
