<svg width="175" height="150" viewBox="0 0 175 150" fill="none" xmlns="http://www.w3.org/2000/svg">
<path d="M87.4579 44L78.5586 68.1755C78.5586 68.1755 72.5155 51.4751 71.0871 47.7392C69.6586 44.0032 67.4632 44.877 62.079 44.877H56.0352V48.9425H64.7169C71.4196 48.9425 70.7568 50.5963 73.1742 57.1891C75.5916 63.7819 78.3411 71.2484 78.3411 71.2484L87.3491 46.8554L96.4727 71.2484C96.4727 71.2484 100.534 61.033 102.732 54.6599C104.93 48.2868 107.347 48.9425 112.402 48.9425H118.554V44.7682H110.206C104.052 44.7682 104.488 45.5356 102.51 51.0297C100.532 56.5237 96.1396 68.1755 96.1396 68.1755L87.4579 44Z" fill="#221C35"/>
<path d="M87.3491 50.1528L78.1167 74.2196C78.1167 74.2196 72.7364 60.3744 70.9783 55.9792C69.2202 51.5839 68.8899 51.0298 64.275 51.0298C59.8669 51.0298 56.3587 50.9369 56.0352 50.9279V55.2109H64.3837C69.8778 55.2109 69.7677 56.4162 72.5147 63.6683C75.2618 70.9204 77.8992 77.2925 77.8992 77.2925L87.3491 53.3413L96.9078 77.2925C96.9078 77.2925 103.501 61.9134 104.271 58.617C105.04 55.3206 107.346 55.2109 111.851 55.2109H118.779V51.0298H109.104C104.379 51.0298 104.598 53.4528 102.51 59.2764C100.422 65.1001 96.6903 74.1108 96.6903 74.1108L87.3491 50.1528Z" fill="#221C35"/>
<path d="M56.0337 61.2517V57.0763C56.0337 57.0763 58.3412 57.0763 62.187 57.0763C66.0328 57.0763 68.0107 56.1972 70.7577 62.79C73.5047 69.3829 77.5703 80.0413 77.5703 80.0413L87.4595 56.5269L97.0191 80.1512C97.0191 80.1512 101.854 68.7236 103.832 63.8889C105.81 59.0541 105.59 56.8565 110.974 56.8565C116.358 56.8565 118.775 56.8565 118.775 56.8565V61.3616C118.775 61.3616 115.699 61.3616 111.853 61.3616C108.007 61.3616 106.249 60.8122 103.942 67.1853C101.634 73.5583 97.3488 83.3377 97.3488 83.3377L87.3496 59.3837L77.5703 83.3377C77.5703 83.3377 73.1751 72.5694 71.1972 67.7347C69.2194 62.8999 68.5601 61.2517 64.1649 61.2517C59.7696 61.2517 56.1436 61.2517 56.0337 61.2517Z" fill="#221C35"/>
<path d="M77.0209 89.1614C77.0209 89.1614 72.8454 79.4919 70.6478 74.4374C68.4502 69.3829 67.9008 67.4051 63.8352 67.4051C59.7696 67.4051 56.0337 67.4051 56.0337 67.4051V63.0098C56.0337 63.0098 57.1325 63.0098 61.7475 63.0098C66.3625 63.0098 67.2423 63.0674 69.2197 67.3239C71.1972 71.5805 77.1308 85.9749 77.1308 85.9749L87.4595 62.5703L97.4587 85.9749C97.4587 85.9749 102.403 74.8769 104.601 69.8224C106.799 64.7679 106.799 63.1197 110.974 63.1197C115.149 63.1197 118.775 63.1197 118.775 63.1197V67.5149C118.775 67.5149 116.688 67.5149 112.952 67.5149C109.216 67.5149 106.799 67.1853 105.15 71.6904C103.502 76.1955 97.6784 89.2713 97.6784 89.2713L87.3496 65.5371L77.0209 89.1614Z" fill="#221C35"/>
<path d="M76.5814 95.4246C76.5814 95.4246 71.417 84.3267 69.3292 79.6018C67.2415 74.8769 67.4613 73.4485 64.7143 73.4485C61.9672 73.4485 56.0337 73.4485 56.0337 73.4485V69.273C56.0337 69.273 57.6819 69.273 61.4178 69.273C65.1538 69.273 66.1427 68.5039 68.5601 73.9979C70.9774 79.4919 76.8011 92.1282 76.8011 92.1282L87.3496 68.7236L97.7883 92.0183C97.7883 92.0183 103.832 79.6018 105.81 75.3165C107.787 71.0311 107.238 69.273 112.732 69.273C118.226 69.273 118.885 69.273 118.885 69.273V73.5584C118.885 73.5584 116.028 73.5584 112.512 73.5584C108.996 73.5584 108.227 73.1189 106.908 76.5252C105.59 79.9314 98.1179 95.4246 98.1179 95.4246L87.2398 71.6904L76.5814 95.4246Z" fill="#221C35"/>
<path d="M110.544 81.1022V78.148H112.041C112.161 78.148 112.292 78.1827 112.434 78.2521C112.575 78.3188 112.695 78.4229 112.794 78.5643C112.895 78.7031 112.946 78.8792 112.946 79.0927C112.946 79.3089 112.894 79.493 112.79 79.6451C112.686 79.7946 112.559 79.908 112.41 79.9854C112.263 80.0628 112.124 80.1015 111.993 80.1015H110.913V79.6211H111.793C111.881 79.6211 111.976 79.5771 112.077 79.489C112.182 79.4009 112.234 79.2688 112.234 79.0927C112.234 78.9112 112.182 78.7885 112.077 78.7244C111.976 78.6604 111.887 78.6284 111.809 78.6284H111.193V81.1022H110.544ZM112.33 79.7092L113.066 81.1022H112.354L111.633 79.7092H112.33ZM111.665 82.8636C111.222 82.8636 110.807 82.7809 110.42 82.6154C110.033 82.4499 109.693 82.2204 109.399 81.9269C109.106 81.6333 108.876 81.2931 108.711 80.9061C108.545 80.5191 108.463 80.1041 108.463 79.6611C108.463 79.2181 108.545 78.8032 108.711 78.4162C108.876 78.0292 109.106 77.689 109.399 77.3954C109.693 77.1019 110.033 76.8723 110.42 76.7069C110.807 76.5414 111.222 76.4587 111.665 76.4587C112.108 76.4587 112.523 76.5414 112.91 76.7069C113.297 76.8723 113.637 77.1019 113.931 77.3954C114.224 77.689 114.454 78.0292 114.619 78.4162C114.785 78.8032 114.868 79.2181 114.868 79.6611C114.868 80.1041 114.785 80.5191 114.619 80.9061C114.454 81.2931 114.224 81.6333 113.931 81.9269C113.637 82.2204 113.297 82.4499 112.91 82.6154C112.523 82.7809 112.108 82.8636 111.665 82.8636ZM111.665 82.095C112.113 82.095 112.522 81.9856 112.89 81.7668C113.258 81.5479 113.552 81.2544 113.771 80.8861C113.99 80.5178 114.099 80.1095 114.099 79.6611C114.099 79.2128 113.99 78.8045 113.771 78.4362C113.552 78.0679 113.258 77.7744 112.89 77.5555C112.522 77.3367 112.113 77.2273 111.665 77.2273C111.217 77.2273 110.808 77.3367 110.44 77.5555C110.072 77.7744 109.778 78.0679 109.56 78.4362C109.341 78.8045 109.231 79.2128 109.231 79.6611C109.231 80.1095 109.341 80.5178 109.56 80.8861C109.778 81.2544 110.072 81.5479 110.44 81.7668C110.808 81.9856 111.217 82.095 111.665 82.095Z" fill="#221C35"/>
<path d="M57.0229 97.0174C57.0229 97.0174 56.9404 98.5557 57.1602 99.3249C57.38 100.094 57.8744 101.001 57.8744 101.001C57.8744 101.001 58.4788 99.2699 58.4788 98.5832C58.4788 97.8964 58.6161 96.9624 58.6161 96.9624L60.0171 97.0174C60.0171 97.0174 60.0995 98.5282 60.1819 99.0502C60.2643 99.5721 60.7039 100.561 60.7039 100.561C60.7039 100.561 60.8137 99.5996 61.3082 98.281C61.8027 96.9624 61.9675 96.7427 62.4345 96.7976C62.9015 96.8525 63.6706 97.4019 63.6706 97.4019C63.6706 97.4019 62.6817 99.0227 62.3521 101.11C62.0224 103.198 61.9125 103.39 61.9125 104.105C61.9125 104.819 61.9675 105.341 61.2258 105.341C60.4841 105.341 59.9622 105.423 59.66 103.912C59.3578 102.402 59.0831 102.127 59.0831 102.127C59.0831 102.127 58.6161 102.896 58.6436 103.528C58.6711 104.16 58.8084 105.313 58.3964 105.286C57.9843 105.258 56.858 105.698 56.5833 104.846C56.3086 103.995 55.6219 100.698 55.4296 99.7918C55.2373 98.8853 54.633 97.5942 55.3197 97.1547C56.0065 96.7152 56.9954 97.0174 57.0229 97.0174Z" fill="#221C35"/>
<path d="M66.198 96.99L66.0057 100.286H67.7638L67.9561 97.0724C67.9561 97.0724 68.8351 96.99 69.3571 97.4845C69.879 97.979 69.8515 98.8031 69.7691 99.4349C69.6867 100.067 68.7802 105.396 68.7802 105.396C68.7802 105.396 68.3132 105.368 67.8737 104.956C67.4342 104.544 67.2968 103.858 67.3243 103.006C67.3518 102.154 67.3243 101.797 67.3243 101.797L65.8958 101.77L65.8684 105.423C65.8684 105.423 65.1816 105.451 64.7421 104.984C64.3026 104.517 63.8905 103.803 64.0004 102.539C64.1103 101.275 63.7532 97.8965 64.6597 97.3197C65.5662 96.7428 66.2255 97.045 66.198 96.99Z" fill="#221C35"/>
<path d="M72.576 96.974C72.1666 97.0069 71.971 97.4726 71.801 97.9258C71.5537 98.5851 70.4574 101.882 70.2101 102.624C69.9629 103.365 69.9882 103.861 70.4277 104.548C70.8672 105.234 71.2503 105.397 71.2503 105.397L71.9641 103.032L73.453 102.923C73.453 102.923 73.2329 103.913 74.1669 104.792C75.1008 105.671 75.8665 105.425 75.8665 105.425C75.8665 105.425 74.7945 100.727 74.5748 99.3807C74.355 98.0347 74.217 97.8985 73.2831 97.2392C72.9912 97.0331 72.7621 96.9591 72.576 96.974ZM72.8208 99.2991L73.3646 101.713H72.1069L72.8208 99.2991Z" fill="#221C35"/>
<path d="M78.3948 105.286L78.7793 98.4733C78.7793 98.4733 79.576 98.5007 80.0155 98.0337C80.455 97.5667 80.455 96.9624 80.455 96.9624C80.455 96.9624 78.6145 96.9349 77.6531 96.9624C76.6916 96.9899 76.3345 96.9624 75.8675 97.4019C75.4005 97.8414 75.5653 98.9128 75.5653 98.9128L76.8564 98.6381C76.8564 98.6381 76.6367 102.539 76.6092 103.363C76.5817 104.187 76.6641 104.324 77.2685 104.846C77.8728 105.368 78.3673 105.313 78.3948 105.286Z" fill="#221C35"/>
<path d="M82.2098 97.0213C81.9549 97.0095 81.7286 97.1231 81.5844 97.4836C81.2547 98.3077 80.343 101.328 80.0683 102.345C79.7936 103.361 79.4098 103.827 79.9867 104.432C80.5636 105.036 81.2224 105.781 81.3872 104.765C81.552 103.748 81.6116 102.922 81.6116 102.95L83.3112 102.977C83.3112 102.977 83.3094 103.365 83.4743 103.942C83.6392 104.519 83.8337 104.515 84.6029 104.982C85.3721 105.449 85.7815 105.504 85.5343 104.35C85.2871 103.196 84.381 99.4907 84.1338 98.6666C83.8866 97.8425 83.7243 97.7314 83.2024 97.4292C82.9088 97.2593 82.5376 97.0365 82.2098 97.0213ZM82.5701 98.9929L83.2296 101.576L81.8835 101.604L82.5701 98.9929Z" fill="#221C35"/>
<path d="M88.5324 96.9331C87.4885 96.9331 86.7471 97.1016 86.4724 97.9257C86.1977 98.7498 86.2807 101.113 86.418 103.256C86.5554 105.398 87.1881 105.288 87.6826 105.343C88.177 105.398 88.4508 104.901 88.4508 104.901C88.4508 104.901 89.1093 105.398 89.8785 105.37C90.6476 105.343 91.5773 104.381 91.6597 103.392C91.7421 102.403 90.4564 101.107 90.4564 101.107C90.4289 101.162 91.4123 100.065 91.0002 98.8843C90.5882 97.7031 89.5762 96.9331 88.5324 96.9331ZM88.0089 98.116C88.0089 98.116 89.4904 98.3084 89.5454 99.4622C89.6003 100.616 89.0271 100.563 88.5052 100.591C87.9832 100.618 88.0633 100.203 88.0633 100.203L88.0089 98.116ZM88.2332 101.57C88.4732 101.557 89.8513 102.023 89.8513 102.95C89.8513 103.637 89.9581 103.915 88.8043 103.915C87.6506 103.915 88.1992 101.576 88.1992 101.576C88.2044 101.571 88.2172 101.571 88.2332 101.57Z" fill="#221C35"/>
<path d="M95.2336 103.94C94.6293 103.94 94.1623 103.033 94.1348 100.176C94.1073 97.3196 94.4095 97.0998 93.3107 97.0723C92.2119 97.0449 92.2668 97.5668 92.2668 98.4733C92.2668 99.3798 92.102 102.127 92.7888 103.39C93.4755 104.654 94.1348 105.396 94.9864 105.368C95.838 105.341 96.7445 104.544 97.2115 103.226C97.6785 101.907 97.8982 100.918 97.8433 99.4073C97.7883 97.8964 97.8433 97.1273 96.8818 97.1273C95.9204 97.1273 95.6457 97.1822 95.6182 97.6492C95.5907 98.1162 95.8105 97.9788 95.9204 98.4458C96.0303 98.9128 96.0577 102.402 95.838 102.869C95.6182 103.336 95.838 103.94 95.2336 103.94Z" fill="#221C35"/>
<path d="M100.137 96.9465C100.069 96.9454 99.9954 96.9498 99.9061 96.96C99.1919 97.0425 98.6416 98.2013 98.6416 101.196C98.6416 104.19 98.8343 104.544 99.2739 104.901C99.7134 105.258 100.647 105.723 100.62 105.118C100.592 104.514 100.566 102.65 100.566 102.65C100.566 102.65 100.865 103.418 101.47 104.187C102.074 104.956 102.594 105.452 103.033 105.424C103.473 105.397 103.998 105.338 103.394 104.404C102.789 103.47 101.993 101.739 101.993 101.739C101.993 101.739 103.502 100.564 103.557 99.8222C103.612 99.0805 103.746 97.8678 103.169 97.5107C102.593 97.1536 101.992 97.1297 101.443 97.1572C100.893 97.1847 100.62 97.2665 100.62 97.2116C100.62 97.2116 100.616 96.9543 100.137 96.9465ZM101.388 98.3877C101.993 98.3877 102.349 99.185 102.129 99.6795C101.909 100.174 100.593 101.305 100.593 101.223C100.565 101.113 100.34 100.341 100.423 99.4347C100.505 98.5282 100.784 98.3877 101.388 98.3877Z" fill="#221C35"/>
<path d="M106.799 102.841C106.799 102.841 106.387 103.116 106.414 102.292C106.442 101.468 106.854 101.248 108.007 101.22C109.161 101.193 109.298 101.55 109.134 102.182C108.969 102.814 108.447 102.786 108.447 102.786C108.447 102.786 108.227 104.05 107.705 104.654C107.183 105.258 106.332 105.643 105.617 105.149C104.903 104.654 104.024 103.281 104.079 102.017C104.134 100.753 104.574 99.16 105.26 98.226C105.947 97.2921 106.304 96.8525 107.293 96.8525C108.282 96.8525 109.243 97.4844 109.216 98.4458C109.189 99.4073 109.024 99.5996 108.31 99.5996C107.595 99.5996 107.403 99.4897 107.485 98.9403C107.568 98.3909 107.403 97.9513 106.936 98.5282C106.469 99.1051 106.029 100.012 105.92 101.028C105.81 102.044 105.59 103.748 106.139 103.693C106.689 103.638 106.771 102.841 106.799 102.841Z" fill="#221C35"/>
<path d="M111.88 103.391H113.666C113.666 103.391 113.803 103.858 113.446 104.435C113.089 105.011 113.336 105.066 112.595 105.066C111.853 105.066 111.276 104.929 111.056 105.149C110.837 105.369 109.985 105.478 109.71 105.066C109.436 104.654 109.491 104.215 109.848 103.885C110.205 103.556 110.122 103.858 110.122 103.143C110.122 102.429 110.315 99.9295 110.315 99.0229C110.315 98.1164 110.122 97.0176 111.661 96.9627C113.199 96.9077 114.325 97.0451 114.325 97.0451C114.325 97.0451 114.215 97.2648 113.886 97.8143C113.556 98.3637 113.858 98.501 113.254 98.5559C112.65 98.6109 112.073 98.6384 112.073 98.6384L111.88 100.342L113.556 100.424C113.556 100.424 113.639 101.083 113.419 101.275C113.199 101.468 111.798 101.633 111.798 101.633L111.88 103.391Z" fill="#221C35"/>
<path d="M116.025 96.9331C115.751 96.9331 115.647 97.0162 115.427 97.5382C115.207 98.0601 114.849 100.039 114.849 101.495C114.849 102.951 115.041 104.079 115.563 104.683C116.085 105.288 116.522 105.091 116.522 105.091L116.63 102.426C116.666 102.597 117.334 103.446 118.004 104.296C118.718 105.202 119.515 105.287 119.982 105.397C120.449 105.507 120.068 104.954 119.656 104.405C119.244 103.855 119.545 104.157 119.023 103.14C118.501 102.124 118.391 101.441 118.391 101.441C118.391 101.441 118.582 101.277 119.214 100.672C119.846 100.068 120.563 97.5423 118.942 97.1303C117.321 96.7182 116.576 97.3478 116.576 97.3478C116.576 97.3478 116.3 96.9331 116.025 96.9331ZM117.528 98.3064C117.761 98.3064 118.384 98.8124 118.384 99.2786C118.384 99.7448 118.151 100.17 117.569 100.598C116.986 101.025 116.708 101.144 116.63 101.067C116.63 101.067 116.555 99.7865 116.671 99.2038C116.788 98.6211 117.295 98.3064 117.528 98.3064Z" fill="#221C35"/>
</svg>
