<svg width="158" height="36" viewBox="0 0 158 36" fill="none" xmlns="http://www.w3.org/2000/svg">
<g clip-path="url(#clip0_491_2943)">
<path d="M17.956 12.1436L14.4022 17.996H21.5098L17.956 12.1436Z" fill="white"/>
<path d="M29.2964 22.6414L25.0339 26.3874L25.1668 32.4198L16.1199 22.7144L29.2964 22.6414ZM13.0239 11.3647L6.50212 22.6803L5.35034 17.1539L0 14.2544L13.0239 11.3647ZM28.7009 1.94629L24.7238 14.5414L18.074 3.29872L23.4883 5.07926L28.7009 1.94629Z" fill="#33C8C3"/>
<path d="M62.0975 17.5137L60.9398 14.408H54.3481L53.214 17.5137H49.4338L55.9074 1.16774H59.2859L65.9722 17.5137H62.0975ZM57.6321 5.48774L55.4821 11.3256H59.8057L57.6321 5.48774ZM67.8386 3.22266V0.046875H71.288V3.22266H67.8386ZM67.8386 17.5137V4.90396H71.288V17.5137H67.8386ZM89.1022 4.60039C90.4252 4.60039 91.5081 5.06741 92.3508 6.00147C93.1934 6.93553 93.6148 8.13422 93.6148 9.59758V17.5137H90.1653V10.158C90.1653 8.44557 89.5196 7.58936 88.228 7.58936C87.724 7.58936 87.2869 7.71001 86.9167 7.95131C86.5466 8.19261 86.267 8.54676 86.078 9.01379C85.889 9.48082 85.7945 10.0412 85.7945 10.6951V17.5137H82.416V10.158C82.416 8.44557 81.7938 7.58936 80.5495 7.58936C79.762 7.58936 79.1477 7.86179 78.7067 8.40666C78.2656 8.95153 78.0451 9.71433 78.0451 10.6951V17.5137H74.5957V4.90396H77.0056L77.6435 6.4685C78.116 5.89249 78.687 5.43715 79.3564 5.10244C80.0258 4.76774 80.7306 4.60039 81.4709 4.60039C82.2742 4.60039 82.9987 4.77941 83.6445 5.13747C84.2903 5.49553 84.7943 5.99368 85.1566 6.63196C85.3141 6.41401 85.4795 6.21552 85.6528 6.0365C85.826 5.85747 86.015 5.69401 86.2198 5.54612C86.4245 5.39823 86.6372 5.2659 86.8577 5.14915C87.0782 5.03239 87.3105 4.93509 87.5547 4.85725C87.7988 4.77942 88.0508 4.71715 88.3107 4.67044C88.5706 4.62374 88.8344 4.60039 89.1022 4.60039ZM103.727 4.55369C105.648 4.55369 107.243 5.18417 108.511 6.44515C109.779 7.70612 110.413 9.294 110.413 11.2088C110.413 13.1236 109.775 14.7154 108.499 15.9842C107.223 17.2529 105.633 17.8873 103.727 17.8873C102.419 17.8873 101.246 17.537 100.206 16.8365V22.0672H96.757V4.90396H99.0488L99.6394 6.04817C100.774 5.05184 102.136 4.55369 103.727 4.55369ZM100.939 13.6841C101.6 14.3379 102.431 14.6648 103.431 14.6648C104.432 14.6648 105.262 14.3379 105.924 13.6841C106.586 13.0302 106.916 12.2051 106.916 11.2088C106.916 10.555 106.767 9.96342 106.467 9.43412C106.168 8.90482 105.755 8.49228 105.227 8.1965C104.699 7.90071 104.105 7.75282 103.443 7.75282C102.782 7.75282 102.183 7.90071 101.648 8.1965C101.112 8.49228 100.699 8.90482 100.407 9.43412C100.116 9.96342 99.9702 10.555 99.9702 11.2088C99.9702 12.2051 100.293 13.0302 100.939 13.6841ZM118.942 17.864C117.635 17.864 116.453 17.576 115.398 17C114.343 16.424 113.52 15.6261 112.929 14.6064C112.338 13.5868 112.043 12.4542 112.043 11.2088C112.043 9.294 112.697 7.70612 114.004 6.44515C115.311 5.18417 116.957 4.55369 118.942 4.55369C120.911 4.55369 122.549 5.18417 123.856 6.44515C125.164 7.70612 125.817 9.294 125.817 11.2088C125.817 13.1081 125.16 14.6921 123.844 15.9608C122.529 17.2296 120.895 17.864 118.942 17.864ZM118.942 14.6648C119.934 14.6648 120.745 14.3418 121.376 13.6957C122.006 13.0497 122.321 12.2207 122.321 11.2088C122.321 10.1969 122.006 9.36796 121.376 8.7219C120.745 8.07584 119.93 7.75282 118.93 7.75282C117.93 7.75282 117.115 8.07584 116.485 8.7219C115.855 9.36796 115.54 10.1969 115.54 11.2088C115.54 11.707 115.623 12.174 115.788 12.6099C115.953 13.0458 116.186 13.4116 116.485 13.7074C116.784 14.0032 117.142 14.2367 117.56 14.408C117.977 14.5792 118.438 14.6648 118.942 14.6648ZM128.298 3.22266V0.046875H131.747V3.22266H128.298ZM128.298 17.5137V4.90396H131.747V17.5137H128.298ZM142.332 4.60039C143.781 4.60039 144.927 5.07909 145.77 6.0365C146.612 6.99391 147.034 8.27433 147.034 9.87779V17.5137H143.584V10.4149C143.584 8.53119 142.844 7.58936 141.363 7.58936C140.78 7.58936 140.273 7.72168 139.839 7.98633C139.406 8.25098 139.075 8.63239 138.847 9.13055C138.619 9.62871 138.504 10.2125 138.504 10.8819V17.5137H135.055V4.90396H137.418L138.103 6.4685C138.339 6.17271 138.611 5.91196 138.918 5.68623C139.225 5.4605 139.56 5.2659 139.922 5.10244C140.284 4.93898 140.666 4.81444 141.068 4.72882C141.47 4.6432 141.891 4.60039 142.332 4.60039ZM156.437 14.478H157.996V17.5137H155.563C154.633 17.5137 153.826 17.3347 153.141 16.9766C152.456 16.6185 151.932 16.1009 151.57 15.4237C151.207 14.7465 151.026 13.9409 151.026 13.0069V7.63606H148.711V6.91217L153.767 1.61142H154.405V4.90396H157.925V7.63606H154.476V12.5632C154.476 13.1703 154.645 13.6413 154.984 13.976C155.322 14.3107 155.807 14.478 156.437 14.478Z" fill="white"/>
<path d="M123.987 25.3951C125.2 25.3951 126.202 25.7804 126.993 26.551C127.785 27.3216 128.18 28.2984 128.18 29.4815C128.18 30.6647 127.785 31.6415 126.993 32.4121C126.202 33.1827 125.2 33.568 123.987 33.568H121.234V25.3951H123.987ZM123.951 32.6106C124.881 32.6106 125.641 32.3148 126.231 31.7233C126.822 31.1317 127.117 30.3845 127.117 29.4815C127.117 28.8822 126.983 28.3451 126.716 27.8703C126.448 27.3955 126.074 27.0238 125.593 26.7553C125.113 26.4867 124.566 26.3525 123.951 26.3525H122.262V32.6106H123.951ZM129.728 26.1657V25.0331H130.815V26.1657H129.728ZM129.775 33.568V27.2632H130.779V33.568H129.775ZM138.068 27.2632H138.741V32.6807C138.741 33.7004 138.462 34.5021 137.903 35.0859C137.343 35.6697 136.58 35.9615 135.611 35.9615C134.831 35.9615 134.176 35.7709 133.644 35.3894C133.112 35.008 132.76 34.4826 132.587 33.8132H133.591C133.733 34.2024 133.987 34.506 134.353 34.7239C134.719 34.9419 135.138 35.0508 135.611 35.0508C136.257 35.0508 136.774 34.8504 137.164 34.4495C137.554 34.0487 137.749 33.5019 137.749 32.8091V32.4238C137.143 33.0543 136.371 33.3696 135.434 33.3696C134.544 33.3696 133.798 33.0699 133.195 32.4705C132.593 31.8712 132.291 31.1317 132.291 30.2521C132.291 29.6761 132.429 29.1488 132.705 28.6701C132.981 28.1914 133.359 27.8139 133.839 27.5375C134.319 27.2612 134.851 27.1231 135.434 27.1231C135.93 27.1231 136.393 27.2223 136.822 27.4208C137.251 27.6193 137.611 27.8937 137.903 28.2439L138.068 27.2632ZM135.54 32.4121C135.957 32.4121 136.335 32.3187 136.674 32.1319C137.013 31.9451 137.277 31.6883 137.466 31.3613C137.655 31.0344 137.749 30.6647 137.749 30.2521C137.749 29.6217 137.54 29.1021 137.123 28.6934C136.706 28.2848 136.178 28.0805 135.54 28.0805C134.902 28.0805 134.373 28.2867 133.951 28.6993C133.53 29.1118 133.319 29.6294 133.319 30.2521C133.319 30.8671 133.53 31.3808 133.951 31.7933C134.373 32.2059 134.902 32.4121 135.54 32.4121ZM140.714 26.1657V25.0331H141.801V26.1657H140.714ZM140.761 33.568V27.2632H141.766V33.568H140.761ZM146.42 32.6457H147.117V33.568H146.29C145.605 33.568 145.065 33.3715 144.672 32.9784C144.278 32.5853 144.081 32.0463 144.081 31.3613V28.1622H142.959V27.9871L144.931 25.9321H145.085V27.2632H147.081V28.1622H145.085V31.3263C145.085 31.6143 145.136 31.8556 145.239 32.0502C145.341 32.2448 145.493 32.3927 145.693 32.4939C145.894 32.5951 146.136 32.6457 146.42 32.6457ZM153.898 27.2632H154.701V33.568H153.862L153.756 32.6106C153.457 32.9609 153.092 33.2314 152.663 33.4221C152.234 33.6128 151.763 33.7081 151.251 33.7081C150.314 33.7081 149.531 33.3949 148.901 32.7683C148.271 32.1417 147.956 31.3574 147.956 30.4156C147.956 29.4738 148.271 28.6896 148.901 28.063C149.531 27.4364 150.314 27.1231 151.251 27.1231C151.771 27.1231 152.246 27.2204 152.675 27.415C153.104 27.6095 153.468 27.882 153.768 28.2323L153.898 27.2632ZM149.645 32.0852C150.094 32.5289 150.657 32.7507 151.334 32.7507C152.011 32.7507 152.571 32.5289 153.012 32.0852C153.453 31.6415 153.673 31.085 153.673 30.4156C153.673 29.7462 153.453 29.1897 153.012 28.746C152.571 28.3023 152.011 28.0805 151.334 28.0805C150.657 28.0805 150.096 28.3042 149.651 28.7518C149.206 29.1994 148.983 29.754 148.983 30.4156C148.983 31.0772 149.204 31.6338 149.645 32.0852ZM156.721 33.568V25.0098H157.725V33.568H156.721Z" fill="white"/>
</g>
<defs>
<clipPath id="clip0_491_2943">
<rect width="158" height="36" fill="white"/>
</clipPath>
</defs>
</svg>
