<svg id="Calque_1" data-name="Calque 1" xmlns="http://www.w3.org/2000/svg" viewBox="0 0 72 30"><defs><style>.cls-1{fill:#333;}.cls-2{fill:#b6b6b6;}.cls-3{fill:#949494;}.cls-4{fill:#6e6e6e;}</style></defs><path class="cls-1" d="M29,16.16l-1.23-3.31a.16.16,0,0,0-.3,0l-1.23,3.31a.16.16,0,0,0,.09.21h2.52a.16.16,0,0,0,.16-.16s0,0,0-.06M29.58,18H25.69a.15.15,0,0,0-.14.1l-.77,2.07a.15.15,0,0,1-.15.1H23a.16.16,0,0,1-.16-.16s0,0,0-.06l3.89-9.67a.15.15,0,0,1,.14-.1h1.62a.15.15,0,0,1,.14.1l3.88,9.67a.16.16,0,0,1-.08.21H30.64a.15.15,0,0,1-.14-.1l-.77-2.07a.15.15,0,0,0-.15-.1m3.69-4.32h1.44a.15.15,0,0,1,.15.15v6.28a.16.16,0,0,1-.15.16H33.27a.16.16,0,0,1-.16-.16V13.86a.16.16,0,0,1,.16-.15h0m6.86,1.52a.16.16,0,0,1-.16.16h0a2.1,2.1,0,0,0-1.57.51,2.37,2.37,0,0,0-.5,1.7v2.54a.16.16,0,0,1-.16.16H36.27a.16.16,0,0,1-.15-.16V13.86a.15.15,0,0,1,.15-.15h1.42a.15.15,0,0,1,.15.15h0v1.25h0a2.35,2.35,0,0,1,.81-1.19,2.29,2.29,0,0,1,1.37-.41h.08v1.72Zm3.94-.05a.16.16,0,0,0-.16.15v2.61a.84.84,0,0,0,.16.57.7.7,0,0,0,.54.18h.15a.15.15,0,0,1,.15.15v1.32a.15.15,0,0,1-.15.15h-.62a2.06,2.06,0,0,1-1.47-.49,2,2,0,0,1-.51-1.46v-3a.16.16,0,0,0-.16-.15h-.9A.16.16,0,0,1,41,15V13.86a.15.15,0,0,1,.15-.15H42a.16.16,0,0,0,.16-.16h0V11.22a.16.16,0,0,1,.16-.15h1.44a.15.15,0,0,1,.15.15v2.33a.16.16,0,0,0,.16.16h1a.16.16,0,0,1,.16.15h0V15a.16.16,0,0,1-.16.16Zm6.61,3.16a2.08,2.08,0,0,0,0-2.68,1.9,1.9,0,0,0-2.59,0,2.08,2.08,0,0,0,0,2.68,1.87,1.87,0,0,0,2.59,0M47.35,20.1a2.92,2.92,0,0,1-1.15-1.21A3.94,3.94,0,0,1,45.78,17a4,4,0,0,1,.42-1.89,2.84,2.84,0,0,1,1.15-1.2,3.1,3.1,0,0,1,1.59-.42,2.68,2.68,0,0,1,1.32.3,2.29,2.29,0,0,1,.88.84h0v-.77a.15.15,0,0,1,.15-.15h1.43a.16.16,0,0,1,.16.15v6.28a.16.16,0,0,1-.16.16H51.32a.16.16,0,0,1-.15-.16v-.77h0a2.29,2.29,0,0,1-.88.84,2.68,2.68,0,0,1-1.32.3,3.19,3.19,0,0,1-1.59-.41m11.5-1.76A1.84,1.84,0,0,0,59.34,17a1.84,1.84,0,0,0-.49-1.34,1.89,1.89,0,0,0-2.58,0A1.84,1.84,0,0,0,55.78,17a1.84,1.84,0,0,0,.49,1.34,1.86,1.86,0,0,0,2.58,0m-2.17,1.87a2.36,2.36,0,0,1-.88-.84h0v.77a.16.16,0,0,1-.16.16H54.18a.16.16,0,0,1-.16-.16V10.47a.16.16,0,0,1,.16-.16h1.44a.16.16,0,0,1,.16.16v4.16h0a2.36,2.36,0,0,1,.88-.84,2.74,2.74,0,0,1,1.32-.3,3.16,3.16,0,0,1,1.6.42,2.9,2.9,0,0,1,1.15,1.2A4,4,0,0,1,61.17,17a3.94,3.94,0,0,1-.42,1.89A3,3,0,0,1,59.6,20.1a3.26,3.26,0,0,1-1.6.41,2.74,2.74,0,0,1-1.32-.3m6.92.09H62.16a.16.16,0,0,1-.16-.16V10.47a.16.16,0,0,1,.16-.16H63.6a.16.16,0,0,1,.16.16v9.67a.16.16,0,0,1-.16.16M67,15.23a1.39,1.39,0,0,0-.48.81.15.15,0,0,0,.15.19h2.75a.15.15,0,0,0,.15-.18,1.24,1.24,0,0,0-.43-.79,1.53,1.53,0,0,0-1.06-.35,1.75,1.75,0,0,0-1.08.32m3.52-.82A3.74,3.74,0,0,1,71.36,17v.18a.16.16,0,0,1-.16.16H66.62a.16.16,0,0,0-.16.16v0a1.64,1.64,0,0,0,.56,1,1.91,1.91,0,0,0,1.27.42,2.65,2.65,0,0,0,1.84-.78.17.17,0,0,1,.24,0l.7,1a.17.17,0,0,1,0,.21,5.09,5.09,0,0,1-1.13.76,3.72,3.72,0,0,1-1.62.33,3.88,3.88,0,0,1-1.87-.43,3.12,3.12,0,0,1-1.24-1.23,4.09,4.09,0,0,1,0-3.67,2.93,2.93,0,0,1,1.2-1.24,3.47,3.47,0,0,1,1.79-.45,3.05,3.05,0,0,1,2.36.92m-35.47-3a1.07,1.07,0,0,1-2.13,0,1.07,1.07,0,1,1,2.13,0"/><path class="cls-2" d="M8.86,7.5,2,10.34a.46.46,0,0,0,0,.85l6.89,2.73a2.57,2.57,0,0,0,1.89,0l6.88-2.73a.46.46,0,0,0,0-.85L10.81,7.5a2.53,2.53,0,0,0-2,0"/><path class="cls-3" d="M10.44,15.41v6.83a.46.46,0,0,0,.63.42l7.68-3a.46.46,0,0,0,.29-.42V12.43a.46.46,0,0,0-.63-.42l-7.68,3a.47.47,0,0,0-.29.43"/><path class="cls-4" d="M8.65,15.76l-2.28,1.1L6.14,17l-4.81,2.3a.49.49,0,0,1-.69-.41V12.46a.42.42,0,0,1,.15-.31l.11-.08a.51.51,0,0,1,.42,0l7.29,2.89a.46.46,0,0,1,0,.84"/><path d="M8.65,15.76l-2.28,1.1L.79,12.15l.11-.08a.51.51,0,0,1,.42,0l7.29,2.89a.46.46,0,0,1,0,.84"/></svg>