<svg id="Calque_1" data-name="Calque 1" xmlns="http://www.w3.org/2000/svg" viewBox="0 0 72 30"><defs><style>.cls-1{fill:#575757;}.cls-1,.cls-2,.cls-3{fill-rule:evenodd;}.cls-2{fill:#676767;}.cls-3{fill:#fff;}</style></defs><path class="cls-1" d="M21.18,19.71V10.85h1.14L27.73,18V10.85h1.08v8.86H27.67l-5.41-7.2v7.2Z"/><path class="cls-1" d="M37.63,19.36a6.53,6.53,0,0,1-2.31.41q-4.8,0-4.8-4.62c0-2.91,1.54-4.37,4.64-4.37a8.19,8.19,0,0,1,2.47.37v1a6.56,6.56,0,0,0-2.35-.43c-2.42,0-3.63,1.15-3.63,3.43,0,2.46,1.2,3.68,3.58,3.68a6.71,6.71,0,0,0,1.26-.15v-3h1.14v3.67Z"/><path class="cls-1" d="M39.46,16.29V10.85H40.6v5.44a2.25,2.25,0,0,0,2.54,2.56,2.26,2.26,0,0,0,2.55-2.56V10.85h1.14v5.44c0,2.32-1.23,3.49-3.69,3.49s-3.68-1.17-3.68-3.49Z"/><path class="cls-1" d="M50,10.85v7.93h4.64v.93H48.87V10.85Z"/><path class="cls-1" d="M56.29,19.71H55.1l4.4-10,4.4,10H62.63L61.5,16.93H58.57l.31-.93h2.24l-1.66-4-3.17,7.72Z"/><path class="cls-1" d="M65.12,19.71V10.85h3.79c1.68,0,2.53.7,2.53,2.12,0,1.16-.83,2-2.48,2.56l3,4.18H70.5l-2.82-4V15c1.69-.27,2.55-.92,2.55-2,0-.81-.47-1.22-1.41-1.22H66.29v7.9Z"/><path class="cls-2" d="M0,8.49,9.07,5.25l9.31,3.18-1.5,12L9.07,24.75,1.39,20.48,0,8.49Z"/><path class="cls-1" d="M18.38,8.43,9.07,5.25v19.5l7.81-4.32,1.5-12Z"/><path class="cls-3" d="M9.08,7.53h0L3.43,20.1l2.11,0,1.14-2.84h5.05L13,20.09l2,0L9.08,7.53Zm0,4,1.91,4H7.42l1.68-4Z"/></svg>