<svg id="Calque_1" data-name="Calque 1" xmlns="http://www.w3.org/2000/svg" viewBox="0 0 72 30"><defs><style>.cls-1{fill:#434343;}</style></defs><path class="cls-1" d="M8.46,13.44l-1,.85a2.81,2.81,0,0,0-2.23-1,2.82,2.82,0,0,0-2.88,2.91A2.8,2.8,0,0,0,5.23,19.1a2.85,2.85,0,0,0,2.27-1l1,.85a4.23,4.23,0,0,1-3.24,1.49,4.34,4.34,0,0,1-3.09-1.19,4.27,4.27,0,0,1,0-6.06A4.27,4.27,0,0,1,5.25,12,4.23,4.23,0,0,1,8.46,13.44Z"/><path class="cls-1" d="M9.15,20.3V12.13h1.4V20.3Z"/><path class="cls-1" d="M11.67,14.38h1.42v3.46a1.19,1.19,0,0,0,1.29,1.33,1.19,1.19,0,0,0,1.29-1.33V14.4h1.42v3.53a2.35,2.35,0,0,1-.78,1.89,2.94,2.94,0,0,1-1.95.64,2.86,2.86,0,0,1-1.93-.64A2.3,2.3,0,0,1,11.67,18V14.38Z"/><path class="cls-1" d="M18.21,20.3V12.13h1.4v3.12a1.9,1.9,0,0,1,1.9-1,2.79,2.79,0,0,1,2.09.88,3,3,0,0,1,.85,2.2,3,3,0,0,1-.85,2.2,2.79,2.79,0,0,1-2.09.89,1.88,1.88,0,0,1-1.9-1v.86h-1.4Zm4.35-1.66a1.8,1.8,0,0,0,.49-1.3,1.77,1.77,0,0,0-.49-1.29,1.7,1.7,0,0,0-1.25-.52,1.82,1.82,0,0,0-1.29.52,1.75,1.75,0,0,0-.51,1.29,1.77,1.77,0,0,0,.51,1.3,1.82,1.82,0,0,0,1.29.51A1.66,1.66,0,0,0,22.56,18.64Z"/><path class="cls-1" d="M25.34,20.3V12.13h1.4v3.08a1.85,1.85,0,0,1,1.72-.94,2.1,2.1,0,0,1,2.17,2.38V20.3H29.22V16.84c0-.81-.42-1.31-1.18-1.31a1.28,1.28,0,0,0-1.3,1.37v3.4Z"/><path class="cls-1" d="M31.42,17.34a3,3,0,0,1,.94-2.23,3.34,3.34,0,0,1,4.58,0,3,3,0,0,1,.94,2.23,3,3,0,0,1-.94,2.24,3.36,3.36,0,0,1-4.58,0A3,3,0,0,1,31.42,17.34ZM36,18.67a1.82,1.82,0,0,0,.54-1.33A1.74,1.74,0,0,0,36,16a1.68,1.68,0,0,0-1.29-.53,1.73,1.73,0,0,0-1.31.53,1.8,1.8,0,0,0-.52,1.31,1.88,1.88,0,0,0,.52,1.33,1.86,1.86,0,0,0,2.6,0Z"/><path class="cls-1" d="M38.68,14.38H40.1v3.46a1.19,1.19,0,0,0,1.29,1.33,1.2,1.2,0,0,0,1.3-1.33V14.4h1.42v3.53a2.36,2.36,0,0,1-.79,1.89,2.94,2.94,0,0,1-2,.64,2.86,2.86,0,0,1-1.93-.64A2.3,2.3,0,0,1,38.68,18Z"/><path class="cls-1" d="M45.54,18.49a1.82,1.82,0,0,0,1.56.75c.75,0,1.07-.28,1.07-.64a.54.54,0,0,0-.34-.46,2.85,2.85,0,0,0-.55-.23,6.33,6.33,0,0,1-.73-.25c-.95-.34-1.45-.82-1.45-1.67a1.53,1.53,0,0,1,.6-1.29,2.35,2.35,0,0,1,1.49-.48,2.3,2.3,0,0,1,1.92.87l-.78.83a1.39,1.39,0,0,0-1.16-.49c-.42,0-.71.21-.71.53a.49.49,0,0,0,.27.41,4.55,4.55,0,0,0,.48.21c.18.05.5.16.74.25,1.1.39,1.58.92,1.58,1.75,0,1.1-.81,1.88-2.43,1.88a2.59,2.59,0,0,1-2.44-1.2Z"/><path class="cls-1" d="M49.94,17.34a3.12,3.12,0,0,1,.87-2.27A3.05,3.05,0,0,1,53,14.22a2.74,2.74,0,0,1,2.1.85A2.93,2.93,0,0,1,56,17.2c0,.18,0,.34,0,.5h-4.6a1.62,1.62,0,0,0,1.79,1.54,2.22,2.22,0,0,0,1.6-.68l.85.82a3.26,3.26,0,0,1-2.48,1.06,3.19,3.19,0,0,1-2.27-.83A3,3,0,0,1,50,17.39v-.05Zm4.59-.64a1.19,1.19,0,0,0-.44-.9A1.49,1.49,0,0,0,53,15.41a1.8,1.8,0,0,0-1.13.37,1.26,1.26,0,0,0-.53.92Z"/><path class="cls-1" d="M58.1,18.42a1,1,0,1,0,0,2,1,1,0,0,0,1-1A1,1,0,0,0,58.1,18.42Z"/><path class="cls-1" d="M70.64,9.52l-6.42,2v-2l-6.92,2.2v5.87l6-1.9v2l7.84-2.5L69,13.16Zm-7.36,5.2-5,1.59V12.46l5-1.59Zm6.06.07-5.1,1.63V12.57L69,11.06l-1.08,2.27Z"/></svg>