<svg id="Calque_1" data-name="Calque 1" xmlns="http://www.w3.org/2000/svg" viewBox="0 0 72 30"><defs><style>.cls-1{fill:#6e6e6e;}</style></defs><path class="cls-1" d="M33.87,9.08a.67.67,0,0,0-.7.65v3.42a3.78,3.78,0,0,0-5.32.58A3.87,3.87,0,0,0,27,16.11a3.79,3.79,0,0,0,7.57.13V9.78a.7.7,0,0,0-.2-.5.79.79,0,0,0-.52-.2M33,17a2.36,2.36,0,0,1-1.25,1.27,2.4,2.4,0,0,1-1.86,0A2.32,2.32,0,0,1,28.63,17a2.35,2.35,0,0,1,0-1.84,2.32,2.32,0,0,1,1.24-1.26,2.4,2.4,0,0,1,1.86,0A2.36,2.36,0,0,1,33,15.2,2.3,2.3,0,0,1,33,17"/><path class="cls-1" d="M41.77,13.43a3.82,3.82,0,1,0,1.12,2.81v-.13a3.79,3.79,0,0,0-.29-1.45,3.57,3.57,0,0,0-.83-1.23M41.28,17a2.22,2.22,0,0,1-.51.75,2.51,2.51,0,0,1-.74.51A2.38,2.38,0,0,1,36.91,17a2.44,2.44,0,0,1,0-1.84,2.36,2.36,0,0,1,3.86-.75,2.13,2.13,0,0,1,.51.75,2.35,2.35,0,0,1,0,1.84"/><path class="cls-1" d="M57.41,13a.67.67,0,0,0-.06-.28,1.07,1.07,0,0,0-.15-.22.94.94,0,0,0-.23-.16.81.81,0,0,0-.27,0,.75.75,0,0,0-.38.1l-4,2.63V9.79a.7.7,0,0,0-.2-.5.71.71,0,0,0-.5-.21.7.7,0,0,0-.71.7h0v9.38a.7.7,0,0,0,.2.5.7.7,0,0,0,1,0,.66.66,0,0,0,.2-.5V16.73l.82-.53,3.12,3.5a.66.66,0,0,0,.48.18.51.51,0,0,0,.27-.06.62.62,0,0,0,.22-.15,1.19,1.19,0,0,0,.16-.23.82.82,0,0,0,.06-.27.73.73,0,0,0-.19-.49l-2.9-3.26,2.83-1.84a.62.62,0,0,0,.27-.56"/><path class="cls-1" d="M45.69,14.42a2.36,2.36,0,0,1,.76-.51,2.49,2.49,0,0,1,.93-.19,2.57,2.57,0,0,1,.82.14,2.53,2.53,0,0,1,.72.44.71.71,0,0,0,.46.15.59.59,0,0,0,.51-.2.74.74,0,0,0,.21-.51.69.69,0,0,0-.25-.53,3.58,3.58,0,0,0-2.47-.92,3.79,3.79,0,0,0,0,7.58A3.73,3.73,0,0,0,49.83,19a.7.7,0,0,0-.42-1.22h0a.77.77,0,0,0-.45.14,2.4,2.4,0,0,1-.71.44,2.37,2.37,0,0,1-.82.15,2.31,2.31,0,0,1-.93-.19,2.6,2.6,0,0,1-.76-.51,2.37,2.37,0,0,1,0-3.35h0"/><path class="cls-1" d="M71.43,12.79a1.25,1.25,0,0,0-.47-.28,3.4,3.4,0,0,0-.63-.15c-.21,0-.43,0-.64,0a3.65,3.65,0,0,0-1.27.22,4.16,4.16,0,0,0-1.11.62V13a.71.71,0,0,0-1.41,0v6.16a.71.71,0,0,0,.74.68.7.7,0,0,0,.67-.68V16.12a2.31,2.31,0,0,1,.19-.93,2.38,2.38,0,0,1,.51-.75,2.69,2.69,0,0,1,.75-.51,2.49,2.49,0,0,1,.93-.19,2.59,2.59,0,0,1,.92.17.63.63,0,0,0,.3.07.49.49,0,0,0,.27-.06.67.67,0,0,0,.38-.38.63.63,0,0,0,.06-.27.59.59,0,0,0-.19-.48"/><path class="cls-1" d="M64.88,14.66a3.86,3.86,0,0,0-3.5-2.33,3.79,3.79,0,0,0-3.79,3.78h0A3.79,3.79,0,0,0,63.85,19l0,0a.41.41,0,0,0,.15-.17.72.72,0,0,0-.17-1,.71.71,0,0,0-.87.08s-.1.09-.1.1h0a2.06,2.06,0,0,1-.67.39,2.11,2.11,0,0,1-.82.13,2.16,2.16,0,0,1-.76-.12A2.35,2.35,0,0,1,60,18a2.14,2.14,0,0,1-.52-.52,2,2,0,0,1-.33-.68h5.34a.7.7,0,0,0,.5-.2.63.63,0,0,0,.2-.5,3.83,3.83,0,0,0-.26-1.47m-5.78.76a1.87,1.87,0,0,1,.33-.68,2.14,2.14,0,0,1,.52-.52,2.67,2.67,0,0,1,.67-.35,2.3,2.3,0,0,1,.74-.12,2.4,2.4,0,0,1,.75.12,2.47,2.47,0,0,1,1.19.87,2.41,2.41,0,0,1,.34.68Z"/><path class="cls-1" d="M69,18.86a.5.5,0,1,0,.5.5.49.49,0,0,0-.5-.5h0m0,.88a.39.39,0,0,1-.4-.37A.38.38,0,0,1,69,19a.37.37,0,0,1,.4.36v0a.36.36,0,0,1-.35.38h0"/><path class="cls-1" d="M69.14,19.36h0a.12.12,0,0,0,.1-.12.12.12,0,0,0,0-.11.47.47,0,0,0-.17,0h-.19v.49h.11v-.19h0c.06,0,.09,0,.1.07a.42.42,0,0,1,0,.12h.12a.34.34,0,0,1,0-.12.1.1,0,0,0-.07-.12m-.14,0h-.06v-.14H69c.07,0,.11,0,.11.07s0,.08-.11.07"/><path class="cls-1" d="M25.73,10.67a3.33,3.33,0,0,0-2.09-.55,6.48,6.48,0,0,0-1.08.1,4.09,4.09,0,0,0-1.83-2.75l-.37-.21-.24.34a5.37,5.37,0,0,0-.65,1.52A3.62,3.62,0,0,0,19.9,12a4.92,4.92,0,0,1-1.87.45H1.17a.79.79,0,0,0-.79.8,11.88,11.88,0,0,0,.73,4.33,6.49,6.49,0,0,0,2.57,3.34,11.37,11.37,0,0,0,5.63,1.21,17.25,17.25,0,0,0,3.12-.29,12.9,12.9,0,0,0,4.08-1.48A11.15,11.15,0,0,0,19.29,18,15.1,15.1,0,0,0,22,13.35h.24a3.9,3.9,0,0,0,2.86-1.08,3.22,3.22,0,0,0,.76-1.12l.11-.31Z"/><path class="cls-1" d="M2.74,11.93H5a.21.21,0,0,0,.2-.21h0v-2A.21.21,0,0,0,5,9.5H2.74a.2.2,0,0,0-.2.2h0v2a.21.21,0,0,0,.2.21h0"/><path class="cls-1" d="M5.85,11.93H8.11a.21.21,0,0,0,.2-.21h0v-2a.2.2,0,0,0-.2-.2H5.85a.2.2,0,0,0-.2.2v2a.21.21,0,0,0,.2.21"/><path class="cls-1" d="M9,11.93h2.26a.21.21,0,0,0,.2-.21h0v-2a.2.2,0,0,0-.2-.2H9a.2.2,0,0,0-.2.2h0v2a.2.2,0,0,0,.2.21H9"/><path class="cls-1" d="M12.14,11.93H14.4a.2.2,0,0,0,.2-.21v-2a.2.2,0,0,0-.2-.2H12.14a.21.21,0,0,0-.2.2h0v2a.21.21,0,0,0,.2.21h0"/><path class="cls-1" d="M5.85,9H8.11a.22.22,0,0,0,.2-.2v-2a.19.19,0,0,0-.2-.2H5.85a.19.19,0,0,0-.2.2v2a.22.22,0,0,0,.2.2"/><path class="cls-1" d="M9,9h2.26a.22.22,0,0,0,.2-.2v-2a.19.19,0,0,0-.2-.2H9a.19.19,0,0,0-.2.2h0v2A.2.2,0,0,0,9,9"/><path class="cls-1" d="M12.14,9H14.4a.21.21,0,0,0,.2-.2v-2a.2.2,0,0,0-.2-.2H12.14a.2.2,0,0,0-.2.2h0v2a.22.22,0,0,0,.2.2"/><path class="cls-1" d="M12.14,6.14H14.4a.19.19,0,0,0,.2-.2v-2a.2.2,0,0,0-.2-.2H12.14a.2.2,0,0,0-.2.2h0v2a.21.21,0,0,0,.2.2"/><path class="cls-1" d="M15.29,11.93h2.26a.21.21,0,0,0,.2-.21v-2a.2.2,0,0,0-.2-.2H15.29a.2.2,0,0,0-.2.2h0v2a.21.21,0,0,0,.2.21"/></svg>