<svg id="Calque_1" data-name="Calque 1" xmlns="http://www.w3.org/2000/svg" xmlns:xlink="http://www.w3.org/1999/xlink" viewBox="0 0 72 30"><defs><style>.cls-1{fill:#2b2b2b;}.cls-2{fill:#a5a5a5;}.cls-3{fill:url(#Dégradé_sans_nom_10);}.cls-4{fill:url(#Dégradé_sans_nom_10-2);}.cls-5{fill:url(#Dégradé_sans_nom_9);}.cls-6{fill:#fff;}</style><linearGradient id="Dégradé_sans_nom_10" x1="380.68" y1="-1241.26" x2="380.68" y2="-1230.16" gradientTransform="matrix(1, 0, 0, -1, -371, -1217.88)" gradientUnits="userSpaceOnUse"><stop offset="0.3" stop-color="#454545"/><stop offset="0.87" stop-color="#2b2b2b"/></linearGradient><linearGradient id="Dégradé_sans_nom_10-2" x1="380.68" y1="-1241.26" x2="380.68" y2="-1230.16" xlink:href="#Dégradé_sans_nom_10"/><linearGradient id="Dégradé_sans_nom_9" x1="380.68" y1="-1241.26" x2="380.68" y2="-1230.16" gradientTransform="matrix(1, 0, 0, -1, -371, -1217.88)" gradientUnits="userSpaceOnUse"><stop offset="0.3" stop-color="#454545"/><stop offset="0.86" stop-color="#2b2b2b"/></linearGradient></defs><path class="cls-1" d="M5.12,17.13H2.59a7.25,7.25,0,0,0,1.87,3.08,7.08,7.08,0,0,0,5.22,2.17,7.53,7.53,0,0,0,1.18-.09,7,7,0,0,0,4-2.08,7.15,7.15,0,0,0,1.87-3.08H5.12Z"/><path class="cls-1" d="M3.73,13.7H2.41a8.35,8.35,0,0,0-.1.89H17.05a8.35,8.35,0,0,0-.1-.89"/><path class="cls-1" d="M2.31,15.41a8.35,8.35,0,0,0,.1.89H17a8.35,8.35,0,0,0,.1-.89"/><path class="cls-1" d="M16.76,12.87a7.12,7.12,0,0,0-1.87-3.09,7.06,7.06,0,0,0-4-2.07,7.66,7.66,0,0,0-1.19-.09A7.11,7.11,0,0,0,4.46,9.78a7.22,7.22,0,0,0-1.87,3.09"/><path class="cls-2" d="M1.87,15A7.85,7.85,0,0,1,8.6,7.3H8.32a7.7,7.7,0,1,0,0,15.4H8.6A7.85,7.85,0,0,1,1.87,15Z"/><rect class="cls-2" x="42.73" y="6.68" width="1.54" height="1.95"/><path class="cls-1" d="M29.9,14.69v.76H22.83a3.55,3.55,0,0,0,1,2.41,3.25,3.25,0,0,0,2.38.84,7,7,0,0,0,1.72-.22,8.07,8.07,0,0,0,1.65-.65v1.45a10.18,10.18,0,0,1-1.7.54,8.54,8.54,0,0,1-1.76.18,4.78,4.78,0,0,1-3.54-1.3,4.74,4.74,0,0,1-1.31-3.53,5.18,5.18,0,0,1,1.24-3.65,4.35,4.35,0,0,1,3.34-1.34,3.82,3.82,0,0,1,3,1.21,4.75,4.75,0,0,1,1.1,3.3m-1.54-.45a2.9,2.9,0,0,0-.7-2,2.37,2.37,0,0,0-1.83-.75,2.87,2.87,0,0,0-2.06.73,3.07,3.07,0,0,0-.89,2Z"/><path class="cls-1" d="M37.87,10.76V12.2a6,6,0,0,0-1.3-.54,5,5,0,0,0-1.33-.18,2.88,2.88,0,0,0-2.32.95,3.92,3.92,0,0,0-.83,2.66,3.92,3.92,0,0,0,.83,2.66,2.91,2.91,0,0,0,2.32.95,5,5,0,0,0,1.33-.18,6,6,0,0,0,1.3-.54V19.4a6.32,6.32,0,0,1-1.33.45,6.91,6.91,0,0,1-1.47.15,4.35,4.35,0,0,1-3.35-1.33,5,5,0,0,1-1.25-3.58,5,5,0,0,1,1.26-3.6,4.54,4.54,0,0,1,3.44-1.32,6.37,6.37,0,0,1,1.39.15,6.12,6.12,0,0,1,1.31.44"/><rect class="cls-1" x="39.26" y="6.76" width="1.54" height="13"/><path class="cls-1" d="M42.73,10.4h1.54v9.36H42.73Z"/><path class="cls-1" d="M47.69,18.35v5H46.14V10.4h1.55v1.42a3.16,3.16,0,0,1,1.22-1.24,3.67,3.67,0,0,1,1.77-.41,3.37,3.37,0,0,1,2.77,1.36,5.59,5.59,0,0,1,1.06,3.56,5.61,5.61,0,0,1-1.06,3.56A3.36,3.36,0,0,1,50.68,20a3.67,3.67,0,0,1-1.77-.41,3.16,3.16,0,0,1-1.22-1.24m5.23-3.26a4.42,4.42,0,0,0-.7-2.66,2.38,2.38,0,0,0-3.83,0,4.42,4.42,0,0,0-.7,2.66,4.44,4.44,0,0,0,.7,2.66,2.39,2.39,0,0,0,3.83,0,4.44,4.44,0,0,0,.7-2.66"/><path class="cls-1" d="M61.74,10.68v1.45a5.92,5.92,0,0,0-1.35-.5,6.32,6.32,0,0,0-1.45-.17,3.38,3.38,0,0,0-1.72.35,1.17,1.17,0,0,0-.57,1.06,1,1,0,0,0,.41.83,4.74,4.74,0,0,0,1.64.59l.53.11a5.15,5.15,0,0,1,2.33,1,2.32,2.32,0,0,1,.69,1.79,2.44,2.44,0,0,1-1,2.06,4.71,4.71,0,0,1-2.83.76,8.67,8.67,0,0,1-1.57-.15,11.77,11.77,0,0,1-1.72-.44V17.83a8.85,8.85,0,0,0,1.68.66,6.22,6.22,0,0,0,1.64.22,3.11,3.11,0,0,0,1.67-.37,1.19,1.19,0,0,0,.59-1.05,1.13,1.13,0,0,0-.43-1,5,5,0,0,0-1.85-.64l-.53-.13a4.17,4.17,0,0,1-2.06-.92,2.25,2.25,0,0,1-.64-1.71,2.41,2.41,0,0,1,.94-2,4.26,4.26,0,0,1,2.65-.72,10.19,10.19,0,0,1,1.61.13,6.34,6.34,0,0,1,1.38.38"/><path class="cls-1" d="M71.41,14.69v.76H64.35a3.5,3.5,0,0,0,1,2.41,3.27,3.27,0,0,0,2.39.84,6.91,6.91,0,0,0,1.71-.22,7.64,7.64,0,0,0,1.65-.65v1.45a10.07,10.07,0,0,1-1.69.54A8.69,8.69,0,0,1,67.6,20a4.79,4.79,0,0,1-3.55-1.3,4.78,4.78,0,0,1-1.31-3.53A5.22,5.22,0,0,1,64,11.52a4.37,4.37,0,0,1,3.35-1.34,3.8,3.8,0,0,1,3,1.21,4.7,4.7,0,0,1,1.1,3.3m-1.53-.45a3,3,0,0,0-.71-2,2.37,2.37,0,0,0-1.83-.75,2.84,2.84,0,0,0-2,.73,3,3,0,0,0-.89,2Z"/><path class="cls-3" d="M14.69,14.59a4.36,4.36,0,0,0-.15-.89H4.82a5.18,5.18,0,0,0-.16.89Z"/><path class="cls-4" d="M14.69,15.41h-10a5.18,5.18,0,0,0,.16.89h9.72A4.36,4.36,0,0,0,14.69,15.41Z"/><path class="cls-5" d="M9.68,20a5,5,0,0,0,4.56-2.9H5.12A5,5,0,0,0,9.68,20Z"/><path class="cls-6" d="M3.92,15.41H17c0-.13,0-.26,0-.39s0-.29,0-.43H2.31c0,.14,0,.28,0,.43s0,.26,0,.39Z"/><path class="cls-6" d="M5.09,12.87H2.59a7.65,7.65,0,0,0-.18.83H16.9a7.68,7.68,0,0,0-.19-.83"/><path class="cls-6" d="M16,16.3H2.41a7.65,7.65,0,0,0,.18.83H16.75a7.72,7.72,0,0,0,.2-.83Z"/></svg>