<svg id="Calque_1" data-name="Calque 1" xmlns="http://www.w3.org/2000/svg" viewBox="0 0 72 30"><defs><style>.cls-1{fill:#939393;}.cls-2{fill:#8c8c8c;}.cls-3{fill:#9b9b9b;}.cls-4{fill:#7a7a7a;}.cls-5{fill:#818181;}</style></defs><path d="M24.58,7V20h1.67V13.77h4V12.13h-4V8.59h5.24V7Zm9.93,2.64a1.1,1.1,0,1,0-1.1-1.09,1.09,1.09,0,0,0,1.1,1.09Zm-.86,1.64V20h1.67V11.23ZM41.53,11a3.89,3.89,0,0,0-3.77,4.11,3.88,3.88,0,0,0,3.77,4.11,3.27,3.27,0,0,0,2.46-1v1.16A2.64,2.64,0,0,1,41.4,22h0a2.68,2.68,0,0,1-1.48-.5l-.84,1.45A4.27,4.27,0,0,0,45,21.66a4.35,4.35,0,0,0,.69-2.34V11.24H44V12a3.28,3.28,0,0,0-2.46-1Zm-2.1,4.11a2.29,2.29,0,1,1,4.56,0,2.29,2.29,0,1,1-4.56,0Zm12.26-2.47a1.81,1.81,0,0,0-1.79,1.82V20H48.23V11.22H49.9V12a2.63,2.63,0,0,1,2.16-1,2.89,2.89,0,0,1,2.59,1.47A3.22,3.22,0,0,1,57.3,11a3.15,3.15,0,0,1,3.09,3.44V20H58.73V14.43a1.79,1.79,0,1,0-3.57,0V20H53.47V14.43a1.81,1.81,0,0,0-1.78-1.82Zm17.61-.4a4,4,0,0,0-3-1.24,4.38,4.38,0,0,0-4.25,4.61,4.37,4.37,0,0,0,4.25,4.61,4.15,4.15,0,0,0,3-1.24v1H71V11.22H69.3v1Zm-5.53,3.37a2.77,2.77,0,1,1,5.53,0,2.77,2.77,0,1,1-5.53,0Z"/><path id="b" class="cls-1" d="M9.62,15a4.3,4.3,0,1,1,4.3,4.3A4.3,4.3,0,0,1,9.62,15Z"/><path id="c" class="cls-2" d="M1,23.6a4.29,4.29,0,0,1,4.3-4.3h4.3v4.3a4.3,4.3,0,0,1-8.6,0Z"/><path id="d" class="cls-3" d="M9.62,2.11V10.7h4.3a4.3,4.3,0,0,0,0-8.6H9.62Z"/><path id="e" class="cls-4" d="M1,6.42a4.3,4.3,0,0,0,4.3,4.3h4.3V2.13H5.33A4.27,4.27,0,0,0,1,6.42Z"/><path id="e-2" data-name="e" class="cls-5" d="M1,15a4.3,4.3,0,0,0,4.3,4.3h4.3V10.72H5.33A4.27,4.27,0,0,0,1,15Z"/></svg>