<svg id="Calque_1" data-name="Calque 1" xmlns="http://www.w3.org/2000/svg" viewBox="0 0 72 30"><defs><style>.cls-1{fill:#aaa;}.cls-2{fill:#b6b6b6;}.cls-3{fill:#8d8d8d;}.cls-4{fill:#3c3c3c;}</style></defs><g id="Page-1"><g id="frontify-master-logo-on-light-bg-rgb"><g id="Group"><path id="Path" class="cls-1" d="M.81,10.39v5a.2.2,0,0,0,0,.11.19.19,0,0,0,.27.08l.14-.12.15-.12a3.29,3.29,0,0,1,.33-.23L1.92,15a5.8,5.8,0,0,1,1.19-.5l.18-.05.11,0a6.66,6.66,0,0,1,1.22-.15h0A3.73,3.73,0,1,0,.81,10.39Z"/><path id="Path-2" data-name="Path" class="cls-2" d="M6.28,22.76l4.34-2.5a.3.3,0,0,0,.08-.08.19.19,0,0,0-.07-.27,1.15,1.15,0,0,0-.17-.06l-.18-.08a2.48,2.48,0,0,1-.37-.17l-.2-.11a4.92,4.92,0,0,1-1-.78l-.14-.13-.07-.08a7.32,7.32,0,0,1-.74-1h0a3.73,3.73,0,1,0-1.46,5.24Z"/><path id="Path-3" data-name="Path" class="cls-3" d="M14.26,11.84,9.92,9.33a.2.2,0,0,0-.11,0,.19.19,0,0,0-.2.2,1.13,1.13,0,0,0,0,.18l0,.19c0,.14,0,.27,0,.4v.23a5.41,5.41,0,0,1-.16,1.28c0,.06,0,.12-.05.18l0,.1A6.39,6.39,0,0,1,9,13.2s0,0,0,0a3.73,3.73,0,1,0,5.27-1.35Z"/></g><path id="Shape" class="cls-4" d="M71.19,11.08a1,1,0,0,1-1,1,1,1,0,0,1-1-1,1,1,0,1,1,2,0Zm-.23,0a.77.77,0,1,0-.77.77A.77.77,0,0,0,71,11.08Zm-.52.13.2.31h-.26l-.15-.26h-.18v.26h-.23v-.94h.4c.25,0,.39.12.39.33A.31.31,0,0,1,70.44,11.21Zm-.22-.14c.11,0,.17-.05.17-.15a.15.15,0,0,0-.17-.16h-.17v.31Z"/><g id="Group-2" data-name="Group"><path id="Path-4" data-name="Path" class="cls-4" d="M26,10.13H19.71a.18.18,0,0,0-.18.18v9.38a.18.18,0,0,0,.18.18h1.75a.18.18,0,0,0,.18-.18V16h4.15a.18.18,0,0,0,.18-.18V14.36a.18.18,0,0,0-.18-.18H21.64V12H26a.18.18,0,0,0,.18-.18V10.31A.18.18,0,0,0,26,10.13Z"/><path id="Path-5" data-name="Path" class="cls-4" d="M31.05,12.28a2.78,2.78,0,0,0-1,.32,3.45,3.45,0,0,0-1,.78l-.08.08v-.89a.18.18,0,0,0-.18-.18H27.11a.18.18,0,0,0-.18.18v7.12a.18.18,0,0,0,.18.18h1.66a.18.18,0,0,0,.18-.18V16.64a3.11,3.11,0,0,1,.47-1.79,1.66,1.66,0,0,1,1.45-.69h.19a.18.18,0,0,0,.17-.18l0-1.52a.2.2,0,0,0-.06-.13A.19.19,0,0,0,31.05,12.28Z"/><path id="Shape-2" data-name="Shape" class="cls-4" d="M35.4,12.27a3.84,3.84,0,0,0-2.83,1.12,3.89,3.89,0,0,0,0,5.48,4.16,4.16,0,0,0,5.66,0,3.89,3.89,0,0,0,0-5.48A3.83,3.83,0,0,0,35.4,12.27ZM34,14.58a1.89,1.89,0,0,1,2.76,0,2.25,2.25,0,0,1,.54,1.55,2.19,2.19,0,0,1-.54,1.54,1.89,1.89,0,0,1-2.76,0,2.19,2.19,0,0,1-.54-1.54A2.25,2.25,0,0,1,34,14.58Z"/><path id="Path-6" data-name="Path" class="cls-4" d="M44.38,12.27a2.9,2.9,0,0,0-2.12,1l-.07.08v-.73a.18.18,0,0,0-.18-.18H40.34a.18.18,0,0,0-.18.18v7.12a.18.18,0,0,0,.18.18H42a.18.18,0,0,0,.18-.18v-4a1.84,1.84,0,0,1,.48-1.38,1.6,1.6,0,0,1,1.14-.47c.88,0,1.32.6,1.32,1.79v4.05a.18.18,0,0,0,.18.18H47a.18.18,0,0,0,.17-.18V15.32a3.08,3.08,0,0,0-.79-2.22A2.61,2.61,0,0,0,44.38,12.27Z"/><path id="Path-7" data-name="Path" class="cls-4" d="M55.15,12.39H53.49a.18.18,0,0,0-.18.18v7.12a.18.18,0,0,0,.18.18h1.66a.18.18,0,0,0,.18-.18V12.57A.18.18,0,0,0,55.15,12.39Z"/><path id="Path-8" data-name="Path" class="cls-4" d="M54.32,9.31a1.18,1.18,0,0,0-1.19,1.2,1.14,1.14,0,0,0,.34.84,1.15,1.15,0,0,0,.85.35,1.17,1.17,0,0,0,.85-.35,1.22,1.22,0,0,0,0-1.69A1.12,1.12,0,0,0,54.32,9.31Z"/><path id="Path-9" data-name="Path" class="cls-4" d="M68.4,12.54a.17.17,0,0,0-.15-.07H66.48a.18.18,0,0,0-.17.11l-1.83,4.68-1.82-4.68a.19.19,0,0,0-.17-.12H59.28v-.55a1.06,1.06,0,0,1,.22-.71.72.72,0,0,1,.57-.25,1.26,1.26,0,0,1,.85.35.21.21,0,0,0,.15,0,.21.21,0,0,0,.13-.09l.53-1a.17.17,0,0,0,0-.22,2.77,2.77,0,0,0-1.87-.72A2.53,2.53,0,0,0,58,10,2.56,2.56,0,0,0,57.25,12v.5h-.71a.18.18,0,0,0-.18.18v1.08a.17.17,0,0,0,.18.17h.71V19.7a.17.17,0,0,0,.17.17H59.1a.18.18,0,0,0,.18-.17V13.89H61c1.57,4,2.34,6,2.34,6.24a1.06,1.06,0,0,1-.22.64.66.66,0,0,1-.54.3,1.47,1.47,0,0,1-.93-.36.19.19,0,0,0-.15,0,.14.14,0,0,0-.12.08l-.72,1.17a.18.18,0,0,0,0,.23,2.94,2.94,0,0,0,1.92.77,2.53,2.53,0,0,0,1.43-.43,2.37,2.37,0,0,0,1-1.18l3.4-8.61A.2.2,0,0,0,68.4,12.54Z"/><path id="Path-10" data-name="Path" class="cls-4" d="M52.12,12.39H50.47V10.31a.18.18,0,0,0-.18-.18H48.61a.18.18,0,0,0-.18.18v2.08h-.7a.18.18,0,0,0-.18.18v1.08a.17.17,0,0,0,.18.17h.7v3.54a2.52,2.52,0,0,0,.74,1.92A2.49,2.49,0,0,0,51,20a2.56,2.56,0,0,0,.93-.18.18.18,0,0,0,.11-.16V18.29a.18.18,0,0,0-.08-.15.17.17,0,0,0-.17,0,1.18,1.18,0,0,1-.5.1A.73.73,0,0,1,50.7,18a1,1,0,0,1-.23-.71V13.82h1.65a.18.18,0,0,0,.18-.17V12.57A.18.18,0,0,0,52.12,12.39Z"/></g></g></g></svg>