<svg id="Calque_1" data-name="Calque 1" xmlns="http://www.w3.org/2000/svg" viewBox="0 0 72 30"><path d="M8.28,21.5c0,.08-.11.15-.23.15s-.25,0-.25-.15.1-.16.23-.16S8.28,21.39,8.28,21.5Zm-1.37-.2c0,.09,0,.19.19.21a.21.21,0,0,0,.27-.08c0-.09-.06-.19-.19-.23a.22.22,0,0,0-.27.1Zm1.94-.08c-.13,0-.21.12-.2.22s.13.14.26.11.21-.11.2-.2S9,21.21,8.85,21.22Zm2.9-16.86A10.55,10.55,0,0,0,1,15.1,11,11,0,0,0,8.43,25.62c.57.11.77-.24.77-.53s0-1.78,0-2.7c0,0-3.08.66-3.73-1.31,0,0-.5-1.28-1.22-1.61,0,0-1-.69.07-.68A2.33,2.33,0,0,1,6,19.92a2.32,2.32,0,0,0,3.21.92,2.48,2.48,0,0,1,.7-1.48C7.45,19.09,5,18.73,5,14.5a3.31,3.31,0,0,1,1-2.59,4.14,4.14,0,0,1,.11-3c.92-.29,3,1.19,3,1.19a10.25,10.25,0,0,1,5.53,0s2.11-1.48,3-1.19a4.16,4.16,0,0,1,.12,3A3.41,3.41,0,0,1,19,14.5c0,4.25-2.59,4.58-5,4.86a2.59,2.59,0,0,1,.75,2c0,1.49,0,3.32,0,3.68s.2.64.76.54A10.94,10.94,0,0,0,22.8,15.1,10.79,10.79,0,0,0,11.75,4.36ZM5.25,19.54c-.06,0,0,.14,0,.23s.17.1.23,0,0-.14,0-.23S5.31,19.48,5.25,19.54Zm-.47-.36c0,.06,0,.13.1.17a.13.13,0,0,0,.19,0c0-.06,0-.13-.1-.17A.17.17,0,0,0,4.78,19.18ZM6.2,20.75c-.07.06,0,.19.06.27s.23.12.29,0,0-.18-.06-.27S6.26,20.68,6.2,20.75Zm-.5-.65c-.07,0-.07.16,0,.26s.19.15.25.1a.2.2,0,0,0,0-.27c-.06-.1-.18-.15-.25-.09Z"/><path d="M35.29,14.14H31.57a.17.17,0,0,0-.17.17v1.82a.16.16,0,0,0,.17.17H33v2.26a4.05,4.05,0,0,1-1.23.12c-1.06,0-2.54-.39-2.54-3.66s1.54-3.69,3-3.69a5.85,5.85,0,0,1,2.15.33c.1,0,.2-.08.2-.17L35,9.73a.17.17,0,0,0-.07-.14A6,6,0,0,0,31.79,9c-2.48,0-5,1.05-5,6.13S29.68,21,32.14,21a6.12,6.12,0,0,0,3.27-.86c.05,0,.05-.1.05-.14V14.31A.17.17,0,0,0,35.29,14.14Z"/><path d="M54.46,9.62a.18.18,0,0,0-.17-.17h-2.1a.18.18,0,0,0-.17.17v4.05H48.75V9.62a.17.17,0,0,0-.17-.17H46.49a.18.18,0,0,0-.18.17v11a.18.18,0,0,0,.18.18h2.09a.17.17,0,0,0,.17-.18V15.89H52v4.69a.18.18,0,0,0,.18.18h2.1a.18.18,0,0,0,.17-.18Z"/><path d="M39.24,11.06a1.35,1.35,0,1,0-2.7,0,1.35,1.35,0,1,0,2.7,0Z"/><path d="M39.09,18.27V13.21a.18.18,0,0,0-.17-.17H36.83a.2.2,0,0,0-.18.19v7.25c0,.21.13.28.3.28h1.88c.21,0,.26-.11.26-.28Z"/><path d="M62.42,13.05H60.34a.17.17,0,0,0-.17.18V18.6a2.35,2.35,0,0,1-1.28.39c-.75,0-1-.34-1-1.07V13.23a.18.18,0,0,0-.17-.18H55.66a.17.17,0,0,0-.17.18v5c0,2.18,1.21,2.71,2.88,2.71a4.93,4.93,0,0,0,2.48-.75s0,.39.07.44a.2.2,0,0,0,.16.1h1.34a.18.18,0,0,0,.17-.17V13.23A.18.18,0,0,0,62.42,13.05Z"/><path d="M68.1,12.81a4,4,0,0,0-2,.52V9.62a.17.17,0,0,0-.17-.17h-2.1a.18.18,0,0,0-.17.17v11a.18.18,0,0,0,.17.18H65.3a.19.19,0,0,0,.15-.1,2.81,2.81,0,0,0,.09-.5A3.77,3.77,0,0,0,68,21c1.91,0,3-1,3-4.34S69.28,12.81,68.1,12.81ZM67.28,19a2.47,2.47,0,0,1-1.21-.35V15.16a2.88,2.88,0,0,1,1.07-.35c.75-.06,1.47.16,1.47,2S68.29,19,67.28,19Z"/><path d="M45.11,13H43.54V11c0-.08,0-.12-.13-.12H41.27c-.09,0-.13,0-.13.12V13.1L40,13.38a.18.18,0,0,0-.12.17V14.9a.16.16,0,0,0,.17.17h1.1v3.25c0,2.4,1.69,2.64,2.83,2.64a5.14,5.14,0,0,0,1.24-.2.16.16,0,0,0,.1-.16V19.12a.18.18,0,0,0-.17-.18c-.09,0-.33,0-.57,0-.77,0-1-.36-1-.82V15.07h1.57a.16.16,0,0,0,.17-.17V13.21A.16.16,0,0,0,45.11,13Z"/></svg>