<svg id="Calque_1" data-name="Calque 1" xmlns="http://www.w3.org/2000/svg" viewBox="0 0 72 30"><defs><style>.cls-1{fill:#bbb;}.cls-2{fill:#747474;}.cls-3{fill:#7d7d7d;}.cls-4{fill:#e0e0e0;}.cls-5,.cls-6{fill:#fff;}.cls-6,.cls-8,.cls-9{opacity:0.2;isolation:isolate;}.cls-7{fill:#2a2a2a;fill-opacity:0.2;}.cls-8{fill:#5a5a5a;}.cls-9{fill:#2d2d2d;}.cls-10{fill:#6f6f6f;}</style></defs><path class="cls-1" d="M9,18.31,7.77,20.52H4.45a.82.82,0,0,1-.72-.42L1,15.41a.8.8,0,0,1,0-.82l1-1.79L3.32,15l1.91,3.31Z"/><path class="cls-2" d="M13.24,15.41,10.55,20.1a.84.84,0,0,1-.72.42H7.77L9,18.31,11,15,9,11.69h2.53l1.66,2.9a.83.83,0,0,1,0,.82Z"/><path class="cls-3" d="M11.57,11.69H5.23L3.32,15,2.06,12.8,3.73,9.9a.82.82,0,0,1,.72-.42H9.83a.84.84,0,0,1,.72.42l1,1.79Z"/><path class="cls-4" d="M9,11.69,11,15,9,18.31H5.23L3.32,15l1.91-3.31Z"/><circle class="cls-5" cx="7.14" cy="15" r="1.66"/><path class="cls-6" d="M3.73,10a.83.83,0,0,1,.72-.41H9.83a.85.85,0,0,1,.72.41l1,1.73h0l-1-1.79a.84.84,0,0,0-.72-.42H4.45a.82.82,0,0,0-.72.42L2.06,12.8l0,0L3.73,10Z"/><path class="cls-7" d="M3.32,15l1.91-3.31h6.34l0-.07H5.23L3.32,14.93"/><path class="cls-6" d="M1,14.66l1-1.79,1.26,2.2,1.91,3.31H9l0-.07H5.23L3.32,15,2.06,12.8,1,14.59A.76.76,0,0,0,.93,15,.7.7,0,0,1,1,14.66Z"/><path class="cls-8" d="M7.81,20.45H4.45A.82.82,0,0,1,3.73,20L1,15.34A.7.7,0,0,1,.93,15a.76.76,0,0,0,.11.44L3.73,20.1a.82.82,0,0,0,.72.42H7.77l0-.07Z"/><path class="cls-9" d="M11,15,9.08,11.69H9L11,15Zm2.25.34L10.55,20a.84.84,0,0,1-.72.42h-2l0,.07H9.83a.84.84,0,0,0,.72-.42l2.69-4.69a.84.84,0,0,0,.1-.44.79.79,0,0,1-.1.37Z"/><path class="cls-6" d="M11.57,11.76l1.67,2.9a.79.79,0,0,1,.1.37.84.84,0,0,0-.1-.44l-1.67-2.9H9l0,.07ZM9,18.38,11,15h0L9,18.31,7.77,20.52h0L9,18.38Z"/><path class="cls-10" d="M16.21,14.3c0-.08.06-.15.07-.22A2.35,2.35,0,0,1,20,12.71l.19.16a.53.53,0,0,1-.09.11l-.35.34-.1-.08a1.65,1.65,0,0,0-1.86-.14,1.69,1.69,0,0,0-.82,1.7,1.63,1.63,0,0,0,1.28,1.39,1.6,1.6,0,0,0,1.53-.42,1.22,1.22,0,0,0,.32-.79H18.6v-.63h2.11l0,.21a2,2,0,0,1-1.16,2.1A2.37,2.37,0,0,1,16.28,15c0-.07-.05-.13-.07-.2Z"/><path class="cls-10" d="M28.77,18.23l-.22-.07a1.47,1.47,0,0,1-.95-.84l.56-.23a1,1,0,0,0,.11.15.8.8,0,0,0,1,.33.67.67,0,0,0,.42-.4,1.09,1.09,0,0,0,.05-.6l-.05,0a1.12,1.12,0,0,1-1.21.19,1.51,1.51,0,0,1,.18-2.86,1.09,1.09,0,0,1,1,.22l.08.06,0-.22h.59a.68.68,0,0,1,0,.14c0,.82,0,1.65,0,2.47a3.19,3.19,0,0,1-.1.69,1.17,1.17,0,0,1-.93.88l-.23.07Zm-.62-2.84a.93.93,0,0,0,.16.54.78.78,0,0,0,.75.34.72.72,0,0,0,.63-.5,1,1,0,0,0-.08-.93.75.75,0,0,0-1.11-.2A.86.86,0,0,0,28.15,15.39Z"/><path class="cls-10" d="M71.07,16.79h-.49a1.77,1.77,0,0,1,0-.22c0-.47,0-.94,0-1.41a1.32,1.32,0,0,0,0-.28.58.58,0,0,0-.92-.38.85.85,0,0,0-.35.58,1.23,1.23,0,0,0,0,.27v1.43h-.52V15.2a2,2,0,0,0,0-.34.56.56,0,0,0-.77-.43.79.79,0,0,0-.5.65,1.56,1.56,0,0,0,0,.31v1.22c0,.05,0,.1,0,.17h-.5V14h.48v.38l.14-.14a1.07,1.07,0,0,1,1-.3.79.79,0,0,1,.56.38l.07.1.12-.14a1.11,1.11,0,0,1,1.1-.34.85.85,0,0,1,.68.73.53.53,0,0,0,0,.12Z"/><path class="cls-10" d="M49.2,16.4c-.05,0-.07.05-.08.07a1.21,1.21,0,0,1-1.65.14,1.41,1.41,0,0,1-.52-.88,1.57,1.57,0,0,1,.31-1.34,1.22,1.22,0,0,1,1.56-.31,2.74,2.74,0,0,1,.35.27v-1.6h.51v4H49.2Zm-1.79-1h0a1.23,1.23,0,0,0,0,.19.91.91,0,0,0,.88.8.84.84,0,0,0,.79-.6,1.16,1.16,0,0,0,0-.86.83.83,0,0,0-.77-.53.82.82,0,0,0-.79.51A2.62,2.62,0,0,0,47.41,15.39Z"/><path class="cls-10" d="M25.71,16.86a1.49,1.49,0,1,1,1.51-1.48A1.46,1.46,0,0,1,25.71,16.86Zm.85-1.5a.88.88,0,0,0-.15-.5.81.81,0,0,0-1.31-.09.92.92,0,0,0-.22.54.85.85,0,1,0,1.68,0Z"/><path class="cls-10" d="M22.47,13.89a1.49,1.49,0,1,1,0,3,1.49,1.49,0,1,1,0-3Zm.83,1.47s0-.09,0-.15a.82.82,0,0,0-.57-.69.78.78,0,0,0-.86.23,1,1,0,0,0,0,1.23.81.81,0,0,0,1.12.13A.9.9,0,0,0,23.3,15.36Z"/><path class="cls-10" d="M34.51,15l-1,.41-1,.4a.71.71,0,0,0,.7.46c.28,0,.43-.08.75-.4l.25.16.24.17a1.4,1.4,0,0,1-.92.62,1.44,1.44,0,0,1-1.74-1,1.51,1.51,0,0,1,.36-1.49,1.33,1.33,0,0,1,2.08.17,2,2,0,0,1,.14.25A2.74,2.74,0,0,1,34.51,15Zm-2.08.31c.44-.18.87-.35,1.3-.54A.61.61,0,0,0,33,14.5.8.8,0,0,0,32.43,15.32Z"/><path class="cls-10" d="M39.37,13.3l-.34.35L39,13.59a1.55,1.55,0,0,0-2.57.68,1.81,1.81,0,0,0,0,1.08,1.56,1.56,0,0,0,2.27.8,4.59,4.59,0,0,0,.44-.33l.34.35a2.15,2.15,0,0,1-3,.18,2.18,2.18,0,0,1-.06-3.12A2.08,2.08,0,0,1,39.37,13.3Z"/><path class="cls-10" d="M51.61,15.15v1.62h-.49s0,0,0,0,0,0,0-.07V12.83a.45.45,0,0,1,0-.08h1.42a1.13,1.13,0,0,1,.64.2,1.11,1.11,0,0,1,.55,1.15,1.13,1.13,0,0,1-.85,1,1.84,1.84,0,0,1-.47.06h-.8Zm0-.52h1.06a.71.71,0,0,0,.52-.73.69.69,0,0,0-.61-.64c-.32,0-.63,0-.94,0l0,0Z"/><path class="cls-10" d="M57,16.77V16.4l-.14.15a1.17,1.17,0,0,1-1.53.06.91.91,0,0,1,0-1.34,1.29,1.29,0,0,1,.78-.29,2.08,2.08,0,0,1,.43,0,3.2,3.2,0,0,1,.42.1.58.58,0,0,0-.36-.64.78.78,0,0,0-1,.32l-.46-.19a.92.92,0,0,1,.49-.53,1.41,1.41,0,0,1,1.35,0,1,1,0,0,1,.51.87c0,.58,0,1.16,0,1.74a.17.17,0,0,1,0,.05Zm-.84-.36a.91.91,0,0,0,.82-.66c0-.15,0-.17-.11-.23a1.19,1.19,0,0,0-.87-.06.75.75,0,0,0-.3.2.4.4,0,0,0,.15.66C56,16.36,56.09,16.38,56.19,16.41Z"/><path class="cls-10" d="M64.48,15.43a1.36,1.36,0,0,1-.84,1.32,1.41,1.41,0,0,1-2-1.26,1.45,1.45,0,0,1,.42-1.17,1.39,1.39,0,0,1,1.5-.31,1.34,1.34,0,0,1,.91,1.17,1,1,0,0,1,0,.17Zm-.5,0a1.69,1.69,0,0,0-.12-.44.82.82,0,0,0-.8-.54.86.86,0,0,0-.81.54,1.1,1.1,0,0,0,0,.94.87.87,0,0,0,1.48.18A1.14,1.14,0,0,0,64,15.38Z"/><path class="cls-10" d="M43.65,15.37a1.42,1.42,0,1,1-2.84,0,2.46,2.46,0,0,1,.08-.46,1.42,1.42,0,0,1,2.75.33A1,1,0,0,1,43.65,15.37Zm-2.34,0a1.94,1.94,0,0,0,.11.43.83.83,0,0,0,.79.56.84.84,0,0,0,.82-.52,1.05,1.05,0,0,0-.05-1,.87.87,0,0,0-1.44-.1A1.2,1.2,0,0,0,41.31,15.4Z"/><path class="cls-10" d="M46,14h.48c0,.13.06,2.32,0,2.74H46v-.33l-.15.13a1.09,1.09,0,0,1-1.28.18.9.9,0,0,1-.47-.65,1.12,1.12,0,0,1,0-.32c0-.55,0-1.11,0-1.66V14h.52v1.57a1.34,1.34,0,0,0,0,.2.58.58,0,0,0,.4.56.68.68,0,0,0,.76-.18A1,1,0,0,0,46,15.5V14Z"/><path class="cls-10" d="M60.78,14.48v2.28a3,3,0,0,1-.52,0V14.49h-.51V14h.5v-.39a1,1,0,0,1,1.4-.82l-.08.21-.09.21-.2,0a.43.43,0,0,0-.5.45V14h.71v.47Z"/><path class="cls-10" d="M31.43,16.77h-.61c0-.13,0-4.14,0-4.36h.6C31.46,12.54,31.47,16.56,31.43,16.77Z"/><path class="cls-10" d="M59.41,16.31l.18.42a.86.86,0,0,1-1.3-.73c0-.43,0-.86,0-1.29v-.22h-.48V14h.46c0-.28,0-.55,0-.84h.5c0,.26,0,.53,0,.82.22,0,.44,0,.66,0v.46l-.67,0v1.44a.38.38,0,0,0,.5.4Z"/><path class="cls-10" d="M40.41,16.77H39.9v-4h.51Z"/><path class="cls-10" d="M54.12,12.75h.5v4h-.5Z"/><path class="cls-10" d="M65.42,16.77h-.51V14h.48v.43A1,1,0,0,1,66.61,14l-.19.47h-.2a.71.71,0,0,0-.78.59,2.83,2.83,0,0,0,0,.29c0,.4,0,.81,0,1.21Z"/></svg>