<svg id="Calque_1" data-name="Calque 1" xmlns="http://www.w3.org/2000/svg" viewBox="0 0 72 30"><defs><style>.cls-1{fill:#fff;}</style></defs><path d="M.8,10.94H9.12v8.32H.8Z"/><path class="cls-1" d="M1.58,17.7H4.7v.52H1.58ZM1.87,12h.45v2.07H1.87Z"/><path class="cls-1" d="M1.57,13.67h1v.38h-1Zm0-1.69h1v.38h-1Zm2,2.1A.75.75,0,0,1,3.2,14a.93.93,0,0,1-.27-.22l.29-.32a.93.93,0,0,0,.18.16.38.38,0,0,0,.19.05.28.28,0,0,0,.21-.08.41.41,0,0,0,.07-.26V12h.47v1.36a1.13,1.13,0,0,1,0,.32.51.51,0,0,1-.15.23.49.49,0,0,1-.23.14.81.81,0,0,1-.31.05"/><path d="M11.18,11H13v8.32H11.18Zm2.32,2h1.8v.9a2.25,2.25,0,0,1,1.87-1,2.08,2.08,0,0,1,2.16,2.36v4.12H17.52V15.71c0-.85-.4-1.29-1.09-1.29s-1.13.44-1.13,1.29v3.56H13.5Zm6.8,4.56v-3h-.76V12.9h.76V11.27h1.81V12.9h1.5v1.54h-1.5v2.72c0,.42.18.62.59.62a1.83,1.83,0,0,0,.89-.22V19a2.65,2.65,0,0,1-1.43.36c-1.11,0-1.86-.44-1.86-1.91Z"/><path d="M23.56,16.12v0a3.17,3.17,0,0,1,3.15-3.31c2.13,0,3.1,1.65,3.1,3.46,0,.14,0,.3,0,.47H25.36A1.47,1.47,0,0,0,26.91,18a2.1,2.1,0,0,0,1.55-.65l1,.91a3.17,3.17,0,0,1-2.6,1.19,3.18,3.18,0,0,1-3.33-3.29Zm4.49-.53a1.36,1.36,0,0,0-1.34-1.36,1.42,1.42,0,0,0-1.38,1.36Zm2.11-5H32v8.68h-1.8Zm2.18,0h1.81v8.68H32.34Zm2.26,0h1.9v1.6H34.6Zm0,2.31h1.8v6.37h-1.8V12.9Zm1.94,5.24,1.15-1.28a2,2,0,0,0,1.52.83c.68,0,1.11-.42,1.11-1.38V11h1.88V16.4a3,3,0,0,1-.78,2.22,3,3,0,0,1-2.16.77A3.43,3.43,0,0,1,36.59,18.14ZM45.25,11h1.83v8.32H45.25Zm2.48,0H51a4.14,4.14,0,0,1,4.42,4.13v0A4.16,4.16,0,0,1,51,19.27H47.73Zm1.83,1.65v5H51a2.37,2.37,0,0,0,2.51-2.48v0A2.39,2.39,0,0,0,51,12.6ZM55.8,11h6.27v1.63H57.61v1.68h3.93v1.63H57.61v1.75h4.52v1.63H55.8V11ZM66,10.89h1.68l3.57,8.38H69.28l-.76-1.87H65l-.76,1.87H62.38Zm1.92,4.89-1.1-2.7-1.11,2.7Z"/></svg>