<svg id="Calque_1" data-name="Calque 1" xmlns="http://www.w3.org/2000/svg" viewBox="0 0 72 30"><defs><style>.cls-1{fill:#6f6f6f;}.cls-2{fill:#999;}</style></defs><path class="cls-1" d="M6.37,21.75s-1,.63.72.8a14.54,14.54,0,0,0,5.54-.22,8,8,0,0,0,1.47.72c-5.23,2.23-11.84-.14-7.73-1.3Zm-.67-2.9s-1.11.84.63,1a21.09,21.09,0,0,0,7.15-.35,2.77,2.77,0,0,0,1.07.67c-6.3,1.87-13.36.17-8.85-1.34ZM18,23.94s.76.62-.85,1.12c-3,.89-12.55,1.16-15.23,0-.94-.41.85-1,1.43-1.08a4.56,4.56,0,0,1,.89-.13c-1-.71-6.83,1.47-2.95,2.1C12,27.69,20.8,25.19,18,23.94ZM6.87,15.81S2,17,5.12,17.37a38.44,38.44,0,0,0,6.43,0c2-.18,4-.54,4-.54a9.89,9.89,0,0,0-1.2.63c-5,1.29-14.47.71-11.75-.63a9.17,9.17,0,0,1,4.24-1Zm8.71,4.87c5-2.59,2.68-5.09,1.07-4.78a2.82,2.82,0,0,0-.58.18.75.75,0,0,1,.44-.36c3.17-1.12,5.68,3.35-1,5.09a.63.63,0,0,0,.09-.13ZM7.36,27.73c4.82.32,12.19-.17,12.37-2.45,0,0-.36.89-4,1.56A40.21,40.21,0,0,1,3.56,27s.63.54,3.8.71Z"/><path class="cls-2" d="M12.54,1.07S15.31,3.88,9.9,8.13c-4.33,3.43-1,5.4,0,7.63C7.36,13.49,5.52,11.48,6.78,9.6,8.61,6.83,13.65,5.49,12.54,1.07ZM11.11,13.89c1.29,1.47-.36,2.81-.36,2.81s3.31-1.69,1.79-3.79-2.46-3,3.35-6.35c0,0-9.16,2.28-4.78,7.33Z"/><path class="cls-1" d="M45.52,23.13V13c0-2.58-1.44-4.34-5.06-4.34a14.21,14.21,0,0,0-5.38,1.14l.52,1.86a12,12,0,0,1,4.13-.83c2,0,2.9.83,2.9,2.48v1.35h-1c-5,0-7.24,1.86-7.24,4.86,0,2.48,1.55,3.93,4.34,3.93A6.72,6.72,0,0,0,43,21.58l.2,1.55Zm-2.89-3.31a5,5,0,0,1-3.21,1.45A2,2,0,0,1,37.25,19c0-1.45.83-2.48,4.14-2.48h1.24v3.31Zm12.62,3.31H51.63L47.28,9h3.1l2.69,8.69.62,2.58A50,50,0,0,0,56.49,9h3.1a59.52,59.52,0,0,1-4.34,14.17Zm16.75,0V13c0-2.58-1.45-4.34-5.07-4.34a14.25,14.25,0,0,0-5.38,1.14L62,11.65a13.26,13.26,0,0,1,4.24-.83c2,0,2.89.83,2.89,2.48v1.35h-1c-5,0-7.25,1.86-7.25,4.86,0,2.48,1.45,3.93,4.24,3.93a6.72,6.72,0,0,0,4.45-1.86l.21,1.55H72Zm-2.9-3.31a5,5,0,0,1-3.2,1.45A2,2,0,0,1,63.73,19c0-1.45.82-2.48,4.13-2.48H69.1v3.31ZM31.15,25.51a6.92,6.92,0,0,1-3.62,2.69l-1.35-1.66a6.9,6.9,0,0,0,2.49-2.38c.41-.72.51-1.76.51-4.13V3.89h3.11V19.82c0,3.2-.31,4.45-1.14,5.69Z"/></svg>