<svg id="Calque_1" data-name="Calque 1" xmlns="http://www.w3.org/2000/svg" viewBox="0 0 72 30"><defs><style>.cls-1{fill:#666;}.cls-1,.cls-10,.cls-13,.cls-14,.cls-15,.cls-16,.cls-4,.cls-5,.cls-6,.cls-7,.cls-9{fill-rule:evenodd;}.cls-13,.cls-2{fill:#727272;}.cls-14,.cls-3{fill:#202020;}.cls-4{fill:#dadada;}.cls-5{fill:#494949;}.cls-6{fill:#6c6c6c;}.cls-7,.cls-8{fill:#e7e7e7;}.cls-9{fill:#686868;}.cls-10,.cls-11{fill:#fff;}.cls-12{fill:none;stroke:#666;stroke-miterlimit:5;stroke-width:0.37px;}.cls-15{fill:#a4a4a4;}.cls-16{fill:#1a1a1a;}</style></defs><path class="cls-1" d="M21.47,14.48A10.18,10.18,0,0,1,11.41,24.77,10.18,10.18,0,0,1,1.34,14.48,10.18,10.18,0,0,1,11.41,4.19,10.18,10.18,0,0,1,21.47,14.48"/><path class="cls-2" d="M1.75,17S1,6.29,10.92,6l-.7-1.15L4.86,6.64,3.33,8.4,2,11l-.76,3,.23,2"/><path class="cls-3" d="M4.51,7.46a10.17,10.17,0,0,0,0,14.12,9.6,9.6,0,0,0,13.79,0,10.14,10.14,0,0,0,0-14.12,9.6,9.6,0,0,0-13.79,0ZM4.07,22a10.76,10.76,0,0,1,0-15A10.2,10.2,0,0,1,18.74,7a10.76,10.76,0,0,1,0,15A10.18,10.18,0,0,1,4.07,22"/><path class="cls-4" d="M15.64,14.54l-1.53.23L12,15,10.7,15,9.39,15l-1-.32-.88-1-.69-2-.16-.42L5.75,11l-.53-.88L4.83,8.89l.42-1.11,1-.35.81.39.38.84.46-.08.15-.19-.14-.87,0-1.11L8.1,4.88V4l.7-1.12L10,2l2.15-.92,2.38.35,2.07,1.49,1,1.53.61,1.12.15,2.76-.46,2.37L17,12.81l-.81,1.11"/><path class="cls-5" d="M14.34,21.17l-5.48.23v.92l.46,3.22-.23.26L5.25,24.5,5,24,4.6,19.71l-.88-2.6-.19-.62,3.06-2.11,1-.38.85,1,.72.66L10,16l.38.12.46,2,.35.42.88-.31-.61,1.19,3.33,1.57-.42.23"/><path class="cls-6" d="M5.25,7.79l1-.35.8.39.39.84.46-.08L8,8.13l-.23-.88L8,5.14,7.82,4l.69-.8L10,2l-.43-.58-2.1,1-.89.69L6.1,4.22l-.77,1L5.1,6.48l.15,1.31"/><path class="cls-4" d="M6.82,4.18A4.34,4.34,0,0,1,9.7,2.08c2.3-.69.11-.5.11-.5l-2.49,1-1,1-.42.77.88-.08M5.67,7.52A2.35,2.35,0,0,1,7.94,4.45L7.82,4l-2.11.5-.61,2,.15,1.3.42-.27"/><path class="cls-7" d="M6.9,11.08l.5-.48a.32.32,0,0,1,.27.29,5.86,5.86,0,0,0,1.81,4c.16.12-1.23-.19-1.23-.19L7,12.77M14,10.36s.09-1.16.4-1.08a.44.44,0,0,1,.31.41s-.76.49-.71.67"/><path class="cls-8" d="M17.14,6.11s-.63.13-.69.69.69.11.8.08M12.5,6.14s-.85.12-.85.65,1,.5,1.23.27"/><path class="cls-7" d="M7.28,8.62s-1.46-.88-1.61,0-.5,1.45.23,2.33l-.5-.15L4.94,9.58,4.78,8.43l.89-.92,1,.08.58.46,0,.57M8,6.21a5.29,5.29,0,0,1,3.94-4c2.72-.53,4.14.12,4.68.73,0,0-2.42-2.87-4.72-2s-4,2.5-3.94,3.53L8,6.22M16.87,3.3s-1.11,0-1.15,1a.89.89,0,0,0,.07.32s.89-1,1.42-.46M12,4.67S11.8,3.14,10.5,4c-.85.58-.77,1.38-.62,1.53s.12.47.24.25.08-.9.5-1.1,1.11-.4,1.38,0"/><path class="cls-9" d="M8.4,15,4.79,16.64s1.5,5.95.73,7.78L5,24.23,5,22,4,17.68l-.42-1.19L7.28,14,8.4,15m.37,3.29.51.62v2.3H8.67l-.08-1.8c0-.19.08-.88.08-.88m.11,3-1.73.08.5.34,1.23.19"/><path class="cls-5" d="M14.68,21.21l1.42,0,.35,3.52L15,24.88l-.31-3.68"/><path class="cls-5" d="M15.07,21.21l2.14-.12.88-2.34c0-.11.77-3.22.77-3.22l-1.72-1.8-.35-.31-.92.92V17.9l-.8,3.31"/><path class="cls-9" d="M16,20.94l-1.34.26.2,1.08c.49.23,1.34-.39,1.34-.39m-.16-7.66,2.69,2,.07-.92-2-1.88-.73.8"/><path class="cls-10" d="M10.11,28.76l-.79-3.22-.39-2.38L8.86,21.4l3.59-.19h2.23l-.2,4,.34,3.11,0,.57-2.92.23-1.76-.38"/><path class="cls-4" d="M14.19,21.17A33.37,33.37,0,0,0,14.57,28a7.3,7.3,0,0,1-2.84.92L15,28.8l.39-.23-.46-6.29-.12-1.34"/><path class="cls-10" d="M16.51,24.39,18,24l2.83-.16.43-1.3-.77-2.26-.88-.12-1.23.39-1.18.57L16.59,21l-.49.19"/><path class="cls-4" d="M16.48,23.62a5.59,5.59,0,0,1,1.15-.42l-.42-2.11.5-.19.35,2.22,2.34.12a3.44,3.44,0,0,0,.34-1.8l.42,1.22,0,.69-.61.92-.69.16-1.15,0-.38-.5L17,24.08l-.42.15"/><path class="cls-11" d="M15,20.9l-.84-2.15-.89-1.25s.2-.54.46-.54h.89l.84.31-.08,1.42L15,20.9"/><path class="cls-4" d="M15.14,20.18a17.76,17.76,0,0,1-1.07-2.38s.19-.46.46-.34.84.42.84.42v-.73l-1.3-.27-.88.11,1.49,3.53.32,0"/><path class="cls-11" d="M10.45,15.11,9.39,15l-1-.32V15l.48.53,1.54.69"/><path class="cls-4" d="M8.74,15.23a4.36,4.36,0,0,0,1.57.38l0,.46-1.07-.23-.65-.46.11-.15"/><path class="cls-1" d="M16.51,17.08a7.55,7.55,0,0,1-1.75-.24c0-.21,0-.42,0-.57a1.48,1.48,0,0,1,.6-.13,1.1,1.1,0,0,0-.67-.07,1.11,1.11,0,0,0-.11-.35c.37-.13,1.23-1,1.72-.7.23.13.33.9.34,1.27a1.32,1.32,0,0,1-.15.79"/><path class="cls-12" d="M16.51,17.08a7.55,7.55,0,0,1-1.75-.24c0-.21,0-.42,0-.57a1.48,1.48,0,0,1,.6-.13,1.1,1.1,0,0,0-.67-.07,1.11,1.11,0,0,0-.11-.35c.37-.13,1.23-1,1.72-.7.23.13.33.9.34,1.27a1.32,1.32,0,0,1-.15.79Z"/><path class="cls-1" d="M13.4,16v.15a5.94,5.94,0,0,1-.75.23,1.91,1.91,0,0,1,.81.21l0,.37a13.81,13.81,0,0,1-1.15.87,2.74,2.74,0,0,1-1.15.35c-.13,0-.14-.18-.19-.33a4.76,4.76,0,0,1-.37-1.28c0-.59-.09-1.59.55-1.46a5.37,5.37,0,0,1,1.52.55,1.61,1.61,0,0,0,.76.33"/><path class="cls-12" d="M13.4,16v.15a5.94,5.94,0,0,1-.75.23,1.91,1.91,0,0,1,.81.21l0,.37a13.81,13.81,0,0,1-1.15.87,2.74,2.74,0,0,1-1.15.35c-.13,0-.14-.18-.19-.33a4.76,4.76,0,0,1-.37-1.28c0-.59-.09-1.59.55-1.46a5.37,5.37,0,0,1,1.52.55,1.61,1.61,0,0,0,.76.33Z"/><path class="cls-1" d="M13.77,16.73a2,2,0,0,1-.1-.7c.86-.58,1,1,.1.7"/><path class="cls-12" d="M13.77,16.73a2,2,0,0,1-.1-.7C14.53,15.45,14.7,17,13.77,16.73Z"/><path class="cls-13" d="M15,17s-.27-.38-.08-.5.38,0,.5-.19,0-.32,0-.54.23-.27.42-.31.73-.12.8.07l-.23-.69L16,14.68l-1.45.84-.08.43v.84M11,18.25l-.16-1.79c-.08-.89.22-.74,1-.74a2,2,0,0,1,.77.24c.21.42-.35.33.24.65s1.38-.16,1.18-.77c-.11-.13-.59,0-.76-.13l-.9-.47c-.38-.19-1.26-.48-1.66-.21-1,.71.06,2.45.43,3.18"/><path class="cls-14" d="M12,4.67a1.59,1.59,0,0,0-1.88,1.14c-.28-.06-.17-.45-.1-.65a1.78,1.78,0,0,1,1.56-1.1c.26,0,.62.28.42.61m5.1,1.19h.05a11.61,11.61,0,0,0,.74,1.45c-.2.47-1.51.87-1.49,0,.28-.13.77,0,1-.19a2.77,2.77,0,0,1-.31-1.3m-4.56,0A4.58,4.58,0,0,0,13.16,7c.14.14.42.31.28.7a.85.85,0,0,1-.4.34c-.5.15-1.65,0-1.26-.59.41,0,1,.27,1.27,0-.23-.38-.66-1.13-.5-1.57m4.36,4.17a4.18,4.18,0,0,1-2.82.88A.84.84,0,0,1,14,9.86c.14.24,0,.65.42.71.7.12,1.51-.42,2-.61.31-.53,0-.72-.31-1.06a4.19,4.19,0,0,1-1.32-2.58c.24-.17.26.26.29.33a9.29,9.29,0,0,0,1.6,2.2c.14.15.36.29.38.39.08.28-.18.62-.15.81M7,9.54c-.23-.13-.29-.72-.56-.74s-.32.77-.32,1.23A1.43,1.43,0,0,1,6,8.63c-.24-.11-.33.13-.46.21.16-1.18,1.73-.54,1.46.7m10.36,1A2.18,2.18,0,0,1,15.51,12a2.42,2.42,0,0,1,0-.67,5.63,5.63,0,0,0,1.86-.75m-4.9.43a6.46,6.46,0,0,0,2.74.35,3.6,3.6,0,0,1,0,.67c-1.14.06-2.49-.22-2.79-1m-.12.64c.45,1.13,2,1,3.31,1a.7.7,0,0,1-.33.39,3.26,3.26,0,0,1-2.16,0,3,3,0,0,1-.81-.9c-.1-.13-.58-.45,0-.45"/><path class="cls-15" d="M16.85,17.86,15.18,20.5a12.36,12.36,0,0,0,.42-3.06,1,1,0,0,1,1.26.42"/><path class="cls-14" d="M19.7,21.13c-.59.11-1,.69-1.59.65a2,2,0,0,1,1.59-.65m.26.92a8.79,8.79,0,0,1-1.54.09c.23-.35,1.13-.23,1.54-.09m.17.81a16.42,16.42,0,0,1-1.73-.05c.31-.33,1.38-.12,1.73.05"/><path class="cls-4" d="M15.83,25.05a11.89,11.89,0,0,1,.31,2.12,2.23,2.23,0,0,1-.87.19l-.09-2.22c.2,0,.49-.14.65-.1"/><path class="cls-4" d="M15,15c-.27.17-.5.39-.77.59a1.66,1.66,0,0,1-1.32-.38s.05,0,.05,0c.62.27,1.41-.12,2-.17"/><path class="cls-15" d="M11.68,19.24c.18-.75.85-1.13,1.45-1.54a12.17,12.17,0,0,1,1.43,2.81,14.81,14.81,0,0,1-2.87-1.27"/><path class="cls-14" d="M15.18,25.15c0,.6.06,1.57.09,2.21a2.23,2.23,0,0,0,.87-.19,11.89,11.89,0,0,0-.31-2.12c-.16-.05-.45.11-.65.1ZM8.91,21.7a31.6,31.6,0,0,0,1.35,6.65,8.78,8.78,0,0,0,4.84.09c-.25-1.22-.14-2.7-.29-4l-.21-3A16.72,16.72,0,0,0,8.91,21.7ZM15,21.49c0,1.05,0,2.08.12,3.13l1.05-.18a21.86,21.86,0,0,0-.35-3,2.28,2.28,0,0,0-.82.09Zm2-.17a3,3,0,0,0-.6,0l.37,2.7a2.71,2.71,0,0,0,.68-.18A5.44,5.44,0,0,0,17,21.32Zm3.09,2.83a1.34,1.34,0,0,0,.81-1.64,7.48,7.48,0,0,0-.53-1.78c-.16-.24-.59-.55-.93-.33-.56.36-1.54.46-1.94.89a15.45,15.45,0,0,1,.35,2.47,7.14,7.14,0,0,1,2.13.06,8.26,8.26,0,0,0-1.28.32,2.61,2.61,0,0,0,1.39,0Zm-5.57-3.64a12.24,12.24,0,0,0-1.43-2.82c-.61.41-1.28.8-1.45,1.54a14.93,14.93,0,0,0,2.88,1.28Zm1-3.07a12.36,12.36,0,0,1-.42,3.06,22.72,22.72,0,0,0,1.67-2.64,1,1,0,0,0-1.26-.42ZM14.43,17c-.24,0-.44.27-.75.14l-.21.24a18.73,18.73,0,0,1,1.52,3,13.63,13.63,0,0,0,.32-3c-.39,0-.61-.35-.88-.38Zm-.76-1a2.31,2.31,0,0,0,.1.7C14.7,17,14.53,15.45,13.67,16Zm-1-.34a5.37,5.37,0,0,0-1.52-.55c-.64-.13-.58.87-.55,1.46a4.88,4.88,0,0,0,.37,1.28c.05.15.06.3.19.33a2.89,2.89,0,0,0,1.15-.35A14,14,0,0,0,13.44,17v-.37a1.91,1.91,0,0,0-.81-.21c.22-.11.55-.11.75-.23V16a1.66,1.66,0,0,1-.76-.33ZM8.82,15c-.33.33.93.79,1.33.82,0-.21.13-.42.1-.57A4.3,4.3,0,0,1,8.82,15Zm4.09.15s0,0-.05,0a1.69,1.69,0,0,0,1.32.37L15,15c-.63.06-1.42.45-2,.17Zm3.75,1.14c0-.37-.11-1.14-.34-1.28-.49-.28-1.35.58-1.72.71a.9.9,0,0,1,.11.35,1,1,0,0,1,.67.07,1.48,1.48,0,0,0-.6.13c-.06.15,0,.36,0,.57a7.55,7.55,0,0,0,1.75.24,1.33,1.33,0,0,0,.15-.79Zm-8.4-1c-.1-.07-.81-1-.9-1a14.88,14.88,0,0,0-3.54,2.2A19.12,19.12,0,0,1,5.32,24,9.29,9.29,0,0,0,9.09,25.4l-.46-3.66c-.39-.17-1,0-1.33,0,0-.45.56-.2.61-.5s-.31-.24-.2-.6c.29.1.44.33.75.42.29-.62,0-1.71,0-2.23,0-.1.05-.54.27-.46s0,1.17,0,1.66a2.53,2.53,0,0,0,.13,1.18,43.93,43.93,0,0,1,4.73-.39,9.38,9.38,0,0,1-1.27-.57c-.26-.14-1.07-.44-1.14-.69s.31-.59.38-.92c-.77.42-.92-.41-1.1-1a8.13,8.13,0,0,1-.3-1.23,12.06,12.06,0,0,1-2-1ZM16,14.48c1.06-.52,1.25,1.93.84,2.71.06.24.28.33.37.54l-1.85,3.1c.45-.28,1.09,0,1.62-.26.19-.07.33-.52.48-.87a18.71,18.71,0,0,0,1-3.14,3.85,3.85,0,0,0,.14-.86c-.05-.34-.51-.59-.74-.8l-1.15-1.09c-.18.27-.57.45-.72.67ZM5.83,5.05c-.51.56-.39,1.6-.34,2.35a1.36,1.36,0,0,1,2.12,1c.44,0,.16-.54.08-.89-.25-1.12.44-2.34,0-3.37a2.8,2.8,0,0,0-1.9.89ZM9.45,1.82A5.1,5.1,0,0,0,6.37,4a8.71,8.71,0,0,1,1-.26,2.5,2.5,0,0,0,.48,0c.31-.08.57-.78.81-1s.5-.36.69-.59c.12-.06.3-.06.31-.24s-.11-.1-.17-.08Zm6,.31C14.23,1.45,12.22,1,11,1.58A6.15,6.15,0,0,0,8.08,4C8.52,5,8,6,7.91,7c0,.56.27,1,.29,1.65-.15.25-.61.28-.93.26-.11-.53-.3-1.14-.85-1.2A1.29,1.29,0,0,0,5,9c0,.79.61,2.11,1.54,2,.36,0,.44-.39.83-.39.21.42-.32.55-.38.85A3.11,3.11,0,0,0,7.1,12,7.5,7.5,0,0,0,8,14.1c.47.67,1.39.77,2.38.83.17-.38.82-.34,1.25-.25a4,4,0,0,1-1.37-1.12,2.77,2.77,0,0,1-.93-1.67,6.13,6.13,0,0,0,3.09,2.73,4.14,4.14,0,0,0,3.44-.81,4.25,4.25,0,0,0,.86-1.06,9,9,0,0,0,1.35-5.43,5.87,5.87,0,0,0-.32-2.18c-.28-.57-1.25-1.08-1.81-.56-.11-.56.47-.9,1.14-.7a6.07,6.07,0,0,0-1.67-1.75Zm2.22,18.35c.93-.47,2.67-1.25,3.25,0a9.85,9.85,0,0,1,.58,1.71c.16.67-.17,2.07-.86,2.3a4.15,4.15,0,0,1-2.05,0,1.27,1.27,0,0,1-.24-.33,2.88,2.88,0,0,0-1.43.24c0,.39-.22.45-.47.53-.18.72.37,1.66.24,2.32-.1.47-.67.54-1.1.63a3.73,3.73,0,0,0,0,.69,1.05,1.05,0,0,1-.94.61A11.85,11.85,0,0,1,10,29,31,31,0,0,1,9,26a6.14,6.14,0,0,1-3.26-1c-.34-.16-.8-.24-.92-.51a4.22,4.22,0,0,1-.11-1.22,18.36,18.36,0,0,0-.45-3.57c-.15-.55-.39-1-.56-1.56a10.74,10.74,0,0,1-.51-1.58c-.11-.72.57-.77,1-1.08.67-.48,1.2-.75,1.93-1.19a4.5,4.5,0,0,0,.94-.61c.15-.3-.25-.72-.36-.95a2.84,2.84,0,0,1-.28-1.06,2,2,0,0,1-1.36-.87,3.29,3.29,0,0,1-.38-2.89c0-.08.18-.23.21-.34a4.27,4.27,0,0,0-.1-.78c0-1.24.21-2.31,1-2.69.34-1.35,1.56-1.8,2.7-2.47A8.66,8.66,0,0,1,10,1.05a6.9,6.9,0,0,1,5.88.57,7.88,7.88,0,0,1,1.95,2.16c.93,1.89.87,5,.22,7.3a8,8,0,0,1-.39,1.13c-.13.26-.51.77-.46,1s.87.86,1.05,1,.92.72,1,1.11a4,4,0,0,1-.3,1.38l-1.24,3.75"/><path class="cls-7" d="M11.44,11.26c.05-.07.32-.17.71,0,0,0-.46.07-.42.84l-.19,0s-.2-.69-.1-.82"/><path class="cls-16" d="M14.8,17.85a.21.21,0,0,1-.21.21.21.21,0,0,1-.21-.21.21.21,0,0,1,.21-.21.22.22,0,0,1,.21.21m.21,1a.21.21,0,1,1-.21-.21.21.21,0,0,1,.21.21"/><path d="M24,20.34V19.07h.7a1.23,1.23,0,0,0,.24.74.79.79,0,0,0,.63.24.75.75,0,0,0,.73-.4,3.69,3.69,0,0,0,.21-1.52V11H25.32v-.65h4.31V11h-1v7.22a2.5,2.5,0,0,1-.67,1.92,3.07,3.07,0,0,1-2.11.61,4.58,4.58,0,0,1-.9-.09,6.58,6.58,0,0,1-.93-.28ZM34.5,15.15a4.26,4.26,0,0,0-.21-1.6.76.76,0,0,0-.72-.46.73.73,0,0,0-.71.45,3.65,3.65,0,0,0-.22,1.51v.1Zm2.11.64h-4v0A3,3,0,0,0,33,17.45a1.23,1.23,0,0,0,1.09.49,1.47,1.47,0,0,0,1-.33,1.49,1.49,0,0,0,.5-1h.9a2.32,2.32,0,0,1-.93,1.45,3.54,3.54,0,0,1-1.94.46,3.18,3.18,0,0,1-2.3-.79,3.05,3.05,0,0,1-.8-2.26,3,3,0,0,1,.82-2.23,3.14,3.14,0,0,1,2.28-.8,2.78,2.78,0,0,1,2.19.85,3.75,3.75,0,0,1,.82,2.46Z"/><path id="B" d="M37.5,18.4v-.66h.81V13.29H37.5v-.65h2.73v.81a2.2,2.2,0,0,1,.79-.74,2.37,2.37,0,0,1,1.13-.24,1.81,1.81,0,0,1,1.46.58,2.48,2.48,0,0,1,.5,1.68v3h.82v.66H41.49v-.66h.71V14.68a2,2,0,0,0-.19-1,.7.7,0,0,0-.65-.29.93.93,0,0,0-.85.43,2.58,2.58,0,0,0-.27,1.35v2.58h.7v.66Z"/><path d="M49,18.4H45.56v-.66h.82V10.62h-.82V10H48.3v5.42l2.32-2.09h-.69v-.65h2.63v.65H51.5L50,14.63l2.44,3.12h.62v.66h-3.3v-.66h.67l-1.6-2.05-.53.47v1.57H49v.66ZM53.9,11a1,1,0,0,1,.3-.74,1,1,0,0,1,.74-.3,1,1,0,0,1,1,1,1,1,0,0,1-.3.73,1,1,0,0,1-.73.3,1,1,0,0,1-1-1ZM56,17.74h.83v.66H53.26v-.66h.81V13.29h-.81v-.65H56v5.1Z"/><path id="B-2" data-name="B" d="M57.48,18.4v-.66h.82V13.29h-.82v-.65h2.74v.81a2.2,2.2,0,0,1,.79-.74,2.35,2.35,0,0,1,1.12-.24,1.82,1.82,0,0,1,1.47.58,2.48,2.48,0,0,1,.5,1.68v3h.82v.66H61.48v-.66h.7V14.68a2,2,0,0,0-.18-1,.7.7,0,0,0-.65-.29.92.92,0,0,0-.85.43,2.58,2.58,0,0,0-.27,1.35v2.58h.7v.66H57.48Z"/><path d="M65.69,18.23V16.62h.61a1.43,1.43,0,0,0,.49,1,1.68,1.68,0,0,0,1.1.33,1.62,1.62,0,0,0,.9-.2.64.64,0,0,0,.31-.58.73.73,0,0,0-.2-.54,2,2,0,0,0-.76-.33l-.8-.2a2.77,2.77,0,0,1-1.29-.63,1.6,1.6,0,0,1-.39-1.13,1.58,1.58,0,0,1,.65-1.39,3.46,3.46,0,0,1,2-.46,8.34,8.34,0,0,1,1.08.08,10.39,10.39,0,0,1,1.28.26v1.45h-.61a1.2,1.2,0,0,0-.42-.89,1.66,1.66,0,0,0-1.07-.3,1.72,1.72,0,0,0-.88.19.68.68,0,0,0-.13,1,1.37,1.37,0,0,0,.62.29l.79.2a3.6,3.6,0,0,1,1.57.71A1.55,1.55,0,0,1,71,16.65a1.61,1.61,0,0,1-.71,1.44,3.93,3.93,0,0,1-2.16.47A7.7,7.7,0,0,1,67,18.47c-.4,0-.82-.13-1.27-.23Z"/></svg>