<svg id="Calque_1" data-name="Calque 1" xmlns="http://www.w3.org/2000/svg" viewBox="0 0 72 30"><defs><style>.cls-1{fill:#686868;}.cls-2{fill:#fff;stroke:#fff;stroke-miterlimit:10;stroke-width:0.05px;}</style></defs><path class="cls-1" d="M10.73,5.25a1.39,1.39,0,0,0-.52.14l-7,3.33a1.33,1.33,0,0,0-.72.9L.78,17.12a1.31,1.31,0,0,0,.19,1l.07.11,4.84,6a1.36,1.36,0,0,0,1,.49h7.76a1.34,1.34,0,0,0,1.05-.5l4.83-6a1.33,1.33,0,0,0,.26-1.12L19.09,9.61a1.32,1.32,0,0,0-.72-.89l-7-3.33A1.32,1.32,0,0,0,10.73,5.25Z"/><path class="cls-2" d="M10.8,7.8a.45.45,0,0,0-.41.47v.11a2.57,2.57,0,0,0,.06.4,3.88,3.88,0,0,1,0,.76.52.52,0,0,1-.14.22v.18a6.46,6.46,0,0,0-.75.11,5.44,5.44,0,0,0-2.74,1.56l-.15-.1a.37.37,0,0,1-.25,0A3.85,3.85,0,0,1,5.89,11a3.83,3.83,0,0,0-.28-.29l-.09-.07a.44.44,0,0,0-.29-.11.4.4,0,0,0-.33.14.45.45,0,0,0,.1.62l.09.07a3.79,3.79,0,0,0,.34.2,3.54,3.54,0,0,1,.63.44.41.41,0,0,1,.08.24l.14.12a5.4,5.4,0,0,0-.85,3.77l-.18,0a.39.39,0,0,1-.18.18,3.68,3.68,0,0,1-.75.13,2.69,2.69,0,0,0-.4,0l-.11,0h0a.42.42,0,0,0-.36.47.44.44,0,0,0,.11.24.43.43,0,0,0,.43.1h.13l.37-.14A3.19,3.19,0,0,1,5.21,17a.41.41,0,0,1,.24.08l.18,0a5.45,5.45,0,0,0,2.42,3L8,20.2a.45.45,0,0,1,0,.23,4.64,4.64,0,0,1-.38.69l-.23.33-.05.12a.41.41,0,0,0,.15.57.42.42,0,0,0,.6-.22l.06-.1.12-.39a3.08,3.08,0,0,1,.32-.75.31.31,0,0,1,.18-.09l.1-.17a5.41,5.41,0,0,0,3.86,0l.08.16a.36.36,0,0,1,.21.13,3.83,3.83,0,0,1,.29.7,2.91,2.91,0,0,0,.12.39l.05.11a.43.43,0,0,0,.75.08.41.41,0,0,0,0-.44l-.06-.11a2.46,2.46,0,0,0-.22-.34,3.58,3.58,0,0,1-.37-.66.31.31,0,0,1,0-.25,1.22,1.22,0,0,1-.07-.17A5.4,5.4,0,0,0,16,17l.18,0a.31.31,0,0,1,.24-.08,3.19,3.19,0,0,1,.73.21l.37.14.11,0h0a.42.42,0,0,0,.53-.27.42.42,0,0,0,0-.27.43.43,0,0,0-.34-.28l-.13,0-.4,0a3.26,3.26,0,0,1-.75-.12.39.39,0,0,1-.18-.18l-.17,0a5.43,5.43,0,0,0-.87-3.76l.15-.14a.31.31,0,0,1,.08-.24,4.61,4.61,0,0,1,.62-.44,3.12,3.12,0,0,0,.35-.2l.09-.07a.41.41,0,0,0,.13-.58.43.43,0,0,0-.22-.18.42.42,0,0,0-.43.1l-.1.08a3.71,3.71,0,0,0-.27.29,4.51,4.51,0,0,1-.55.52.43.43,0,0,1-.25,0l-.16.12a5.52,5.52,0,0,0-3.48-1.68c0-.06,0-.16,0-.19a.34.34,0,0,1-.14-.21,4.73,4.73,0,0,1,.05-.75,2.76,2.76,0,0,0,.06-.4V8.27a.45.45,0,0,0-.41-.47Zm-.52,3.25-.13,2.19h0a.36.36,0,0,1-.38.35.37.37,0,0,1-.2-.07l-1.8-1.27a4.19,4.19,0,0,1,2.07-1.13,3.5,3.5,0,0,1,.45-.07Zm1.05,0a4.33,4.33,0,0,1,2.5,1.2l-1.78,1.27a.37.37,0,0,1-.52-.06.35.35,0,0,1-.08-.22Zm-4.23,2,1.65,1.47h0a.37.37,0,0,1,0,.52.27.27,0,0,1-.18.11h0l-2.11.61a4.36,4.36,0,0,1,.61-2.73Zm7.39,0a4.41,4.41,0,0,1,.63,2.72L13,15.18h0a.36.36,0,0,1-.26-.45.36.36,0,0,1,.12-.18l1.63-1.46Zm-4,1.59h.68l.41.52-.15.65-.61.29-.6-.29L10,15.18Zm2.16,1.78h.09l2.17.37A4.28,4.28,0,0,1,13.14,19l-.84-2a.36.36,0,0,1,.2-.48.24.24,0,0,1,.12,0ZM9,16.45a.37.37,0,0,1,.37.37.32.32,0,0,1,0,.14h0l-.84,2a4.27,4.27,0,0,1-1.73-2.17l2.16-.37Zm1.83.89a.37.37,0,0,1,.34.19h0l1.07,1.92a3,3,0,0,1-.43.12,4.31,4.31,0,0,1-2.36-.12l1.06-1.92a.37.37,0,0,1,.32-.19Z"/><path d="M25.24,15.39l.4-.44.4-.46.37-.42.3-.36h1.58c-.32.36-.62.71-.92,1s-.63.67-1,1a7.27,7.27,0,0,1,.54.57c.19.23.38.45.55.69a8.17,8.17,0,0,1,.49.71c.15.24.27.46.37.65H26.82l-.32-.51c-.13-.19-.25-.37-.39-.55s-.28-.36-.43-.54a3.66,3.66,0,0,0-.44-.44v2.05H23.91V11.7l1.33-.21v3.9ZM33,18.23c-.29.07-.58.14-.87.18a7,7,0,0,1-1.12.08,2.62,2.62,0,0,1-1-.16,1.38,1.38,0,0,1-.62-.45A1.72,1.72,0,0,1,29,17.2a3.77,3.77,0,0,1-.1-.88V13.71h1.33v2.44a1.83,1.83,0,0,0,.17.93.66.66,0,0,0,.63.28h.3l.28,0V13.71H33Zm5.59-2.18a2.9,2.9,0,0,1-.17,1,2.23,2.23,0,0,1-.47.78,2.3,2.3,0,0,1-.77.49,2.75,2.75,0,0,1-1,.17l-.5,0-.51-.06-.49-.08-.41-.11V11.7l1.33-.21v2.33a2.29,2.29,0,0,1,1-.2,2,2,0,0,1,.88.17,1.72,1.72,0,0,1,.64.49,2.08,2.08,0,0,1,.39.77A3.4,3.4,0,0,1,38.55,16.05ZM37.2,16c0-.85-.32-1.28-.94-1.28a1.4,1.4,0,0,0-.41.06,1.27,1.27,0,0,0-.32.13v2.41l.24,0h.33a.94.94,0,0,0,.83-.37,1.65,1.65,0,0,0,.27-1Zm2.15.07A2.65,2.65,0,0,1,39.54,15a2.13,2.13,0,0,1,.5-.78,2,2,0,0,1,.72-.47,2.31,2.31,0,0,1,.83-.16,2.08,2.08,0,0,1,1.57.61A2.53,2.53,0,0,1,43.74,16c0,.08,0,.16,0,.26s0,.17,0,.24h-3a.87.87,0,0,0,.38.65,1.54,1.54,0,0,0,.91.24,3.35,3.35,0,0,0,.71-.07,2.94,2.94,0,0,0,.58-.16l.17,1.07a1.36,1.36,0,0,1-.28.11,2.59,2.59,0,0,1-.4.09l-.46.07a4.19,4.19,0,0,1-.5,0,3,3,0,0,1-1.1-.19,2.21,2.21,0,0,1-.77-.51,1.93,1.93,0,0,1-.45-.77,2.88,2.88,0,0,1-.15-1Zm3.11-.5a1.61,1.61,0,0,0-.06-.33.8.8,0,0,0-.15-.29.86.86,0,0,0-.26-.2.84.84,0,0,0-.38-.08.85.85,0,0,0-.39.08A.63.63,0,0,0,41,15a.81.81,0,0,0-.17.28,1.3,1.3,0,0,0-.08.34Zm5.12-.7-.41-.09a3.05,3.05,0,0,0-.52,0l-.3,0-.26.05v3.57H44.76V14c.28-.09.56-.17.84-.23a4.9,4.9,0,0,1,1.08-.12l.26,0,.3,0,.3.06.26.07Zm.93-1a6.72,6.72,0,0,1,.87-.18,7,7,0,0,1,1.12-.09,2.74,2.74,0,0,1,1,.16,1.47,1.47,0,0,1,.63.44,1.72,1.72,0,0,1,.33.68,3.57,3.57,0,0,1,.1.87v2.64H51.22V15.91a1.72,1.72,0,0,0-.17-.91.68.68,0,0,0-.63-.27l-.3,0-.28,0v3.61H48.51V13.87Zm5,2.21A2.83,2.83,0,0,1,53.71,15a2.43,2.43,0,0,1,.5-.78,2.37,2.37,0,0,1,.71-.47,2.41,2.41,0,0,1,.84-.16,2.09,2.09,0,0,1,1.57.61A2.53,2.53,0,0,1,57.91,16c0,.08,0,.16,0,.26a2.32,2.32,0,0,0,0,.24h-3a.91.91,0,0,0,.39.65,1.51,1.51,0,0,0,.9.24,3.51,3.51,0,0,0,.72-.07,2.67,2.67,0,0,0,.57-.16l.18,1.07a1.62,1.62,0,0,1-.28.11,2.59,2.59,0,0,1-.4.09l-.46.07-.5,0a2.93,2.93,0,0,1-1.1-.19,2.12,2.12,0,0,1-.77-.51,2,2,0,0,1-.45-.77,3.15,3.15,0,0,1-.15-1Zm3.11-.5a.88.88,0,0,0-.06-.33.8.8,0,0,0-.15-.29.82.82,0,0,0-.25-.2.88.88,0,0,0-.39-.08.84.84,0,0,0-.38.08.6.6,0,0,0-.27.2.78.78,0,0,0-.16.28,1.89,1.89,0,0,0-.09.34Zm2.26-3,1.32-.22V13.7H61.8v1.1H60.21v1.65a1.26,1.26,0,0,0,.15.66.62.62,0,0,0,.59.25,2.18,2.18,0,0,0,.44,0,1.91,1.91,0,0,0,.41-.11l.19,1a3.1,3.1,0,0,1-1.26.24,2.25,2.25,0,0,1-.89-.15,1.37,1.37,0,0,1-.57-.41,1.47,1.47,0,0,1-.3-.63,3.29,3.29,0,0,1-.08-.83V12.55Zm3.62,3.53A2.83,2.83,0,0,1,62.7,15a2.13,2.13,0,0,1,1.22-1.25,2.31,2.31,0,0,1,.83-.16,2.08,2.08,0,0,1,1.57.61A2.49,2.49,0,0,1,66.9,16c0,.07,0,.16,0,.25s0,.17,0,.25h-3a.84.84,0,0,0,.38.64,1.47,1.47,0,0,0,.91.24,4.17,4.17,0,0,0,.71-.06,3,3,0,0,0,.58-.17l.17,1.08-.28.11-.39.09-.47.07-.5,0a3,3,0,0,1-1.1-.18,2.23,2.23,0,0,1-.77-.52,2,2,0,0,1-.46-.76,2.87,2.87,0,0,1-.14-1Zm3.11-.5a.88.88,0,0,0-.06-.33.8.8,0,0,0-.15-.29.82.82,0,0,0-.25-.2.88.88,0,0,0-.39-.08.84.84,0,0,0-.38.08.77.77,0,0,0-.28.19,1.18,1.18,0,0,0-.16.29,1.89,1.89,0,0,0-.09.34Zm3.64,1.85a1.15,1.15,0,0,0,.52-.07.28.28,0,0,0,.15-.27.32.32,0,0,0-.2-.27,3.52,3.52,0,0,0-.59-.28,5.72,5.72,0,0,1-.57-.24,1.84,1.84,0,0,1-.43-.3,1,1,0,0,1-.27-.41,1.42,1.42,0,0,1-.1-.58,1.26,1.26,0,0,1,.49-1,2.14,2.14,0,0,1,1.34-.38,3.8,3.8,0,0,1,.82.08,3.32,3.32,0,0,1,.62.16l-.23,1-.5-.14a3.08,3.08,0,0,0-.61-.06c-.41,0-.62.12-.62.35a.35.35,0,0,0,0,.14.29.29,0,0,0,.1.12,1.55,1.55,0,0,0,.22.12,2.44,2.44,0,0,0,.35.15,4.64,4.64,0,0,1,.72.32,1.67,1.67,0,0,1,.45.34.9.9,0,0,1,.23.4,1.79,1.79,0,0,1,.07.51,1.2,1.2,0,0,1-.52,1.05,2.58,2.58,0,0,1-1.47.36,4.54,4.54,0,0,1-1-.11q-.28-.07-.57-.18l.22-1.07a4.48,4.48,0,0,0,.69.2A2.77,2.77,0,0,0,69.26,17.43Z"/></svg>