<svg id="Calque_1" data-name="Calque 1" xmlns="http://www.w3.org/2000/svg" viewBox="0 0 72 30"><defs><style>.cls-1{fill:#ababab;}.cls-2{fill:gray;}.cls-3{fill:#010101;}.cls-4{isolation:isolate;font-size:4.48px;fill:#fff;font-family:Helvetica;}</style></defs><g id="g3"><path id="path5" class="cls-1" d="M50.36,25.15C56.93,18.58,58,9,52.8,3.8S38-.33,31.45,6.23,26.78,25.35,29,27.58c1.81,1.81,14.78,4.13,21.35-2.43Z"/><path id="path7" class="cls-2" d="M23.41,15.65C19.6,11.84,14.05,11.21,11,14.24s-2.4,8.58,1.42,12.39S23.53,29.34,24.82,28C25.87,27,27.22,19.47,23.41,15.65Z"/></g><g id="g9"><g id="g11"><path id="path13" class="cls-3" d="M36.56,23.54a11.57,11.57,0,0,1-1.77,1.37,3,3,0,0,1-1.46.44,1.56,1.56,0,0,1-1.28-.62,2.61,2.61,0,0,1-.48-1.65,13.05,13.05,0,0,1,.67-3.75,24.41,24.41,0,0,1,1.64-4l1.89-.69.13,0c.15,0,.27.1.36.31a2.23,2.23,0,0,1,.13.85,6.67,6.67,0,0,1-.69,2.94,13.69,13.69,0,0,1-2.19,3c0,.51-.06.87-.06,1.06a1.94,1.94,0,0,0,.24,1,.72.72,0,0,0,.63.37,1.64,1.64,0,0,0,.86-.28,11.06,11.06,0,0,0,1.38-1.21v.86Zm-2.85-2.91a9,9,0,0,0,1.53-2.35A5.66,5.66,0,0,0,35.83,16a1.08,1.08,0,0,0-.08-.44c-.06-.11-.13-.17-.21-.17s-.45.46-.8,1.37a25.89,25.89,0,0,0-1,3.83Z"/><path id="path15" class="cls-3" d="M42.12,23.54a9.41,9.41,0,0,1-1.7,1.37,3.24,3.24,0,0,1-1.66.44,2.18,2.18,0,0,1-1.63-.65,2.37,2.37,0,0,1-.62-1.7,4.27,4.27,0,0,1,1.1-2.85A3.14,3.14,0,0,1,40,18.88a1.65,1.65,0,0,1,1.1.35,1.17,1.17,0,0,1,.42.94c0,1-1.09,1.86-3.27,2.5.2,1,.72,1.45,1.55,1.45a1.79,1.79,0,0,0,.94-.27,7.48,7.48,0,0,0,1.35-1.17v.86Zm-3.9-1.38c1.27-.35,1.9-1,1.9-2,0-.48-.17-.72-.52-.72s-.63.25-.93.75a3.71,3.71,0,0,0-.45,1.94Z"/><path id="path17" class="cls-3" d="M50.05,23.54A16.15,16.15,0,0,1,48.35,25a1.76,1.76,0,0,1-1,.34c-.79,0-1.15-.69-1.11-2.07a7.43,7.43,0,0,1-1.37,1.56,2,2,0,0,1-1.3.51,1.36,1.36,0,0,1-1.11-.61A2.48,2.48,0,0,1,42,23.23a4,4,0,0,1,.61-2.12,5,5,0,0,1,1.57-1.64,3.26,3.26,0,0,1,1.69-.62,1.3,1.3,0,0,1,1.3.85l1.52-.84h.42L48.48,21a9.81,9.81,0,0,0-.5,2.25c0,.43.15.64.45.64a1,1,0,0,0,.64-.31c.23-.2.56-.52,1-.94v.86ZM44.61,24c.5,0,1-.43,1.4-1.27a5.15,5.15,0,0,0,.66-2.34,1,1,0,0,0-.19-.65.61.61,0,0,0-.49-.23q-.75,0-1.41,1.26a5.11,5.11,0,0,0-.67,2.33,1,1,0,0,0,.2.65.63.63,0,0,0,.5.25Z"/><path id="path19" class="cls-3" d="M55.6,23.54c-1.24,1.21-2.2,1.82-2.88,1.82A.93.93,0,0,1,52,25a1.43,1.43,0,0,1-.31-.95,5.76,5.76,0,0,1,1.12-2.8,4.33,4.33,0,0,1-1.2.39,9,9,0,0,1-1.52,1.92h-.17v-.67a9.47,9.47,0,0,0,1-1.3.88.88,0,0,1-.64-.83,2.42,2.42,0,0,1,.39-1.23,1.21,1.21,0,0,1,1.07-.65c.39,0,.58.2.58.6A4.06,4.06,0,0,1,52,20.79c.82-.08,1.54-.71,2.15-1.88l.68,0-.69,1.9c-.29.8-.48,1.35-.56,1.64a2.58,2.58,0,0,0-.13.77.74.74,0,0,0,.15.49.44.44,0,0,0,.39.19.84.84,0,0,0,.51-.18c.16-.12.53-.46,1.1-1v.86Z"/><path id="path21" class="cls-3" d="M62.9,23.54c-1.15,1.21-2.13,1.81-2.95,1.81a1,1,0,0,1-.8-.35,1.38,1.38,0,0,1-.3-.94,7.2,7.2,0,0,1,.65-2.42,4.58,4.58,0,0,0,.35-1.12c0-.16-.06-.24-.19-.24a.56.56,0,0,0-.27.11,2.55,2.55,0,0,0-.37.29c-.12.11-.26.25-.41.41s-.28.3-.43.48l-.42.48a1.51,1.51,0,0,0-.34.71c-.07.42-.12.8-.15,1.16s0,.61,0,1.06l-1.64.38c-.06-.66-.09-1.16-.09-1.49a9.14,9.14,0,0,1,.28-2.26,15,15,0,0,1,.9-2.41l1.81-.35a17.33,17.33,0,0,0-.75,2.42,14.34,14.34,0,0,1,1.93-1.88A2.29,2.29,0,0,1,61,18.86a.82.82,0,0,1,.63.29,1,1,0,0,1,.25.71,7.46,7.46,0,0,1-.64,2.35,5.72,5.72,0,0,0-.44,1.46c0,.3.12.45.37.45s1-.48,1.76-1.44Z"/></g></g><text id="text25" class="cls-4" transform="translate(38.84 16.39)">scikit</text></svg>