<svg id="Calque_1" data-name="Calque 1" xmlns="http://www.w3.org/2000/svg" viewBox="0 0 72 30"><defs><style>.cls-1,.cls-2{fill:#6f6f6f;}.cls-2{fill-rule:evenodd;}</style></defs><path class="cls-1" d="M26.06,19.51h-.8V16.4c0-.31,0-.62,0-.92a1.41,1.41,0,0,1-.14.44L23.7,19.54h-.56L21.68,16l-.14-.48a7.93,7.93,0,0,1,0,1v3.11h-.76V14.73H22l1.28,3.21.21.54a3.1,3.1,0,0,1,.21-.58L25,14.69h1.11Zm1.49-4.17a.43.43,0,0,1-.35-.14.37.37,0,0,1-.14-.3.34.34,0,0,1,.14-.31.64.64,0,0,1,.35-.14.5.5,0,0,1,.35.14.4.4,0,0,1,.14.31.33.33,0,0,1-.14.3A.43.43,0,0,1,27.55,15.34Zm.38,4.17h-.8V16.06h.8Zm3.58-.14a1.94,1.94,0,0,1-1,.24,1.7,1.7,0,0,1-1.25-.48,1.64,1.64,0,0,1-.48-1.23,1.79,1.79,0,0,1,.52-1.36A1.89,1.89,0,0,1,30.68,16a2,2,0,0,1,.83.17v.71a1.4,1.4,0,0,0-.76-.27,1,1,0,0,0-.84.34,1.28,1.28,0,0,0-.31.88,1.18,1.18,0,0,0,.31.86,1.14,1.14,0,0,0,.8.3,1.22,1.22,0,0,0,.8-.3v.65Zm2.81-2.56a.77.77,0,0,0-.42-.1.73.73,0,0,0-.59.31,1.27,1.27,0,0,0-.24.85v1.64h-.8V16.06h.8v.71a1.58,1.58,0,0,1,.35-.58A.8.8,0,0,1,34,16a.71.71,0,0,1,.32.07Zm2.12,2.8a1.75,1.75,0,0,1-1.29-.48,1.73,1.73,0,0,1-.48-1.26,1.79,1.79,0,0,1,.52-1.36A1.81,1.81,0,0,1,36.55,16a1.69,1.69,0,0,1,1.28.49,1.76,1.76,0,0,1,.45,1.32,2,2,0,0,1-.48,1.34,2.15,2.15,0,0,1-1.36.44Zm0-3a.93.93,0,0,0-.73.3,1.41,1.41,0,0,0-.27.89,1.27,1.27,0,0,0,.27.85.9.9,0,0,0,.73.31.89.89,0,0,0,.73-.31,1.25,1.25,0,0,0,.24-.88,1.39,1.39,0,0,0-.24-.89,1,1,0,0,0-.73-.27Zm2.37,2.79v-.71a1.78,1.78,0,0,0,1,.34c.48,0,.73-.14.73-.41a.52.52,0,0,0-.07-.21.3.3,0,0,0-.18-.13,1.33,1.33,0,0,0-.24-.11l-.31-.1-.38-.17a2.83,2.83,0,0,1-.28-.2.62.62,0,0,1-.17-.28.8.8,0,0,1-.07-.34,1,1,0,0,1,.1-.44.71.71,0,0,1,.31-.31,1.6,1.6,0,0,1,.46-.2,2.25,2.25,0,0,1,.52-.07,2.36,2.36,0,0,1,.87.13v.69a1.4,1.4,0,0,0-.84-.24.67.67,0,0,0-.28,0,1.18,1.18,0,0,0-.2.07.22.22,0,0,0-.14.14.33.33,0,0,0,0,.17.45.45,0,0,0,0,.2.24.24,0,0,0,.14.14,1.33,1.33,0,0,0,.24.1,2.86,2.86,0,0,0,.31.1,2.09,2.09,0,0,0,.41.17c.14,0,.21.14.32.21l.21.27a1.21,1.21,0,0,1,.06.38.63.63,0,0,1-.13.44,1,1,0,0,1-.32.31,3.48,3.48,0,0,1-.48.21,2.22,2.22,0,0,1-1.56-.18Zm4.82.21a1.73,1.73,0,0,1-1.28-.48,1.69,1.69,0,0,1-.48-1.26A1.74,1.74,0,0,1,43.77,16a1.72,1.72,0,0,1,1.29.49,1.79,1.79,0,0,1,.45,1.33A2,2,0,0,1,45,19.17a2.26,2.26,0,0,1-1.37.44Zm0-3a.91.91,0,0,0-.73.3,1.41,1.41,0,0,0-.28.89,1.27,1.27,0,0,0,.28.85.89.89,0,0,0,.73.31.9.9,0,0,0,.73-.31,1.3,1.3,0,0,0,.24-.88,1.39,1.39,0,0,0-.24-.89,1,1,0,0,0-.73-.28Zm4.55-1.54a.67.67,0,0,0-.39-.1c-.38,0-.59.2-.59.64v.48h.8v.62h-.8v2.83h-.79V16.71h-.59v-.62h.59v-.55a1,1,0,0,1,.34-.85,1.54,1.54,0,0,1,1.36-.24v.61h.07Zm2.29,4.4a1.45,1.45,0,0,1-.63.11c-.69,0-1-.31-1-1V16.67h-.59v-.61h.59v-.79l.8-.2v1h.83v.62h-.83v1.71a.75.75,0,0,0,.1.44.45.45,0,0,0,.38.14.61.61,0,0,0,.35-.11v.58Z"/><path class="cls-2" d="M11.7,10.23,9.11,15.45l4.56,5.28-8.47,1,13.14.14Zm-.52-2.06-5.94,5L.82,20.59l3.76-.37Z"/><path class="cls-1" d="M55.76,14.66h-.9L53,19.47h.91l.41-1.23h2l.45,1.23h.9Zm-1.18,2.93.66-1.91a2.82,2.82,0,0,0,.07-.31,1.55,1.55,0,0,0,.07.31l.69,1.91Z"/><polygon class="cls-1" points="60.8 16.36 58.92 18.85 60.8 18.85 60.8 19.47 57.81 19.47 57.81 19.17 59.76 16.64 58.02 16.64 58.02 16.02 60.83 16.02 60.83 16.36 60.8 16.36"/><path class="cls-1" d="M64.55,19.47h-.8v-.54a1.17,1.17,0,0,1-1.08.61c-.83,0-1.25-.48-1.25-1.47V16h.8v2c0,.62.24.93.73.93a.78.78,0,0,0,.59-.25,1.1,1.1,0,0,0,.24-.68V16h.8Z"/><path class="cls-1" d="M67.6,16.77a.83.83,0,0,0-.41-.1.74.74,0,0,0-.6.31,1.27,1.27,0,0,0-.24.85v1.64h-.8V16h.8v.72a1.44,1.44,0,0,1,.35-.58.81.81,0,0,1,.55-.21.78.78,0,0,1,.31.07Z"/><path class="cls-1" d="M71.18,17.66a1.75,1.75,0,0,0-.39-1.26A1.37,1.37,0,0,0,69.68,16a1.59,1.59,0,0,0-1.21.52A1.81,1.81,0,0,0,68,17.76a1.78,1.78,0,0,0,.46,1.34,1.66,1.66,0,0,0,1.21.48,2.35,2.35,0,0,0,1.26-.31v-.62a1.65,1.65,0,0,1-1,.34,1.12,1.12,0,0,1-.8-.27.93.93,0,0,1-.31-.75h2.39Zm-2.43-.24a1,1,0,0,1,.28-.65.76.76,0,0,1,.59-.24.67.67,0,0,1,.55.24.92.92,0,0,1,.21.65Z"/></svg>