<svg id="Calque_1" data-name="Calque 1" xmlns="http://www.w3.org/2000/svg" viewBox="0 0 72 30"><defs><style>.cls-1{fill:#ccc;}.cls-2{fill:#080808;fill-rule:evenodd;}</style></defs><path class="cls-1" d="M19.07,3.41H4.25A3.53,3.53,0,0,0,.72,6.94V21.76a3.53,3.53,0,0,0,3.53,3.53H19.07a3.53,3.53,0,0,0,3.52-3.53V6.94A3.53,3.53,0,0,0,19.07,3.41Z"/><path class="cls-2" d="M15.54,6.94H13.42l1.76,3.17L11.3,6.94H9.19l1.94,3.88L7.07,6.94H5l2.12,4.94L5,21.76H7.07l4.06-10.59L9.19,21.76H11.3l3.88-11.29L13.42,21.76h2.12L19.42,9.41Z"/><path class="cls-2" d="M65.64,8.35c3.52,0,5.64,2.63,5.64,6s-2.12,6-5.64,6S60,17.71,60,14.35,62.11,8.35,65.64,8.35Zm-15.88.71V20H47.29V9.41Zm9.17-.36v2.47l-1.41.18a2.19,2.19,0,0,0-2.12,2.29V20H52.93V13.64c0-3,1.77-4.41,4.59-4.76Zm-24.69,0a3.39,3.39,0,0,1,2.82,1.41A3.82,3.82,0,0,1,40.23,8.7c1.77,0,3.88,1.06,3.88,4.59V20H41.64v-6.7a1.95,1.95,0,1,0-3.88,0V20H35.29v-6.7a1.95,1.95,0,1,0-3.88,0V20H28.94V9.41l2.47-.35v1A3.28,3.28,0,0,1,34.24,8.7Zm31.4,2.12c-2.12,0-3.18,1.58-3.18,3.53s1.06,3.53,3.18,3.53,3.17-1.59,3.17-3.53S67.75,10.82,65.64,10.82ZM48.52,4.47a1.48,1.48,0,0,1,1.59,1.59,1.59,1.59,0,1,1-3.17,0A1.48,1.48,0,0,1,48.52,4.47Z"/></svg>