<svg id="Calque_1" data-name="Calque 1" xmlns="http://www.w3.org/2000/svg" viewBox="0 0 72 30"><defs><style>.cls-1{fill:#fff;}</style></defs><path d="M.73,8.93H10.94V19.14H.73Z"/><path class="cls-1" d="M1.69,10.21h1a.88.88,0,0,1,1,.88h0a.91.91,0,0,1-1,.9H2.25v.76H1.69V10.21Zm1,1.29a.39.39,0,0,0,.44-.39h0c0-.25-.17-.38-.45-.38H2.25v.78Zm1.23,0h0a1.3,1.3,0,0,1,1.28-1.32h0a1.32,1.32,0,0,1,1,.39L5.91,11a1,1,0,0,0-.65-.29.76.76,0,0,0-.74.8h0a.76.76,0,0,0,.74.8.93.93,0,0,0,.67-.3l.36.36a1.32,1.32,0,0,1-1,.46,1.29,1.29,0,0,1-1.31-1.27v0M1.69,17.23H5.52v.63H1.69Z"/><path d="M13.48,8.93h4.17c2.43,0,3.9,1.44,3.9,3.53v0c0,2.36-1.83,3.58-4.12,3.58H15.72v3.06H13.48V8.93Zm4,5.15a1.59,1.59,0,0,0,1.78-1.55v0c0-1-.7-1.54-1.82-1.54H15.72v3.12Zm10-2.76h2.3l-3,8c-.6,1.59-1.24,2.19-2.56,2.19a3.68,3.68,0,0,1-2-.54L23,19.36a2,2,0,0,0,.95.31.74.74,0,0,0,.77-.51l-3.06-7.84H24l1.78,5.32Zm2,2.74v0a5.19,5.19,0,0,1,5.32-5.28,5.28,5.28,0,0,1,4,1.57L37.36,12a3.77,3.77,0,0,0-2.61-1.15A3,3,0,0,0,31.8,14v0a3,3,0,0,0,2.95,3.2A3.67,3.67,0,0,0,37.43,16l1.43,1.44a5.21,5.21,0,0,1-4.18,1.82A5.12,5.12,0,0,1,29.45,14.06Zm9.63-5.57H41.3v3.94a2.74,2.74,0,0,1,2.29-1.25c1.68,0,2.65,1.1,2.65,2.9v5H44V14.77c0-1-.49-1.58-1.34-1.58s-1.38.53-1.38,1.58v4.36H39.08Zm7.45,8.4v0c0-1.71,1.3-2.49,3.15-2.49a5.44,5.44,0,0,1,1.91.32v-.13c0-.92-.57-1.43-1.68-1.43a5.85,5.85,0,0,0-2.16.42l-.56-1.69a6.9,6.9,0,0,1,3-.63,3.58,3.58,0,0,1,2.64.88,3.36,3.36,0,0,1,.84,2.49v4.53H51.57v-.84a3,3,0,0,1-2.36,1,2.42,2.42,0,0,1-2.68-2.39Zm5.08-.51V16a3.56,3.56,0,0,0-1.41-.29c-1,0-1.53.38-1.53,1.08v0c0,.6.5.95,1.21.95,1,0,1.73-.57,1.73-1.37Zm2.58-5.06h2.22v1.57a2.42,2.42,0,0,1,2.49-1.72v2.32h-.12c-1.47,0-2.37.89-2.37,2.76v2.88H54.19Zm5.15,0h2.22v1.11a2.78,2.78,0,0,1,2.3-1.25,2.34,2.34,0,0,1,2.2,1.23,3.22,3.22,0,0,1,2.57-1.23c1.64,0,2.64,1,2.64,2.87v5.08H69V14.77c0-1-.46-1.58-1.3-1.58s-1.34.53-1.34,1.58v4.36H64.19V14.77c0-1-.47-1.58-1.3-1.58s-1.33.54-1.33,1.58v4.36H59.34V11.32Z"/></svg>