<svg id="Calque_1" data-name="Calque 1" xmlns="http://www.w3.org/2000/svg" xmlns:xlink="http://www.w3.org/1999/xlink" viewBox="0 0 72 30"><defs><style>.cls-1{fill:#646464;}.cls-2{fill:url(#Dégradé_sans_nom_7);}.cls-3{fill:url(#Dégradé_sans_nom_6);}.cls-4{opacity:0.44;isolation:isolate;fill:url(#Dégradé_sans_nom_5);}</style><linearGradient id="Dégradé_sans_nom_7" x1="84.41" y1="-334.12" x2="100.94" y2="-348.35" gradientTransform="matrix(0.56, 0, 0, -0.57, -47.9, -184.83)" gradientUnits="userSpaceOnUse"><stop offset="0" stop-color="#909090"/><stop offset="1" stop-color="#5d5d5d"/></linearGradient><linearGradient id="Dégradé_sans_nom_6" x1="107.33" y1="-356.95" x2="101.43" y2="-348.6" gradientTransform="matrix(0.56, 0, 0, -0.57, -47.9, -184.83)" gradientUnits="userSpaceOnUse"><stop offset="0" stop-color="#d0d0d0"/><stop offset="1" stop-color="#e2e2e2"/></linearGradient><radialGradient id="Dégradé_sans_nom_5" cx="-421.48" cy="-120.58" r="4.4" gradientTransform="matrix(0, -0.24, -1.05, 0, -118.7, -77.31)" gradientUnits="userSpaceOnUse"><stop offset="0" stop-color="#b8b8b8" stop-opacity="0.5"/><stop offset="1" stop-color="#7f7f7f" stop-opacity="0"/></radialGradient></defs><g id="g2303"><path id="path46" class="cls-1" d="M27.15,12.88c0-2.21-.63-3.34-1.89-3.4a3.4,3.4,0,0,0-1.47.24,2.2,2.2,0,0,0-.77.41V15.4a3.76,3.76,0,0,0,2.15.7C26.49,16,27.15,14.94,27.15,12.88ZM28.7,13a4.68,4.68,0,0,1-.79,2.8,2.91,2.91,0,0,1-2.45,1.29A4.31,4.31,0,0,1,23,16.32v4.79l-1.35-.48V10a3.15,3.15,0,0,1,.85-.71,6,6,0,0,1,2.93-.72l0,0a2.67,2.67,0,0,1,2.43,1.3A5.48,5.48,0,0,1,28.7,13Z"/><path id="path48" class="cls-1" d="M37,16.12a7.49,7.49,0,0,1-.45,3.12,3.19,3.19,0,0,1-1.74,1.39,6.76,6.76,0,0,1-2.23.45l-.23-.86A10.62,10.62,0,0,0,34,19.89a2.22,2.22,0,0,0,1.35-1,5,5,0,0,0,.3-2.12V16.4a6.91,6.91,0,0,1-2.9.62A2.65,2.65,0,0,1,31,16.4a2.14,2.14,0,0,1-.85-1.74V9l1.35-.47v5.66a1.72,1.72,0,0,0,.58,1.4,2.22,2.22,0,0,0,1.52.47,3.76,3.76,0,0,0,2-.72V8.78H37Z"/><path id="path50" class="cls-1" d="M42.23,17l-.44,0A2.7,2.7,0,0,1,40,16.46,1.91,1.91,0,0,1,39.36,15V9.63h-.92V8.78h.92V6.52L40.71,6V8.78h1.52v.85H40.71v5.28A1.29,1.29,0,0,0,41.12,16a2.05,2.05,0,0,0,1.11.29Z"/><path id="path52" class="cls-1" d="M50.41,16.88H49.06V11.66a2.44,2.44,0,0,0-.37-1.37,1.35,1.35,0,0,0-1.19-.64,4.32,4.32,0,0,0-2.32,1v6.25H43.82V4.41L45.18,4V9.66A4.74,4.74,0,0,1,48,8.72a2.24,2.24,0,0,1,1.73.72,2.53,2.53,0,0,1,.67,1.8v5.64Z"/><path id="path54" class="cls-1" d="M57.59,12.67a4.13,4.13,0,0,0-.48-2.1A2,2,0,0,0,55.33,9.5q-2.22.12-2.22,3.18A5.27,5.27,0,0,0,53.58,15a1.85,1.85,0,0,0,1.78,1.17C56.85,16.18,57.59,15,57.59,12.67Zm1.48,0a4.82,4.82,0,0,1-.92,3A3.34,3.34,0,0,1,55.33,17a3.26,3.26,0,0,1-2.77-1.35,4.81,4.81,0,0,1-.91-3,4.32,4.32,0,0,1,1-2.87,3.39,3.39,0,0,1,2.72-1.24,3.45,3.45,0,0,1,2.74,1.24A4.32,4.32,0,0,1,59.07,12.68Z"/><path id="path56" class="cls-1" d="M66.82,16.88H65.46V11.37A1.85,1.85,0,0,0,64.92,10a2,2,0,0,0-1.45-.49,3.19,3.19,0,0,0-1.83.63v6.79H60.28v-7a7,7,0,0,1,2.15-1.11,6.62,6.62,0,0,1,1.63-.24,3.85,3.85,0,0,1,.91.1,2.59,2.59,0,0,1,1.29.68,1.81,1.81,0,0,1,.56,1.33Z"/><path id="path1948" class="cls-2" d="M8.33,4.46a10.53,10.53,0,0,0-1.94.17c-1.73.3-2,.94-2,2.11V8.29H8.42v.52H2.83A2.53,2.53,0,0,0,.29,10.87,7.53,7.53,0,0,0,.29,15c.29,1.2,1,2.06,2.16,2.06h1.4V15.2a2.58,2.58,0,0,1,2.54-2.52h4.06a2,2,0,0,0,2-2.07V6.74a2.26,2.26,0,0,0-2-2.11A12.71,12.71,0,0,0,8.33,4.46ZM6.13,5.71a.78.78,0,1,1-.76.78A.77.77,0,0,1,6.13,5.71Z"/><path id="path1950" class="cls-3" d="M13,8.81v1.8a2.61,2.61,0,0,1-2.54,2.58H6.39a2.07,2.07,0,0,0-2,2.07v3.87c0,1.1,1,1.75,2,2.06a6.76,6.76,0,0,0,4.06,0c1-.29,2-.89,2-2.06V17.58H8.42v-.52h6.09c1.18,0,1.62-.82,2-2.06a7.06,7.06,0,0,0,0-4.13c-.3-1.18-.85-2.06-2-2.06Zm-2.29,9.8a.78.78,0,1,1-.76.77A.77.77,0,0,1,10.7,18.61Z"/><path id="text3004" class="cls-1" d="M69.45,7.57h.23V6.09h.56V5.91H68.89v.18h.56V7.57m1,0h.21V6.22l.44,1.35h.22l.46-1.35V7.57H72V5.91h-.29l-.5,1.42-.43-1.42h-.33V7.57"/><path id="path1894" class="cls-4" d="M13.91,23.83c0,.58-2.44,1.05-5.45,1.05S3,24.41,3,23.83s2.43-1.06,5.44-1.06S13.91,23.24,13.91,23.83Z"/></g></svg>