<svg id="Calque_1" data-name="Calque 1" xmlns="http://www.w3.org/2000/svg" xmlns:xlink="http://www.w3.org/1999/xlink" viewBox="0 0 72 30"><defs><style>.cls-1{fill:url(#linear-gradient);}.cls-2{fill:url(#linear-gradient-2);}.cls-3{fill:url(#linear-gradient-3);}.cls-4{fill:url(#linear-gradient-4);}.cls-5{fill:url(#linear-gradient-5);}.cls-6{fill:#202020;}</style><linearGradient id="linear-gradient" x1="1895.05" y1="-1731.36" x2="1946.3" y2="-1731.36" gradientTransform="matrix(0.33, 0, 0, -0.33, -618.57, -554.62)" gradientUnits="userSpaceOnUse"><stop offset="0" stop-color="#656565"/><stop offset="1" stop-color="#010101"/></linearGradient><linearGradient id="linear-gradient-2" x1="1895.05" y1="-1758.79" x2="1946.3" y2="-1758.79" xlink:href="#linear-gradient"/><linearGradient id="linear-gradient-3" x1="1895.05" y1="-1717.64" x2="1946.3" y2="-1717.64" gradientTransform="matrix(0.33, 0, 0, -0.33, -618.57, -554.62)" gradientUnits="userSpaceOnUse"><stop offset="0" stop-color="#444"/><stop offset="1" stop-color="#5f5f5f"/></linearGradient><linearGradient id="linear-gradient-4" x1="1895.05" y1="-1745.07" x2="1946.3" y2="-1745.07" xlink:href="#linear-gradient-3"/><linearGradient id="linear-gradient-5" x1="1895.05" y1="-1772.51" x2="1946.3" y2="-1772.51" xlink:href="#linear-gradient-3"/></defs><path class="cls-1" d="M0,11.67s16.79,1.68,16.79,4.48V9.43S16.79,6.63,0,5Z"/><path class="cls-2" d="M0,20.62S16.79,22.3,16.79,25.1V18.38s0-2.79-16.79-4.47Z"/><path class="cls-3" d="M16.79.48V7.19S16.79,10,0,11.67V5S16.79,3.27,16.79.48"/><path class="cls-4" d="M0,13.91s16.79-1.68,16.79-4.48v6.72s0,2.79-16.79,4.47Z"/><path class="cls-5" d="M0,29.58V22.86s16.79-1.68,16.79-4.48V25.1s0,2.8-16.79,4.48"/><path class="cls-6" d="M23.27,21.8l.69-3a17,17,0,0,0,2.38.66,10.48,10.48,0,0,0,2.44,0,.94.94,0,0,0,.83-.9,1,1,0,0,0-.6-1l-1.54-.7-2-1a3.71,3.71,0,0,1-2.05-3.56,4,4,0,0,1,2.32-3.54A7.22,7.22,0,0,1,30,8a26.41,26.41,0,0,1,2.88.66l-.8,3a14.3,14.3,0,0,0-2.49-.6,4.51,4.51,0,0,0-1.75.17.88.88,0,0,0-.2,1.64,10.57,10.57,0,0,0,1.67.77,22.91,22.91,0,0,1,2.18,1,4.1,4.1,0,0,1-.26,7.15,8.26,8.26,0,0,1-4.71.83,9.9,9.9,0,0,1-3.27-.85Zm31,.62H51l-.27-.92a3.88,3.88,0,0,1-2.89,1.15,3.22,3.22,0,0,1-3.32-2.4,3.51,3.51,0,0,1,1.66-4,8.55,8.55,0,0,1,3.74-.93c.16,0,.31,0,.46,0-.07-.6-.41-.87-1.14-.93a6.37,6.37,0,0,0-3.45.73l-.7-2.48a17.21,17.21,0,0,1,2.68-.72,12.12,12.12,0,0,1,3.35.07,3.7,3.7,0,0,1,3,3.77c.06,1.38,0,2.77,0,4.15a16.84,16.84,0,0,0,.14,2.54Zm-3.8-4.73a3,3,0,0,0-1.91.36,1,1,0,0,0-.53,1.06,1.41,1.41,0,0,0,.5.79,1.34,1.34,0,0,0,1.91-1,7.15,7.15,0,0,0,0-1.23ZM72,22.41H68.67l-.27-.92a3.85,3.85,0,0,1-2.88,1.14,3.21,3.21,0,0,1-3.33-2.39,3.51,3.51,0,0,1,1.66-4,8.56,8.56,0,0,1,3.75-.94l.46,0c-.08-.61-.42-.88-1.15-.94a6.31,6.31,0,0,0-3.44.73l-.71-2.48a17.21,17.21,0,0,1,2.68-.72,12.52,12.52,0,0,1,3.35.08,3.7,3.7,0,0,1,3,3.77c.06,1.38,0,2.77,0,4.14A15.43,15.43,0,0,0,72,22.4Zm-3.8-4.74a3.05,3.05,0,0,0-1.91.36,1,1,0,0,0-.53,1.06,1.21,1.21,0,0,0,2.41-.18,7.24,7.24,0,0,0,0-1.24ZM42.81,14.9c-1.38-.27-2.67-.53-3.63.76a2.83,2.83,0,0,0,0,3.06c1,1.3,2.32,1.05,3.74.8.13.85.38,2.77.38,2.77l-.17.06c-2.59.7-5.61.2-7-1.39a5.53,5.53,0,0,1-.94-5.56,5,5,0,0,1,4-3.47A7.8,7.8,0,0,1,43,12l.31.09-.5,2.78ZM56.59,7.36h3.7v15h-3.7Z"/></svg>