<svg id="Calque_1" data-name="Calque 1" xmlns="http://www.w3.org/2000/svg" viewBox="0 0 72 30"><defs><style>.cls-1{fill:gray;}.cls-2{fill:none;stroke:gray;stroke-miterlimit:10;stroke-width:0.25px;}</style></defs><path class="cls-1" d="M13.33,1.72a14.84,14.84,0,0,0-5.56,2A16.54,16.54,0,0,0,4,7.38a14.56,14.56,0,0,0-2.29,5.36,16.26,16.26,0,0,0-.06,4.46C1.9,18.83,3,21.61,3.23,21.46L5.67,19.7c2.36-1.73,2.76-2,3.48-2,1.13,0,1.73.47,3.52,2.86a8.25,8.25,0,0,0,1.56,1.75,3.33,3.33,0,0,0,4.89-1.54A3.39,3.39,0,0,0,19,18.12c-.61-1-1.47-1.48-4.32-2.19a22.86,22.86,0,0,1-2.7-.79,4.79,4.79,0,0,1-2.44-3.63,5.37,5.37,0,0,1,.48-3,5.7,5.7,0,0,1,2.25-2.29,5,5,0,0,1,5-.11c1,.47,1.68,1.17,3.15,3.25a12.92,12.92,0,0,0,1.49,1.81,1.74,1.74,0,0,0,1.85-.05c.52-.29.53-.3.5-.73l0-.43.73-.11c.39-.06,1.06-.14,1.47-.17l.77-.05.26.36a1.89,1.89,0,0,1,.34.72c.05.34,0,.41-.87,1.27-1.1,1-1.32,1.16-1.69.77l-.25-.28-.56.23a4.13,4.13,0,0,1-2,.47c-1.07-.1-1.72-.61-3-2.32L17.88,8.89a4.25,4.25,0,0,0-2-1.49,4,4,0,0,0-1.22-.09,3.54,3.54,0,0,0-3.13,2.08,3.63,3.63,0,0,0,0,2.89c.49,1,.65,1.19,1.57,1.55.47.17,1.64.5,2.61.73,2.13.51,3.22,1,4.08,1.85a4.73,4.73,0,0,1-.21,6.75,4.91,4.91,0,0,1-6.91.17,16.21,16.21,0,0,1-1.63-2,10,10,0,0,0-1.34-1.64,1.26,1.26,0,0,0-1.48.17c-1,.7-4.09,3.06-4.09,3.13a6.79,6.79,0,0,0,.72.91,13.77,13.77,0,0,0,7.22,4.28,17.87,17.87,0,0,0,5.61.05,13.36,13.36,0,0,0,8.05-4.67A13.13,13.13,0,0,0,28.28,11c-.11-.37-.2-.71-.2-.75s.16-.13.36-.21.45-.07,1,.17c.76.31,1,.27,1-.08,0-.17-.19-.3-.61-.47a1.64,1.64,0,0,1-.6-.32,2,2,0,0,1,.18-.67c.2-.49.2-.58.06-.72s-.42-.08-.73.69-.32.75-.67.85a1.77,1.77,0,0,1-.39.1s-.13-.27-.27-.55a14.66,14.66,0,0,0-4.38-5A14.27,14.27,0,0,0,13.33,1.72Z"/><path class="cls-1" d="M36.65,8.6a3,3,0,0,0-2.25,3c0,1.65.78,2.42,3.05,3a2.76,2.76,0,0,1,1.53.73,1.16,1.16,0,0,1-.2,1.1,2,2,0,0,1-3.1-.45l-.26-.49-.53.07c-1.56.2-1.49.17-1.46.51a3.31,3.31,0,0,0,.89,1.69,4.81,4.81,0,0,0,3.17,1c2.2,0,3.7-1.18,3.85-3a2.48,2.48,0,0,0-.76-2.2,3,3,0,0,0-1.65-.87c-2.26-.72-2.31-.74-2.31-1.37,0-1.32,2.3-1.42,2.84-.12a1,1,0,0,0,.18.32c.11,0,2-.45,2-.49s-.71-1.38-1.11-1.74A4.7,4.7,0,0,0,36.65,8.6Z"/><path class="cls-1" d="M52.21,8.47s-.07.43-.15.93-.16,1-.16,1,.28.14,1.09.14h1.1l.12-.72c.07-.39.14-.86.17-1.05l.07-.34H53.33C52.72,8.45,52.21,8.46,52.21,8.47Z"/><path class="cls-1" d="M56.6,8.79c0,.07-.39,2.17-.79,4.67S55,18.12,55,18.27l-.07.3h2.32l.12-.72c.07-.39.21-1.2.3-1.81l.19-1.11,1.78,0a5.45,5.45,0,0,0,2.28-.28,3.19,3.19,0,0,0,1.8-3.1,2.52,2.52,0,0,0-.66-1.94c-.69-.77-1-.85-3.87-.88C57.15,8.65,56.63,8.67,56.6,8.79Zm4.14,1.8a1.28,1.28,0,0,1,.5,2c-.36.48-.78.59-2.08.59h-1l.2-1.24c.11-.67.22-1.3.24-1.37A4.52,4.52,0,0,1,60.74,10.59Z"/><path class="cls-1" d="M45.39,11.18a3.84,3.84,0,0,0-2.26,2.33,4.23,4.23,0,0,0-.24,1.79,3.07,3.07,0,0,0,.29,1.81,2.92,2.92,0,0,0,2.88,1.67,3.37,3.37,0,0,0,3.12-2.06l.29-.63L49.14,16c-.19,0-.62-.11-.94-.14-.58-.06-.6-.06-.67.2a1.72,1.72,0,0,1-1.07,1.08,1.11,1.11,0,0,1-1.17-.52,5.36,5.36,0,0,1,.19-3c.26-.66.75-1.11,1.19-1.11a1.16,1.16,0,0,1,1,.91l.14.48.79-.06.93-.06c.22,0,.15-.77-.15-1.35A2.78,2.78,0,0,0,46.64,11,4.81,4.81,0,0,0,45.39,11.18Z"/><path class="cls-1" d="M51.74,11.32c0,.07-.29,1.6-.57,3.4s-.57,3.41-.6,3.56l-.06.3,1.13,0,1.14,0,.55-3.27c.3-1.8.57-3.45.6-3.67l.06-.39h-1.1C52.1,11.19,51.77,11.23,51.74,11.32Z"/><path class="cls-1" d="M64.39,11.48c0,.16.42,1.83.86,3.72.78,3.36.79,3.42.61,3.75s-.6.62-1.41.61a2,2,0,0,0-.77.1,3,3,0,0,0-.08.83v.71h.71a3,3,0,0,0,2.18-.69,6.94,6.94,0,0,0,.94-1.5c.63-1.26,3.65-7.68,3.65-7.77a3.28,3.28,0,0,0-.82-.05h-.83l-.93,2.16a22.94,22.94,0,0,1-1,2.16,13.78,13.78,0,0,1-.46-2c-.21-1.08-.41-2-.44-2.16s-.2-.18-1.17-.18H64.31Z"/><path class="cls-2" d="M28.73,10.34A14.72,14.72,0,0,1,29.56,15,14.23,14.23,0,0,1,15.24,29.14,14.23,14.23,0,0,1,.92,15,14.23,14.23,0,0,1,15.24.86a14.56,14.56,0,0,1,13,8.22s.35-1.63,1.06-1.64.76.74.61,1.19l-.16.44.81.41a.7.7,0,0,1,.35.93c-.29.62-.87.34-1.2.25S28.73,10.34,28.73,10.34Z"/></svg>