<svg id="Calque_1" data-name="Calque 1" xmlns="http://www.w3.org/2000/svg" viewBox="0 0 72 30"><defs><style>.cls-1,.cls-2,.cls-3,.cls-4,.cls-5{fill-rule:evenodd;}.cls-2{fill:#5f5f5f;}.cls-3{fill:#9f9f9f;}.cls-4{fill:#878787;}.cls-5{fill:#b5b5b5;}</style></defs><path class="cls-1" d="M23.33,20.12l.87-2a5.87,5.87,0,0,0,3.46,1.08c.92,0,1.51-.36,1.51-.9,0-1.5-5.52-.32-5.56-4.09,0-1.92,1.69-3.39,4.1-3.39a6.28,6.28,0,0,1,3.88,1.16L30.77,14a6.27,6.27,0,0,0-3.2-1c-.76,0-1.25.36-1.25.81,0,1.47,5.56.67,5.61,4.27,0,2-1.66,3.33-4,3.33a7.75,7.75,0,0,1-4.56-1.29m33.72-2.78a2.54,2.54,0,1,1,0-2.49l2.43-1.35a5.32,5.32,0,1,0,0,5.19Zm-23.9-11h3V21.21h-3Zm27.52,0V21.21h3V16.76l3.6,4.45h3.89l-4.58-5.29L70.85,11H67.13L63.7,15.08V6.37Z"/><path d="M45.2,17.37a2.79,2.79,0,0,1-2.36,1.26,2.54,2.54,0,1,1,0-5.07,2.78,2.78,0,0,1,2.36,1.3Zm0-6.38v1.2a3.58,3.58,0,0,0-3-1.42,5,5,0,0,0-4.76,5.31,5,5,0,0,0,4.76,5.33,3.57,3.57,0,0,0,3-1.42V21.2h3V11Z"/><path class="cls-2" d="M4.57,17.35A1.88,1.88,0,1,1,2.7,15.48H4.57Zm.93,0a1.88,1.88,0,0,1,3.75,0V22A1.88,1.88,0,0,1,5.5,22Z"/><path class="cls-3" d="M7.38,9.84A1.87,1.87,0,1,1,9.25,8V9.84Zm0,.95a1.87,1.87,0,0,1,0,3.74H2.68a1.87,1.87,0,0,1,0-3.74Z"/><path class="cls-4" d="M14.87,12.66a1.88,1.88,0,1,1,1.88,1.87H14.87Zm-.93,0a1.87,1.87,0,1,1-3.74,0V8a1.87,1.87,0,1,1,3.74,0Z"/><path class="cls-5" d="M12.07,20.16A1.87,1.87,0,1,1,10.2,22V20.16Zm0-.93a1.88,1.88,0,0,1,0-3.75h4.69a1.88,1.88,0,0,1,0,3.75Z"/></svg>