<svg id="Calque_1" data-name="Calque 1" xmlns="http://www.w3.org/2000/svg" xmlns:xlink="http://www.w3.org/1999/xlink" viewBox="0 0 72 30">
  <defs>
    <style>
      .cls-1 {
        fill: #fff;
      }

      .cls-1, .cls-3 {
        fill-rule: evenodd;
      }

      .cls-2 {
        mask: url(#mask);
      }

      .cls-3 {
        fill: #919191;
      }
    </style>
    <mask id="mask" x="0" y="7.1" width="72" height="16.27" maskUnits="userSpaceOnUse">
      <g id="mask-2">
        <polygon id="path-1" class="cls-1" points="0 7.1 72 7.1 72 23.37 0 23.37 0 7.1"/>
      </g>
    </mask>
  </defs>
  <g id="HOMEPAGE">
    <g id="Snowflake-Homepage-platform-alt-3-Copy">
      <g id="Components-_-Navigation-_-Main" data-name="Components-/-Navigation-/-Main">
        <g id="Logo-_-Snowflake-Blue" data-name="Logo-/-Snowflake-Blue">
          <g class="cls-2">
            <path id="Fill-1" class="cls-3" d="M44.54,12.19h0l-.15,0a.39.39,0,0,0-.23.07.32.32,0,0,0-.17.19h0l-1.63,4.42-1.26-3h0a.44.44,0,0,0-.17-.19.45.45,0,0,0-.48,0,.42.42,0,0,0-.16.19h0l-1.26,3-1.64-4.42h0a.38.38,0,0,0-.16-.19.4.4,0,0,0-.24-.07l-.16,0h0a.43.43,0,0,0-.25.39.4.4,0,0,0,0,.15h0l2,5.36h0a.26.26,0,0,0,.07.11.2.2,0,0,0,.09.07l0,0,.07,0a.42.42,0,0,0,.14,0,.48.48,0,0,0,.23-.07.41.41,0,0,0,.15-.19h0l1.28-3,1.27,3h0a.37.37,0,0,0,.14.18.4.4,0,0,0,.21.09h0a.32.32,0,0,0,.14,0,.2.2,0,0,0,.11-.06.43.43,0,0,0,.15-.2h0l2-5.34a.4.4,0,0,0,0-.15.42.42,0,0,0-.26-.39Zm-9.21,3.06a2.34,2.34,0,0,0-.64-1.61,2,2,0,0,0-3,0,2.37,2.37,0,0,0,0,3.22,2.05,2.05,0,0,0,1.49.65,2,2,0,0,0,1.49-.65,2.34,2.34,0,0,0,.64-1.61Zm0-2.18a3.18,3.18,0,0,1,.86,2.18,3.23,3.23,0,0,1-.86,2.19,2.89,2.89,0,0,1-4.23,0,3.24,3.24,0,0,1-.87-2.19,3.19,3.19,0,0,1,.87-2.18,2.87,2.87,0,0,1,4.23,0Zm-8.49-.92a2.57,2.57,0,0,0-1.73.67v-.24a.42.42,0,0,0-.12-.3.44.44,0,0,0-.3-.13.4.4,0,0,0-.3.13.42.42,0,0,0-.12.3v5.48l0,0h0a.14.14,0,0,0,0,.06.46.46,0,0,0,.28.21h.1a.41.41,0,0,0,.19,0,.33.33,0,0,0,.13-.11h0l.05-.08a.46.46,0,0,1,0-.09V14.71a1.77,1.77,0,0,1,.52-1.21,1.72,1.72,0,0,1,2.93,1.2v3.24a.4.4,0,0,0,.13.3.44.44,0,0,0,.6,0,.4.4,0,0,0,.13-.3V14.7a2.58,2.58,0,0,0-2.58-2.55Zm42.05,2.5A2.18,2.18,0,0,0,66.79,13a2.21,2.21,0,0,0-2.13,1.67Zm.94.4v0a.4.4,0,0,1-.13.3.51.51,0,0,1-.3.1H64.6a2.22,2.22,0,0,0,2.17,2h.28a1.84,1.84,0,0,0,1-.33,2.73,2.73,0,0,0,.78-.81.38.38,0,0,1,.16-.15.35.35,0,0,1,.2,0,.38.38,0,0,1,.21,0h0a.46.46,0,0,1,.2.37.46.46,0,0,1-.06.22h0a3.56,3.56,0,0,1-1.07,1.08,2.72,2.72,0,0,1-1.48.46h-.28a3.06,3.06,0,0,1-2.15-.92,3.09,3.09,0,0,1-.88-2.18,3.13,3.13,0,0,1,.89-2.2,3,3,0,0,1,2.16-.92,2.94,2.94,0,0,1,2.07.84,3.27,3.27,0,0,1,1,2.07ZM50.18,9.59a.45.45,0,0,0-.3.12.43.43,0,0,0-.13.3v7.93a.43.43,0,0,0,.13.3.45.45,0,0,0,.3.12.43.43,0,0,0,.44-.42V10a.43.43,0,0,0-.44-.42ZM22.28,15.1a10.46,10.46,0,0,0-1.12-.41,8.36,8.36,0,0,1-1-.35.94.94,0,0,1-.3-.23.39.39,0,0,1-.1-.28.65.65,0,0,1,.12-.39,1.1,1.1,0,0,1,.53-.38,1.82,1.82,0,0,1,.6-.12,1.69,1.69,0,0,1,1,.32l.31.24a.55.55,0,0,0,.14.09.34.34,0,0,0,.17.05l.12,0,.1-.07a.39.39,0,0,0,.08-.1.27.27,0,0,0,0-.12.55.55,0,0,0-.06-.22,1.71,1.71,0,0,0-.29-.33,2.78,2.78,0,0,0-.71-.45,2,2,0,0,0-.82-.2,2.74,2.74,0,0,0-1.55.41,1.67,1.67,0,0,0-.5.49,1.57,1.57,0,0,0-.21.8v0a1.23,1.23,0,0,0,.27.8,2.18,2.18,0,0,0,1,.64c.36.13.72.21.95.29A4.31,4.31,0,0,1,22,16a1,1,0,0,1,.3.26.55.55,0,0,1,.1.31h0a.7.7,0,0,1-.14.44,1.2,1.2,0,0,1-.59.4,2.14,2.14,0,0,1-.63.12,2.54,2.54,0,0,1-1.19-.27l-.35-.19L19.35,17a.4.4,0,0,0-.15,0l-.11,0A.28.28,0,0,0,19,17l-.1.12a.4.4,0,0,0,0,.15.35.35,0,0,0,.08.22,1.17,1.17,0,0,0,.3.28,4,4,0,0,0,.47.26,3.45,3.45,0,0,0,1.31.29h0a2.58,2.58,0,0,0,1.57-.46h0a1.68,1.68,0,0,0,.71-1.35,1.41,1.41,0,0,0-.2-.76,1.76,1.76,0,0,0-.83-.68Zm34.33.15A2.37,2.37,0,0,0,56,13.64a2.07,2.07,0,0,0-1.5-.66,2,2,0,0,0-1.49.66,2.35,2.35,0,0,0,0,3.22,2,2,0,0,0,1.49.65,2.06,2.06,0,0,0,1.5-.65,2.35,2.35,0,0,0,.62-1.61Zm.73-3a.43.43,0,0,1,.13.3v5.38a.43.43,0,0,1-.43.42.45.45,0,0,1-.3-.12.43.43,0,0,1-.13-.3v-.53a2.86,2.86,0,0,1-4.23,0,3.19,3.19,0,0,1,0-4.38,2.91,2.91,0,0,1,2.11-.92,2.87,2.87,0,0,1,2.12.94v-.52a.43.43,0,0,1,.13-.3.43.43,0,0,1,.6,0Zm6,.55a.43.43,0,0,0,.13-.31.37.37,0,0,0-.13-.29h0a.42.42,0,0,0-.3-.12.39.39,0,0,0-.3.13l-3.33,3.22V10a.44.44,0,0,0-.87,0v7.93a.44.44,0,0,0,.87,0V16.63l1.08-1.07,2.22,2.64a.31.31,0,0,0,.15.13.62.62,0,0,0,.18,0,.46.46,0,0,0,.28-.09h0a.45.45,0,0,0,.14-.32.43.43,0,0,0-.11-.28h0l-2.25-2.72,2.23-2.13ZM48.42,9.61h-.17a2.44,2.44,0,0,0-.71.1,1.29,1.29,0,0,0-.58.37h0a1.51,1.51,0,0,0-.33.64,3.5,3.5,0,0,0-.1.83v.61h-.67a.42.42,0,0,0-.42.41.48.48,0,0,0,.12.31.49.49,0,0,0,.3.14h.67V18h0a.42.42,0,0,0,.13.3.48.48,0,0,0,.31.12.41.41,0,0,0,.41-.42V13h.73a.54.54,0,0,0,.3-.13.44.44,0,0,0,.13-.31v0a.42.42,0,0,0-.43-.4h-.73v-.6a2.33,2.33,0,0,1,.08-.62.65.65,0,0,1,.14-.29.46.46,0,0,1,.2-.13,1.53,1.53,0,0,1,.43,0h.19a.43.43,0,1,0,0-.86Zm-43,5.92a.93.93,0,0,0,0-.33,1,1,0,0,0,0-.24,1,1,0,0,0-.48-.6l-3.46-2a1,1,0,0,0-1.39.37,1,1,0,0,0,.37,1.38l1.93,1.1L.51,16.34a1,1,0,0,0-.37,1.38,1,1,0,0,0,1.39.37l3.46-2a1,1,0,0,0,.47-.58Zm.94,1.86a1,1,0,0,0-.6.13l-3.46,2A1,1,0,0,0,2,20.88a1,1,0,0,0,1.39.37L5.3,20.14v2.22a1,1,0,0,0,2,0v-4a1,1,0,0,0-.94-1Zm3.54-4.31a1,1,0,0,0,.59-.13L14,11a1,1,0,1,0-1-1.75L11,10.33V8.11a1,1,0,0,0-2,0v4a1,1,0,0,0,.94,1ZM2.34,11,5.8,13a1,1,0,0,0,.6.13,1,1,0,0,0,.94-1v-4a1,1,0,0,0-2,0v2.22L3.36,9.22a1,1,0,1,0-1,1.75Zm6.51,4.26a.3.3,0,0,0-.08-.18l-.41-.41a.27.27,0,0,0-.18-.08h0a.25.25,0,0,0-.18.08l-.42.41a.29.29,0,0,0-.07.18h0a.29.29,0,0,0,.07.18l.42.41a.3.3,0,0,0,.18.08h0a.33.33,0,0,0,.18-.08l.41-.41a.3.3,0,0,0,.08-.18Zm1.15.39L8.56,17.05a.29.29,0,0,1-.18.07H8a.29.29,0,0,1-.18-.07L6.34,15.62a.3.3,0,0,1-.08-.18V15a.36.36,0,0,1,.08-.18l1.44-1.42A.3.3,0,0,1,8,13.34h.42a.3.3,0,0,1,.18.08L10,14.84a.34.34,0,0,1,.07.18v.42a.29.29,0,0,1-.07.18Zm4,3.88-3.47-2a1,1,0,0,0-.59-.13,1,1,0,0,0-.94,1v4a1,1,0,0,0,2,0V20.14L13,21.25a1,1,0,1,0,1-1.75Zm1.83-5.37-1.94,1.1,1.94,1.11a1,1,0,0,1,.37,1.38,1,1,0,0,1-1.39.37l-3.47-2a1,1,0,0,1-.46-.58.93.93,0,0,1,0-.33,1,1,0,0,1,0-.24,1,1,0,0,1,.47-.6l3.47-2a1,1,0,1,1,1,1.75Zm56.17-2a1,1,0,1,1-1-1,1,1,0,0,1,1,1Zm-.2,0a.79.79,0,0,0-.8-.83.77.77,0,0,0-.8.83.8.8,0,1,0,1.6,0Zm-1.2-.46H71c.24,0,.39.13.39.32a.29.29,0,0,1-.15.27l.16.25v0h-.24L71,12.34h-.19v.23H70.6Zm.43.21h-.19v.24H71c.09,0,.14,0,.14-.12s0-.12-.14-.12Z"/>
          </g>
        </g>
      </g>
    </g>
  </g>
</svg>
