<svg id="Calque_1" data-name="Calque 1" xmlns="http://www.w3.org/2000/svg" viewBox="0 0 72 30"><defs><style>.cls-1{fill:#070707;}.cls-2{fill:#898989;}</style></defs><path class="cls-1" d="M37.79,20.06a2.52,2.52,0,1,1,.66-3.5,2.54,2.54,0,0,1-.66,3.5M39.35,16a3.6,3.6,0,1,0-1.55,5.32l1.4,2.27,1.1-.76-1.39-2.26A3.6,3.6,0,0,0,39.35,16M1,21a4.85,4.85,0,0,0,2.21.49c2,0,3-.94,3-2.22,0-1-.55-1.65-1.85-2.1-.84-.28-1.11-.46-1.11-.78s.3-.55.81-.55a3.55,3.55,0,0,1,1.49.38l.36-1.46a4.5,4.5,0,0,0-1.91-.4c-1.7,0-2.79,1-2.79,2.25,0,.8.53,1.57,2,2,.78.25,1,.44,1,.78s-.26.56-.91.56a4.11,4.11,0,0,1-1.83-.5Zm8.93.51a3.42,3.42,0,0,0,3.59-3.64A3.33,3.33,0,0,0,10,14.35,3.41,3.41,0,0,0,6.34,18,3.35,3.35,0,0,0,9.87,21.5Zm0-1.53c-.9,0-1.39-.88-1.39-2s.39-2.06,1.4-2.06,1.36,1,1.36,2c0,1.24-.52,2.06-1.36,2.06Zm4.18,1.37h2.13V17.4a1.48,1.48,0,0,1,.07-.54,1.16,1.16,0,0,1,1.09-.79c.77,0,1.07.6,1.07,1.48v3.79h2.13v-4c0-2-1.05-3-2.45-3A2.44,2.44,0,0,0,16,15.45h0l-.1-.95H14c0,.62.06,1.33.06,2.18Zm13.19-4c0-1.61-.71-3-3-3a5.67,5.67,0,0,0-2.66.61L22,16.32a4,4,0,0,1,1.89-.5c1,0,1.24.51,1.24.88v.08c-2.42,0-4,.84-4,2.62a2.1,2.1,0,0,0,2.21,2.1,2.49,2.49,0,0,0,2-.84h0l.13.68H27.4a9.28,9.28,0,0,1-.11-1.65Zm-2.06,1.55a1.37,1.37,0,0,1,0,.36,1.17,1.17,0,0,1-1.1.79.76.76,0,0,1-.84-.81c0-.81.87-1.08,2-1.08v.74Zm3.05,2.49h2.13V17.89a2.27,2.27,0,0,1,0-.48,1.36,1.36,0,0,1,1.46-1.08,3,3,0,0,1,.57.06v-2a2,2,0,0,0-2.29,1.38h-.06l-.08-1.27H28.23c0,.59.05,1.25.05,2.25v4.59Zm18.08-6.73H45.13v4.14a1.69,1.69,0,0,1-.11.63,1.78,1.78,0,0,1-1.62,1.13c-1.11,0-1.52-.88-1.52-2.17V14.61H40.65v4c0,2.36,1.28,3,2.34,3a2.53,2.53,0,0,0,2.24-1.26h0l.07,1.11h1.09c-.05-.53-.06-1.15-.06-1.86V14.61Zm1.34,5c0,.6,0,1.29-.05,1.75h1.06l.07-1.12h0a2.42,2.42,0,0,0,2.27,1.27c1.51,0,3-1.2,3-3.63,0-2-1.17-3.45-2.85-3.45A2.52,2.52,0,0,0,49,15.69h0V11.45H47.7v8.18Zm1.23-2.18a2,2,0,0,1,1.94-2c1.31,0,2,1.16,2,2.53,0,1.55-.76,2.6-2.06,2.6A1.89,1.89,0,0,1,49,19.11a2.12,2.12,0,0,1,0-.44Zm11.48.77a3.91,3.91,0,0,0,0-.58c0-1.24-.58-3.19-2.79-3.19-2,0-3.19,1.61-3.19,3.66a3.16,3.16,0,0,0,3.33,3.41,5.62,5.62,0,0,0,2.27-.43l-.22-.89a4.38,4.38,0,0,1-1.88.35,2.15,2.15,0,0,1-2.31-2.33Zm-4.73-.88a2,2,0,0,1,1.89-2,1.75,1.75,0,0,1,1.69,2Z"/><path class="cls-2" d="M69,21.36h-.86A12.67,12.67,0,0,0,55.35,8.79V7.93A13.53,13.53,0,0,1,69,21.36Zm.6-4.63a13,13,0,0,0-9-9.24l.19-.69a13.66,13.66,0,0,1,9.47,9.77Zm1-4.08A13.27,13.27,0,0,0,65.41,7l.3-.49a13.92,13.92,0,0,1,5.33,6l-.52.24Z"/></svg>