<svg id="Calque_1" data-name="Calque 1" xmlns="http://www.w3.org/2000/svg" viewBox="0 0 72 30"><defs><style>.cls-1{fill:#7e7e7e;}.cls-1,.cls-2{fill-rule:evenodd;}.cls-2,.cls-3{fill:#3c3c3c;}</style></defs><path class="cls-1" d="M59.07,14.82c0-.1-.07-.15-.1-.2l-2.09-4a.24.24,0,0,1,0-.32l3.32-3.9a.34.34,0,0,0,.08-.17l-1,.25-4,1.07c-.13,0-.18,0-.25-.11L52.8,3.66a.5.5,0,0,0-.17-.19l-.18,1-.64,3.59c0,.13-.05.26-.07.39a.2.2,0,0,1-.18.2l-4.73,1.5a.5.5,0,0,0-.22.11l3.9,1.55-.12.09L48,13.48a.26.26,0,0,1-.28,0l-2.9-1.29a2.93,2.93,0,0,1-1.12-.82A1.5,1.5,0,0,1,44,9a4.32,4.32,0,0,1,1-.44c1.55-.51,3.1-1,4.65-1.48a.27.27,0,0,0,.21-.24c.21-1.19.42-2.39.64-3.58A6.07,6.07,0,0,1,51,1.39a3.12,3.12,0,0,1,.43-.64A1.38,1.38,0,0,1,53.56.7a4.06,4.06,0,0,1,.57.74c.72,1.17,1.42,2.35,2.12,3.52a.24.24,0,0,0,.32.13l5.19-1.38a2.45,2.45,0,0,1,1.08-.06,1.07,1.07,0,0,1,.88,1.53,2.9,2.9,0,0,1-.57.92l-3.63,4.26a.25.25,0,0,0,0,.33l2.16,4.1a2.2,2.2,0,0,1,.3,1,1.67,1.67,0,0,1-1.46,1.67,3,3,0,0,1-1.36-.17l-3.26-1c-.1,0-.14-.07-.15-.17-.13-.77-.27-1.53-.4-2.3a.78.78,0,0,0,0-.09l3.74,1"/><path class="cls-2" d="M57,26H54a.27.27,0,0,1-.27-.14Q52,23.16,50.26,20.52a2,2,0,0,0-.14-.2c-.25,1.9-.49,3.76-.74,5.62H46.82l.09-.73.75-5.73L48.38,14a.29.29,0,0,1,.09-.15l2.65-1.72.07,0c-.26,2-.53,4.06-.8,6.09l0,0,4.19-4.65.11.64c.1.58.19,1.16.3,1.74a.29.29,0,0,1-.08.27l-2.69,2.82a1.42,1.42,0,0,1-.12.13l.08.14,4.63,6.49.1.11v0M26.6,20.33c0-.2-.07-.49-.15-.77a2.65,2.65,0,0,0-3.2-1.72A3.56,3.56,0,0,0,20.45,21a2.56,2.56,0,0,0,1.67,2.71,3,3,0,0,0,2.69-.31A3.54,3.54,0,0,0,26.6,20.33Zm-6.77,4.92c-.08.57-.15,1.1-.22,1.64L19.34,29c0,.08,0,.12-.13.12H17.1l-.07,0c0-.34.08-.68.13-1,.15-1.18.31-2.36.47-3.55.18-1.35.32-2.71.55-4a6.37,6.37,0,0,1,4.8-5,5,5,0,0,1,3.88.62,4.31,4.31,0,0,1,2,3.3,5.81,5.81,0,0,1-1.92,5,6,6,0,0,1-3.32,1.66,4.9,4.9,0,0,1-3.68-.8l-.15-.09M18.68,13.93l-2.31,1.72c-.12-.19-.23-.38-.36-.56a1.76,1.76,0,0,0-1.34-.85,1.46,1.46,0,0,0-1.26.49.87.87,0,0,0-.06,1.17c.31.41.65.79,1,1.17.57.63,1.18,1.23,1.75,1.86a3.84,3.84,0,0,1,1.07,2,4.08,4.08,0,0,1-.47,2.63,5,5,0,0,1-3.8,2.67,4.91,4.91,0,0,1-2.22-.12A3.29,3.29,0,0,1,8.6,24.3c-.15-.32-.27-.66-.41-1L10.7,22a1.59,1.59,0,0,0,.08.18,8.62,8.62,0,0,0,.43.86,1.71,1.71,0,0,0,2.23.63,2.73,2.73,0,0,0,.62-.4,1.31,1.31,0,0,0,.24-1.79,8.53,8.53,0,0,0-.81-1c-.69-.76-1.4-1.5-2.07-2.27a3.64,3.64,0,0,1-.87-1.87A3.2,3.2,0,0,1,11,14.13a4.72,4.72,0,0,1,4.42-2.41,3.5,3.5,0,0,1,2.67,1.42c.2.25.39.52.59.79m18.74,8.76c-.13,1-.25,1.92-.38,2.85a.17.17,0,0,1-.08.13,5.06,5.06,0,0,1-6-1,4.57,4.57,0,0,1-1.15-3.35,6.34,6.34,0,0,1,5.45-5.83A4.64,4.64,0,0,1,39.59,17a4.32,4.32,0,0,1,1.1,3.14c0,.78-.16,1.56-.26,2.33-.14,1.1-.29,2.2-.43,3.3l0,.13H37.69l.09-.75c.17-1.27.35-2.53.49-3.81a4,4,0,0,0-.33-2.31,2.22,2.22,0,0,0-1.88-1.28,3.55,3.55,0,0,0-3.8,2.76,2.65,2.65,0,0,0,1.05,2.85,2.88,2.88,0,0,0,2.8.21,3.6,3.6,0,0,0,1.31-.92m9.61-7c-.1.79-.21,1.57-.31,2.37H45.29a.9.9,0,0,0-.85.61,2.17,2.17,0,0,0-.08.43l-.72,5.46-.18,1.38H41.08c.05-.35.09-.69.13-1,.16-1.17.31-2.35.47-3.53.14-1,.26-2,.42-3.06A3.29,3.29,0,0,1,45,15.69c.66,0,1.31,0,2,0"/><path class="cls-3" d="M59.76,25.94v-1h0l-.39,1h-.13l-.39-1h0v1h-.2v-1.2h.3l.36.91.35-.91H60v1.2ZM58,24.9v1h-.19v-1h-.38v-.16h1v.16ZM21.87,12.25h.59l-.14-.9Zm.68.57h-1l-.31.61h-.7l1.54-2.86h.66l.52,2.86h-.64Zm3.51-1.67h-.35l-.12.66h.35a.37.37,0,0,0,.38-.4.24.24,0,0,0-.26-.26Zm-.85-.58h.92a.75.75,0,0,1,.82.78,1,1,0,0,1-1.07,1h-.39l-.19,1h-.59ZM29,12.25h.59l-.14-.9Zm.68.57h-1l-.31.61h-.7l1.53-2.86h.67l.52,2.86h-.64Zm3.87.51a1.59,1.59,0,0,1-.65.15,1.21,1.21,0,0,1-1.23-1.28,1.7,1.7,0,0,1,1.68-1.68,1.3,1.3,0,0,1,.6.15l-.09.69a.76.76,0,0,0-.58-.24,1,1,0,0,0-1,1,.68.68,0,0,0,.67.74,1,1,0,0,0,.66-.23Zm3.65-1.05H35.94l-.2,1.15h-.6l.51-2.86h.59L36,11.7h1.25l.2-1.13h.6l-.51,2.86H37Zm2.2,1.15.5-2.86h1.59l-.1.58h-1l-.1.55h.9l-.1.58h-.91l-.1.57h1l-.1.58Z"/></svg>