<svg id="Calque_1" data-name="Calque 1" xmlns="http://www.w3.org/2000/svg" xmlns:xlink="http://www.w3.org/1999/xlink" viewBox="0 0 72 30"><defs><style>.cls-1{fill:none;}.cls-2{clip-path:url(#clip-path);}.cls-3{fill:url(#Dégradé_sans_nom_8);}.cls-4{clip-path:url(#clip-path-2);}.cls-5{fill:url(#Dégradé_sans_nom_8-2);}.cls-6{fill:#4e4e4e;}</style><clipPath id="clip-path"><polygon class="cls-1" points="12.21 11.64 6.61 8.44 6.61 21.57 8.85 20.26 8.85 16.57 10.54 17.55 10.53 15.02 8.85 14.06 8.85 12.59 12.22 14.54 12.21 11.64"/></clipPath><linearGradient id="Dégradé_sans_nom_8" x1="-0.02" y1="-714.25" x2="13.75" y2="-714.25" gradientTransform="matrix(1, 0, 0, -1, 0, -699.26)" gradientUnits="userSpaceOnUse"><stop offset="0" stop-color="#8e8e8e"/><stop offset="1" stop-color="#b0b0b0"/></linearGradient><clipPath id="clip-path-2"><polygon class="cls-1" points="0.5 11.64 6.11 8.44 6.11 21.57 3.87 20.26 3.87 12.59 0.49 14.54 0.5 11.64"/></clipPath><linearGradient id="Dégradé_sans_nom_8-2" x1="-0.11" y1="-714.25" x2="13.66" y2="-714.25" xlink:href="#Dégradé_sans_nom_8"/></defs><g class="cls-2"><rect class="cls-3" x="-0.02" y="8.39" width="13.77" height="13.19"/></g><g class="cls-4"><rect class="cls-5" x="-0.11" y="8.39" width="13.77" height="13.19"/></g><path class="cls-6" d="M22.39,12.5H19.88v6.92H18.49V12.5H16V11.38h6.39Z"/><path class="cls-6" d="M24.05,19.53a2.8,2.8,0,0,1-2.07-.8,2.88,2.88,0,0,1-.79-2.14v-.17a3.68,3.68,0,0,1,.34-1.6,2.57,2.57,0,0,1,2.37-1.49,2.37,2.37,0,0,1,1.89.78,3.33,3.33,0,0,1,.66,2.21v.54H22.54A1.8,1.8,0,0,0,23,18a1.48,1.48,0,0,0,1.09.43,1.84,1.84,0,0,0,1.51-.75l.72.69a2.43,2.43,0,0,1-1,.84A3,3,0,0,1,24.05,19.53Zm-.16-5.12a1.14,1.14,0,0,0-.89.38,1.94,1.94,0,0,0-.43,1.08h2.56v-.09a1.63,1.63,0,0,0-.36-1,1.13,1.13,0,0,0-.88-.35Z"/><path class="cls-6" d="M28.74,13.44l0,.69a2.18,2.18,0,0,1,1.74-.8c1.25,0,1.88.72,1.91,2.14v4H31.07V15.55a1.29,1.29,0,0,0-.24-.85,1.05,1.05,0,0,0-.81-.27,1.29,1.29,0,0,0-1.21.74v4.25H27.47v-6Z"/><path class="cls-6" d="M36.77,17.8a.6.6,0,0,0-.29-.55,3.15,3.15,0,0,0-1-.33,5.15,5.15,0,0,1-1.15-.37,1.51,1.51,0,0,1-1-1.41A1.57,1.57,0,0,1,34,13.85a2.58,2.58,0,0,1,1.65-.52,2.69,2.69,0,0,1,1.73.53A1.66,1.66,0,0,1,38,15.24H36.7a.82.82,0,0,0-.29-.65,1.14,1.14,0,0,0-.76-.25,1.23,1.23,0,0,0-.72.2.67.67,0,0,0-.28.55.53.53,0,0,0,.25.48,3.64,3.64,0,0,0,1.05.35,4.88,4.88,0,0,1,1.24.41,1.71,1.71,0,0,1,.67.58,1.49,1.49,0,0,1,.22.82,1.53,1.53,0,0,1-.67,1.3,2.8,2.8,0,0,1-1.75.5,3.1,3.1,0,0,1-1.31-.26,2.18,2.18,0,0,1-.89-.73,1.7,1.7,0,0,1-.32-1h1.31a.93.93,0,0,0,.35.73,1.47,1.47,0,0,0,.88.26,1.31,1.31,0,0,0,.81-.21A.6.6,0,0,0,36.77,17.8Z"/><path class="cls-6" d="M38.78,16.38a3.65,3.65,0,0,1,.35-1.59,2.62,2.62,0,0,1,1-1.08,2.74,2.74,0,0,1,1.45-.38,2.61,2.61,0,0,1,2,.78,3,3,0,0,1,.82,2.06v.32A3.49,3.49,0,0,1,44,18.07a2.51,2.51,0,0,1-1,1.07,2.78,2.78,0,0,1-1.46.39,2.58,2.58,0,0,1-2-.85,3.3,3.3,0,0,1-.76-2.24Zm1.35.11a2.38,2.38,0,0,0,.38,1.45,1.32,1.32,0,0,0,1.86.24,1.23,1.23,0,0,0,.26-.25A2.66,2.66,0,0,0,43,16.38a2.37,2.37,0,0,0-.39-1.44,1.32,1.32,0,0,0-1.84-.27,1.07,1.07,0,0,0-.26.26A2.6,2.6,0,0,0,40.13,16.49Z"/><path class="cls-6" d="M48.38,14.67a3.29,3.29,0,0,0-.54-.05,1.25,1.25,0,0,0-1.25.71v4.09H45.25v-6h1.28l0,.67a1.53,1.53,0,0,1,1.35-.78,1.31,1.31,0,0,1,.48.08Z"/><path class="cls-6" d="M54,16H50.76v3.41h-1.4v-8h5.11V12.5H50.76v2.4H54Z"/><path class="cls-6" d="M56.65,19.42H55.31V11.36h1.34Z"/><path class="cls-6" d="M57.63,16.38A3.51,3.51,0,0,1,58,14.79a2.49,2.49,0,0,1,1-1.08,2.74,2.74,0,0,1,1.45-.38,2.61,2.61,0,0,1,2,.78,3.06,3.06,0,0,1,.82,2.06v.32a3.63,3.63,0,0,1-.34,1.58,2.51,2.51,0,0,1-1,1.07,2.78,2.78,0,0,1-1.46.39,2.58,2.58,0,0,1-2-.85,3.25,3.25,0,0,1-.76-2.24Zm1.35.11a2.38,2.38,0,0,0,.38,1.45,1.23,1.23,0,0,0,1.06.52,1.22,1.22,0,0,0,1.06-.53,2.66,2.66,0,0,0,.38-1.55,2.37,2.37,0,0,0-.39-1.44,1.33,1.33,0,0,0-2.11,0A2.6,2.6,0,0,0,59,16.49Z"/><path class="cls-6" d="M69.25,17.57l1-4.13h1.31l-1.63,6h-1.1l-1.29-4.11-1.26,4.11h-1.1l-1.64-6h1.32l1,4.09L67,13.44h1Z"/></svg>