<svg id="Calque_1" data-name="Calque 1" xmlns="http://www.w3.org/2000/svg" viewBox="0 0 72 30"><defs><style>.cls-1{fill:#575757;fill-rule:evenodd;}</style></defs><path class="cls-1" d="M57.72,20c-1.09.44-1.94,2-3.24,2.84a.49.49,0,0,1-.22.08c-.11,0-.24-.11-.24-.59a8.59,8.59,0,0,1,1-3.66c1.59-4.12,4.31-7.65,6.73-11.5a1.76,1.76,0,0,0,.3-1,2.06,2.06,0,0,0-.24-.83,1.32,1.32,0,0,0-1.13-.46c-.3,0-.57,0-.92,0-1.26,0-1.53,1.86-1.83,2.34A89.47,89.47,0,0,0,52.4,17.93c-.26.67-.54,1.34-.75,2-1.17.34-2,2-3.42,2.9a.46.46,0,0,1-.21.08c-.11,0-.25-.11-.25-.59a8.44,8.44,0,0,1,1-3.66c1.59-4.12,4.31-7.65,6.73-11.5a1.76,1.76,0,0,0,.3-1,1.93,1.93,0,0,0-.25-.83,1.31,1.31,0,0,0-1.13-.46c-.29,0-.56,0-.91,0C52.24,5,52,6.82,51.68,7.3a88,88,0,0,0-5.52,10.63c-.1.25-.19.49-.29.73l-.09.05c-1.37.81-2.53,2.24-4.2,3.21a4.88,4.88,0,0,1-2.12.89,1.19,1.19,0,0,1-.52-.14,1.25,1.25,0,0,1-.48-.78c0-.13,0-.16.3-.32a23.86,23.86,0,0,0,6-5.52,6.32,6.32,0,0,0,1.43-3.31,1.75,1.75,0,0,0-1.08-1.8,5.41,5.41,0,0,0-1.8-.33,4.23,4.23,0,0,0-3.07,1.27c-.6.64-1.19,1.3-1.73,2a3.25,3.25,0,0,0-2.12-.7c-.89,0-2.56,1.1-3.42,1.75-.13.11-.21.16-.27.16s-.05,0-.05-.08a4.72,4.72,0,0,0,.05-.7,2.76,2.76,0,0,0-.43-1.45,1.59,1.59,0,0,0-1.16-.43c-.72,0-1.4.35-1.4.72s.25.38.25.62a8.61,8.61,0,0,1-.27,1.35c-.46,1.72-1,3.42-1.62,5.11-.32.94-1.4,1.78-1.4,2.8a1.85,1.85,0,0,0,.51,1.08c.49.54.79.72,1.22.72a.91.91,0,0,0,.59-.21,2,2,0,0,0,.72-1.18,10.7,10.7,0,0,1,5-6.76,9.55,9.55,0,0,1,1.91-1,2.77,2.77,0,0,1,.57.13A13.31,13.31,0,0,0,35.66,19a3.75,3.75,0,0,0-.16,1.1A5.73,5.73,0,0,0,35.85,22a3.4,3.4,0,0,0,1.45,2,6.68,6.68,0,0,0,2.94,1,2.19,2.19,0,0,0,1.18-.3,22.56,22.56,0,0,0,3.64-2.43,2,2,0,0,0,.64,1.57A4.31,4.31,0,0,0,47.94,25a2.63,2.63,0,0,0,.48.06,4.73,4.73,0,0,0,3.08-1.85,2.5,2.5,0,0,0,.45.61A4.23,4.23,0,0,0,54.18,25a2.63,2.63,0,0,0,.48.06c1.34,0,2.62-1.27,3.5-2.31a4.58,4.58,0,0,0,2.1,1.69,2.15,2.15,0,0,0,.89.21A3.89,3.89,0,0,0,63.79,23a15.17,15.17,0,0,0,3.28-6.94c.06-.22.14-.3.25-.3a7.26,7.26,0,0,0,1,0c.73-.11,1.29-.35,2-.46.4-.08.35-.22.72-.35s.49-.22.49-.49c0-.45-.84-.94-2.1-.94-1,0-1.59.08-2,.08-.62,0-.78-.18-1.19-1.23h0a1.13,1.13,0,0,0-.4-.54A2.82,2.82,0,0,0,64,11.15c-1.35,0-2.51,1.37-3.31,2.53-.19.27-.46.49-.65.78A11.81,11.81,0,0,0,57.72,20ZM23.31,10.85c.67,0,1.05,0,1.13,0s.13,0,.13.11a2.21,2.21,0,0,1-.21.54,59.5,59.5,0,0,0-3.77,11.06,4.14,4.14,0,0,0-.11.92,1.08,1.08,0,0,0,.48,1,3.73,3.73,0,0,0,1.73.62c.59,0,.88-.38.88-1a9,9,0,0,1,.11-1.53,33.88,33.88,0,0,1,3.64-10.28,12.75,12.75,0,0,0,.94-1.75.46.46,0,0,0-.08-.22,17,17,0,0,1,3.55-.4,2.23,2.23,0,0,1,.75.27,1,1,0,0,0,.7.37,2.13,2.13,0,0,0,.89-.29,1.18,1.18,0,0,0,.57-1.05c0-.46-1.7-1.59-2.88-1.59a20.71,20.71,0,0,0-4,.43,24.77,24.77,0,0,1-3.88.41A12.63,12.63,0,0,1,22,8.22a.83.83,0,0,0-.62.29,2.4,2.4,0,0,0-.21,1.16.87.87,0,0,0,.13.59,2.52,2.52,0,0,0,2,.59ZM43.25,13c0,.25-.08.41-.4.92A10.43,10.43,0,0,1,42.26,15a23.06,23.06,0,0,1-3,3.26c-.35.32-.4.32-.46.32s-.08,0-.08-.08,0-.19.3-.75a13.89,13.89,0,0,1,3-4c.62-.62,1-.84,1.13-.84s.13,0,.13.16Zm20.7.7s.06,0,.08.09a.54.54,0,0,0,.22.26c.11.09.11.46.11.76,0,2.61-1.49,4.76-2.94,6.94-.32.49-.51.57-.67.57s-.35-.35-.43-.57a2.51,2.51,0,0,1-.14-.78c0-2.1,2-5.22,3.31-6.94.22-.3.38-.33.46-.33ZM2.64,7.91A2.12,2.12,0,0,0,.51,10V22.78A2.12,2.12,0,0,0,2.64,24.9H15.38a2.13,2.13,0,0,0,2.13-2.12V10a2.13,2.13,0,0,0-2.13-2.12Zm8.49,2.21a1,1,0,0,0-1,1v5.43a1,1,0,0,0,1,1h3.15a1,1,0,0,0,1-1V11.14a1,1,0,0,0-1-1Zm-7.39,0a1,1,0,0,0-1,1v9.68a1,1,0,0,0,1,1H6.88a1,1,0,0,0,1-1V11.14a1,1,0,0,0-1-1Z"/></svg>