<svg id="Calque_1" data-name="Calque 1" xmlns="http://www.w3.org/2000/svg" viewBox="0 0 72 30"><defs><style>.cls-1{fill:#606060;}.cls-2{fill:#c5c5c5;}.cls-3{fill:#ababab;}.cls-4{fill:#4d4d4d;}.cls-5{fill:#373737;}.cls-6{fill:#fefefe;}.cls-7{fill:gray;}.cls-8{fill:#ccc;}</style></defs><path class="cls-1" d="M36,.8,21.82,15,36,29.2,50.18,15,36,.8"/><path class="cls-2" d="M36,2.11V.91L21.92,15h1.21L36,2.11"/><path class="cls-3" d="M36,2.11V.91L50.19,15H48.88L36,2.11"/><path class="cls-4" d="M36,27.9v1.32L21.92,15h1.21L36,27.9"/><path class="cls-5" d="M36,27.9v1.32L50.19,15H48.88L36,27.9"/><path d="M28.94,26.52H26.2l-1.06-1V5.6h-.85l-.73-.73V2.65l.75-.82h9.57l.86.86V4.8L34,5.67H33.3v6.72l6.81-6.72h-.38l-.79-.85V2.58l.77-.71h9.66l.77.76V4.75L28.94,26.52"/><path d="M36,29.41,21.6,15,36,.59,50.4,15ZM22.05,15,36,29,50,15,36,1Z"/><path class="cls-6" d="M33.76,3.14l.42-.27-.43-.45h-9.2l-.47.47V4.66l.52.52.24-.52-.32-.33V3.08l.24-.21h8.69l.31.26"/><path class="cls-6" d="M26.27,4.62V25.35l.29.27-.23.45-.62-.61V5.15l.56-.53"/><path class="cls-7" d="M24.78,4.62l-.18.56h1.11l.64-.56H24.78"/><path class="cls-6" d="M40.33,4.62l-.39-.27V3.23l.41-.4h8.49l.32.43.46-.36-.47-.44H40l-.46.46V4.7l.48.43m-7.38,8.59-.89,2.15,10-10,0-1.21-9.07,9.11"/><path class="cls-7" d="M33.74,3.13l.44-.26V4.62l-.5.5h-1l0,8.6-.88,2.14V4.62h1.65l.3-.25V3.13m15.39,0,.49-.24V4.49l-21,21.58H26.33l.22-.43h1.76L49.13,4.11v-1M41.74,4.61l-.51.51H40.05l.29-.51h1.4"/><path class="cls-8" d="M40.27,2.81,40,3.14V4.33l.28.29h1.5V5.77l-9.94,10.1V4.63h1.65l.34-.34V3.08l-.32-.24h-8.7l-.28.28V4.36l.29.29h1.51V25.34l.29.29h1.72L49.14,4.09V3.14l-.33-.33H40.27"/><path class="cls-7" d="M28.3,25.66H26.56l-.31-.31V4.68H24.76l-.31-.31V3.11l.3-.3h8.72l.34.26V4.3l-.36.36H31.81V15.8l9.9-10V4.64H40.22l-.3-.3V3.12l.34-.34h8.56l.34.34v1h0Zm-1.72-.06h1.7L49.11,4.08V3.15l-.31-.31H40.28L40,3.15V4.32l.27.27h1.52V5.78h0l-10,10.15V4.6h1.67l.32-.32V3.1l-.29-.23H24.78l-.27.27V4.35l.27.27h1.53V25.33l.27.27Z"/><path class="cls-8" d="M36.74,16.76a.05.05,0,0,0,0,0l-.41.35a.05.05,0,0,0,0,0l-.41,1.13a.12.12,0,0,0,0,.1l.31.31.07,0H37.5l.07,0,.33-.33a.08.08,0,0,0,0,0l.35-1.19a.1.1,0,0,0,0-.1L38,16.79a.07.07,0,0,0-.06,0H36.74ZM34.46,20a.07.07,0,0,0-.07.07l-.16.61a.09.09,0,0,0,.07.11h.75l-1.81,5.19a.09.09,0,0,0,.06.12H36a.09.09,0,0,0,.09-.06l.17-.56a.09.09,0,0,0-.06-.12h-.62l1.79-5.25a.09.09,0,0,0-.06-.12H34.46Zm8.41,0a.05.05,0,0,0,0,0l-.55.62h-.88L40.81,20l-.07,0H38.66a.09.09,0,0,0-.09.06l-.19.57a.1.1,0,0,0,0,.12H39l-1.74,5.13a.1.1,0,0,0,.06.12h2.25a.1.1,0,0,0,.09-.06l.17-.51a.08.08,0,0,0-.06-.11h-.41l1.11-3.5h2l-1.27,4.07a.08.08,0,0,0,.06.11h2.18a.1.1,0,0,0,.08-.06l.19-.46a.09.09,0,0,0-.05-.12h-.42L44.4,21.8h1.91L45,25.89a.09.09,0,0,0,.07.11h2.38a.1.1,0,0,0,.09-.06l.19-.5a.09.09,0,0,0,0-.12h-.5l1.42-4.62a.1.1,0,0,0,0-.09L48.16,20s0,0-.07,0H46.4s0,0-.07,0l-.53.59h-.93l-.55-.6a.09.09,0,0,0-.07,0H42.87Z"/><path d="M36,18.86a.3.3,0,0,0,.21.09H37.5a.35.35,0,0,0,.23-.09l.32-.33a.22.22,0,0,0,.08-.13l.35-1.19a.32.32,0,0,0-.08-.31l-.27-.27a.31.31,0,0,0-.22-.09H36.69l-.14.07-.4.35h0a.41.41,0,0,0-.08.13l-.4,1.12a.31.31,0,0,0,.07.33l.31.31ZM37.86,17l.17.18-.31,1.09-.27.26H36.31l-.21-.21.36-1L36.8,17Zm10.92,3.5-.44-.59h0a.33.33,0,0,0-.26-.11H46.4a.29.29,0,0,0-.23.09l-.47.52H45l-.49-.53h0a.32.32,0,0,0-.23-.09H42.83a.32.32,0,0,0-.17.1l-.49.55h-.68L41,19.86a.32.32,0,0,0-.23-.09H38.65a.31.31,0,0,0-.29.2l-.19.58a.31.31,0,0,0,.2.4l.09,0h.26l-1.65,4.84a.32.32,0,0,0,.2.4l.1,0H39.6a.31.31,0,0,0,.29-.21l.17-.51a.3.3,0,0,0-.2-.39l-.09,0h-.09l1-3.06H42.2L41,25.82a.31.31,0,0,0,.21.39l.09,0h2.15a.3.3,0,0,0,.28-.2l.2-.46a.33.33,0,0,0-.18-.41l-.11,0h-.09l1-3.12H46l-1.2,3.8a.32.32,0,0,0,.21.39l.09,0h2.36a.33.33,0,0,0,.3-.2l.19-.51a.32.32,0,0,0-.19-.4l-.11,0h-.17l1.34-4.33a.34.34,0,0,0,0-.29ZM46.9,25.54h.58l-.09.25h-2.1l1.32-4.21H44.24l-1.27,4h.5l-.09.21H41.49l1.3-4.19H40.33l-1.25,3.94h.51l-.09.25h-2l1.78-5.26h-.69l.11-.32h1.94l.61.63h1.07l.58-.65H44.2l.57.63H45.9l.55-.61H48l.36.49L46.9,25.54Zm-10.66-.43h-.39l1.7-5a.31.31,0,0,0-.2-.4H34.41a.33.33,0,0,0-.24.23l-.15.62a.32.32,0,0,0,.23.38h.49L33,25.87a.31.31,0,0,0,.2.4H36a.3.3,0,0,0,.3-.22l.17-.55a.33.33,0,0,0-.2-.4Zm-2.74.73,1.86-5.31h-.88l.09-.36h2.51l-1.84,5.37H36l-.09.3Z"/></svg>