<svg id="Calque_1" data-name="Calque 1" xmlns="http://www.w3.org/2000/svg" viewBox="0 0 72 30"><defs><style>.cls-1{fill:#575757;}</style></defs><path class="cls-1" d="M8.73,23.8H8.18L6.53,28.26a.9.9,0,0,0-.09.28l-.06.25a1.31,1.31,0,0,1-.06-.27l-.07-.24L4.66,23.82H4.09l2,5.57h.5Zm1.2.54a.28.28,0,0,0,.11-.08.21.21,0,0,0,.08-.11.33.33,0,0,0,0-.14.32.32,0,0,0,0-.14.26.26,0,0,0-.07-.11.42.42,0,0,0-.12-.08H9.76a.36.36,0,0,0-.25.11.31.31,0,0,0-.1.24.36.36,0,0,0,.08.27.39.39,0,0,0,.25.1A.33.33,0,0,0,9.93,24.34Zm.1,5.05v-4H9.49v4Zm1-.17a2,2,0,0,0,1,.25,2.2,2.2,0,0,0,.58-.07,1.5,1.5,0,0,0,.46-.22,1,1,0,0,0,.31-.36.88.88,0,0,0,.11-.47,1.23,1.23,0,0,0-.06-.39,1,1,0,0,0-.21-.3,1.48,1.48,0,0,0-.35-.25l-.49-.23A2.81,2.81,0,0,1,12,27a1.67,1.67,0,0,1-.26-.17,1,1,0,0,1-.15-.2.75.75,0,0,1-.05-.26.9.9,0,0,1,.07-.27,1,1,0,0,1,.16-.2.68.68,0,0,1,.27-.13,1,1,0,0,1,.34-.05,1.72,1.72,0,0,1,1,.29v-.53a2,2,0,0,0-.9-.19,2,2,0,0,0-.54.08,1.38,1.38,0,0,0-.44.21,1.19,1.19,0,0,0-.31.36.94.94,0,0,0-.12.47,1.19,1.19,0,0,0,.06.37,1.08,1.08,0,0,0,.19.31,2,2,0,0,0,.33.25,2.65,2.65,0,0,0,.48.23l.37.17a.87.87,0,0,1,.27.14.91.91,0,0,1,.18.21.58.58,0,0,1,.06.26c0,.44-.29.67-.89.67h-.26a1.38,1.38,0,0,1-.29-.08,1.75,1.75,0,0,1-.52-.28Zm6.57.17v-4h-.49v2.27a1.5,1.5,0,0,1-.32,1,1.13,1.13,0,0,1-.37.28,1.1,1.1,0,0,1-.47.1.92.92,0,0,1-.78-.35A1.75,1.75,0,0,1,15,27.65V25.4h-.5v2.35c0,1.15.48,1.73,1.43,1.73a1.32,1.32,0,0,0,1.23-.77v.68Zm4.11.06v-2.6a1.6,1.6,0,0,0-.34-1.11,1.3,1.3,0,0,0-1-.37,2.16,2.16,0,0,0-.36,0,2,2,0,0,0-.35.09,2,2,0,0,0-.34.12,1.56,1.56,0,0,0-.28.16v.55a1.93,1.93,0,0,1,1.29-.52c.59,0,.89.39.89,1.15L20,27.1a1.75,1.75,0,0,0-1,.42,1.15,1.15,0,0,0-.34.86,1.25,1.25,0,0,0,.09.46,1,1,0,0,0,.26.36,1.14,1.14,0,0,0,.38.23,1.57,1.57,0,0,0,.52.08,1.4,1.4,0,0,0,.77-.21,1.49,1.49,0,0,0,.53-.61v.7Zm-.54-2.14v.39a1.7,1.7,0,0,1-.09.54,1.43,1.43,0,0,1-.25.43,1.39,1.39,0,0,1-.39.28,1.16,1.16,0,0,1-.49.1,1,1,0,0,1-.34-.06.69.69,0,0,1-.43-.39.71.71,0,0,1-.05-.29.74.74,0,0,1,.06-.36.64.64,0,0,1,.18-.25.89.89,0,0,1,.31-.15,2.52,2.52,0,0,1,.46-.1Zm2.19,2.08v-5.9h-.5v5.9Zm3.37-.23.28.13.36.09a2.2,2.2,0,0,0,.37.06h.31a3.06,3.06,0,0,0,.74-.09,1.73,1.73,0,0,0,.58-.28,1.3,1.3,0,0,0,.38-.46,1.44,1.44,0,0,0,.14-.62,1.27,1.27,0,0,0-.09-.47,1.1,1.1,0,0,0-.26-.41,1.91,1.91,0,0,0-.43-.37,5.63,5.63,0,0,0-.62-.37L28,26.06a1.9,1.9,0,0,1-.37-.28.86.86,0,0,1-.21-.29,1.21,1.21,0,0,1-.06-.38.9.9,0,0,1,.09-.4,1,1,0,0,1,.26-.29,1.38,1.38,0,0,1,.39-.18,1.84,1.84,0,0,1,.47-.06,2.25,2.25,0,0,1,1.16.29v-.58a3,3,0,0,0-1.1-.18,2.62,2.62,0,0,0-.74.06,2.55,2.55,0,0,0-.57.29,1.57,1.57,0,0,0-.39.46,1.23,1.23,0,0,0-.14.62,1.16,1.16,0,0,0,.08.48,1.18,1.18,0,0,0,.23.39,2.86,2.86,0,0,0,.42.36l.61.37.56.32a2.14,2.14,0,0,1,.39.28,1.18,1.18,0,0,1,.24.31.89.89,0,0,1,.06.39.84.84,0,0,1-.31.71,1.57,1.57,0,0,1-1,.24,1.93,1.93,0,0,1-.34,0l-.36-.09L27,28.76a2,2,0,0,1-.31-.19Zm5.65-.23a.89.89,0,0,1-.45.15.55.55,0,0,1-.44-.18,1,1,0,0,1-.13-.62V25.84h1v-.43h-1V24.23l-.5.17v1h-.7v.43h.7v2.52c0,.74.32,1.11,1,1.11a1.24,1.24,0,0,0,.56-.13Zm4,.46v-4h-.49v2.27a1.71,1.71,0,0,1-.09.55,1.26,1.26,0,0,1-.24.44,1,1,0,0,1-.36.28,1.1,1.1,0,0,1-.47.1.9.9,0,0,1-.78-.35,1.83,1.83,0,0,1-.26-1.05V25.4h-.49v2.35c0,1.15.48,1.73,1.42,1.73a1.33,1.33,0,0,0,1.24-.77v.68Zm4.56,0V23.5h-.49V26a1.32,1.32,0,0,0-1.24-.69,1.78,1.78,0,0,0-.75.16,1.54,1.54,0,0,0-.57.44,2.06,2.06,0,0,0-.39.73,2.89,2.89,0,0,0-.13.88,2.62,2.62,0,0,0,.13.83,1.76,1.76,0,0,0,.33.62,1.29,1.29,0,0,0,.53.39,1.56,1.56,0,0,0,.67.15,1.77,1.77,0,0,0,.84-.21,1.51,1.51,0,0,0,.57-.58v.7Zm-.5-1.75a1.71,1.71,0,0,1-.09.55,1.27,1.27,0,0,1-.67.75,1.46,1.46,0,0,1-.55.11,1.16,1.16,0,0,1-.9-.43,1.37,1.37,0,0,1-.26-.51,2.52,2.52,0,0,1-.09-.67,2.45,2.45,0,0,1,.11-.71,1.55,1.55,0,0,1,.28-.54,1.26,1.26,0,0,1,.42-.34,1.46,1.46,0,0,1,.55-.11,1.26,1.26,0,0,1,.87.36,1.24,1.24,0,0,1,.25.39,1.61,1.61,0,0,1,.08.48Zm2.16-3.31a.36.36,0,0,0,.19-.18.37.37,0,0,0,0-.29.28.28,0,0,0-.08-.11.26.26,0,0,0-.11-.07.33.33,0,0,0-.14,0,.35.35,0,0,0-.25.1.3.3,0,0,0-.1.25.32.32,0,0,0,.1.26.39.39,0,0,0,.25.1A.35.35,0,0,0,42.58,24.34Zm.11,5.05v-4h-.5v4Zm3.71-.07A1.66,1.66,0,0,0,47,28.9a2.21,2.21,0,0,0,.39-.66,3,3,0,0,0,0-1.73,1.93,1.93,0,0,0-.34-.63,1.72,1.72,0,0,0-.62-.41,2.33,2.33,0,0,0-.78-.14,2.28,2.28,0,0,0-.82.14,1.77,1.77,0,0,0-.62.43,1.92,1.92,0,0,0-.41.67,2.48,2.48,0,0,0-.14.89,2.38,2.38,0,0,0,.13.84,1.73,1.73,0,0,0,.38.62,1.66,1.66,0,0,0,.62.42,2.15,2.15,0,0,0,.8.15A2,2,0,0,0,46.4,29.32Zm.29-3.15a1.76,1.76,0,0,1,.36,1.23,2.13,2.13,0,0,1-.09.71,1.26,1.26,0,0,1-.27.51,1.24,1.24,0,0,1-.43.33,1.48,1.48,0,0,1-.62.11A1.43,1.43,0,0,1,45,29a1.35,1.35,0,0,1-.45-.33,1.66,1.66,0,0,1-.29-.52,2.13,2.13,0,0,1-.1-.67,2.44,2.44,0,0,1,.1-.71,1.62,1.62,0,0,1,.29-.53,1.45,1.45,0,0,1,.45-.33,1.48,1.48,0,0,1,.62-.11A1.23,1.23,0,0,1,46.69,26.17Zm7.87,2.52a2.88,2.88,0,0,1-1.41.34,2.12,2.12,0,0,1-.93-.18,1.92,1.92,0,0,1-.66-.51,2.34,2.34,0,0,1-.41-.74,3.13,3.13,0,0,1-.13-.91,3.3,3.3,0,0,1,.15-1,2.55,2.55,0,0,1,.44-.79,2.14,2.14,0,0,1,.71-.52,2.25,2.25,0,0,1,1-.18,2.93,2.93,0,0,1,1.28.29V24a3.47,3.47,0,0,0-1.27-.22,2.7,2.7,0,0,0-1.16.23,2.51,2.51,0,0,0-.89.62,2.68,2.68,0,0,0-.56,1,3.4,3.4,0,0,0-.2,1.18,3.24,3.24,0,0,0,.19,1.11,2.53,2.53,0,0,0,.52.88,2.36,2.36,0,0,0,.82.58,2.64,2.64,0,0,0,1.07.2,3.41,3.41,0,0,0,1.48-.3Zm3.55.66a1.65,1.65,0,0,0,.62-.43,1.81,1.81,0,0,0,.38-.66,2.7,2.7,0,0,0,.14-.85,2.87,2.87,0,0,0-.13-.87,1.9,1.9,0,0,0-.38-.66,1.6,1.6,0,0,0-.61-.41,2.29,2.29,0,0,0-.78-.14,2.23,2.23,0,0,0-.81.14,1.69,1.69,0,0,0-.62.43,1.81,1.81,0,0,0-.42.67,2.72,2.72,0,0,0-.14.89,2.63,2.63,0,0,0,.13.84,2.07,2.07,0,0,0,.38.62,1.71,1.71,0,0,0,.62.42,2.13,2.13,0,0,0,.79.15A2.1,2.1,0,0,0,58.11,29.35Zm.21-3.19a1.85,1.85,0,0,1,.36,1.24,2.32,2.32,0,0,1-.09.7,1.28,1.28,0,0,1-.71.85,1.6,1.6,0,0,1-1.18,0,1.35,1.35,0,0,1-.45-.33A1.46,1.46,0,0,1,56,28.1a1.88,1.88,0,0,1-.1-.67,2.14,2.14,0,0,1,.1-.71,1.52,1.52,0,0,1,.29-.53,1.35,1.35,0,0,1,.45-.33,1.48,1.48,0,0,1,.62-.11A1.23,1.23,0,0,1,58.32,26.16Zm5.2,3.23v-5.9H63V26a1.29,1.29,0,0,0-1.24-.69,1.9,1.9,0,0,0-.75.15,1.82,1.82,0,0,0-.58.45,2.19,2.19,0,0,0-.37.69,2.89,2.89,0,0,0-.13.88,2.92,2.92,0,0,0,.12.83,1.94,1.94,0,0,0,.33.62,1.43,1.43,0,0,0,.53.39,1.73,1.73,0,0,0,1.52-.06,1.49,1.49,0,0,0,.56-.58v.71ZM63,27.65a1.71,1.71,0,0,1-.09.55,1.56,1.56,0,0,1-.26.45,1.6,1.6,0,0,1-.42.3,1.45,1.45,0,0,1-.54.11,1.31,1.31,0,0,1-.52-.11,1.34,1.34,0,0,1-.39-.32,1.75,1.75,0,0,1-.26-.51,2.51,2.51,0,0,1-.08-.67,2.2,2.2,0,0,1,.1-.72,1.43,1.43,0,0,1,.28-.53,1.17,1.17,0,0,1,.42-.34,1.29,1.29,0,0,1,1,0,1.1,1.1,0,0,1,.38.27,1.14,1.14,0,0,1,.25.39A1.32,1.32,0,0,1,63,27Zm4.89-.14v-.25a2.7,2.7,0,0,0-.1-.8,1.58,1.58,0,0,0-.31-.62,1.3,1.3,0,0,0-.49-.38,1.61,1.61,0,0,0-.68-.13,1.55,1.55,0,0,0-.73.15,1.89,1.89,0,0,0-.57.44,2.07,2.07,0,0,0-.38.66,2.51,2.51,0,0,0-.13.82,2.7,2.7,0,0,0,.12.89A1.94,1.94,0,0,0,65,29a1.32,1.32,0,0,0,.56.4,1.75,1.75,0,0,0,.72.15,2.33,2.33,0,0,0,1.38-.41v-.5a2,2,0,0,1-1.27.47,1.2,1.2,0,0,1-.56-.11,1.1,1.1,0,0,1-.43-.31,1.47,1.47,0,0,1-.27-.49,2.1,2.1,0,0,1-.09-.66Zm-2.86-.45a1.73,1.73,0,0,1,.15-.55,1.22,1.22,0,0,1,.27-.41,1.12,1.12,0,0,1,.38-.26,1.19,1.19,0,0,1,.47-.09.93.93,0,0,1,.78.34,1.53,1.53,0,0,1,.3,1ZM46.15,2.5V18.55l-5.07,2.11-15.2-5.12,15.2,2.26V.4ZM38.54,4.56v9l-2.78,1.18L31.1,10.16l-2.8,2.1-1.15-.38L30,9.06,27.15,6.24l1.15-.39L31.1,8l4.66-4.59Zm-6,4.5,3.21,2.41V6.65Z"/></svg>