<svg id="Calque_1" data-name="Calque 1" xmlns="http://www.w3.org/2000/svg" viewBox="0 0 72 30"><defs><style>.cls-1{fill:#fff;}</style></defs><path d="M11.41,10.62h2.12l1.87,6.09,2-6.12h1.7l2,6.12L23,10.62h2.07L22,19.68H20.26l-2-5.89-2,5.89H14.48Zm12.34,5.59v0a3.43,3.43,0,0,1,3.4-3.58c2.3,0,3.35,1.78,3.35,3.74,0,.15,0,.33,0,.51H25.69a1.59,1.59,0,0,0,1.68,1.35A2.26,2.26,0,0,0,29,17.49l1.12,1a3.43,3.43,0,0,1-2.81,1.28A3.43,3.43,0,0,1,23.75,16.21Zm4.85-.58a1.48,1.48,0,0,0-1.45-1.47,1.53,1.53,0,0,0-1.49,1.47Zm4.18,3.08v.9h-2V10.23h2v3.49a2.5,2.5,0,0,1,2.14-1.12,3.24,3.24,0,0,1,3.14,3.56v0a3.23,3.23,0,0,1-3.14,3.56,2.61,2.61,0,0,1-2.14-1Zm3.32-2.53v0a1.69,1.69,0,1,0-3.35,0v0a1.69,1.69,0,1,0,3.36,0Z"/><path d="M37.8,18.3,39,16.9A4.12,4.12,0,0,0,41.65,18c.81,0,1.3-.32,1.3-.84v0c0-.5-.31-.76-1.81-1.14-1.81-.47-3-1-3-2.75v0c0-1.63,1.31-2.71,3.15-2.71a5.23,5.23,0,0,1,3.34,1.14l-1,1.49a4.24,4.24,0,0,0-2.34-.88c-.76,0-1.15.34-1.15.78v0c0,.59.38.78,1.94,1.18,1.82.48,2.85,1.13,2.85,2.7v0c0,1.79-1.36,2.79-3.3,2.79A5.71,5.71,0,0,1,37.8,18.3Z"/><path d="M45.41,17.66V14.4h-.83V12.73h.83V11h2v1.76H49V14.4H47.36v2.94c0,.45.19.67.63.67a2.05,2.05,0,0,0,1-.25v1.57a2.88,2.88,0,0,1-1.54.4C46.22,19.73,45.41,19.26,45.41,17.66Z"/><path d="M48.85,16.21v0a3.61,3.61,0,0,1,3.74-3.58,3.57,3.57,0,0,1,3.71,3.56v0a3.62,3.62,0,0,1-3.74,3.59,3.57,3.57,0,0,1-3.71-3.56Zm5.52,0v0a1.83,1.83,0,0,0-1.81-1.9,1.76,1.76,0,0,0-1.78,1.88v0a1.82,1.82,0,0,0,1.81,1.9A1.76,1.76,0,0,0,54.37,16.21Zm2.19-3.48h1.95v1.38A2.12,2.12,0,0,1,60.7,12.6v2h-.1c-1.3,0-2.09.78-2.09,2.42v2.55H56.56V12.73Zm4.4,0h1.95v1a2.45,2.45,0,0,1,2-1.1,2,2,0,0,1,1.94,1.09,2.85,2.85,0,0,1,2.27-1.09c1.45,0,2.32.87,2.32,2.53v4.48h-2V15.77c0-.92-.41-1.4-1.14-1.4s-1.18.48-1.18,1.4v3.84h-2V15.77c0-.92-.42-1.4-1.15-1.4s-1.18.48-1.18,1.4v3.84H61V12.73Z"/><path d="M.53,10.7h9v9h-9Z"/><path class="cls-1" d="M4.09,13.74l.29-.35a1,1,0,0,0,.66.27c.2,0,.32-.08.32-.21h0c0-.12-.08-.19-.45-.28s-.73-.24-.73-.69h0A.69.69,0,0,1,5,11.78a1.28,1.28,0,0,1,.82.29l-.25.37A1,1,0,0,0,5,12.22c-.19,0-.29.09-.29.2h0c0,.15.1.2.48.29s.7.29.7.68h0c0,.45-.33.7-.81.7a1.41,1.41,0,0,1-.94-.36m-.44-1.92-.33,1.31-.38-1.31H2.56l-.39,1.31-.33-1.31H1.32L2,14.07h.42l.37-1.3.36,1.3h.43l.64-2.25ZM1.37,18H4.74v.57H1.37Z"/></svg>